<?xml version="1.0" encoding="utf-8"?>
<!-- Generator: Adobe Illustrator 16.0.0, SVG Export Plug-In . SVG Version: 6.00 Build 0)  -->
<!DOCTYPE svg PUBLIC "-//W3C//DTD SVG 1.1//EN" "http://www.w3.org/Graphics/SVG/1.1/DTD/svg11.dtd">
<svg version="1.1" xmlns="http://www.w3.org/2000/svg" xmlns:xlink="http://www.w3.org/1999/xlink" x="0px" y="0px" width="108px"
	 height="108px" viewBox="0 0 108 108" enable-background="new 0 0 108 108" xml:space="preserve">
<g id="Layer_1">
	<g id="Layer_2">
		<g>
			<circle fill="#ACD000" cx="54.053" cy="54.909" r="49.148"/>
		</g>
	</g>
</g>
<g id="Layer_2_1_">
	<rect id="XMLID_1670_" x="11" y="72.054" fill="#2B2B2B" width="85.804" height="3.17"/>
	<g id="XMLID_1616_">
		<g id="XMLID_1615_">
			<rect id="XMLID_1440_" x="15.191" y="49.313" fill="#424242" width="77.466" height="20.057"/>
			<rect id="XMLID_1444_" x="14.179" y="69.37" fill="#D3BBAE" width="79.491" height="3.128"/>
			<polygon id="XMLID_1445_" fill="#2B2B2B" points="93.67,49.313 14.179,49.313 14.952,44.345 92.895,44.345 			"/>
			<g id="XMLID_1613_">
				<polygon id="XMLID_1450_" fill="#999999" points="54.077,27.787 41.814,42.38 41.814,72.498 66.033,72.498 66.033,42.38 				"/>
				<g id="XMLID_1457_">
					<polygon id="XMLID_1582_" fill="#2B2B2B" points="41.62,43.323 39.679,41.438 54.085,26.607 68.169,41.449 66.206,43.311 
						54.062,30.513 					"/>
				</g>
				<g id="XMLID_1581_">
					<rect id="XMLID_1460_" x="44.358" y="44.979" fill="#727272" width="3.09" height="7.249"/>
					<rect id="XMLID_1462_" x="49.705" y="44.979" fill="#727272" width="3.09" height="7.249"/>
					<rect id="XMLID_1464_" x="55.054" y="44.979" fill="#727272" width="3.089" height="7.249"/>
					<rect id="XMLID_1466_" x="60.398" y="44.979" fill="#727272" width="3.09" height="7.249"/>
				</g>
				<g id="XMLID_1583_">
					<g id="XMLID_1448_">
						<rect id="XMLID_1446_" x="41.173" y="57.215" fill="#F1D5C3" width="25.694" height="2.125"/>
						<rect id="XMLID_1447_" x="41.805" y="59.34" fill="#BAA49B" width="3.875" height="0.709"/>
						<rect id="XMLID_1452_" x="41.805" y="68.555" fill="#F1D5C3" width="3.875" height="3.943"/>
						<rect id="XMLID_1454_" x="62.149" y="59.34" fill="#BAA49B" width="3.874" height="0.709"/>
						<rect id="XMLID_1453_" x="62.149" y="68.555" fill="#F1D5C3" width="3.874" height="3.943"/>
					</g>
					<rect id="XMLID_1455_" x="41.805" y="60.049" fill="#727272" width="3.875" height="8.506"/>
					<rect id="XMLID_1461_" x="62.149" y="60.049" fill="#727272" width="3.874" height="8.506"/>
				</g>
				<rect id="XMLID_1459_" x="50.609" y="63.136" fill="#727272" width="6.628" height="9.362"/>
				<g id="XMLID_1579_">
					<g id="XMLID_1467_">
						<circle id="XMLID_1584_" fill="#FBFDFF" cx="53.924" cy="39.305" r="2.742"/>
					</g>
					<g id="XMLID_1469_">
						<polygon id="XMLID_1580_" fill="#2B2B2B" points="54.435,40.089 53.73,39.385 53.73,37.903 54.118,37.903 54.118,39.224 
							54.707,39.815 						"/>
					</g>
				</g>
			</g>
			<g id="XMLID_1480_">
				<g id="XMLID_1474_">
					<g id="XMLID_1470_">
						<rect id="XMLID_1468_" x="18.978" y="52.228" fill="#2B2B2B" width="2.753" height="4.926"/>
						<rect id="XMLID_1471_" x="23.513" y="52.228" fill="#2B2B2B" width="2.754" height="4.926"/>
						<rect id="XMLID_1473_" x="18.978" y="60.354" fill="#2B2B2B" width="2.753" height="4.926"/>
						<rect id="XMLID_1472_" x="23.513" y="60.354" fill="#2B2B2B" width="2.754" height="4.926"/>
					</g>
					<g id="XMLID_1475_">
						<rect id="XMLID_1479_" x="29.668" y="52.228" fill="#2B2B2B" width="2.753" height="4.926"/>
						<rect id="XMLID_1478_" x="34.204" y="52.228" fill="#2B2B2B" width="2.752" height="4.926"/>
						<rect id="XMLID_1477_" x="29.668" y="60.354" fill="#2B2B2B" width="2.753" height="4.926"/>
						<rect id="XMLID_1476_" x="34.204" y="60.354" fill="#2B2B2B" width="2.752" height="4.926"/>
					</g>
				</g>
				<g id="XMLID_1481_">
					<g id="XMLID_1487_">
						<rect id="XMLID_1578_" x="70.89" y="52.228" fill="#2B2B2B" width="2.754" height="4.926"/>
						<rect id="XMLID_1561_" x="75.424" y="52.228" fill="#2B2B2B" width="2.755" height="4.926"/>
						<rect id="XMLID_1489_" x="70.89" y="60.354" fill="#2B2B2B" width="2.754" height="4.926"/>
						<rect id="XMLID_1488_" x="75.424" y="60.354" fill="#2B2B2B" width="2.755" height="4.926"/>
					</g>
					<g id="XMLID_1482_">
						<rect id="XMLID_1486_" x="81.58" y="52.228" fill="#2B2B2B" width="2.755" height="4.926"/>
						<rect id="XMLID_1485_" x="86.115" y="52.228" fill="#2B2B2B" width="2.754" height="4.926"/>
						<rect id="XMLID_1484_" x="81.58" y="60.354" fill="#2B2B2B" width="2.755" height="4.926"/>
						<rect id="XMLID_1483_" x="86.115" y="60.354" fill="#2B2B2B" width="2.754" height="4.926"/>
					</g>
				</g>
			</g>
			<rect id="XMLID_1614_" x="44.358" y="53.352" fill="#636363" width="19.13" height="1.339"/>
		</g>
		<polygon id="XMLID_1669_" opacity="0.5" fill="#515151" points="65.929,72.498 93.67,72.498 93.67,69.37 92.657,69.37 
			92.657,49.313 93.67,49.313 92.895,44.345 66.033,44.345 66.033,43.128 66.206,43.311 68.169,41.449 54.085,26.607 53.924,26.773 
			53.924,72.498 62.053,72.498 		"/>
	</g>
</g>
</svg>
