<?xml version="1.0" encoding="utf-8"?>
<!-- Generator: Adobe Illustrator 16.0.0, SVG Export Plug-In . SVG Version: 6.00 Build 0)  -->
<!DOCTYPE svg PUBLIC "-//W3C//DTD SVG 1.1//EN" "http://www.w3.org/Graphics/SVG/1.1/DTD/svg11.dtd">
<svg version="1.1" xmlns="http://www.w3.org/2000/svg" xmlns:xlink="http://www.w3.org/1999/xlink" x="0px" y="0px" width="108px"
	 height="108px" viewBox="0 0 108 108" enable-background="new 0 0 108 108" xml:space="preserve">
<g id="Layer_1">
	<g id="Layer_2">
		<g>
			<circle fill="#D8BD8D" cx="54.053" cy="54.909" r="49.148"/>
		</g>
	</g>
</g>
<g id="Layer_2_1_">
	<g>
		<path fill="#72B046" d="M83.332,83.501c7.509,0,10.689-3.181,9.418-10.943c-2.673-18.959-13.361-30.03-13.361-30.03
			s-10.689,11.071-13.361,30.03c-1.271,7.763,1.908,10.943,9.416,10.943H83.332z"/>
		<polygon fill="#BF724C" points="84.162,70.774 80.064,74.874 80.064,57.939 85.062,52.94 84.162,52.041 80.064,56.14 
			80.064,49.582 78.713,49.582 78.713,65.506 74.613,61.408 73.715,62.308 78.713,67.306 78.713,92.122 80.064,92.122 
			80.064,76.673 85.062,71.675 		"/>
	</g>
	<g>
		<path fill="#72B046" d="M34.261,83.501c7.508,0,10.689-3.181,9.417-10.943c-2.672-18.959-13.361-30.03-13.361-30.03
			s-10.688,11.071-13.361,30.03c-1.272,7.763,1.908,10.943,9.416,10.943H34.261z"/>
		<polygon fill="#BF724C" points="35.091,70.774 30.993,74.874 30.993,57.939 35.991,52.94 35.091,52.041 30.993,56.14 
			30.993,49.582 29.642,49.582 29.642,65.506 25.542,61.408 24.643,62.308 29.642,67.306 29.642,92.122 30.993,92.122 
			30.993,76.673 35.991,71.675 		"/>
	</g>
	<g>
		<rect x="37.022" y="18.7" fill="#309EF2" width="35.369" height="73.422"/>
		<rect x="49.596" y="77.95" fill="#2B8DD9" width="10.221" height="14.172"/>
		<rect x="41.772" y="61.677" fill="#8CD9FF" width="25.868" height="5.677"/>
		<rect x="54.083" y="61.677" fill="#999999" width="1.247" height="5.677"/>
		<rect x="47.406" y="61.677" fill="#999999" width="1.246" height="5.677"/>
		<rect x="60.761" y="61.677" fill="#999999" width="1.246" height="5.677"/>
		<rect x="41.772" y="49.836" fill="#8CD9FF" width="25.868" height="5.676"/>
		<rect x="54.083" y="49.836" fill="#999999" width="1.247" height="5.676"/>
		<rect x="47.406" y="49.836" fill="#999999" width="1.246" height="5.676"/>
		<rect x="60.761" y="49.836" fill="#999999" width="1.246" height="5.676"/>
		<rect x="41.772" y="37.994" fill="#8CD9FF" width="25.868" height="5.675"/>
		<rect x="54.083" y="37.994" fill="#999999" width="1.247" height="5.675"/>
		<rect x="47.406" y="37.994" fill="#999999" width="1.246" height="5.675"/>
		<rect x="60.761" y="37.994" fill="#999999" width="1.246" height="5.675"/>
		<rect x="41.772" y="26.152" fill="#8CD9FF" width="25.868" height="5.675"/>
		<rect x="54.083" y="26.152" fill="#999999" width="1.247" height="5.675"/>
		<rect x="47.406" y="26.152" fill="#999999" width="1.246" height="5.675"/>
		<rect x="60.761" y="26.152" fill="#999999" width="1.246" height="5.675"/>
	</g>
</g>
</svg>
