<?xml version="1.0" encoding="utf-8"?>
<!-- Generator: Adobe Illustrator 16.0.0, SVG Export Plug-In . SVG Version: 6.00 Build 0)  -->
<!DOCTYPE svg PUBLIC "-//W3C//DTD SVG 1.1//EN" "http://www.w3.org/Graphics/SVG/1.1/DTD/svg11.dtd">
<svg version="1.1" xmlns="http://www.w3.org/2000/svg" xmlns:xlink="http://www.w3.org/1999/xlink" x="0px" y="0px" width="108px"
	 height="108px" viewBox="0 0 108 108" enable-background="new 0 0 108 108" xml:space="preserve">
<g id="Layer_1">
	<g id="Layer_2">
		<g>
			<circle fill="#A41E00" cx="54.053" cy="54.909" r="49.148"/>
		</g>
	</g>
</g>
<g id="Layer_2_1_">
	<g id="XMLID_221_">
		<g id="XMLID_1016_">
			<rect id="XMLID_1017_" x="37.537" y="35.121" fill="#2C3C6E" width="1.781" height="5.181"/>
			<polygon id="XMLID_187_" fill="#3C75C5" points="53.201,26.893 53.201,25.129 35.221,25.129 35.221,35.121 37.537,35.121 
				39.317,35.121 53.201,35.121 53.201,33.357 39.317,33.357 37.537,33.357 36.985,33.357 36.985,26.893 			"/>
			<rect id="XMLID_190_" x="36.985" y="26.893" fill="#2C3C6E" width="16.216" height="6.464"/>
			<rect id="XMLID_1234_" x="37.537" y="33.255" fill="#2C3C6E" width="1.781" height="0.102"/>
			<rect id="XMLID_1265_" x="66.764" y="35.121" fill="#2C3C6E" width="1.781" height="5.181"/>
			<rect id="XMLID_1267_" x="53.201" y="33.357" fill="#3C75C5" width="13.563" height="1.764"/>
			<polygon id="XMLID_1269_" fill="#3C75C5" points="69.097,26.893 69.097,33.357 68.545,33.357 68.545,35.121 70.86,35.121 
				70.86,25.129 53.201,25.129 53.201,26.893 			"/>
			<rect id="XMLID_1271_" x="66.764" y="33.357" fill="#3C75C5" width="1.781" height="1.764"/>
			<polygon id="XMLID_1273_" fill="#2C3C6E" points="68.545,33.255 68.545,33.357 69.097,33.357 69.097,26.893 53.201,26.893 
				53.201,33.357 66.764,33.357 66.764,33.255 			"/>
			<rect id="XMLID_1364_" x="66.764" y="33.255" fill="#2C3C6E" width="1.781" height="0.102"/>
			<polygon id="XMLID_1009_" opacity="0.5" fill="#515151" points="53.201,25.129 53.201,26.893 53.201,33.357 53.201,35.121 
				66.764,35.121 66.764,40.302 68.545,40.302 68.545,35.121 70.86,35.121 70.86,25.129 			"/>
		</g>
		<g id="XMLID_185_">
			<path id="XMLID_198_" fill="#F55656" d="M21.831,50.586h-0.937v4.23c0,0.884,0.358,1.684,0.937,2.265
				c0.58,0.58,1.381,0.938,2.267,0.938h0.086c1.77,0,3.204-1.434,3.204-3.203v-4.23H21.831z"/>
			<path id="XMLID_1187_" fill="#F5F5F5" d="M27.387,50.586v4.23c0,1.77,1.435,3.203,3.203,3.203h0.087
				c1.769,0,3.204-1.434,3.204-3.203v-4.23H27.387z"/>
			<path id="XMLID_1188_" fill="#F55656" d="M33.88,50.586v4.23c0,1.77,1.434,3.203,3.203,3.203h0.087
				c1.77,0,3.204-1.434,3.204-3.203v-4.23H33.88z"/>
			<path id="XMLID_1189_" fill="#F5F5F5" d="M40.374,50.586v4.23c0,1.77,1.435,3.203,3.203,3.203h0.087
				c1.769,0,3.204-1.434,3.204-3.203v-4.23H40.374z"/>
			<path id="XMLID_1190_" fill="#F55656" d="M46.867,50.586v4.23c0,1.77,1.434,3.203,3.203,3.203h0.087
				c1.77,0,3.203-1.434,3.203-3.203v-4.23H46.867z"/>
			<rect id="XMLID_1197_" x="41.007" y="64.708" fill="#D5D8E2" width="12.034" height="14.238"/>
			<rect id="XMLID_1202_" x="27.917" y="63.048" fill="#161E37" width="5.855" height="7.162"/>
			<polygon id="XMLID_197_" fill="#D5D8E2" points="33.772,70.21 27.917,70.21 27.216,70.21 27.216,70.928 34.474,70.928 
				34.474,70.21 			"/>
			<path id="XMLID_195_" fill="#2C3C6E" d="M82.623,58.02h-0.087c-1.769,0-3.204-1.434-3.204-3.203c0,1.77-1.433,3.203-3.202,3.203
				h-0.087c-1.769,0-3.204-1.434-3.204-3.203c0,1.77-1.434,3.203-3.203,3.203h-0.087c-1.768,0-3.202-1.434-3.202-3.203
				c0,1.77-1.435,3.203-3.204,3.203h-0.086c-1.77,0-3.203-1.434-3.203-3.203c0,1.77-1.435,3.203-3.204,3.203h-0.086
				c-1.77,0-3.204-1.434-3.204-3.203c0,1.77-1.435,3.203-3.203,3.203H50.07c-1.769,0-3.203-1.434-3.203-3.203
				c0,1.77-1.435,3.203-3.204,3.203h-0.087c-1.769,0-3.203-1.434-3.203-3.203c0,1.77-1.434,3.203-3.204,3.203h-0.087
				c-1.769,0-3.203-1.434-3.203-3.203c0,1.77-1.435,3.203-3.204,3.203H30.59c-1.769,0-3.203-1.434-3.203-3.203
				c0,1.77-1.434,3.203-3.204,3.203h-0.086c-0.886,0-1.687-0.358-2.267-0.938v21.865h19.177V64.708h-1.084v-1.832H53.36h13.437
				v1.832h-1.085v14.238h19.177V60.169v-1.141v-1.947C84.309,57.661,83.508,58.02,82.623,58.02z M34.474,70.928h-7.258V70.21h0.702
				v-7.162h5.855v7.162h0.702V70.928z M79.504,70.928h-7.259V70.21h0.703v-7.162h5.854v7.162h0.702V70.928z"/>
			<path id="XMLID_1213_" fill="#F5F5F5" d="M56.563,58.02h0.086c1.77,0,3.204-1.434,3.204-3.203v-4.23H53.36v4.23
				C53.36,56.586,54.794,58.02,56.563,58.02z"/>
			<path id="XMLID_1215_" fill="#F55656" d="M59.854,50.586v4.23c0,1.77,1.434,3.203,3.203,3.203h0.086
				c1.77,0,3.204-1.434,3.204-3.203v-4.23H59.854z"/>
			<path id="XMLID_1217_" fill="#F5F5F5" d="M66.347,50.586v4.23c0,1.77,1.435,3.203,3.202,3.203h0.087
				c1.77,0,3.203-1.434,3.203-3.203v-4.23H66.347z"/>
			<path id="XMLID_201_" fill="#F5F5F5" d="M84.889,50.586h-5.557v4.23c0,1.77,1.436,3.203,3.204,3.203h0.087
				c0.885,0,1.686-0.358,2.266-0.938c0.579-0.581,0.938-1.381,0.938-2.265v-4.23H84.889z"/>
			<path id="XMLID_1223_" fill="#F55656" d="M72.839,54.816c0,1.77,1.436,3.203,3.204,3.203h0.087c1.77,0,3.202-1.434,3.202-3.203
				v-4.23h-6.493V54.816z"/>
			<polygon id="XMLID_200_" fill="#212D53" points="53.36,47.7 19.599,47.7 19.599,50.586 20.894,50.586 21.831,50.586 
				27.387,50.586 33.88,50.586 40.374,50.586 46.867,50.586 53.36,50.586 59.854,50.586 66.347,50.586 72.839,50.586 79.332,50.586 
				84.889,50.586 85.826,50.586 87.121,50.586 87.121,47.7 			"/>
			<rect id="XMLID_1237_" x="53.679" y="64.708" fill="#D5D8E2" width="12.033" height="14.238"/>
			<polygon id="XMLID_192_" fill="#808AA8" points="53.36,62.876 39.923,62.876 39.923,64.708 41.007,64.708 53.041,64.708 
				53.36,64.708 53.679,64.708 65.712,64.708 66.797,64.708 66.797,62.876 			"/>
			<path id="XMLID_1243_" fill="#161E37" d="M91.227,60.169v1.984c0.157-0.03,0.319-0.05,0.487-0.05c0.167,0,0.328,0.02,0.487,0.05
				v-1.984h3.865v-1.141H84.889v1.141H91.227z"/>
			<path id="XMLID_1242_" opacity="0.5" fill="#515151" d="M91.227,60.169v1.984c0.157-0.03,0.319-0.05,0.487-0.05
				c0.167,0,0.328,0.02,0.487,0.05v-1.984h3.865v-1.141H84.889v1.141H91.227z"/>
			<path id="XMLID_1245_" fill="#D40100" d="M91.227,62.876v-0.723c-1.237,0.229-2.176,1.31-2.176,2.612
				c0,1.47,1.192,2.663,2.663,2.663s2.661-1.193,2.661-2.663c0-1.303-0.938-2.384-2.174-2.612v0.723H91.227z"/>
			<path id="XMLID_1247_" fill="#D40100" d="M91.227,62.153v0.723h0.975v-0.723c-0.159-0.03-0.32-0.05-0.487-0.05
				C91.546,62.104,91.384,62.123,91.227,62.153z"/>
			<path id="XMLID_203_" opacity="0.5" fill="#515151" d="M92.201,62.153c-0.159-0.03-0.32-0.05-0.487-0.05
				c-0.168,0-0.33,0.02-0.487,0.05c-1.237,0.229-2.176,1.31-2.176,2.612c0,1.47,1.192,2.663,2.663,2.663s2.661-1.193,2.661-2.663
				C94.375,63.463,93.438,62.382,92.201,62.153z"/>
			<polygon id="XMLID_199_" fill="#161E37" points="86.308,40.26 53.36,40.26 20.412,40.26 19.599,47.7 53.36,47.7 87.121,47.7 			
				"/>
			<polygon id="XMLID_191_" fill="#2C3C6E" points="53.36,64.708 53.041,64.708 53.041,78.946 53.36,78.946 53.679,78.946 
				53.679,64.708 			"/>
			<rect id="XMLID_1253_" x="72.948" y="63.048" fill="#161E37" width="5.854" height="7.162"/>
			<polygon id="XMLID_196_" fill="#D5D8E2" points="78.802,70.21 72.948,70.21 72.245,70.21 72.245,70.928 79.504,70.928 
				79.504,70.21 			"/>
		</g>
		<g id="XMLID_223_" opacity="0.5">
			<path id="XMLID_240_" fill="#515151" d="M65.712,78.946h19.177V60.169h6.338v1.984c-1.237,0.229-2.176,1.31-2.176,2.612
				c0,1.47,1.192,2.663,2.663,2.663s2.661-1.193,2.661-2.663c0-1.303-0.938-2.384-2.174-2.612v-1.984h3.865v-1.141H84.889v-1.947
				c0.579-0.581,0.938-1.381,0.938-2.265v-4.23h1.295V47.7l-0.813-7.44H53.36v38.687h0.319H65.712z"/>
		</g>
	</g>
	<rect id="XMLID_1670_" x="19.599" y="78.946" fill="#2B2B2B" width="70.878" height="3.17"/>
</g>
<g id="Layer_3">
	<circle fill="#7D0000" cx="91.713" cy="64.766" r="2.663"/>
</g>
</svg>
