<?xml version="1.0" encoding="utf-8"?>
<!-- Generator: Adobe Illustrator 16.0.0, SVG Export Plug-In . SVG Version: 6.00 Build 0)  -->
<!DOCTYPE svg PUBLIC "-//W3C//DTD SVG 1.1//EN" "http://www.w3.org/Graphics/SVG/1.1/DTD/svg11.dtd">
<svg version="1.1" xmlns="http://www.w3.org/2000/svg" xmlns:xlink="http://www.w3.org/1999/xlink" x="0px" y="0px" width="144px"
	 height="144px" viewBox="0 0 144 144" enable-background="new 0 0 144 144" xml:space="preserve">
<g id="Layer_1">
	<g>
		<g>
			<circle fill="#004860" cx="72.661" cy="72.008" r="49.148"/>
		</g>
	</g>
</g>
<g id="Layer_3" display="none">
	<g display="inline">
		<g>
			<path fill="#FFFFFF" d="M103.312,85.113c0,1.753-1.442,3.174-3.223,3.174H45.773c-1.78,0-3.223-1.421-3.223-3.174V57.155
				c0-1.753,1.442-3.175,3.223-3.175h54.316c1.78,0,3.223,1.421,3.223,3.175V85.113z"/>
			<polygon fill="#FFFFFF" points="72.591,83.579 58.936,102.414 58.936,82.233 			"/>
		</g>
		<g>
			<ellipse fill="#4296C9" cx="55.854" cy="71.844" rx="3.284" ry="3.236"/>
			<ellipse fill="#4296C9" cx="67.239" cy="71.844" rx="3.284" ry="3.236"/>
			<ellipse fill="#4296C9" cx="78.624" cy="71.844" rx="3.284" ry="3.236"/>
			<ellipse fill="#4296C9" cx="90.011" cy="71.844" rx="3.284" ry="3.236"/>
		</g>
	</g>
</g>
<g id="Layer_4">
	<g>
		<g>
			<path fill="#FFFFFF" d="M42.551,85.113c0,1.753,1.442,3.174,3.223,3.174h54.316c1.78,0,3.223-1.421,3.223-3.174V57.155
				c0-1.753-1.442-3.175-3.223-3.175H45.773c-1.78,0-3.223,1.421-3.223,3.175V85.113z"/>
			<polygon fill="#FFFFFF" points="73.272,83.579 86.928,102.414 86.928,82.233 			"/>
		</g>
		<g>
			<ellipse fill="#4296C9" cx="90.009" cy="71.844" rx="3.284" ry="3.236"/>
			<ellipse fill="#4296C9" cx="78.624" cy="71.844" rx="3.284" ry="3.236"/>
			<ellipse fill="#4296C9" cx="67.239" cy="71.844" rx="3.284" ry="3.236"/>
			<ellipse fill="#4296C9" cx="55.853" cy="71.844" rx="3.284" ry="3.236"/>
		</g>
	</g>
</g>
<g id="Layer_5" display="none">
</g>
</svg>
