<?xml version="1.0" encoding="utf-8"?>
<!-- Generator: Adobe Illustrator 16.0.0, SVG Export Plug-In . SVG Version: 6.00 Build 0)  -->
<!DOCTYPE svg PUBLIC "-//W3C//DTD SVG 1.1//EN" "http://www.w3.org/Graphics/SVG/1.1/DTD/svg11.dtd">
<svg version="1.1" id="Layer_1" xmlns="http://www.w3.org/2000/svg" xmlns:xlink="http://www.w3.org/1999/xlink" x="0px" y="0px"
	 width="108px" height="108px" viewBox="0 0 108 108" enable-background="new 0 0 108 108" xml:space="preserve">
<g id="Layer_2">
	<g>
		<circle fill="#004860" cx="54.053" cy="54.909" r="49.148"/>
	</g>
</g>
<g id="Layer_4">
	<g>
		<g>
			<path fill="#FFFFFF" d="M24.23,67.148c0,1.753,1.442,3.174,3.223,3.174H81.77c1.78,0,3.223-1.421,3.223-3.174V39.19
				c0-1.753-1.441-3.175-3.223-3.175H27.453c-1.78,0-3.223,1.421-3.223,3.175L24.23,67.148L24.23,67.148z"/>
			<polygon fill="#FFFFFF" points="54.951,65.614 68.607,84.449 68.607,64.268 			"/>
		</g>
		<g>
			<ellipse fill="#4296C9" cx="71.688" cy="53.879" rx="3.284" ry="3.236"/>
			<ellipse fill="#4296C9" cx="60.304" cy="53.879" rx="3.284" ry="3.236"/>
			<ellipse fill="#4296C9" cx="48.918" cy="53.879" rx="3.284" ry="3.236"/>
			<ellipse fill="#4296C9" cx="37.533" cy="53.879" rx="3.284" ry="3.236"/>
		</g>
	</g>
</g>
</svg>
