<?xml version="1.0" encoding="utf-8"?>
<!-- Generator: Adobe Illustrator 16.0.0, SVG Export Plug-In . SVG Version: 6.00 Build 0)  -->
<!DOCTYPE svg PUBLIC "-//W3C//DTD SVG 1.1//EN" "http://www.w3.org/Graphics/SVG/1.1/DTD/svg11.dtd">
<svg version="1.1" id="Layer_1" xmlns="http://www.w3.org/2000/svg" xmlns:xlink="http://www.w3.org/1999/xlink" x="0px" y="0px"
	 width="108px" height="108px" viewBox="0 0 108 108" enable-background="new 0 0 108 108" xml:space="preserve">
<g id="Layer_2">
	<g>
		<circle fill="#004860" cx="54.053" cy="54.909" r="49.148"/>
	</g>
</g>
<g id="Layer_3">
	<g>
		<g>
			<path fill="#FFFFFF" d="M84.435,67.806c0,1.754-1.442,3.174-3.224,3.174H26.895c-1.78,0-3.223-1.42-3.223-3.174V39.848
				c0-1.753,1.442-3.175,3.223-3.175h54.316c1.78,0,3.224,1.421,3.224,3.175V67.806L84.435,67.806z"/>
			<polygon fill="#FFFFFF" points="53.713,66.272 40.058,85.106 40.058,64.925 			"/>
		</g>
		<g>
			<ellipse fill="#4296C9" cx="36.976" cy="54.537" rx="3.284" ry="3.236"/>
			<ellipse fill="#4296C9" cx="48.361" cy="54.537" rx="3.285" ry="3.236"/>
			<ellipse fill="#4296C9" cx="59.746" cy="54.537" rx="3.284" ry="3.236"/>
			<ellipse fill="#4296C9" cx="71.134" cy="54.537" rx="3.283" ry="3.236"/>
		</g>
	</g>
</g>
</svg>
