<?xml version="1.0" encoding="utf-8"?>
<!-- Generator: Adobe Illustrator 16.0.0, SVG Export Plug-In . SVG Version: 6.00 Build 0)  -->
<!DOCTYPE svg PUBLIC "-//W3C//DTD SVG 1.1//EN" "http://www.w3.org/Graphics/SVG/1.1/DTD/svg11.dtd">
<svg version="1.1" xmlns="http://www.w3.org/2000/svg" xmlns:xlink="http://www.w3.org/1999/xlink" x="0px" y="0px" width="108px"
	 height="108px" viewBox="0 0 108 108" enable-background="new 0 0 108 108" xml:space="preserve">
<g id="Layer_1">
	<g id="Layer_2">
		<g>
			<circle fill="#626259" cx="54.053" cy="54.909" r="49.148"/>
		</g>
	</g>
</g>
<g id="Layer_3">
	<g>
		<path fill="#FE9E4E" d="M26.455,29.16v56.007H42.56V63.979c0-7.153,5.853-13.006,13.008-13.006
			c7.152,0,13.006,5.853,13.006,13.006v21.188H84.68V29.16H26.455z"/>
		<rect x="25.426" y="44.81" fill="#76522F" width="59.889" height="3.389"/>
		<rect x="25.426" y="28.543" fill="#76522F" width="59.889" height="3.389"/>
		<rect x="25.796" y="64.279" fill="#76522F" width="17.005" height="3.82"/>
		<g>
			<rect x="27.521" y="69.086" fill="#FD7502" width="0.986" height="15.28"/>
			<rect x="30.035" y="69.086" fill="#FD7502" width="0.985" height="15.28"/>
			<rect x="32.549" y="69.086" fill="#FD7502" width="0.985" height="15.28"/>
			<rect x="35.063" y="69.086" fill="#FD7502" width="0.985" height="15.28"/>
			<rect x="37.577" y="69.086" fill="#FD7502" width="0.986" height="15.28"/>
			<rect x="40.09" y="69.086" fill="#FD7502" width="0.986" height="15.28"/>
		</g>
		<rect x="68.188" y="64.239" fill="#76522F" width="17.006" height="3.819"/>
		<g>
			<rect x="69.912" y="69.045" fill="#FD7502" width="0.986" height="15.28"/>
			<rect x="72.428" y="69.045" fill="#FD7502" width="0.984" height="15.28"/>
			<rect x="74.941" y="69.045" fill="#FD7502" width="0.984" height="15.28"/>
			<rect x="77.455" y="69.045" fill="#FD7502" width="0.986" height="15.28"/>
			<rect x="79.969" y="69.045" fill="#FD7502" width="0.986" height="15.28"/>
			<rect x="82.482" y="69.045" fill="#FD7502" width="0.986" height="15.28"/>
		</g>
		<g>
			<rect x="28.751" y="33.288" fill="#FD7502" width="0.986" height="10.105"/>
			<rect x="31.258" y="33.288" fill="#FD7502" width="0.986" height="10.105"/>
			<rect x="33.765" y="33.288" fill="#FD7502" width="0.986" height="10.105"/>
			<rect x="36.271" y="33.288" fill="#FD7502" width="0.986" height="10.105"/>
			<rect x="38.779" y="33.288" fill="#FD7502" width="0.985" height="10.105"/>
			<rect x="41.286" y="33.288" fill="#FD7502" width="0.986" height="10.105"/>
			<rect x="43.793" y="33.288" fill="#FD7502" width="0.986" height="10.105"/>
			<rect x="46.3" y="33.288" fill="#FD7502" width="0.986" height="10.105"/>
			<rect x="48.807" y="33.288" fill="#FD7502" width="0.986" height="10.105"/>
			<rect x="51.314" y="33.288" fill="#FD7502" width="0.986" height="10.105"/>
			<rect x="53.822" y="33.288" fill="#FD7502" width="0.985" height="10.105"/>
			<rect x="56.328" y="33.288" fill="#FD7502" width="0.986" height="10.105"/>
			<rect x="58.836" y="33.288" fill="#FD7502" width="0.984" height="10.105"/>
			<rect x="61.342" y="33.288" fill="#FD7502" width="0.986" height="10.105"/>
			<rect x="63.85" y="33.288" fill="#FD7502" width="0.984" height="10.105"/>
			<rect x="66.355" y="33.288" fill="#FD7502" width="0.986" height="10.105"/>
			<rect x="68.863" y="33.288" fill="#FD7502" width="0.984" height="10.105"/>
			<rect x="71.369" y="33.288" fill="#FD7502" width="0.986" height="10.105"/>
			<rect x="73.877" y="33.288" fill="#FD7502" width="0.986" height="10.105"/>
			<rect x="76.385" y="33.288" fill="#FD7502" width="0.984" height="10.105"/>
			<rect x="78.891" y="33.288" fill="#FD7502" width="0.986" height="10.105"/>
			<rect x="81.398" y="33.288" fill="#FD7502" width="0.984" height="10.105"/>
		</g>
	</g>
</g>
</svg>
