<?xml version="1.0" encoding="utf-8"?>
<!-- Generator: Adobe Illustrator 16.0.0, SVG Export Plug-In . SVG Version: 6.00 Build 0)  -->
<!DOCTYPE svg PUBLIC "-//W3C//DTD SVG 1.1//EN" "http://www.w3.org/Graphics/SVG/1.1/DTD/svg11.dtd">
<svg version="1.1" id="Layer_1" xmlns="http://www.w3.org/2000/svg" xmlns:xlink="http://www.w3.org/1999/xlink" x="0px" y="0px"
	 width="523.191px" height="280px" viewBox="0 0 523.191 280" enable-background="new 0 0 523.191 280" xml:space="preserve">
<g>
	<g>
		<rect x="443.295" y="167.885" fill="#EF3522" width="54.791" height="92.659"/>
		<rect x="453.551" y="110.182" fill="#FF5B45" width="34.277" height="48.226"/>
		<rect x="468.124" y="91.406" fill="#FF5B45" width="5.135" height="48.227"/>
		<polygon fill="#FF5B45" points="475.667,148.709 475.667,139.633 498.086,139.633 498.086,130.995 443.295,130.995 
			443.295,139.633 465.715,139.633 465.715,148.709 443.295,148.709 443.295,160.703 465.715,160.703 465.715,169.779 
			443.295,169.779 443.295,181.773 465.715,181.773 465.715,190.852 443.295,190.852 443.295,202.846 465.715,202.846 
			465.715,211.924 443.295,211.924 443.295,223.916 465.715,223.916 465.715,232.993 443.295,232.993 443.295,244.986 
			465.715,244.986 465.715,254.064 443.295,254.064 443.295,260.544 498.086,260.544 498.086,254.064 475.667,254.064 
			475.667,244.986 498.086,244.986 498.086,232.993 475.667,232.993 475.667,223.916 498.086,223.916 498.086,211.924 
			475.667,211.924 475.667,202.846 498.086,202.846 498.086,190.852 475.667,190.852 475.667,181.773 498.086,181.773 
			498.086,169.779 475.667,169.779 475.667,160.703 498.086,160.703 498.086,148.709 		"/>
		<rect x="443.295" y="139.633" fill="#EF3522" width="22.42" height="9.077"/>
		<rect x="475.667" y="139.633" fill="#EF3522" width="22.42" height="9.077"/>
		<rect x="443.295" y="160.703" fill="#EF3522" width="22.42" height="9.076"/>
		<rect x="475.667" y="160.703" fill="#EF3522" width="22.42" height="9.076"/>
		<rect x="443.295" y="181.773" fill="#EF3522" width="22.42" height="9.078"/>
		<rect x="475.667" y="181.773" fill="#EF3522" width="22.42" height="9.078"/>
		<rect x="443.295" y="202.846" fill="#EF3522" width="22.42" height="9.078"/>
		<rect x="475.667" y="202.846" fill="#EF3522" width="22.42" height="9.078"/>
		<rect x="443.295" y="223.916" fill="#EF3522" width="22.42" height="9.077"/>
		<rect x="475.667" y="223.916" fill="#EF3522" width="22.42" height="9.077"/>
		<rect x="443.295" y="243.873" fill="#EF3522" width="23.736" height="11.832"/>
		<rect x="473.418" y="242.514" fill="#EF3522" width="24.668" height="14.416"/>
	</g>
	<g>
		<rect x="375.647" y="51.916" fill="#002738" width="56.912" height="212.988"/>
		<rect x="382.928" y="72.968" fill="#FFFFFF" width="40.914" height="6.766"/>
		<rect x="382.928" y="95.801" fill="#002738" width="40.914" height="6.767"/>
		<rect x="382.928" y="118.635" fill="#002738" width="40.914" height="6.766"/>
		<rect x="382.928" y="141.467" fill="#002738" width="40.914" height="6.768"/>
		<rect x="382.928" y="164.3" fill="#FFFFFF" width="40.914" height="6.767"/>
		<rect x="382.928" y="187.133" fill="#002738" width="40.914" height="6.768"/>
		<rect x="382.928" y="209.965" fill="#FFFFFF" width="40.914" height="6.768"/>
		<rect x="382.928" y="232.798" fill="#002738" width="40.914" height="6.767"/>
		<rect x="375.647" y="51.916" fill="#004860" width="56.912" height="212.988"/>
		<rect x="382.928" y="72.968" fill="#002738" width="40.914" height="6.766"/>
		<rect x="382.928" y="95.801" fill="#002738" width="40.914" height="6.767"/>
		<rect x="382.928" y="118.635" fill="#002738" width="40.914" height="6.766"/>
		<rect x="382.928" y="141.467" fill="#002738" width="40.914" height="6.768"/>
		<rect x="382.928" y="164.3" fill="#002738" width="40.914" height="6.767"/>
		<rect x="382.928" y="187.133" fill="#002738" width="40.914" height="6.768"/>
		<rect x="382.928" y="209.965" fill="#002738" width="40.914" height="6.768"/>
		<rect x="382.928" y="232.798" fill="#002738" width="40.914" height="6.767"/>
	</g>
	<g>
		<polygon fill="#EF3522" points="375.102,90.489 333.292,125.669 333.292,264.547 375.102,264.547 		"/>
		<polygon fill="#FF5B45" points="375.102,90.489 333.292,125.669 333.292,264.547 375.102,264.547 		"/>
		<circle fill="#EF3522" cx="344.764" cy="141.466" r="6.883"/>
		<circle fill="#EF3522" cx="363.631" cy="141.466" r="6.883"/>
		<circle fill="#EF3522" cx="344.764" cy="160.703" r="6.883"/>
		<circle fill="#EF3522" cx="363.631" cy="160.703" r="6.883"/>
		<circle fill="#EF3522" cx="344.764" cy="179.939" r="6.883"/>
		<circle fill="#EF3522" cx="363.631" cy="179.939" r="6.883"/>
		<circle fill="#EF3522" cx="344.764" cy="199.175" r="6.882"/>
		<circle fill="#EF3522" cx="363.631" cy="199.175" r="6.882"/>
		<circle fill="#EF3522" cx="344.764" cy="218.411" r="6.883"/>
		<circle fill="#EF3522" cx="363.631" cy="218.411" r="6.883"/>
		<circle fill="#EF3522" cx="344.764" cy="237.646" r="6.883"/>
		<circle fill="#EF3522" cx="363.631" cy="237.646" r="6.883"/>
	</g>
	<g>
		<polygon fill="#DCDCDC" points="291.483,90.489 249.672,125.669 249.672,264.547 291.483,264.547 		"/>
		<circle fill="#FFFFFF" cx="261.146" cy="139.338" r="6.883"/>
		<circle fill="#FFFFFF" cx="280.01" cy="139.338" r="6.882"/>
		<circle fill="#FFFFFF" cx="261.146" cy="158.574" r="6.883"/>
		<circle fill="#FFFFFF" cx="280.01" cy="158.574" r="6.882"/>
		<circle fill="#FFFFFF" cx="261.146" cy="177.811" r="6.883"/>
		<circle fill="#FFFFFF" cx="280.01" cy="177.812" r="6.882"/>
		<circle fill="#FFFFFF" cx="261.146" cy="197.047" r="6.883"/>
		<circle fill="#FFFFFF" cx="280.01" cy="197.046" r="6.882"/>
		<circle fill="#FFFFFF" cx="261.146" cy="216.283" r="6.883"/>
		<circle fill="#FFFFFF" cx="280.01" cy="216.283" r="6.882"/>
		<circle fill="#FFFFFF" cx="261.146" cy="235.519" r="6.883"/>
		<circle fill="#FFFFFF" cx="280.01" cy="235.521" r="6.882"/>
	</g>
	<g>
		<polygon fill="#FFA033" points="333.292,90.489 291.483,125.669 291.483,264.547 333.292,264.547 		"/>
		<rect x="293.703" y="138.653" fill="#FCD07A" width="5.202" height="12.393"/>
		<rect x="301.745" y="138.653" fill="#FCD07A" width="5.201" height="12.393"/>
		<rect x="309.786" y="138.653" fill="#FCD07A" width="5.202" height="12.393"/>
		<rect x="317.827" y="138.653" fill="#FCD07A" width="5.203" height="12.393"/>
		<rect x="325.868" y="138.653" fill="#FCD07A" width="5.203" height="12.393"/>
		<rect x="293.703" y="154.506" fill="#FCD07A" width="5.202" height="12.395"/>
		<rect x="301.745" y="154.506" fill="#FCD07A" width="5.201" height="12.395"/>
		<rect x="309.786" y="154.506" fill="#FCD07A" width="5.202" height="12.395"/>
		<rect x="317.827" y="154.506" fill="#FCD07A" width="5.203" height="12.395"/>
		<rect x="325.868" y="154.506" fill="#FCD07A" width="5.203" height="12.395"/>
		<rect x="293.703" y="170.359" fill="#FCD07A" width="5.202" height="12.394"/>
		<rect x="301.745" y="170.359" fill="#FCD07A" width="5.201" height="12.394"/>
		<rect x="309.786" y="170.359" fill="#FCD07A" width="5.202" height="12.394"/>
		<rect x="317.827" y="170.359" fill="#FCD07A" width="5.203" height="12.394"/>
		<rect x="325.868" y="170.359" fill="#FCD07A" width="5.203" height="12.394"/>
		<rect x="293.703" y="186.212" fill="#FCD07A" width="5.202" height="12.394"/>
		<rect x="301.745" y="186.212" fill="#FCD07A" width="5.201" height="12.394"/>
		<rect x="309.786" y="186.212" fill="#FCD07A" width="5.202" height="12.394"/>
		<rect x="317.827" y="186.212" fill="#FCD07A" width="5.203" height="12.394"/>
		<rect x="325.868" y="186.212" fill="#FCD07A" width="5.203" height="12.394"/>
		<rect x="293.703" y="202.064" fill="#FCD07A" width="5.202" height="12.395"/>
		<rect x="301.745" y="202.064" fill="#FCD07A" width="5.201" height="12.395"/>
		<rect x="309.786" y="202.064" fill="#FCD07A" width="5.202" height="12.395"/>
		<rect x="317.827" y="202.064" fill="#FCD07A" width="5.203" height="12.395"/>
		<rect x="325.868" y="202.064" fill="#FCD07A" width="5.203" height="12.395"/>
		<rect x="293.703" y="217.918" fill="#FCD07A" width="5.202" height="12.395"/>
		<rect x="301.745" y="217.918" fill="#FCD07A" width="5.201" height="12.395"/>
		<rect x="309.786" y="217.918" fill="#FCD07A" width="5.202" height="12.395"/>
		<rect x="317.827" y="217.918" fill="#FCD07A" width="5.203" height="12.395"/>
		<rect x="325.868" y="217.918" fill="#FCD07A" width="5.203" height="12.395"/>
		<rect x="293.703" y="233.771" fill="#FCD07A" width="5.202" height="12.395"/>
		<rect x="301.745" y="233.771" fill="#FCD07A" width="5.201" height="12.395"/>
		<rect x="309.786" y="233.771" fill="#FCD07A" width="5.202" height="12.395"/>
		<rect x="317.827" y="233.771" fill="#FCD07A" width="5.203" height="12.395"/>
		<rect x="325.868" y="233.771" fill="#FCD07A" width="5.203" height="12.395"/>
	</g>
	<g>
		<rect x="126.422" y="3.581" fill="#FFA033" width="56.912" height="261.323"/>
		<rect x="132.174" y="10.912" fill="#FCD07A" width="45.408" height="2.838"/>
		<rect x="132.174" y="20.91" fill="#FCD07A" width="45.408" height="2.838"/>
		<rect x="132.174" y="30.907" fill="#FCD07A" width="45.408" height="2.837"/>
		<rect x="132.174" y="40.904" fill="#FCD07A" width="45.408" height="2.838"/>
		<rect x="132.174" y="50.902" fill="#FCD07A" width="45.408" height="2.838"/>
		<rect x="132.174" y="60.899" fill="#FCD07A" width="45.408" height="2.838"/>
		<rect x="132.174" y="70.896" fill="#FCD07A" width="45.408" height="2.837"/>
		<rect x="132.174" y="80.894" fill="#FCD07A" width="45.408" height="2.838"/>
		<rect x="132.174" y="90.892" fill="#FCD07A" width="45.408" height="2.838"/>
		<rect x="132.174" y="100.888" fill="#FCD07A" width="45.408" height="2.838"/>
		<rect x="132.174" y="110.887" fill="#FCD07A" width="45.408" height="2.838"/>
		<rect x="132.174" y="120.883" fill="#FCD07A" width="45.408" height="2.838"/>
		<rect x="132.174" y="130.88" fill="#FCD07A" width="45.408" height="2.838"/>
		<rect x="132.174" y="140.879" fill="#FCD07A" width="45.408" height="2.837"/>
		<rect x="132.174" y="150.876" fill="#FCD07A" width="45.408" height="2.838"/>
		<rect x="132.174" y="160.873" fill="#FCD07A" width="45.408" height="2.839"/>
		<rect x="132.174" y="170.871" fill="#FCD07A" width="45.408" height="2.837"/>
		<rect x="132.174" y="180.868" fill="#FCD07A" width="45.408" height="2.837"/>
		<rect x="132.174" y="190.865" fill="#FCD07A" width="45.408" height="2.838"/>
		<rect x="132.174" y="200.863" fill="#FCD07A" width="45.408" height="2.838"/>
		<rect x="132.174" y="210.859" fill="#FCD07A" width="45.408" height="2.839"/>
		<rect x="132.174" y="220.857" fill="#FCD07A" width="45.408" height="2.838"/>
		<rect x="132.174" y="230.854" fill="#FCD07A" width="45.408" height="2.84"/>
	</g>
	<rect x="132.174" y="240.854" fill="#FCD07A" width="45.408" height="2.838"/>
	<g>
		<rect x="183.391" y="87.45" fill="#004860" width="56.913" height="177.454"/>
		<polygon fill="#004860" points="227.633,112.041 196.059,112.041 196.059,76.816 211.846,62.86 227.633,76.816 		"/>
		<rect x="203.663" y="77.162" fill="#002738" width="5.676" height="13.327"/>
		<rect x="214.355" y="77.162" fill="#002738" width="5.676" height="13.327"/>
		<rect x="193.059" y="98.714" fill="#002738" width="5.677" height="13.327"/>
		<rect x="203.752" y="98.714" fill="#002738" width="5.674" height="13.327"/>
		<rect x="214.266" y="98.714" fill="#002738" width="5.677" height="13.327"/>
		<rect x="224.959" y="98.714" fill="#002738" width="5.676" height="13.327"/>
		<rect x="193.059" y="117.06" fill="#002738" width="5.677" height="13.326"/>
		<rect x="203.752" y="117.06" fill="#002738" width="5.674" height="13.326"/>
		<rect x="214.266" y="117.06" fill="#002738" width="5.677" height="13.326"/>
		<rect x="224.959" y="117.06" fill="#002738" width="5.676" height="13.326"/>
		<rect x="193.059" y="135.405" fill="#002738" width="5.677" height="13.325"/>
		<rect x="203.752" y="135.405" fill="#002738" width="5.674" height="13.325"/>
		<rect x="214.266" y="135.405" fill="#002738" width="5.677" height="13.325"/>
		<rect x="224.959" y="135.405" fill="#002738" width="5.676" height="13.325"/>
		<rect x="193.059" y="153.75" fill="#002738" width="5.677" height="13.327"/>
		<rect x="203.752" y="153.75" fill="#002738" width="5.674" height="13.327"/>
		<rect x="214.266" y="153.75" fill="#002738" width="5.677" height="13.327"/>
		<rect x="224.959" y="153.75" fill="#002738" width="5.676" height="13.327"/>
		<rect x="193.059" y="172.098" fill="#002738" width="5.677" height="13.325"/>
		<rect x="203.752" y="172.098" fill="#002738" width="5.674" height="13.325"/>
		<rect x="214.266" y="172.098" fill="#002738" width="5.677" height="13.325"/>
		<rect x="224.959" y="172.098" fill="#002738" width="5.676" height="13.325"/>
		<rect x="193.059" y="190.441" fill="#002738" width="5.677" height="13.326"/>
		<rect x="203.752" y="190.441" fill="#002738" width="5.674" height="13.326"/>
		<rect x="214.266" y="190.441" fill="#002738" width="5.677" height="13.326"/>
		<rect x="224.959" y="190.441" fill="#002738" width="5.676" height="13.326"/>
		<rect x="193.059" y="208.786" fill="#002738" width="5.677" height="13.327"/>
		<rect x="203.752" y="208.786" fill="#002738" width="5.674" height="13.327"/>
		<rect x="214.266" y="208.786" fill="#002738" width="5.677" height="13.327"/>
		<rect x="224.959" y="208.786" fill="#002738" width="5.676" height="13.327"/>
		<rect x="193.059" y="227.132" fill="#002738" width="5.677" height="13.327"/>
		<rect x="203.752" y="227.132" fill="#002738" width="5.674" height="13.327"/>
		<rect x="214.266" y="227.132" fill="#002738" width="5.677" height="13.327"/>
		<rect x="224.959" y="227.132" fill="#002738" width="5.676" height="13.327"/>
	</g>
	<g>
		<rect x="31.375" y="90.88" fill="#69E2DE" width="61.728" height="180.81"/>
		<rect x="37.051" y="77.162" fill="#69E2DE" width="48.955" height="20.576"/>
		<rect x="42.727" y="64.079" fill="#69E2DE" width="37.604" height="15.804"/>
		<rect x="39.906" y="100.888" fill="#00BEC5" width="7.621" height="16.845"/>
		<rect x="51.782" y="100.888" fill="#00BEC5" width="7.622" height="16.845"/>
		<rect x="63.656" y="100.888" fill="#00BEC5" width="7.621" height="16.845"/>
		<rect x="75.532" y="100.888" fill="#00BEC5" width="7.621" height="16.845"/>
		<rect x="39.906" y="123.878" fill="#00BEC5" width="7.621" height="16.845"/>
		<rect x="51.782" y="123.878" fill="#00BEC5" width="7.622" height="16.845"/>
		<rect x="63.656" y="123.878" fill="#00BEC5" width="7.621" height="16.845"/>
		<rect x="75.532" y="123.878" fill="#00BEC5" width="7.621" height="16.845"/>
		<rect x="39.906" y="146.867" fill="#00BEC5" width="7.621" height="16.845"/>
		<rect x="51.782" y="146.867" fill="#00BEC5" width="7.622" height="16.845"/>
		<rect x="63.656" y="146.867" fill="#00BEC5" width="7.621" height="16.845"/>
		<rect x="75.532" y="146.867" fill="#00BEC5" width="7.621" height="16.845"/>
		<rect x="39.906" y="169.855" fill="#00BEC5" width="7.621" height="16.846"/>
		<rect x="51.782" y="169.855" fill="#00BEC5" width="7.622" height="16.846"/>
		<rect x="63.656" y="169.855" fill="#00BEC5" width="7.621" height="16.846"/>
		<rect x="75.532" y="169.855" fill="#00BEC5" width="7.621" height="16.846"/>
	</g>
	<g>
		<polygon fill="#DCDCDC" points="138.54,268.924 81.441,268.924 81.441,155.332 93.103,134.368 126.422,134.368 138.54,155.332 		
			"/>
		<rect x="94.305" y="155.878" fill="#FFFFFF" width="7.62" height="16.845"/>
		<rect x="106.181" y="155.878" fill="#FFFFFF" width="7.62" height="16.845"/>
		<rect x="118.057" y="155.878" fill="#FFFFFF" width="7.621" height="16.845"/>
		<rect x="94.305" y="176.999" fill="#FFFFFF" width="7.62" height="16.845"/>
		<rect x="106.181" y="176.999" fill="#FFFFFF" width="7.62" height="16.845"/>
		<rect x="118.057" y="176.999" fill="#FFFFFF" width="7.621" height="16.845"/>
		<rect x="94.305" y="198.122" fill="#FFFFFF" width="7.62" height="16.845"/>
		<rect x="106.181" y="198.122" fill="#FFFFFF" width="7.62" height="16.845"/>
		<rect x="118.057" y="198.122" fill="#FFFFFF" width="7.621" height="16.845"/>
	</g>
	<g>
		<polygon fill="#FF5B45" points="309.836,268.924 252.739,268.924 252.739,186.212 281.288,147.605 309.836,186.212 		"/>
		<rect x="260.529" y="224.605" fill="#DCDCDC" width="41.517" height="21.718"/>
		<path fill="#EF3522" d="M306.842,225.698l-2.947-12.33h-17.004h-10.561h-17.648l-2.948,12.33
			c-0.077,0.212-0.125,0.437-0.125,0.674c0,1.092,0.884,1.976,1.976,1.976s1.975-0.884,1.975-1.976c0,1.092,0.885,1.976,1.977,1.976
			s1.977-0.884,1.977-1.976c0,1.092,0.885,1.976,1.976,1.976s1.978-0.884,1.978-1.976c0,1.092,0.885,1.976,1.976,1.976
			c1.092,0,1.976-0.884,1.976-1.976c0,1.092,0.885,1.976,1.978,1.976c1.092,0,1.976-0.884,1.976-1.976
			c0,1.092,0.885,1.976,1.979,1.976c1.091,0,1.976-0.884,1.976-1.976c0,1.092,0.886,1.976,1.978,1.976
			c1.091,0,1.975-0.884,1.975-1.976c0,1.092,0.885,1.976,1.977,1.976s1.978-0.884,1.978-1.976c0,1.092,0.885,1.976,1.978,1.976
			c1.092,0,1.975-0.884,1.975-1.976c0,1.092,0.886,1.976,1.979,1.976c1.09,0,1.973-0.884,1.973-1.976
			c0,1.092,0.887,1.976,1.978,1.976c1.093,0,1.978-0.884,1.978-1.976c0,1.092,0.885,1.976,1.977,1.976
			c1.091,0,1.977-0.884,1.977-1.976c0,1.092,0.885,1.976,1.977,1.976c1.091,0,1.977-0.884,1.977-1.976
			C306.967,226.135,306.918,225.91,306.842,225.698z"/>
		<rect x="260.797" y="189.562" fill="#EF3522" width="6.586" height="15.082"/>
		<rect x="271.413" y="189.562" fill="#EF3522" width="6.584" height="15.082"/>
		<rect x="282.026" y="189.562" fill="#EF3522" width="6.585" height="15.082"/>
		<rect x="292.637" y="189.562" fill="#EF3522" width="6.586" height="15.082"/>
	</g>
	<g>
		<polygon fill="#69E2DE" points="252.739,256.427 195.639,256.427 195.639,186.744 224.19,148.139 252.739,186.744 		"/>
		<path fill="#00BEC5" d="M211.274,195.84c0.001-0.033,0.006-0.066,0.006-0.102c0-2.312-1.875-4.186-4.186-4.186
			c-2.312,0-4.186,1.873-4.186,4.186c0,0.035,0.006,0.068,0.006,0.102h-0.009v13.303h8.375V195.84H211.274L211.274,195.84z"/>
		<path fill="#00BEC5" d="M222.67,195.84c0.002-0.033,0.006-0.066,0.006-0.102c0-2.312-1.875-4.186-4.186-4.186
			s-4.186,1.873-4.186,4.186c0,0.035,0.005,0.068,0.007,0.102h-0.009v13.303h8.375V195.84H222.67L222.67,195.84z"/>
		<path fill="#00BEC5" d="M234.068,195.84c0.001-0.033,0.006-0.066,0.006-0.102c0-2.312-1.875-4.186-4.187-4.186
			c-2.311,0-4.185,1.873-4.185,4.186c0,0.035,0.003,0.068,0.005,0.102H225.7v13.303h8.375V195.84H234.068L234.068,195.84z"/>
		<path fill="#00BEC5" d="M245.463,195.84c0.002-0.033,0.006-0.066,0.006-0.102c0-2.312-1.875-4.186-4.185-4.186
			c-2.312,0-4.185,1.873-4.185,4.186c0,0.035,0.003,0.068,0.003,0.102h-0.007v13.303h8.375V195.84H245.463L245.463,195.84z"/>
		<path fill="#00BEC5" d="M211.274,217.484c0.001-0.034,0.006-0.067,0.006-0.102c0-2.312-1.875-4.186-4.186-4.186
			c-2.312,0-4.186,1.873-4.186,4.186c0,0.033,0.006,0.066,0.006,0.102h-0.009v13.303h8.375v-13.303H211.274z"/>
		<path fill="#00BEC5" d="M222.67,217.484c0.002-0.034,0.006-0.067,0.006-0.102c0-2.312-1.875-4.186-4.186-4.186
			s-4.186,1.873-4.186,4.186c0,0.033,0.005,0.066,0.007,0.102h-0.009v13.303h8.375v-13.303H222.67z"/>
		<path fill="#00BEC5" d="M234.068,217.484c0.001-0.034,0.006-0.067,0.006-0.102c0-2.312-1.875-4.186-4.187-4.186
			c-2.311,0-4.185,1.873-4.185,4.186c0,0.033,0.003,0.066,0.005,0.102H225.7v13.303h8.375v-13.303H234.068z"/>
		<path fill="#00BEC5" d="M245.463,217.484c0.002-0.034,0.006-0.067,0.006-0.102c0-2.312-1.875-4.186-4.185-4.186
			c-2.312,0-4.185,1.873-4.185,4.186c0,0.033,0.003,0.066,0.003,0.102h-0.007v13.303h8.375v-13.303H245.463z"/>
	</g>
	<g>
		<polygon fill="#FFA033" points="424.036,272.743 366.936,272.743 366.936,189.034 378.598,173.587 411.917,173.587 
			424.036,189.034 		"/>
		<rect x="380.002" y="193.611" fill="#FCD07A" width="30.967" height="14.189"/>
		<rect x="380.002" y="215.257" fill="#FCD07A" width="30.967" height="14.188"/>
	</g>
	<g>
		<rect x="138.542" y="160.873" fill="#FF5B45" width="57.097" height="108.051"/>
		<rect x="147.888" y="173.708" fill="#EF3522" width="11.444" height="5.677"/>
		<rect x="161.369" y="173.708" fill="#EF3522" width="11.443" height="5.677"/>
		<rect x="174.849" y="173.708" fill="#EF3522" width="11.444" height="5.677"/>
		<rect x="147.888" y="183.982" fill="#EF3522" width="11.444" height="5.677"/>
		<rect x="161.369" y="183.982" fill="#EF3522" width="11.443" height="5.677"/>
		<rect x="174.849" y="183.982" fill="#EF3522" width="11.444" height="5.677"/>
		<rect x="147.888" y="194.258" fill="#EF3522" width="11.444" height="5.676"/>
		<rect x="161.369" y="194.258" fill="#EF3522" width="11.443" height="5.676"/>
		<rect x="174.849" y="194.258" fill="#EF3522" width="11.444" height="5.676"/>
		<rect x="147.888" y="204.532" fill="#EF3522" width="11.444" height="5.676"/>
		<rect x="161.369" y="204.532" fill="#EF3522" width="11.443" height="5.676"/>
		<rect x="174.849" y="204.532" fill="#EF3522" width="11.444" height="5.676"/>
		<rect x="147.888" y="214.805" fill="#EF3522" width="11.444" height="5.676"/>
		<rect x="161.369" y="214.805" fill="#EF3522" width="11.443" height="5.676"/>
		<rect x="174.849" y="214.805" fill="#EF3522" width="11.444" height="5.676"/>
		<rect x="147.888" y="225.08" fill="#EF3522" width="11.444" height="5.676"/>
		<rect x="161.369" y="225.08" fill="#EF3522" width="11.443" height="5.676"/>
		<rect x="174.849" y="225.08" fill="#EF3522" width="11.444" height="5.676"/>
	</g>
	<g>
		<polygon fill="#004860" points="81.441,268.924 24.343,268.924 24.343,199.242 52.892,160.636 81.441,199.242 		"/>
		<rect x="42.033" y="189.701" fill="#002738" width="7.62" height="16.843"/>
		<rect x="53.909" y="189.701" fill="#002738" width="7.621" height="16.843"/>
		<rect x="42.033" y="212.061" fill="#002738" width="7.62" height="16.844"/>
		<rect x="53.909" y="212.061" fill="#002738" width="7.621" height="16.844"/>
	</g>
	<g>
		<rect x="309.836" y="179.939" fill="#004860" width="57.098" height="88.983"/>
		<rect x="314.988" y="168.521" fill="#004860" width="43.638" height="22.834"/>
		<rect x="320.318" y="158.575" fill="#004860" width="33.269" height="17.405"/>
		<rect x="319.596" y="186.521" fill="#002738" width="5.677" height="13.326"/>
		<rect x="330.292" y="186.521" fill="#002738" width="5.676" height="13.326"/>
		<rect x="340.807" y="186.521" fill="#002738" width="5.676" height="13.326"/>
		<rect x="351.499" y="186.521" fill="#002738" width="5.676" height="13.326"/>
		<rect x="319.596" y="204.865" fill="#002738" width="5.677" height="13.326"/>
		<rect x="330.292" y="204.865" fill="#002738" width="5.676" height="13.326"/>
		<rect x="340.807" y="204.865" fill="#002738" width="5.676" height="13.326"/>
		<rect x="351.499" y="204.865" fill="#002738" width="5.676" height="13.326"/>
		<rect x="319.596" y="223.212" fill="#002738" width="5.677" height="13.325"/>
		<rect x="330.292" y="223.212" fill="#002738" width="5.676" height="13.325"/>
		<rect x="340.807" y="223.212" fill="#002738" width="5.676" height="13.325"/>
		<rect x="351.499" y="223.212" fill="#002738" width="5.676" height="13.325"/>
	</g>
	<g>
		<polygon fill="#DCDCDC" points="481.135,258.073 424.036,258.073 424.036,188.393 452.586,149.784 481.135,188.393 		"/>
		<circle fill="#FFFFFF" cx="442.506" cy="193.612" r="6.883"/>
		<circle fill="#FFFFFF" cx="462.665" cy="193.612" r="6.883"/>
		<circle fill="#FFFFFF" cx="442.506" cy="213.198" r="6.883"/>
		<circle fill="#FFFFFF" cx="462.665" cy="213.198" r="6.883"/>
		<circle fill="#FFFFFF" cx="442.506" cy="232.784" r="6.883"/>
		<circle fill="#FFFFFF" cx="462.665" cy="232.784" r="6.883"/>
	</g>
	<rect x="2.233" y="256.154" fill="#AFC01D" width="517.242" height="19.498"/>
	<g>
		<g>
			<rect x="79.707" y="244.035" fill="#004860" width="3.469" height="20.3"/>
			<g>
				<path fill="#69E2DE" d="M66.26,235.898c0,8.384,6.797,15.182,15.18,15.182v-51.053C81.441,200.025,66.26,227.516,66.26,235.898z
					"/>
				<path fill="#00BEC5" d="M96.623,235.898c0-8.383-15.182-35.871-15.182-35.871v51.053
					C89.826,251.08,96.623,244.282,96.623,235.898z"/>
			</g>
		</g>
		<g>
			<rect x="116.322" y="244.035" fill="#004860" width="3.469" height="20.3"/>
			<g>
				<path fill="#69E2DE" d="M102.876,235.898c0,8.384,6.797,15.182,15.181,15.182v-51.053
					C118.057,200.025,102.876,227.516,102.876,235.898z"/>
				<path fill="#00BEC5" d="M133.238,235.898c0-8.383-15.182-35.871-15.182-35.871v51.053
					C126.442,251.08,133.238,244.282,133.238,235.898z"/>
			</g>
		</g>
		<g>
			<rect x="308.102" y="244.035" fill="#004860" width="3.469" height="20.3"/>
			<g>
				<path fill="#69E2DE" d="M294.655,235.898c0,8.384,6.798,15.182,15.182,15.182v-51.053
					C309.836,200.025,294.655,227.516,294.655,235.898z"/>
				<path fill="#00BEC5" d="M325.018,235.898c0-8.383-15.182-35.871-15.182-35.871v51.053
					C318.221,251.08,325.018,244.282,325.018,235.898z"/>
			</g>
		</g>
		<g>
			<rect x="422.301" y="244.035" fill="#004860" width="3.467" height="20.3"/>
			<g>
				<path fill="#69E2DE" d="M408.854,235.898c0,8.384,6.797,15.182,15.184,15.182v-51.053
					C424.036,200.025,408.854,227.516,408.854,235.898z"/>
				<path fill="#00BEC5" d="M439.217,235.898c0-8.383-15.182-35.871-15.182-35.871v51.053
					C432.42,251.08,439.217,244.282,439.217,235.898z"/>
			</g>
		</g>
		<g>
			<rect x="460.93" y="244.035" fill="#004860" width="3.469" height="20.3"/>
			<g>
				<path fill="#69E2DE" d="M447.483,235.898c0,8.384,6.799,15.182,15.184,15.182v-51.053
					C462.665,200.025,447.483,227.516,447.483,235.898z"/>
				<path fill="#00BEC5" d="M477.846,235.898c0-8.383-15.182-35.871-15.182-35.871v51.053
					C471.049,251.08,477.846,244.282,477.846,235.898z"/>
			</g>
		</g>
	</g>
</g>
</svg>
