<?xml version="1.0" encoding="utf-8"?>
<!-- Generator: Adobe Illustrator 16.0.0, SVG Export Plug-In . SVG Version: 6.00 Build 0)  -->
<!DOCTYPE svg PUBLIC "-//W3C//DTD SVG 1.1//EN" "http://www.w3.org/Graphics/SVG/1.1/DTD/svg11.dtd">
<svg version="1.1" id="Layer_1" xmlns="http://www.w3.org/2000/svg" xmlns:xlink="http://www.w3.org/1999/xlink" x="0px" y="0px"
	 width="661px" height="371px" viewBox="0 0 661 371" enable-background="new 0 0 661 371" xml:space="preserve">
<g>
	<g>
		<rect x="554.442" y="220.331" fill="#EF3522" width="67.514" height="114.176"/>
		<rect x="567.081" y="149.23" fill="#FF5B45" width="42.235" height="59.424"/>
		<rect x="585.036" y="126.094" fill="#FF5B45" width="6.327" height="59.425"/>
		<polygon fill="#FF5B45" points="594.33,196.703 594.33,185.519 621.956,185.519 621.956,174.875 554.442,174.875 554.442,185.519 
			582.068,185.519 582.068,196.703 554.442,196.703 554.442,211.482 582.068,211.482 582.068,222.668 554.442,222.668 
			554.442,237.445 582.068,237.445 582.068,248.632 554.442,248.632 554.442,263.409 582.068,263.409 582.068,274.596 
			554.442,274.596 554.442,289.373 582.068,289.373 582.068,300.559 554.442,300.559 554.442,315.337 582.068,315.337 
			582.068,326.522 554.442,326.522 554.442,334.507 621.956,334.507 621.956,326.522 594.33,326.522 594.33,315.337 
			621.956,315.337 621.956,300.559 594.33,300.559 594.33,289.373 621.956,289.373 621.956,274.596 594.33,274.596 594.33,263.409 
			621.956,263.409 621.956,248.632 594.33,248.632 594.33,237.445 621.956,237.445 621.956,222.668 594.33,222.668 594.33,211.482 
			621.956,211.482 621.956,196.703 		"/>
		<rect x="554.442" y="185.519" fill="#EF3522" width="27.626" height="11.185"/>
		<rect x="594.33" y="185.519" fill="#EF3522" width="27.626" height="11.185"/>
		<rect x="554.442" y="211.482" fill="#EF3522" width="27.626" height="11.186"/>
		<rect x="594.33" y="211.482" fill="#EF3522" width="27.626" height="11.186"/>
		<rect x="554.442" y="237.445" fill="#EF3522" width="27.626" height="11.187"/>
		<rect x="594.33" y="237.445" fill="#EF3522" width="27.626" height="11.187"/>
		<rect x="554.442" y="263.409" fill="#EF3522" width="27.626" height="11.187"/>
		<rect x="594.33" y="263.409" fill="#EF3522" width="27.626" height="11.187"/>
		<rect x="554.442" y="289.373" fill="#EF3522" width="27.626" height="11.186"/>
		<rect x="594.33" y="289.373" fill="#EF3522" width="27.626" height="11.186"/>
		<rect x="554.442" y="313.965" fill="#EF3522" width="29.249" height="14.579"/>
		<rect x="591.56" y="312.289" fill="#EF3522" width="30.396" height="17.765"/>
	</g>
	<g>
		<rect x="471.085" y="77.433" fill="#002738" width="70.129" height="262.446"/>
		<rect x="480.059" y="103.375" fill="#FFFFFF" width="50.415" height="8.337"/>
		<rect x="480.059" y="131.51" fill="#002738" width="50.415" height="8.337"/>
		<rect x="480.059" y="159.645" fill="#002738" width="50.415" height="8.337"/>
		<rect x="480.059" y="187.779" fill="#002738" width="50.415" height="8.337"/>
		<rect x="480.059" y="215.914" fill="#FFFFFF" width="50.415" height="8.337"/>
		<rect x="480.059" y="244.049" fill="#002738" width="50.415" height="8.338"/>
		<rect x="480.059" y="272.184" fill="#FFFFFF" width="50.415" height="8.338"/>
		<rect x="480.059" y="300.318" fill="#002738" width="50.415" height="8.337"/>
		<rect x="471.085" y="77.433" fill="#004860" width="70.129" height="262.446"/>
		<rect x="480.059" y="103.375" fill="#002738" width="50.415" height="8.337"/>
		<rect x="480.059" y="131.51" fill="#002738" width="50.415" height="8.337"/>
		<rect x="480.059" y="159.645" fill="#002738" width="50.415" height="8.337"/>
		<rect x="480.059" y="187.779" fill="#002738" width="50.415" height="8.337"/>
		<rect x="480.059" y="215.914" fill="#002738" width="50.415" height="8.337"/>
		<rect x="480.059" y="244.049" fill="#002738" width="50.415" height="8.338"/>
		<rect x="480.059" y="272.184" fill="#002738" width="50.415" height="8.338"/>
		<rect x="480.059" y="300.318" fill="#002738" width="50.415" height="8.337"/>
	</g>
	<g>
		<polygon fill="#EF3522" points="470.415,124.964 418.896,168.313 418.896,339.439 470.415,339.439 		"/>
		<polygon fill="#FF5B45" points="470.415,124.964 418.896,168.313 418.896,339.439 470.415,339.439 		"/>
		<circle fill="#EF3522" cx="433.032" cy="187.779" r="8.481"/>
		<circle fill="#EF3522" cx="456.279" cy="187.779" r="8.481"/>
		<circle fill="#EF3522" cx="433.032" cy="211.482" r="8.481"/>
		<circle fill="#EF3522" cx="456.279" cy="211.482" r="8.481"/>
		<circle fill="#EF3522" cx="433.032" cy="235.185" r="8.481"/>
		<circle fill="#EF3522" cx="456.279" cy="235.185" r="8.481"/>
		<circle fill="#EF3522" cx="433.032" cy="258.888" r="8.481"/>
		<circle fill="#EF3522" cx="456.279" cy="258.888" r="8.481"/>
		<circle fill="#EF3522" cx="433.032" cy="282.591" r="8.481"/>
		<circle fill="#EF3522" cx="456.279" cy="282.591" r="8.481"/>
		<circle fill="#EF3522" cx="433.032" cy="306.294" r="8.481"/>
		<circle fill="#EF3522" cx="456.279" cy="306.294" r="8.481"/>
	</g>
	<g>
		<polygon fill="#DCDCDC" points="367.378,124.964 315.86,168.313 315.86,339.439 367.378,339.439 		"/>
		<circle fill="#FFFFFF" cx="329.996" cy="185.156" r="8.481"/>
		<circle fill="#FFFFFF" cx="353.242" cy="185.156" r="8.48"/>
		<circle fill="#FFFFFF" cx="329.996" cy="208.859" r="8.481"/>
		<circle fill="#FFFFFF" cx="353.242" cy="208.859" r="8.48"/>
		<circle fill="#FFFFFF" cx="329.996" cy="232.562" r="8.481"/>
		<circle fill="#FFFFFF" cx="353.242" cy="232.562" r="8.48"/>
		<circle fill="#FFFFFF" cx="329.996" cy="256.265" r="8.481"/>
		<circle fill="#FFFFFF" cx="353.242" cy="256.265" r="8.48"/>
		<circle fill="#FFFFFF" cx="329.996" cy="279.968" r="8.481"/>
		<circle fill="#FFFFFF" cx="353.242" cy="279.968" r="8.48"/>
		<circle fill="#FFFFFF" cx="329.996" cy="303.671" r="8.481"/>
		<circle fill="#FFFFFF" cx="353.242" cy="303.671" r="8.48"/>
	</g>
	<g>
		<polygon fill="#FFA033" points="418.896,124.964 367.378,168.313 367.378,339.439 418.896,339.439 		"/>
		<rect x="370.114" y="184.312" fill="#FCD07A" width="6.411" height="15.271"/>
		<rect x="380.023" y="184.312" fill="#FCD07A" width="6.41" height="15.271"/>
		<rect x="389.932" y="184.312" fill="#FCD07A" width="6.411" height="15.271"/>
		<rect x="399.841" y="184.312" fill="#FCD07A" width="6.411" height="15.271"/>
		<rect x="409.749" y="184.312" fill="#FCD07A" width="6.411" height="15.271"/>
		<rect x="370.114" y="203.846" fill="#FCD07A" width="6.411" height="15.272"/>
		<rect x="380.023" y="203.846" fill="#FCD07A" width="6.41" height="15.272"/>
		<rect x="389.932" y="203.846" fill="#FCD07A" width="6.411" height="15.272"/>
		<rect x="399.841" y="203.846" fill="#FCD07A" width="6.411" height="15.272"/>
		<rect x="409.749" y="203.846" fill="#FCD07A" width="6.411" height="15.272"/>
		<rect x="370.114" y="223.381" fill="#FCD07A" width="6.411" height="15.271"/>
		<rect x="380.023" y="223.381" fill="#FCD07A" width="6.41" height="15.271"/>
		<rect x="389.932" y="223.381" fill="#FCD07A" width="6.411" height="15.271"/>
		<rect x="399.841" y="223.381" fill="#FCD07A" width="6.411" height="15.271"/>
		<rect x="409.749" y="223.381" fill="#FCD07A" width="6.411" height="15.271"/>
		<rect x="370.114" y="242.915" fill="#FCD07A" width="6.411" height="15.271"/>
		<rect x="380.023" y="242.915" fill="#FCD07A" width="6.41" height="15.271"/>
		<rect x="389.932" y="242.915" fill="#FCD07A" width="6.411" height="15.271"/>
		<rect x="399.841" y="242.915" fill="#FCD07A" width="6.411" height="15.271"/>
		<rect x="409.749" y="242.915" fill="#FCD07A" width="6.411" height="15.271"/>
		<rect x="370.114" y="262.449" fill="#FCD07A" width="6.411" height="15.271"/>
		<rect x="380.023" y="262.449" fill="#FCD07A" width="6.41" height="15.271"/>
		<rect x="389.932" y="262.449" fill="#FCD07A" width="6.411" height="15.271"/>
		<rect x="399.841" y="262.449" fill="#FCD07A" width="6.411" height="15.271"/>
		<rect x="409.749" y="262.449" fill="#FCD07A" width="6.411" height="15.271"/>
		<rect x="370.114" y="281.982" fill="#FCD07A" width="6.411" height="15.272"/>
		<rect x="380.023" y="281.982" fill="#FCD07A" width="6.41" height="15.272"/>
		<rect x="389.932" y="281.982" fill="#FCD07A" width="6.411" height="15.272"/>
		<rect x="399.841" y="281.982" fill="#FCD07A" width="6.411" height="15.272"/>
		<rect x="409.749" y="281.982" fill="#FCD07A" width="6.411" height="15.272"/>
		<rect x="370.114" y="301.52" fill="#FCD07A" width="6.411" height="15.271"/>
		<rect x="380.023" y="301.52" fill="#FCD07A" width="6.41" height="15.271"/>
		<rect x="389.932" y="301.52" fill="#FCD07A" width="6.411" height="15.271"/>
		<rect x="399.841" y="301.52" fill="#FCD07A" width="6.411" height="15.271"/>
		<rect x="409.749" y="301.52" fill="#FCD07A" width="6.411" height="15.271"/>
	</g>
	<g>
		<rect x="163.989" y="17.875" fill="#FFA033" width="70.128" height="322.004"/>
		<rect x="171.077" y="26.908" fill="#FCD07A" width="55.952" height="3.497"/>
		<rect x="171.077" y="39.228" fill="#FCD07A" width="55.952" height="3.497"/>
		<rect x="171.077" y="51.547" fill="#FCD07A" width="55.952" height="3.496"/>
		<rect x="171.077" y="63.865" fill="#FCD07A" width="55.952" height="3.497"/>
		<rect x="171.077" y="76.184" fill="#FCD07A" width="55.952" height="3.498"/>
		<rect x="171.077" y="88.503" fill="#FCD07A" width="55.952" height="3.497"/>
		<rect x="171.077" y="100.822" fill="#FCD07A" width="55.952" height="3.496"/>
		<rect x="171.077" y="113.141" fill="#FCD07A" width="55.952" height="3.497"/>
		<rect x="171.077" y="125.46" fill="#FCD07A" width="55.952" height="3.497"/>
		<rect x="171.077" y="137.778" fill="#FCD07A" width="55.952" height="3.497"/>
		<rect x="171.077" y="150.098" fill="#FCD07A" width="55.952" height="3.497"/>
		<rect x="171.077" y="162.416" fill="#FCD07A" width="55.952" height="3.497"/>
		<rect x="171.077" y="174.735" fill="#FCD07A" width="55.952" height="3.497"/>
		<rect x="171.077" y="187.055" fill="#FCD07A" width="55.952" height="3.496"/>
		<rect x="171.077" y="199.373" fill="#FCD07A" width="55.952" height="3.497"/>
		<rect x="171.077" y="211.691" fill="#FCD07A" width="55.952" height="3.498"/>
		<rect x="171.077" y="224.012" fill="#FCD07A" width="55.952" height="3.496"/>
		<rect x="171.077" y="236.33" fill="#FCD07A" width="55.952" height="3.496"/>
		<rect x="171.077" y="248.648" fill="#FCD07A" width="55.952" height="3.496"/>
		<rect x="171.077" y="260.968" fill="#FCD07A" width="55.952" height="3.497"/>
		<rect x="171.077" y="273.286" fill="#FCD07A" width="55.952" height="3.497"/>
		<rect x="171.077" y="285.605" fill="#FCD07A" width="55.952" height="3.496"/>
		<rect x="171.077" y="297.924" fill="#FCD07A" width="55.952" height="3.497"/>
	</g>
	<rect x="171.077" y="310.243" fill="#FCD07A" width="55.952" height="3.497"/>
	<g>
		<rect x="234.187" y="121.22" fill="#004860" width="70.128" height="218.659"/>
		<polygon fill="#004860" points="288.704,151.52 249.797,151.52 249.797,108.116 269.251,90.919 288.704,108.116 		"/>
		<rect x="259.166" y="108.543" fill="#002738" width="6.994" height="16.421"/>
		<rect x="272.341" y="108.543" fill="#002738" width="6.994" height="16.421"/>
		<rect x="246.101" y="135.099" fill="#002738" width="6.994" height="16.421"/>
		<rect x="259.275" y="135.099" fill="#002738" width="6.994" height="16.421"/>
		<rect x="272.233" y="135.099" fill="#002738" width="6.994" height="16.421"/>
		<rect x="285.408" y="135.099" fill="#002738" width="6.993" height="16.421"/>
		<rect x="246.101" y="157.704" fill="#002738" width="6.994" height="16.421"/>
		<rect x="259.275" y="157.704" fill="#002738" width="6.994" height="16.421"/>
		<rect x="272.233" y="157.704" fill="#002738" width="6.994" height="16.421"/>
		<rect x="285.408" y="157.704" fill="#002738" width="6.993" height="16.421"/>
		<rect x="246.101" y="180.31" fill="#002738" width="6.994" height="16.42"/>
		<rect x="259.275" y="180.31" fill="#002738" width="6.994" height="16.42"/>
		<rect x="272.233" y="180.31" fill="#002738" width="6.994" height="16.42"/>
		<rect x="285.408" y="180.31" fill="#002738" width="6.993" height="16.42"/>
		<rect x="246.101" y="202.915" fill="#002738" width="6.994" height="16.421"/>
		<rect x="259.275" y="202.915" fill="#002738" width="6.994" height="16.421"/>
		<rect x="272.233" y="202.915" fill="#002738" width="6.994" height="16.421"/>
		<rect x="285.408" y="202.915" fill="#002738" width="6.993" height="16.421"/>
		<rect x="246.101" y="225.521" fill="#002738" width="6.994" height="16.42"/>
		<rect x="259.275" y="225.521" fill="#002738" width="6.994" height="16.42"/>
		<rect x="272.233" y="225.521" fill="#002738" width="6.994" height="16.42"/>
		<rect x="285.408" y="225.521" fill="#002738" width="6.993" height="16.42"/>
		<rect x="246.101" y="248.126" fill="#002738" width="6.994" height="16.421"/>
		<rect x="259.275" y="248.126" fill="#002738" width="6.994" height="16.421"/>
		<rect x="272.233" y="248.126" fill="#002738" width="6.994" height="16.421"/>
		<rect x="285.408" y="248.126" fill="#002738" width="6.993" height="16.421"/>
		<rect x="246.101" y="270.73" fill="#002738" width="6.994" height="16.422"/>
		<rect x="259.275" y="270.73" fill="#002738" width="6.994" height="16.422"/>
		<rect x="272.233" y="270.73" fill="#002738" width="6.994" height="16.422"/>
		<rect x="285.408" y="270.73" fill="#002738" width="6.993" height="16.422"/>
		<rect x="246.101" y="293.337" fill="#002738" width="6.994" height="16.421"/>
		<rect x="259.275" y="293.337" fill="#002738" width="6.994" height="16.421"/>
		<rect x="272.233" y="293.337" fill="#002738" width="6.994" height="16.421"/>
		<rect x="285.408" y="293.337" fill="#002738" width="6.993" height="16.421"/>
	</g>
	<g>
		<rect x="46.872" y="125.446" fill="#69E2DE" width="76.061" height="222.795"/>
		<rect x="53.866" y="108.543" fill="#69E2DE" width="60.323" height="25.354"/>
		<rect x="60.86" y="92.421" fill="#69E2DE" width="46.335" height="19.474"/>
		<rect x="57.384" y="137.778" fill="#00BEC5" width="9.39" height="20.756"/>
		<rect x="72.017" y="137.778" fill="#00BEC5" width="9.391" height="20.756"/>
		<rect x="86.649" y="137.778" fill="#00BEC5" width="9.391" height="20.756"/>
		<rect x="101.283" y="137.778" fill="#00BEC5" width="9.39" height="20.756"/>
		<rect x="57.384" y="166.106" fill="#00BEC5" width="9.39" height="20.755"/>
		<rect x="72.017" y="166.106" fill="#00BEC5" width="9.391" height="20.755"/>
		<rect x="86.649" y="166.106" fill="#00BEC5" width="9.391" height="20.755"/>
		<rect x="101.283" y="166.106" fill="#00BEC5" width="9.39" height="20.755"/>
		<rect x="57.384" y="194.434" fill="#00BEC5" width="9.39" height="20.756"/>
		<rect x="72.017" y="194.434" fill="#00BEC5" width="9.391" height="20.756"/>
		<rect x="86.649" y="194.434" fill="#00BEC5" width="9.391" height="20.756"/>
		<rect x="101.283" y="194.434" fill="#00BEC5" width="9.39" height="20.756"/>
		<rect x="57.384" y="222.762" fill="#00BEC5" width="9.39" height="20.756"/>
		<rect x="72.017" y="222.762" fill="#00BEC5" width="9.391" height="20.756"/>
		<rect x="86.649" y="222.762" fill="#00BEC5" width="9.391" height="20.756"/>
		<rect x="101.283" y="222.762" fill="#00BEC5" width="9.39" height="20.756"/>
	</g>
	<g>
		<polygon fill="#DCDCDC" points="178.921,344.832 108.563,344.832 108.563,204.863 122.933,179.032 163.989,179.032 
			178.921,204.863 		"/>
		<rect x="124.414" y="205.536" fill="#FFFFFF" width="9.39" height="20.756"/>
		<rect x="139.048" y="205.536" fill="#FFFFFF" width="9.389" height="20.756"/>
		<rect x="153.681" y="205.536" fill="#FFFFFF" width="9.391" height="20.756"/>
		<rect x="124.414" y="231.562" fill="#FFFFFF" width="9.39" height="20.756"/>
		<rect x="139.048" y="231.562" fill="#FFFFFF" width="9.389" height="20.756"/>
		<rect x="153.681" y="231.562" fill="#FFFFFF" width="9.391" height="20.756"/>
		<rect x="124.414" y="257.59" fill="#FFFFFF" width="9.39" height="20.756"/>
		<rect x="139.048" y="257.59" fill="#FFFFFF" width="9.389" height="20.756"/>
		<rect x="153.681" y="257.59" fill="#FFFFFF" width="9.391" height="20.756"/>
	</g>
	<g>
		<polygon fill="#FF5B45" points="389.994,344.832 319.638,344.832 319.638,242.915 354.816,195.344 389.994,242.915 		"/>
		<rect x="329.237" y="290.225" fill="#DCDCDC" width="51.158" height="26.759"/>
		<path fill="#EF3522" d="M386.305,291.57l-3.632-15.194h-20.952h-13.015H326.96l-3.633,15.194c-0.094,0.261-0.154,0.537-0.154,0.83
			c0,1.345,1.09,2.435,2.436,2.435c1.344,0,2.433-1.09,2.433-2.435c0,1.345,1.09,2.435,2.435,2.435c1.343,0,2.434-1.09,2.434-2.435
			c0,1.345,1.09,2.435,2.435,2.435c1.344,0,2.436-1.09,2.436-2.435c0,1.345,1.089,2.435,2.434,2.435c1.344,0,2.434-1.09,2.434-2.435
			c0,1.345,1.09,2.435,2.436,2.435c1.344,0,2.434-1.09,2.434-2.435c0,1.345,1.09,2.435,2.436,2.435c1.344,0,2.434-1.09,2.434-2.435
			c0,1.345,1.09,2.435,2.436,2.435c1.344,0,2.434-1.09,2.434-2.435c0,1.345,1.09,2.435,2.436,2.435c1.344,0,2.434-1.09,2.434-2.435
			c0,1.345,1.09,2.435,2.436,2.435c1.344,0,2.434-1.09,2.434-2.435c0,1.345,1.09,2.435,2.435,2.435s2.433-1.09,2.433-2.435
			c0,1.345,1.091,2.435,2.436,2.435c1.346,0,2.436-1.09,2.436-2.435c0,1.345,1.088,2.435,2.434,2.435
			c1.344,0,2.436-1.09,2.436-2.435c0,1.345,1.088,2.435,2.434,2.435c1.344,0,2.435-1.09,2.435-2.435
			C386.459,292.107,386.398,291.831,386.305,291.57z"/>
		<rect x="329.567" y="247.043" fill="#EF3522" width="8.115" height="18.586"/>
		<rect x="342.646" y="247.043" fill="#EF3522" width="8.114" height="18.586"/>
		<rect x="355.725" y="247.043" fill="#EF3522" width="8.114" height="18.586"/>
		<rect x="368.802" y="247.043" fill="#EF3522" width="8.114" height="18.586"/>
	</g>
	<g>
		<polygon fill="#69E2DE" points="319.638,329.434 249.28,329.434 249.28,243.57 284.459,196 319.638,243.57 		"/>
		<path fill="#00BEC5" d="M268.544,254.777c0.001-0.041,0.007-0.082,0.007-0.125c0-2.848-2.31-5.156-5.157-5.156
			s-5.156,2.309-5.156,5.156c0,0.043,0.006,0.084,0.006,0.125h-0.01v16.392h10.32v-16.392H268.544z"/>
		<path fill="#00BEC5" d="M282.587,254.777c0.002-0.041,0.007-0.082,0.007-0.125c0-2.848-2.309-5.156-5.157-5.156
			s-5.156,2.309-5.156,5.156c0,0.043,0.005,0.084,0.007,0.125h-0.011v16.392h10.32v-16.392H282.587z"/>
		<path fill="#00BEC5" d="M296.631,254.777c0.001-0.041,0.007-0.082,0.007-0.125c0-2.848-2.311-5.156-5.157-5.156
			c-2.848,0-5.157,2.309-5.157,5.156c0,0.043,0.004,0.084,0.006,0.125h-0.009v16.392h10.32v-16.392H296.631z"/>
		<path fill="#00BEC5" d="M310.674,254.777c0.001-0.041,0.007-0.082,0.007-0.125c0-2.848-2.31-5.156-5.156-5.156
			c-2.849,0-5.157,2.309-5.157,5.156c0,0.043,0.005,0.084,0.005,0.125h-0.008v16.392h10.32v-16.392H310.674z"/>
		<path fill="#00BEC5" d="M268.544,281.45c0.001-0.043,0.007-0.084,0.007-0.126c0-2.85-2.31-5.157-5.157-5.157
			s-5.156,2.31-5.156,5.157c0,0.042,0.006,0.083,0.006,0.126h-0.01v16.391h10.32V281.45H268.544z"/>
		<path fill="#00BEC5" d="M282.587,281.45c0.002-0.043,0.007-0.084,0.007-0.126c0-2.85-2.309-5.157-5.157-5.157
			s-5.156,2.31-5.156,5.157c0,0.042,0.005,0.083,0.007,0.126h-0.011v16.391h10.32V281.45H282.587z"/>
		<path fill="#00BEC5" d="M296.631,281.45c0.001-0.043,0.007-0.084,0.007-0.126c0-2.85-2.311-5.157-5.157-5.157
			c-2.848,0-5.157,2.31-5.157,5.157c0,0.042,0.004,0.083,0.006,0.126h-0.009v16.391h10.32V281.45H296.631z"/>
		<path fill="#00BEC5" d="M310.674,281.45c0.001-0.043,0.007-0.084,0.007-0.126c0-2.85-2.31-5.157-5.156-5.157
			c-2.849,0-5.157,2.31-5.157,5.157c0,0.042,0.005,0.083,0.005,0.126h-0.008v16.391h10.32V281.45H310.674z"/>
	</g>
	<g>
		<polygon fill="#FFA033" points="530.711,349.539 460.354,349.539 460.354,246.393 474.722,227.357 515.778,227.357 
			530.711,246.393 		"/>
		<rect x="476.452" y="252.032" fill="#FCD07A" width="38.159" height="17.485"/>
		<rect x="476.452" y="278.703" fill="#FCD07A" width="38.159" height="17.484"/>
	</g>
	<g>
		<rect x="178.923" y="211.691" fill="#FF5B45" width="70.357" height="133.141"/>
		<rect x="190.44" y="227.508" fill="#EF3522" width="14.101" height="6.994"/>
		<rect x="207.052" y="227.508" fill="#EF3522" width="14.1" height="6.994"/>
		<rect x="223.662" y="227.508" fill="#EF3522" width="14.101" height="6.994"/>
		<rect x="190.44" y="240.168" fill="#EF3522" width="14.101" height="6.994"/>
		<rect x="207.052" y="240.168" fill="#EF3522" width="14.1" height="6.994"/>
		<rect x="223.662" y="240.168" fill="#EF3522" width="14.101" height="6.994"/>
		<rect x="190.44" y="252.828" fill="#EF3522" width="14.101" height="6.994"/>
		<rect x="207.052" y="252.828" fill="#EF3522" width="14.1" height="6.994"/>
		<rect x="223.662" y="252.828" fill="#EF3522" width="14.101" height="6.994"/>
		<rect x="190.44" y="265.488" fill="#EF3522" width="14.101" height="6.994"/>
		<rect x="207.052" y="265.488" fill="#EF3522" width="14.1" height="6.994"/>
		<rect x="223.662" y="265.488" fill="#EF3522" width="14.101" height="6.994"/>
		<rect x="190.44" y="278.146" fill="#EF3522" width="14.101" height="6.994"/>
		<rect x="207.052" y="278.146" fill="#EF3522" width="14.1" height="6.994"/>
		<rect x="223.662" y="278.146" fill="#EF3522" width="14.101" height="6.994"/>
		<rect x="190.44" y="290.809" fill="#EF3522" width="14.101" height="6.993"/>
		<rect x="207.052" y="290.809" fill="#EF3522" width="14.1" height="6.993"/>
		<rect x="223.662" y="290.809" fill="#EF3522" width="14.101" height="6.993"/>
	</g>
	<g>
		<polygon fill="#004860" points="108.563,344.832 38.207,344.832 38.207,258.971 73.385,211.398 108.563,258.971 		"/>
		<rect x="60.005" y="247.213" fill="#002738" width="9.39" height="20.755"/>
		<rect x="74.638" y="247.213" fill="#002738" width="9.391" height="20.755"/>
		<rect x="60.005" y="274.764" fill="#002738" width="9.39" height="20.756"/>
		<rect x="74.638" y="274.764" fill="#002738" width="9.391" height="20.756"/>
	</g>
	<g>
		<rect x="389.995" y="235.186" fill="#004860" width="70.356" height="109.646"/>
		<rect x="396.343" y="221.117" fill="#004860" width="53.769" height="28.135"/>
		<rect x="402.909" y="208.859" fill="#004860" width="40.993" height="21.449"/>
		<rect x="402.022" y="243.295" fill="#002738" width="6.993" height="16.42"/>
		<rect x="415.198" y="243.295" fill="#002738" width="6.994" height="16.42"/>
		<rect x="428.155" y="243.295" fill="#002738" width="6.994" height="16.42"/>
		<rect x="441.331" y="243.295" fill="#002738" width="6.994" height="16.42"/>
		<rect x="402.022" y="265.898" fill="#002738" width="6.993" height="16.422"/>
		<rect x="415.198" y="265.898" fill="#002738" width="6.994" height="16.422"/>
		<rect x="428.155" y="265.898" fill="#002738" width="6.994" height="16.422"/>
		<rect x="441.331" y="265.898" fill="#002738" width="6.994" height="16.422"/>
		<rect x="402.022" y="288.506" fill="#002738" width="6.993" height="16.42"/>
		<rect x="415.198" y="288.506" fill="#002738" width="6.994" height="16.42"/>
		<rect x="428.155" y="288.506" fill="#002738" width="6.994" height="16.42"/>
		<rect x="441.331" y="288.506" fill="#002738" width="6.994" height="16.42"/>
	</g>
	<g>
		<polygon fill="#DCDCDC" points="601.069,331.463 530.711,331.463 530.711,245.6 565.891,198.027 601.069,245.6 		"/>
		<circle fill="#FFFFFF" cx="553.471" cy="252.032" r="8.481"/>
		<circle fill="#FFFFFF" cx="578.309" cy="252.032" r="8.481"/>
		<circle fill="#FFFFFF" cx="553.471" cy="276.167" r="8.481"/>
		<circle fill="#FFFFFF" cx="578.309" cy="276.167" r="8.481"/>
		<circle fill="#FFFFFF" cx="553.471" cy="300.301" r="8.481"/>
		<circle fill="#FFFFFF" cx="578.309" cy="300.301" r="8.481"/>
	</g>
	<rect x="10.963" y="329.098" fill="#AFC01D" width="637.35" height="24.027"/>
	<g>
		<g>
			<rect x="106.427" y="314.165" fill="#004860" width="4.274" height="25.014"/>
			<g>
				<path fill="#69E2DE" d="M89.858,304.139c0,10.331,8.375,18.706,18.705,18.706v-62.905
					C108.563,259.938,89.858,293.809,89.858,304.139z"/>
				<path fill="#00BEC5" d="M127.271,304.139c0-10.33-18.707-44.199-18.707-44.199v62.905
					C118.896,322.845,127.271,314.47,127.271,304.139z"/>
			</g>
		</g>
		<g>
			<rect x="151.544" y="314.165" fill="#004860" width="4.274" height="25.014"/>
			<g>
				<path fill="#69E2DE" d="M134.976,304.139c0,10.331,8.375,18.706,18.705,18.706v-62.905
					C153.681,259.938,134.976,293.809,134.976,304.139z"/>
				<path fill="#00BEC5" d="M172.388,304.139c0-10.33-18.707-44.199-18.707-44.199v62.905
					C164.013,322.845,172.388,314.47,172.388,304.139z"/>
			</g>
		</g>
		<g>
			<rect x="387.857" y="314.165" fill="#004860" width="4.273" height="25.014"/>
			<g>
				<path fill="#69E2DE" d="M371.288,304.139c0,10.331,8.375,18.706,18.707,18.706v-62.905
					C389.995,259.938,371.288,293.809,371.288,304.139z"/>
				<path fill="#00BEC5" d="M408.701,304.139c0-10.33-18.706-44.199-18.706-44.199v62.905
					C400.326,322.845,408.701,314.47,408.701,304.139z"/>
			</g>
		</g>
		<g>
			<rect x="528.573" y="314.165" fill="#004860" width="4.273" height="25.014"/>
			<g>
				<path fill="#69E2DE" d="M512.004,304.139c0,10.331,8.375,18.706,18.707,18.706v-62.905
					C530.711,259.938,512.004,293.809,512.004,304.139z"/>
				<path fill="#00BEC5" d="M549.417,304.139c0-10.33-18.706-44.199-18.706-44.199v62.905
					C541.042,322.845,549.417,314.47,549.417,304.139z"/>
			</g>
		</g>
		<g>
			<rect x="576.172" y="314.165" fill="#004860" width="4.274" height="25.014"/>
			<g>
				<path fill="#69E2DE" d="M559.604,304.139c0,10.331,8.375,18.706,18.707,18.706v-62.905
					C578.31,259.938,559.604,293.809,559.604,304.139z"/>
				<path fill="#00BEC5" d="M597.016,304.139c0-10.33-18.706-44.199-18.706-44.199v62.905
					C588.641,322.845,597.016,314.47,597.016,304.139z"/>
			</g>
		</g>
	</g>
</g>
</svg>
