<?xml version="1.0" encoding="utf-8"?>
<!-- Generator: Adobe Illustrator 16.0.0, SVG Export Plug-In . SVG Version: 6.00 Build 0)  -->
<!DOCTYPE svg PUBLIC "-//W3C//DTD SVG 1.1//EN" "http://www.w3.org/Graphics/SVG/1.1/DTD/svg11.dtd">
<svg version="1.1" id="Layer_1" xmlns="http://www.w3.org/2000/svg" xmlns:xlink="http://www.w3.org/1999/xlink" x="0px" y="0px"
	 width="584px" height="417px" viewBox="0 0 584 417" enable-background="new 0 0 584 417" xml:space="preserve">
<g>
	<g>
		<g>
			<path fill="#DCDCDC" d="M29.9,203.859c-0.53,0-1.04-0.21-1.41-0.59c-0.38-0.37-0.59-0.891-0.59-1.41c0-0.529,0.21-1.04,0.59-1.42
				c0.74-0.74,2.08-0.74,2.82,0c0.38,0.38,0.59,0.891,0.59,1.42c0,0.53-0.21,1.04-0.59,1.41
				C30.94,203.649,30.43,203.859,29.9,203.859z"/>
		</g>
		<g>
			<path fill="#DCDCDC" d="M27.9,309.89c0-1.11,0.89-2,2-2l0,0c1.1,0,2,0.89,2,2l0,0c0,1.1-0.9,2-2,2l0,0
				C28.79,311.89,27.9,310.989,27.9,309.89z M27.9,300.89c0-1.11,0.89-2,2-2l0,0c1.1,0,2,0.89,2,2l0,0c0,1.1-0.9,2-2,2l0,0
				C28.79,302.89,27.9,301.989,27.9,300.89z M27.9,291.88c0-1.101,0.89-2,2-2l0,0c1.1,0,2,0.899,2,2l0,0c0,1.109-0.9,2-2,2l0,0
				C28.79,293.88,27.9,292.989,27.9,291.88z M27.9,282.88c0-1.101,0.89-2,2-2l0,0c1.1,0,2,0.899,2,2l0,0c0,1.109-0.9,2-2,2l0,0
				C28.79,284.88,27.9,283.989,27.9,282.88z M27.9,273.88c0-1.11,0.89-2,2-2l0,0c1.1,0,2,0.89,2,2l0,0c0,1.1-0.9,2-2,2l0,0
				C28.79,275.88,27.9,274.979,27.9,273.88z M27.9,264.88c0-1.11,0.89-2,2-2l0,0c1.1,0,2,0.89,2,2l0,0c0,1.1-0.9,2-2,2l0,0
				C28.79,266.88,27.9,265.979,27.9,264.88z M27.9,255.869c0-1.1,0.89-1.999,2-1.999l0,0c1.1,0,2,0.899,2,1.999l0,0
				c0,1.11-0.9,2-2,2l0,0C28.79,257.869,27.9,256.979,27.9,255.869z M27.9,246.87c0-1.101,0.89-2,2-2l0,0c1.1,0,2,0.899,2,2l0,0
				c0,1.109-0.9,2-2,2l0,0C28.79,248.87,27.9,247.979,27.9,246.87z M27.9,237.87c0-1.111,0.89-2,2-2l0,0c1.1,0,2,0.889,2,2l0,0
				c0,1.1-0.9,2-2,2l0,0C28.79,239.87,27.9,238.97,27.9,237.87z M27.9,228.869c0-1.109,0.89-2,2-2l0,0c1.1,0,2,0.891,2,2l0,0
				c0,1.101-0.9,2.001-2,2.001l0,0C28.79,230.87,27.9,229.97,27.9,228.869z M27.9,219.859c0-1.1,0.89-2,2-2l0,0c1.1,0,2,0.9,2,2l0,0
				c0,1.109-0.9,2-2,2l0,0C28.79,221.859,27.9,220.969,27.9,219.859z M27.9,210.859c0-1.1,0.89-2,2-2l0,0c1.1,0,2,0.9,2,2l0,0
				c0,1.109-0.9,2-2,2l0,0C28.79,212.859,27.9,211.969,27.9,210.859z"/>
		</g>
		<g>
			<path fill="#DCDCDC" d="M29.9,320.89c-0.53,0-1.04-0.21-1.41-0.58c-0.38-0.37-0.59-0.89-0.59-1.42c0-0.521,0.21-1.04,0.59-1.41
				c0.74-0.75,2.08-0.75,2.82,0c0.38,0.37,0.59,0.89,0.59,1.41c0,0.53-0.21,1.04-0.59,1.42C30.94,320.68,30.43,320.89,29.9,320.89z"
				/>
		</g>
	</g>
	<g>
		<path fill="#DCDCDC" d="M158.79,253.96c0-1.11,0.89-2,2-2l0,0c1.101,0,2,0.89,2,2l0,0c0,1.1-0.899,1.999-2,1.999l0,0
			C159.68,255.959,158.79,255.06,158.79,253.96z M158.79,244.96c0-1.11,0.89-2,2-2l0,0c1.101,0,2,0.89,2,2l0,0c0,1.1-0.899,2-2,2
			l0,0C159.68,246.96,158.79,246.06,158.79,244.96z M158.79,235.96c0-1.11,0.89-2,2-2l0,0c1.101,0,2,0.89,2,2l0,0c0,1.1-0.899,2-2,2
			l0,0C159.68,237.96,158.79,237.06,158.79,235.96z M158.79,226.959c0-1.109,0.89-2,2-2l0,0c1.101,0,2,0.891,2,2l0,0
			c0,1.101-0.899,2-2,2l0,0C159.68,228.959,158.79,228.06,158.79,226.959z M158.79,217.959c0-1.109,0.89-2,2-2l0,0
			c1.101,0,2,0.891,2,2l0,0c0,1.101-0.899,2-2,2l0,0C159.68,219.959,158.79,219.06,158.79,217.959z M158.79,208.959
			c0-1.109,0.89-2,2-2l0,0c1.101,0,2,0.891,2,2l0,0c0,1.101-0.899,2-2,2l0,0C159.68,210.959,158.79,210.06,158.79,208.959z
			 M158.38,200.359c0-1.109,0.899-2,2-2l0,0c1.11,0,2,0.891,2,2l0,0c0,1.109-0.89,2-2,2l0,0
			C159.279,202.359,158.38,201.469,158.38,200.359z M149.38,200.359c0-1.109,0.899-2,2-2l0,0c1.11,0,2,0.891,2,2l0,0
			c0,1.109-0.89,2-2,2l0,0C150.279,202.359,149.38,201.469,149.38,200.359z M140.38,200.359c0-1.109,0.899-2,2-2l0,0
			c1.11,0,2,0.891,2,2l0,0c0,1.109-0.89,2-2,2l0,0C141.279,202.359,140.38,201.469,140.38,200.359z M131.38,200.359
			c0-1.109,0.899-2,2-2l0,0c1.11,0,2,0.891,2,2l0,0c0,1.109-0.89,2-2,2l0,0C132.279,202.359,131.38,201.469,131.38,200.359z
			 M122.38,200.359c0-1.109,0.899-2,2-2l0,0c1.11,0,2,0.891,2,2l0,0c0,1.109-0.89,2-2,2l0,0
			C123.279,202.359,122.38,201.469,122.38,200.359z M113.67,200.069c0-1.101,0.9-2,2-2l0,0c1.109,0,2,0.899,2,2l0,0
			c0,1.101-0.891,2-2,2l0,0C114.57,202.069,113.67,201.17,113.67,200.069z M113.67,191.069c0-1.11,0.9-2,2-2l0,0c1.109,0,2,0.89,2,2
			l0,0c0,1.101-0.891,2-2,2l0,0C114.57,193.069,113.67,192.17,113.67,191.069z M113.67,182.069c0-1.11,0.9-2,2-2l0,0
			c1.109,0,2,0.89,2,2l0,0c0,1.11-0.891,2-2,2l0,0C114.57,184.069,113.67,183.18,113.67,182.069z M113.67,173.069c0-1.11,0.9-2,2-2
			l0,0c1.109,0,2,0.89,2,2l0,0c0,1.101-0.891,2-2,2l0,0C114.57,175.069,113.67,174.17,113.67,173.069z M113.67,164.069
			c0-1.11,0.9-2,2-2l0,0c1.109,0,2,0.89,2,2l0,0c0,1.101-0.891,2-2,2l0,0C114.57,166.069,113.67,165.17,113.67,164.069z
			 M113.67,155.069c0-1.101,0.9-2,2-2l0,0c1.109,0,2,0.899,2,2l0,0c0,1.101-0.891,2-2,2l0,0
			C114.57,157.069,113.67,156.17,113.67,155.069z M113.67,146.069c0-1.11,0.9-2,2-2l0,0c1.109,0,2,0.89,2,2l0,0c0,1.101-0.891,2-2,2
			l0,0C114.57,148.069,113.67,147.17,113.67,146.069z M113.67,137.069c0-1.101,0.9-2,2-2l0,0c1.109,0,2,0.899,2,2l0,0
			c0,1.101-0.891,2-2,2l0,0C114.57,139.069,113.67,138.17,113.67,137.069z M113.67,128.069c0-1.11,0.9-2,2-2l0,0c1.109,0,2,0.89,2,2
			l0,0c0,1.101-0.891,2-2,2l0,0C114.57,130.069,113.67,129.17,113.67,128.069z M113.67,119.069c0-1.11,0.9-2,2-2l0,0
			c1.109,0,2,0.89,2,2l0,0c0,1.11-0.891,2-2,2l0,0C114.57,121.069,113.67,120.18,113.67,119.069z M113.67,110.069c0-1.11,0.9-2,2-2
			l0,0c1.109,0,2,0.89,2,2l0,0c0,1.101-0.891,2-2,2l0,0C114.57,112.069,113.67,111.17,113.67,110.069z M113.67,101.069
			c0-1.11,0.9-2,2-2l0,0c1.109,0,2,0.89,2,2l0,0c0,1.1-0.891,2-2,2l0,0C114.57,103.069,113.67,102.169,113.67,101.069z
			 M113.67,92.069c0-1.1,0.9-2,2-2l0,0c1.109,0,2,0.9,2,2l0,0c0,1.1-0.891,2-2,2l0,0C114.57,94.069,113.67,93.169,113.67,92.069z
			 M113.391,83.35c0-1.1,0.889-2,2-2l0,0c1.1,0,2,0.9,2,2l0,0c0,1.11-0.9,2-2,2l0,0C114.279,85.35,113.391,84.459,113.391,83.35z
			 M104.391,83.35c0-1.1,0.889-2,2-2l0,0c1.1,0,2,0.9,2,2l0,0c0,1.11-0.9,2-2,2l0,0C105.279,85.35,104.391,84.459,104.391,83.35z
			 M95.391,83.35c0-1.1,0.889-2,2-2l0,0c1.1,0,2,0.9,2,2l0,0c0,1.11-0.9,2-2,2l0,0C96.279,85.35,95.391,84.459,95.391,83.35z
			 M86.391,83.35c0-1.1,0.889-2,2-2l0,0c1.1,0,2,0.9,2,2l0,0c0,1.11-0.9,2-2,2l0,0C87.279,85.35,86.391,84.459,86.391,83.35z
			 M77.391,83.35c0-1.1,0.889-2,2-2l0,0c1.1,0,2,0.9,2,2l0,0c0,1.11-0.9,2-2,2l0,0C78.279,85.35,77.391,84.459,77.391,83.35z
			 M68.39,83.35c0-1.1,0.9-2,2-2l0,0c1.1,0,2,0.9,2,2l0,0c0,1.11-0.9,2-2,2l0,0C69.29,85.35,68.39,84.459,68.39,83.35z M59.39,83.35
			c0-1.1,0.89-2,2-2l0,0c1.1,0,2,0.9,2,2l0,0c0,1.11-0.9,2-2,2l0,0C60.28,85.35,59.39,84.459,59.39,83.35z M50.53,83.209
			c0-1.1,0.9-2,2-2l0,0c1.11,0,2,0.9,2,2l0,0c0,1.11-0.89,2-2,2l0,0C51.43,85.209,50.53,84.319,50.53,83.209z M50.53,74.209
			c0-1.1,0.9-2,2-2l0,0c1.11,0,2,0.9,2,2l0,0c0,1.11-0.89,2-2,2l0,0C51.43,76.209,50.53,75.319,50.53,74.209z M50.53,65.209
			c0-1.1,0.9-2,2-2l0,0c1.11,0,2,0.9,2,2l0,0c0,1.11-0.89,2-2,2l0,0C51.43,67.209,50.53,66.319,50.53,65.209z M50.53,56.209
			c0-1.1,0.9-2,2-2l0,0c1.11,0,2,0.9,2,2l0,0c0,1.11-0.89,2-2,2l0,0C51.43,58.209,50.53,57.319,50.53,56.209z M50.53,47.209
			c0-1.1,0.9-2,2-2l0,0c1.11,0,2,0.9,2,2l0,0c0,1.11-0.89,2-2,2l0,0C51.43,49.209,50.53,48.319,50.53,47.209z"/>
	</g>
	<g>
		<path fill="#DCDCDC" d="M89.73,399.459c0-1.109,0.899-2,2-2l0,0c1.109,0,2,0.891,2,2l0,0c0,1.101-0.891,2-2,2l0,0
			C90.63,401.459,89.73,400.56,89.73,399.459z M89.73,390.459c0-1.109,0.899-2,2-2l0,0c1.109,0,2,0.891,2,2l0,0c0,1.101-0.891,2-2,2
			l0,0C90.63,392.459,89.73,391.56,89.73,390.459z M89.73,381.459c0-1.109,0.899-2,2-2l0,0c1.109,0,2,0.891,2,2l0,0
			c0,1.101-0.891,2-2,2l0,0C90.63,383.459,89.73,382.56,89.73,381.459z M89.73,372.459c0-1.109,0.899-2,2-2l0,0c1.109,0,2,0.891,2,2
			l0,0c0,1.101-0.891,2-2,2l0,0C90.63,374.459,89.73,373.56,89.73,372.459z M89.73,363.459c0-1.109,0.899-2,2-2l0,0
			c1.109,0,2,0.891,2,2l0,0c0,1.101-0.891,2-2,2l0,0C90.63,365.459,89.73,364.56,89.73,363.459z M89.73,354.459c0-1.109,0.899-2,2-2
			l0,0c1.109,0,2,0.891,2,2l0,0c0,1.101-0.891,2-2,2l0,0C90.63,356.459,89.73,355.56,89.73,354.459z M89.73,345.459
			c0-1.109,0.899-2,2-2l0,0c1.109,0,2,0.891,2,2l0,0c0,1.101-0.891,2-2,2l0,0C90.63,347.459,89.73,346.56,89.73,345.459z
			 M89.73,336.459c0-1.109,0.899-2,2-2l0,0c1.109,0,2,0.891,2,2l0,0c0,1.101-0.891,2-2,2l0,0
			C90.63,338.459,89.73,337.56,89.73,336.459z M89.73,327.459c0-1.109,0.899-2,2-2l0,0c1.109,0,2,0.891,2,2l0,0c0,1.101-0.891,2-2,2
			l0,0C90.63,329.459,89.73,328.56,89.73,327.459z M89.73,318.459c0-1.109,0.899-2,2-2l0,0c1.109,0,2,0.891,2,2l0,0
			c0,1.101-0.891,2-2,2l0,0C90.63,320.459,89.73,319.56,89.73,318.459z M89.73,309.459c0-1.109,0.899-2,2-2l0,0c1.109,0,2,0.891,2,2
			l0,0c0,1.101-0.891,2-2,2l0,0C90.63,311.459,89.73,310.56,89.73,309.459z M89.73,300.459c0-1.109,0.899-2,2-2l0,0
			c1.109,0,2,0.891,2,2l0,0c0,1.101-0.891,2-2,2l0,0C90.63,302.459,89.73,301.56,89.73,300.459z M89.73,291.459c0-1.109,0.899-2,2-2
			l0,0c1.109,0,2,0.891,2,2l0,0c0,1.101-0.891,2-2,2l0,0C90.63,293.459,89.73,292.56,89.73,291.459z M89.73,282.459
			c0-1.109,0.899-2,2-2l0,0c1.109,0,2,0.891,2,2l0,0c0,1.101-0.891,2-2,2l0,0C90.63,284.459,89.73,283.56,89.73,282.459z
			 M89.73,273.459c0-1.109,0.899-2,2-2l0,0c1.109,0,2,0.891,2,2l0,0c0,1.101-0.891,2-2,2l0,0
			C90.63,275.459,89.73,274.56,89.73,273.459z M89.73,264.459c0-1.109,0.899-2,2-2l0,0c1.109,0,2,0.891,2,2l0,0c0,1.101-0.891,2-2,2
			l0,0C90.63,266.459,89.73,265.56,89.73,264.459z M89.73,255.46c0-1.11,0.899-2,2-2l0,0c1.109,0,2,0.89,2,2l0,0
			c0,1.1-0.891,1.999-2,1.999l0,0C90.63,257.459,89.73,256.56,89.73,255.46z M89.73,246.46c0-1.11,0.899-2,2-2l0,0
			c1.109,0,2,0.89,2,2l0,0c0,1.1-0.891,2-2,2l0,0C90.63,248.46,89.73,247.56,89.73,246.46z M89.73,237.46c0-1.11,0.899-2,2-2l0,0
			c1.109,0,2,0.89,2,2l0,0c0,1.1-0.891,2-2,2l0,0C90.63,239.46,89.73,238.56,89.73,237.46z M89.73,228.459c0-1.109,0.899-2,2-2l0,0
			c1.109,0,2,0.891,2,2l0,0c0,1.101-0.891,2.001-2,2.001l0,0C90.63,230.46,89.73,229.56,89.73,228.459z M89.73,219.459
			c0-1.109,0.899-2,2-2l0,0c1.109,0,2,0.891,2,2l0,0c0,1.101-0.891,2-2,2l0,0C90.63,221.459,89.73,220.56,89.73,219.459z
			 M89.73,210.459c0-1.109,0.899-2,2-2l0,0c1.109,0,2,0.891,2,2l0,0c0,1.101-0.891,2-2,2l0,0
			C90.63,212.459,89.73,211.56,89.73,210.459z M89.73,201.459c0-1.109,0.899-2,2-2l0,0c1.109,0,2,0.891,2,2l0,0c0,1.101-0.891,2-2,2
			l0,0C90.63,203.459,89.73,202.56,89.73,201.459z M89.73,192.459c0-1.109,0.899-2,2-2l0,0c1.109,0,2,0.891,2,2l0,0
			c0,1.101-0.891,2-2,2l0,0C90.63,194.459,89.73,193.56,89.73,192.459z M89.73,183.459c0-1.109,0.899-2,2-2l0,0c1.109,0,2,0.891,2,2
			l0,0c0,1.101-0.891,2-2,2l0,0C90.63,185.459,89.73,184.56,89.73,183.459z M89.73,174.459c0-1.109,0.899-2,2-2l0,0
			c1.109,0,2,0.891,2,2l0,0c0,1.101-0.891,2-2,2l0,0C90.63,176.459,89.73,175.56,89.73,174.459z M179.67,174.399c0-1.11,0.9-2,2-2
			l0,0c1.109,0,2,0.89,2,2l0,0c0,1.101-0.891,2-2,2l0,0C180.57,176.399,179.67,175.5,179.67,174.399z M170.67,174.399
			c0-1.11,0.9-2,2-2l0,0c1.109,0,2,0.89,2,2l0,0c0,1.101-0.891,2-2,2l0,0C171.57,176.399,170.67,175.5,170.67,174.399z
			 M161.67,174.399c0-1.11,0.9-2,2-2l0,0c1.109,0,2,0.89,2,2l0,0c0,1.101-0.891,2-2,2l0,0
			C162.57,176.399,161.67,175.5,161.67,174.399z M152.67,174.399c0-1.11,0.9-2,2-2l0,0c1.109,0,2,0.89,2,2l0,0c0,1.101-0.891,2-2,2
			l0,0C153.57,176.399,152.67,175.5,152.67,174.399z M143.67,174.399c0-1.11,0.9-2,2-2l0,0c1.109,0,2,0.89,2,2l0,0
			c0,1.101-0.891,2-2,2l0,0C144.57,176.399,143.67,175.5,143.67,174.399z M134.67,174.399c0-1.11,0.9-2,2-2l0,0c1.109,0,2,0.89,2,2
			l0,0c0,1.101-0.891,2-2,2l0,0C135.57,176.399,134.67,175.5,134.67,174.399z M125.67,174.399c0-1.11,0.9-2,2-2l0,0
			c1.109,0,2,0.89,2,2l0,0c0,1.101-0.891,2-2,2l0,0C126.57,176.399,125.67,175.5,125.67,174.399z M116.67,174.399c0-1.11,0.9-2,2-2
			l0,0c1.109,0,2,0.89,2,2l0,0c0,1.101-0.891,2-2,2l0,0C117.57,176.399,116.67,175.5,116.67,174.399z M107.67,174.399
			c0-1.11,0.9-2,2-2l0,0c1.109,0,2,0.89,2,2l0,0c0,1.101-0.891,2-2,2l0,0C108.57,176.399,107.67,175.5,107.67,174.399z
			 M98.67,174.399c0-1.11,0.9-2,2-2l0,0c1.109,0,2,0.89,2,2l0,0c0,1.101-0.891,2-2,2l0,0C99.57,176.399,98.67,175.5,98.67,174.399z
			 M179.96,165.68c0-1.1,0.89-2,2-2l0,0c1.101,0,2,0.9,2,2l0,0c0,1.109-0.899,2-2,2l0,0C180.85,167.68,179.96,166.789,179.96,165.68
			z M179.96,156.68c0-1.1,0.89-2,2-2l0,0c1.101,0,2,0.9,2,2l0,0c0,1.109-0.899,2-2,2l0,0
			C180.85,158.68,179.96,157.789,179.96,156.68z M179.96,147.68c0-1.1,0.89-2,2-2l0,0c1.101,0,2,0.9,2,2l0,0c0,1.109-0.899,2-2,2
			l0,0C180.85,149.68,179.96,148.789,179.96,147.68z M179.96,138.68c0-1.1,0.89-2,2-2l0,0c1.101,0,2,0.9,2,2l0,0
			c0,1.109-0.899,2.01-2,2.01l0,0C180.85,140.689,179.96,139.789,179.96,138.68z"/>
	</g>
	<g>
		<path fill="#DCDCDC" d="M232.8,350.069c0-1.1,0.9-2,2-2l0,0c1.11,0,2,0.9,2,2l0,0c0,1.11-0.89,2-2,2l0,0
			C233.7,352.069,232.8,351.18,232.8,350.069z M232.8,341.069c0-1.1,0.9-2,2-2l0,0c1.11,0,2,0.9,2,2l0,0c0,1.11-0.89,2-2,2l0,0
			C233.7,343.069,232.8,342.18,232.8,341.069z M232.8,332.069c0-1.1,0.9-2,2-2l0,0c1.11,0,2,0.9,2,2l0,0c0,1.11-0.89,2-2,2l0,0
			C233.7,334.069,232.8,333.18,232.8,332.069z M232.8,323.069c0-1.1,0.9-2,2-2l0,0c1.11,0,2,0.9,2,2l0,0c0,1.11-0.89,2-2,2l0,0
			C233.7,325.069,232.8,324.18,232.8,323.069z M232.8,314.069c0-1.1,0.9-2,2-2l0,0c1.11,0,2,0.9,2,2l0,0c0,1.11-0.89,2-2,2l0,0
			C233.7,316.069,232.8,315.18,232.8,314.069z M232.8,305.069c0-1.1,0.9-2,2-2l0,0c1.11,0,2,0.9,2,2l0,0c0,1.11-0.89,2-2,2l0,0
			C233.7,307.069,232.8,306.18,232.8,305.069z M232.8,296.069c0-1.1,0.9-2,2-2l0,0c1.11,0,2,0.9,2,2l0,0c0,1.11-0.89,2-2,2l0,0
			C233.7,298.069,232.8,297.18,232.8,296.069z M232.8,287.069c0-1.1,0.9-2,2-2l0,0c1.11,0,2,0.9,2,2l0,0c0,1.11-0.89,2-2,2l0,0
			C233.7,289.069,232.8,288.18,232.8,287.069z M232.8,278.069c0-1.1,0.9-2,2-2l0,0c1.11,0,2,0.9,2,2l0,0c0,1.11-0.89,2-2,2l0,0
			C233.7,280.069,232.8,279.18,232.8,278.069z M232.8,269.069c0-1.1,0.9-2,2-2l0,0c1.11,0,2,0.9,2,2l0,0c0,1.11-0.89,2-2,2l0,0
			C233.7,271.069,232.8,270.18,232.8,269.069z M232.8,260.069c0-1.1,0.9-2,2-2l0,0c1.11,0,2,0.9,2,2l0,0c0,1.11-0.89,2-2,2l0,0
			C233.7,262.069,232.8,261.18,232.8,260.069z M232.8,251.069c0-1.1,0.9-2,2-2l0,0c1.11,0,2,0.9,2,2l0,0c0,1.11-0.89,2-2,2l0,0
			C233.7,253.069,232.8,252.18,232.8,251.069z M232.8,242.069c0-1.1,0.9-2,2-2l0,0c1.11,0,2,0.9,2,2l0,0c0,1.11-0.89,2-2,2l0,0
			C233.7,244.069,232.8,243.18,232.8,242.069z M232.8,233.069c0-1.1,0.9-2,2-2l0,0c1.11,0,2,0.9,2,2l0,0c0,1.11-0.89,2-2,2l0,0
			C233.7,235.069,232.8,234.18,232.8,233.069z M232.8,224.069c0-1.101,0.9-2,2-2l0,0c1.11,0,2,0.899,2,2l0,0c0,1.11-0.89,2-2,2l0,0
			C233.7,226.069,232.8,225.18,232.8,224.069z M232.8,215.069c0-1.101,0.9-2,2-2l0,0c1.11,0,2,0.899,2,2l0,0c0,1.11-0.89,2-2,2l0,0
			C233.7,217.069,232.8,216.18,232.8,215.069z M232.8,206.069c0-1.101,0.9-2,2-2l0,0c1.11,0,2,0.899,2,2l0,0c0,1.11-0.89,2-2,2l0,0
			C233.7,208.069,232.8,207.18,232.8,206.069z M232.8,197.069c0-1.101,0.9-2,2-2l0,0c1.11,0,2,0.899,2,2l0,0c0,1.11-0.89,2-2,2l0,0
			C233.7,199.069,232.8,198.18,232.8,197.069z M232.8,188.069c0-1.101,0.9-2,2-2l0,0c1.11,0,2,0.899,2,2l0,0c0,1.11-0.89,2-2,2l0,0
			C233.7,190.069,232.8,189.18,232.8,188.069z M232.8,179.069c0-1.101,0.9-2,2-2l0,0c1.11,0,2,0.899,2,2l0,0c0,1.11-0.89,2-2,2l0,0
			C233.7,181.069,232.8,180.18,232.8,179.069z M232.8,170.069c0-1.101,0.9-2,2-2l0,0c1.11,0,2,0.899,2,2l0,0c0,1.11-0.89,2-2,2l0,0
			C233.7,172.069,232.8,171.18,232.8,170.069z M232.8,161.069c0-1.101,0.9-2,2-2l0,0c1.11,0,2,0.899,2,2l0,0c0,1.11-0.89,2-2,2l0,0
			C233.7,163.069,232.8,162.18,232.8,161.069z M232.8,152.069c0-1.101,0.9-2,2-2l0,0c1.11,0,2,0.899,2,2l0,0c0,1.11-0.89,2-2,2l0,0
			C233.7,154.069,232.8,153.18,232.8,152.069z M232.8,143.069c0-1.101,0.9-2,2-2l0,0c1.11,0,2,0.899,2,2l0,0c0,1.11-0.89,2-2,2l0,0
			C233.7,145.069,232.8,144.18,232.8,143.069z M232.8,134.069c0-1.101,0.9-2,2-2l0,0c1.11,0,2,0.899,2,2l0,0c0,1.11-0.89,2-2,2l0,0
			C233.7,136.069,232.8,135.18,232.8,134.069z M232.8,125.069c0-1.101,0.9-2,2-2l0,0c1.11,0,2,0.899,2,2l0,0c0,1.11-0.89,2-2,2l0,0
			C233.7,127.069,232.8,126.18,232.8,125.069z M259.76,125.029c0-1.109,0.891-2,2-2l0,0c1.1,0,2,0.891,2,2l0,0c0,1.1-0.9,2-2,2l0,0
			C260.65,127.029,259.76,126.129,259.76,125.029z M250.76,125.029c0-1.109,0.891-2,2-2l0,0c1.1,0,2,0.891,2,2l0,0c0,1.1-0.9,2-2,2
			l0,0C251.65,127.029,250.76,126.129,250.76,125.029z M241.76,125.029c0-1.109,0.891-2,2-2l0,0c1.1,0,2,0.891,2,2l0,0
			c0,1.1-0.9,2-2,2l0,0C242.65,127.029,241.76,126.129,241.76,125.029z M260.55,116.81c0-1.101,0.89-1.99,1.99-1.99l0,0
			c1.11,0,2.01,0.89,2.01,1.99l0,0c0,1.11-0.899,2.01-2.01,2.01l0,0C261.439,118.819,260.55,117.92,260.55,116.81z M260.55,107.819
			c0-1.11,0.89-2,1.99-2l0,0c1.11,0,2.01,0.89,2.01,2l0,0c0,1.1-0.899,2-2.01,2l0,0C261.439,109.819,260.55,108.919,260.55,107.819z
			 M260.55,98.819c0-1.11,0.89-2.01,1.99-2.01l0,0c1.11,0,2.01,0.9,2.01,2.01l0,0c0,1.1-0.899,1.99-2.01,1.99l0,0
			C261.439,100.81,260.55,99.919,260.55,98.819z M260.55,89.81c0-1.1,0.89-1.99,1.99-1.99l0,0c1.11,0,2.01,0.89,2.01,1.99l0,0
			c0,1.11-0.899,2.01-2.01,2.01l0,0C261.439,91.819,260.55,90.919,260.55,89.81z M260.55,80.819c0-1.11,0.89-2,1.99-2l0,0
			c1.11,0,2.01,0.89,2.01,2l0,0c0,1.1-0.899,2-2.01,2l0,0C261.439,82.819,260.55,81.919,260.55,80.819z M260.55,71.819
			c0-1.11,0.89-2,1.99-2l0,0c1.11,0,2.01,0.89,2.01,2l0,0c0,1.1-0.899,2-2.01,2l0,0C261.439,73.819,260.55,72.919,260.55,71.819z
			 M260.38,62.979c0-1.11,0.899-2,2-2l0,0c1.101,0,2,0.89,2,2l0,0c0,1.1-0.899,2-2,2l0,0C261.279,64.979,260.38,64.08,260.38,62.979
			z M251.38,62.979c0-1.11,0.899-2,2-2l0,0c1.11,0,2,0.89,2,2l0,0c0,1.1-0.89,2-2,2l0,0C252.279,64.979,251.38,64.08,251.38,62.979z
			 M242.38,62.979c0-1.11,0.899-2,2-2l0,0c1.11,0,2,0.89,2,2l0,0c0,1.1-0.89,2-2,2l0,0C243.279,64.979,242.38,64.08,242.38,62.979z
			 M242.33,54.029c0-1.1,0.891-1.99,1.99-1.99l0,0c1.109,0,2.01,0.89,2.01,1.99l0,0c0,1.11-0.9,2.01-2.01,2.01l0,0
			C243.221,56.04,242.33,55.14,242.33,54.029z M242.33,45.04c0-1.11,0.891-2,1.99-2l0,0c1.109,0,2.01,0.89,2.01,2l0,0
			c0,1.1-0.9,2-2.01,2l0,0C243.221,47.04,242.33,46.14,242.33,45.04z M242.33,36.04c0-1.11,0.891-2,1.99-2l0,0
			c1.109,0,2.01,0.89,2.01,2l0,0c0,1.1-0.9,2-2.01,2l0,0C243.221,38.04,242.33,37.14,242.33,36.04z M242.33,27.029
			c0-1.1,0.891-1.99,1.99-1.99l0,0c1.109,0,2.01,0.89,2.01,1.99l0,0c0,1.11-0.9,2.01-2.01,2.01l0,0
			C243.221,29.04,242.33,28.14,242.33,27.029z M242.33,18.04c0-1.11,0.891-2,1.99-2l0,0c1.109,0,2.01,0.89,2.01,2l0,0
			c0,1.1-0.9,2-2.01,2l0,0C243.221,20.04,242.33,19.14,242.33,18.04z"/>
	</g>
	<g>
		<path fill="#DCDCDC" d="M347.29,361.279c0-1.109,0.89-2,2-2l0,0c1.1,0,2,0.891,2,2l0,0c0,1.101-0.9,2-2,2l0,0
			C348.18,363.279,347.29,362.38,347.29,361.279z M347.29,352.279c0-1.109,0.89-2,2-2l0,0c1.1,0,2,0.891,2,2l0,0c0,1.101-0.9,2-2,2
			l0,0C348.18,354.279,347.29,353.38,347.29,352.279z M347.29,343.279c0-1.109,0.89-2,2-2l0,0c1.1,0,2,0.891,2,2l0,0
			c0,1.101-0.9,2-2,2l0,0C348.18,345.279,347.29,344.38,347.29,343.279z M347.29,334.279c0-1.109,0.89-2,2-2l0,0c1.1,0,2,0.891,2,2
			l0,0c0,1.101-0.9,2-2,2l0,0C348.18,336.279,347.29,335.38,347.29,334.279z M347.29,325.279c0-1.109,0.89-2,2-2l0,0
			c1.1,0,2,0.891,2,2l0,0c0,1.101-0.9,2-2,2l0,0C348.18,327.279,347.29,326.38,347.29,325.279z M347.29,316.279c0-1.109,0.89-2,2-2
			l0,0c1.1,0,2,0.891,2,2l0,0c0,1.101-0.9,2-2,2l0,0C348.18,318.279,347.29,317.38,347.29,316.279z M347.29,307.279
			c0-1.109,0.89-2,2-2l0,0c1.1,0,2,0.891,2,2l0,0c0,1.101-0.9,2-2,2l0,0C348.18,309.279,347.29,308.38,347.29,307.279z
			 M347.29,298.279c0-1.109,0.89-2,2-2l0,0c1.1,0,2,0.891,2,2l0,0c0,1.101-0.9,2-2,2l0,0
			C348.18,300.279,347.29,299.38,347.29,298.279z M347.29,289.279c0-1.109,0.89-2,2-2l0,0c1.1,0,2,0.891,2,2l0,0c0,1.101-0.9,2-2,2
			l0,0C348.18,291.279,347.29,290.38,347.29,289.279z M347.29,280.279c0-1.109,0.89-2,2-2l0,0c1.1,0,2,0.891,2,2l0,0
			c0,1.101-0.9,2-2,2l0,0C348.18,282.279,347.29,281.38,347.29,280.279z M347.29,271.279c0-1.109,0.89-2,2-2l0,0c1.1,0,2,0.891,2,2
			l0,0c0,1.101-0.9,2-2,2l0,0C348.18,273.279,347.29,272.38,347.29,271.279z M347.29,262.279c0-1.109,0.89-2,2-2l0,0
			c1.1,0,2,0.891,2,2l0,0c0,1.101-0.9,2-2,2l0,0C348.18,264.279,347.29,263.38,347.29,262.279z M347.29,253.279c0-1.11,0.89-2,2-2
			l0,0c1.1,0,2,0.89,2,2l0,0c0,1.101-0.9,2-2,2l0,0C348.18,255.279,347.29,254.38,347.29,253.279z M345.29,246.279
			c0-1.11,0.89-2,2-2l0,0c1.1,0,2,0.89,2,2l0,0c0,1.101-0.9,2-2,2l0,0C346.18,248.279,345.29,247.38,345.29,246.279z
			 M336.29,246.279c0-1.11,0.89-2,2-2l0,0c1.1,0,2,0.89,2,2l0,0c0,1.101-0.9,2-2,2l0,0C337.18,248.279,336.29,247.38,336.29,246.279
			z M327.29,246.279c0-1.11,0.89-2,2-2l0,0c1.1,0,2,0.89,2,2l0,0c0,1.101-0.9,2-2,2l0,0
			C328.18,248.279,327.29,247.38,327.29,246.279z M320.23,244.339c0-1.109,0.899-2,2-2l0,0c1.109,0,2,0.891,2,2l0,0
			c0,1.101-0.891,2-2,2l0,0C321.13,246.339,320.23,245.439,320.23,244.339z M320.23,235.339c0-1.109,0.899-2,2-2l0,0
			c1.109,0,2,0.891,2,2l0,0c0,1.101-0.891,2-2,2l0,0C321.13,237.339,320.23,236.439,320.23,235.339z M320.23,226.34
			c0-1.11,0.899-2,2-2l0,0c1.109,0,2,0.89,2,2l0,0c0,1.1-0.891,2-2,2l0,0C321.13,228.34,320.23,227.439,320.23,226.34z"/>
	</g>
	<g>
		<path fill="#DCDCDC" d="M526.72,366.569c0-1.11,0.891-2,2-2l0,0c1.11,0,2,0.89,2,2l0,0c0,1.101-0.89,2-2,2l0,0
			C527.61,368.569,526.72,367.67,526.72,366.569z M526.72,357.569c0-1.11,0.891-2,2-2l0,0c1.11,0,2,0.89,2,2l0,0c0,1.101-0.89,2-2,2
			l0,0C527.61,359.569,526.72,358.67,526.72,357.569z M526.72,348.569c0-1.11,0.891-2,2-2l0,0c1.11,0,2,0.89,2,2l0,0
			c0,1.101-0.89,2-2,2l0,0C527.61,350.569,526.72,349.67,526.72,348.569z M526.72,339.569c0-1.11,0.891-2,2-2l0,0c1.11,0,2,0.89,2,2
			l0,0c0,1.101-0.89,2-2,2l0,0C527.61,341.569,526.72,340.67,526.72,339.569z M526.72,330.569c0-1.11,0.891-2,2-2l0,0
			c1.11,0,2,0.89,2,2l0,0c0,1.101-0.89,2-2,2l0,0C527.61,332.569,526.72,331.67,526.72,330.569z M526.72,321.569c0-1.11,0.891-2,2-2
			l0,0c1.11,0,2,0.89,2,2l0,0c0,1.101-0.89,2-2,2l0,0C527.61,323.569,526.72,322.67,526.72,321.569z M526.72,312.569
			c0-1.11,0.891-2,2-2l0,0c1.11,0,2,0.89,2,2l0,0c0,1.101-0.89,2-2,2l0,0C527.61,314.569,526.72,313.67,526.72,312.569z
			 M526.72,303.569c0-1.11,0.891-2,2-2l0,0c1.11,0,2,0.89,2,2l0,0c0,1.101-0.89,2-2,2l0,0
			C527.61,305.569,526.72,304.67,526.72,303.569z M526.72,294.569c0-1.11,0.891-2,2-2l0,0c1.11,0,2,0.89,2,2l0,0c0,1.101-0.89,2-2,2
			l0,0C527.61,296.569,526.72,295.67,526.72,294.569z M526.72,285.569c0-1.11,0.891-2,2-2l0,0c1.11,0,2,0.89,2,2l0,0
			c0,1.101-0.89,2-2,2l0,0C527.61,287.569,526.72,286.67,526.72,285.569z M526.72,276.569c0-1.11,0.891-2,2-2l0,0c1.11,0,2,0.89,2,2
			l0,0c0,1.101-0.89,2-2,2l0,0C527.61,278.569,526.72,277.67,526.72,276.569z M526.72,267.569c0-1.11,0.891-2,2-2l0,0
			c1.11,0,2,0.89,2,2l0,0c0,1.101-0.89,2-2,2l0,0C527.61,269.569,526.72,268.67,526.72,267.569z M526.72,258.569c0-1.11,0.891-2,2-2
			l0,0c1.11,0,2,0.89,2,2l0,0c0,1.101-0.89,2-2,2l0,0C527.61,260.569,526.72,259.67,526.72,258.569z M553.93,249.779
			c0-1.11,0.891-2,2-2l0,0c1.101,0,2,0.89,2,2l0,0c0,1.101-0.899,2-2,2l0,0C554.82,251.779,553.93,250.88,553.93,249.779z
			 M544.93,249.779c0-1.11,0.891-2,2-2l0,0c1.101,0,2,0.89,2,2l0,0c0,1.101-0.899,2-2,2l0,0
			C545.82,251.779,544.93,250.88,544.93,249.779z M535.93,249.779c0-1.11,0.891-2,2-2l0,0c1.101,0,2,0.89,2,2l0,0
			c0,1.101-0.899,2-2,2l0,0C536.82,251.779,535.93,250.88,535.93,249.779z M526.93,249.779c0-1.11,0.891-2,2-2l0,0
			c1.101,0,2,0.89,2,2l0,0c0,1.101-0.899,2-2,2l0,0C527.82,251.779,526.93,250.88,526.93,249.779z M554,240.85c0-1.11,0.89-2,2-2
			l0,0c1.11,0,2,0.89,2,2l0,0c0,1.101-0.89,2-2,2l0,0C554.89,242.85,554,241.95,554,240.85z M554,231.85c0-1.11,0.89-2,2-2l0,0
			c1.11,0,2,0.89,2,2l0,0c0,1.101-0.89,2-2,2l0,0C554.89,233.85,554,232.95,554,231.85z M554,222.85c0-1.11,0.89-2,2-2l0,0
			c1.11,0,2,0.89,2,2l0,0c0,1.1-0.89,2-2,2l0,0C554.89,224.85,554,223.949,554,222.85z M554,213.85c0-1.11,0.89-2,2-2l0,0
			c1.11,0,2,0.89,2,2l0,0c0,1.1-0.89,2-2,2l0,0C554.89,215.85,554,214.949,554,213.85z M554,204.85c0-1.11,0.89-2,2-2l0,0
			c1.11,0,2,0.89,2,2l0,0c0,1.1-0.89,2-2,2l0,0C554.89,206.85,554,205.949,554,204.85z M554,195.85c0-1.11,0.89-2,2-2l0,0
			c1.11,0,2,0.89,2,2l0,0c0,1.1-0.89,2-2,2l0,0C554.89,197.85,554,196.949,554,195.85z M554,186.85c0-1.11,0.89-2,2-2l0,0
			c1.11,0,2,0.89,2,2l0,0c0,1.1-0.89,2-2,2l0,0C554.89,188.85,554,187.949,554,186.85z M554,177.85c0-1.11,0.89-2,2-2l0,0
			c1.11,0,2,0.89,2,2l0,0c0,1.1-0.89,2-2,2l0,0C554.89,179.85,554,178.949,554,177.85z M554,168.85c0-1.11,0.89-2,2-2l0,0
			c1.11,0,2,0.89,2,2l0,0c0,1.1-0.89,2-2,2l0,0C554.89,170.85,554,169.949,554,168.85z M554,159.85c0-1.11,0.89-2,2-2l0,0
			c1.11,0,2,0.89,2,2l0,0c0,1.1-0.89,2-2,2l0,0C554.89,161.85,554,160.949,554,159.85z M554,150.85c0-1.11,0.89-2,2-2l0,0
			c1.11,0,2,0.89,2,2l0,0c0,1.1-0.89,2-2,2l0,0C554.89,152.85,554,151.949,554,150.85z M554,141.85c0-1.11,0.89-2,2-2l0,0
			c1.11,0,2,0.89,2,2l0,0c0,1.1-0.89,2-2,2l0,0C554.89,143.85,554,142.949,554,141.85z M554,132.85c0-1.11,0.89-2,2-2l0,0
			c1.11,0,2,0.89,2,2l0,0c0,1.1-0.89,2-2,2l0,0C554.89,134.85,554,133.949,554,132.85z M554,123.85c0-1.11,0.89-2,2-2l0,0
			c1.11,0,2,0.89,2,2l0,0c0,1.1-0.89,2-2,2l0,0C554.89,125.85,554,124.949,554,123.85z M554,114.85c0-1.11,0.89-2,2-2l0,0
			c1.11,0,2,0.89,2,2l0,0c0,1.1-0.89,2-2,2l0,0C554.89,116.85,554,115.949,554,114.85z M554,105.85c0-1.11,0.89-2,2-2l0,0
			c1.11,0,2,0.89,2,2l0,0c0,1.1-0.89,2-2,2l0,0C554.89,107.85,554,106.95,554,105.85z M554,96.85c0-1.11,0.89-2,2-2l0,0
			c1.11,0,2,0.89,2,2l0,0c0,1.1-0.89,2-2,2l0,0C554.89,98.85,554,97.95,554,96.85z M554,87.85c0-1.11,0.89-2,2-2l0,0
			c1.11,0,2,0.89,2,2l0,0c0,1.1-0.89,2-2,2l0,0C554.89,89.85,554,88.95,554,87.85z M554,78.85c0-1.11,0.89-2,2-2l0,0
			c1.11,0,2,0.89,2,2l0,0c0,1.1-0.89,2-2,2l0,0C554.89,80.85,554,79.95,554,78.85z M554,69.85c0-1.11,0.89-2,2-2l0,0
			c1.11,0,2,0.89,2,2l0,0c0,1.1-0.89,2-2,2l0,0C554.89,71.85,554,70.95,554,69.85z M554,60.85c0-1.11,0.89-2,2-2l0,0
			c1.11,0,2,0.89,2,2l0,0c0,1.1-0.89,2-2,2l0,0C554.89,62.85,554,61.95,554,60.85z M554,51.85c0-1.11,0.89-2,2-2l0,0
			c1.11,0,2,0.89,2,2l0,0c0,1.1-0.89,2-2,2l0,0C554.89,53.85,554,52.95,554,51.85z M554,42.85c0-1.1,0.89-2,2-2l0,0
			c1.11,0,2,0.9,2,2l0,0c0,1.1-0.89,2-2,2l0,0C554.89,44.85,554,43.95,554,42.85z M554,33.85c0-1.11,0.89-2,2-2l0,0
			c1.11,0,2,0.89,2,2l0,0c0,1.1-0.89,2-2,2l0,0C554.89,35.85,554,34.95,554,33.85z"/>
	</g>
	<g>
		<path fill="#DCDCDC" d="M456.02,294.619c0-1.1,0.891-2,2-2l0,0c1.101,0,2,0.9,2,2l0,0c0,1.11-0.899,2-2,2l0,0
			C456.91,296.619,456.02,295.729,456.02,294.619z M456.02,285.619c0-1.1,0.891-2,2-2l0,0c1.101,0,2,0.9,2,2l0,0c0,1.11-0.899,2-2,2
			l0,0C456.91,287.619,456.02,286.729,456.02,285.619z M456.02,276.619c0-1.1,0.891-2,2-2l0,0c1.101,0,2,0.9,2,2l0,0
			c0,1.11-0.899,2-2,2l0,0C456.91,278.619,456.02,277.729,456.02,276.619z M456.02,267.619c0-1.1,0.891-1.989,2-1.989l0,0
			c1.101,0,2,0.89,2,1.989l0,0c0,1.11-0.899,2-2,2l0,0C456.91,269.619,456.02,268.729,456.02,267.619z M456.02,258.619
			c0-1.1,0.891-2,2-2l0,0c1.101,0,2,0.9,2,2l0,0c0,1.11-0.899,2-2,2l0,0C456.91,260.619,456.02,259.729,456.02,258.619z
			 M491.99,258.6c0-1.11,0.89-2,2-2l0,0c1.1,0,2,0.89,2,2l0,0c0,1.1-0.9,2-2,2l0,0C492.88,260.6,491.99,259.699,491.99,258.6z
			 M482.99,258.6c0-1.11,0.89-2,2-2l0,0c1.1,0,2,0.89,2,2l0,0c0,1.1-0.9,2-2,2l0,0C483.88,260.6,482.99,259.699,482.99,258.6z
			 M473.99,258.6c0-1.11,0.89-2,2-2l0,0c1.1,0,2,0.89,2,2l0,0c0,1.1-0.9,2-2,2l0,0C474.88,260.6,473.99,259.699,473.99,258.6z
			 M464.99,258.6c0-1.11,0.89-2,2-2l0,0c1.1,0,2,0.89,2,2l0,0c0,1.1-0.9,2-2,2l0,0C465.88,260.6,464.99,259.699,464.99,258.6z
			 M500.4,257.999c0-1.1,0.89-2,2-2l0,0c1.1,0,2,0.9,2,2l0,0c0,1.11-0.9,2-2,2l0,0C501.29,259.999,500.4,259.109,500.4,257.999z
			 M500.4,248.999c0-1.1,0.89-1.99,2-1.99l0,0c1.1,0,2,0.891,2,1.99l0,0c0,1.11-0.9,2.01-2,2.01l0,0
			C501.29,251.009,500.4,250.109,500.4,248.999z M500.4,239.999c0-1.1,0.89-1.99,2-1.99l0,0c1.1,0,2,0.891,2,1.99l0,0
			c0,1.11-0.9,2.01-2,2.01l0,0C501.29,242.009,500.4,241.109,500.4,239.999z M500.4,230.999c0-1.1,0.89-1.989,2-1.989l0,0
			c1.1,0,2,0.89,2,1.989l0,0c0,1.11-0.9,2.01-2,2.01l0,0C501.29,233.009,500.4,232.109,500.4,230.999z M500.4,222.01
			c0-1.11,0.89-2,2-2l0,0c1.1,0,2,0.89,2,2l0,0c0,1.1-0.9,2-2,2l0,0C501.29,224.01,500.4,223.109,500.4,222.01z M500.4,213.01
			c0-1.11,0.89-2,2-2l0,0c1.1,0,2,0.89,2,2l0,0c0,1.1-0.9,2-2,2l0,0C501.29,215.01,500.4,214.109,500.4,213.01z M500.4,204.01
			c0-1.11,0.89-2,2-2l0,0c1.1,0,2,0.89,2,2l0,0c0,1.1-0.9,2-2,2l0,0C501.29,206.01,500.4,205.109,500.4,204.01z M500.4,195.01
			c0-1.11,0.89-2.01,2-2.01l0,0c1.1,0,2,0.899,2,2.01l0,0c0,1.1-0.9,2-2,2l0,0C501.29,197.01,500.4,196.109,500.4,195.01z"/>
	</g>
	<g>
		<path fill="#DCDCDC" d="M377.25,376.81c0-1.11,0.9-2,2.01-2l0,0c1.101,0,2,0.89,2,2l0,0c0,1.1-0.899,2-2,2l0,0
			C378.15,378.81,377.25,377.909,377.25,376.81z M377.25,367.81c0-1.11,0.9-2,2.01-2l0,0c1.101,0,2,0.89,2,2l0,0c0,1.1-0.899,2-2,2
			l0,0C378.15,369.81,377.25,368.909,377.25,367.81z M377.25,358.81c0-1.11,0.9-2,2.01-2l0,0c1.101,0,2,0.89,2,2l0,0
			c0,1.1-0.899,2-2,2l0,0C378.15,360.81,377.25,359.909,377.25,358.81z M377.25,349.81c0-1.11,0.9-2,2.01-2l0,0c1.101,0,2,0.89,2,2
			l0,0c0,1.1-0.899,2-2,2l0,0C378.15,351.81,377.25,350.909,377.25,349.81z M377.25,340.81c0-1.11,0.9-2,2.01-2l0,0
			c1.101,0,2,0.89,2,2l0,0c0,1.1-0.899,2-2,2l0,0C378.15,342.81,377.25,341.909,377.25,340.81z M377.25,331.81c0-1.11,0.9-2,2.01-2
			l0,0c1.101,0,2,0.89,2,2l0,0c0,1.1-0.899,2-2,2l0,0C378.15,333.81,377.25,332.909,377.25,331.81z M377.25,322.81
			c0-1.11,0.9-2,2.01-2l0,0c1.101,0,2,0.89,2,2l0,0c0,1.1-0.899,2-2,2l0,0C378.15,324.81,377.25,323.909,377.25,322.81z
			 M377.25,313.81c0-1.11,0.9-2,2.01-2l0,0c1.101,0,2,0.89,2,2l0,0c0,1.1-0.899,2-2,2l0,0
			C378.15,315.81,377.25,314.909,377.25,313.81z M377.25,304.81c0-1.11,0.9-2,2.01-2l0,0c1.101,0,2,0.89,2,2l0,0c0,1.1-0.899,2-2,2
			l0,0C378.15,306.81,377.25,305.909,377.25,304.81z M377.25,295.81c0-1.11,0.9-2,2.01-2l0,0c1.101,0,2,0.89,2,2l0,0
			c0,1.1-0.899,2-2,2l0,0C378.15,297.81,377.25,296.909,377.25,295.81z M377.25,286.81c0-1.11,0.9-2,2.01-2l0,0c1.101,0,2,0.89,2,2
			l0,0c0,1.1-0.899,2-2,2l0,0C378.15,288.81,377.25,287.909,377.25,286.81z M377.25,277.81c0-1.11,0.9-2,2.01-2l0,0
			c1.101,0,2,0.89,2,2l0,0c0,1.1-0.899,2-2,2l0,0C378.15,279.81,377.25,278.909,377.25,277.81z M377.25,268.81c0-1.11,0.9-2,2.01-2
			l0,0c1.101,0,2,0.89,2,2l0,0c0,1.1-0.899,2-2,2l0,0C378.15,270.81,377.25,269.909,377.25,268.81z M377.25,259.81
			c0-1.11,0.9-2,2.01-2l0,0c1.101,0,2,0.89,2,2l0,0c0,1.1-0.899,2-2,2l0,0C378.15,261.81,377.25,260.909,377.25,259.81z
			 M377.25,250.81c0-1.109,0.9-2,2.01-2l0,0c1.101,0,2,0.891,2,2l0,0c0,1.1-0.899,2-2,2l0,0
			C378.15,252.81,377.25,251.909,377.25,250.81z M395.69,242.239c0-1.1,0.899-1.99,2-1.99l0,0c1.109,0,2,0.891,2,1.99l0,0
			c0,1.11-0.891,2.01-2,2.01l0,0C396.59,244.249,395.69,243.35,395.69,242.239z M386.69,242.239c0-1.1,0.899-1.99,2-1.99l0,0
			c1.109,0,2,0.891,2,1.99l0,0c0,1.11-0.891,2.01-2,2.01l0,0C387.59,244.249,386.69,243.35,386.69,242.239z M377.69,242.239
			c0-1.1,0.899-1.99,2-1.99l0,0c1.109,0,2,0.891,2,1.99l0,0c0,1.11-0.891,2.01-2,2.01l0,0
			C378.59,244.249,377.69,243.35,377.69,242.239z M404.44,241.999c0-1.109,0.899-2,2-2l0,0c1.109,0,2,0.891,2,2l0,0
			c0,1.101-0.891,2-2,2l0,0C405.34,243.999,404.44,243.1,404.44,241.999z M404.44,232.999c0-1.109,0.899-2,2-2l0,0
			c1.109,0,2,0.891,2,2l0,0c0,1.101-0.891,2-2,2l0,0C405.34,234.999,404.44,234.1,404.44,232.999z M404.44,224c0-1.11,0.899-2,2-2
			l0,0c1.109,0,2,0.89,2,2l0,0c0,1.1-0.891,2-2,2l0,0C405.34,226,404.44,225.1,404.44,224z M404.44,215c0-1.11,0.899-2,2-2l0,0
			c1.109,0,2,0.89,2,2l0,0c0,1.1-0.891,2-2,2l0,0C405.34,217,404.44,216.1,404.44,215z M404.44,206c0-1.11,0.899-2,2-2l0,0
			c1.109,0,2,0.89,2,2l0,0c0,1.1-0.891,2-2,2l0,0C405.34,208,404.44,207.1,404.44,206z M404.44,197c0-1.11,0.899-2,2-2l0,0
			c1.109,0,2,0.89,2,2l0,0c0,1.1-0.891,2-2,2l0,0C405.34,199,404.44,198.1,404.44,197z M404.44,188c0-1.11,0.899-2,2-2l0,0
			c1.109,0,2,0.89,2,2l0,0c0,1.1-0.891,2-2,2l0,0C405.34,190,404.44,189.1,404.44,188z M404.44,179c0-1.11,0.899-2,2-2l0,0
			c1.109,0,2,0.89,2,2l0,0c0,1.1-0.891,2-2,2l0,0C405.34,181,404.44,180.1,404.44,179z M404.44,170c0-1.11,0.899-2,2-2l0,0
			c1.109,0,2,0.89,2,2l0,0c0,1.1-0.891,2-2,2l0,0C405.34,172,404.44,171.1,404.44,170z M404.44,161c0-1.11,0.899-2,2-2l0,0
			c1.109,0,2,0.89,2,2l0,0c0,1.1-0.891,2-2,2l0,0C405.34,163,404.44,162.1,404.44,161z M404.44,152c0-1.11,0.899-2,2-2l0,0
			c1.109,0,2,0.89,2,2l0,0c0,1.1-0.891,2-2,2l0,0C405.34,154,404.44,153.1,404.44,152z M404.44,143c0-1.11,0.899-2,2-2l0,0
			c1.109,0,2,0.89,2,2l0,0c0,1.1-0.891,2-2,2l0,0C405.34,145,404.44,144.1,404.44,143z M404.44,134c0-1.11,0.899-2,2-2l0,0
			c1.109,0,2,0.89,2,2l0,0c0,1.1-0.891,2-2,2l0,0C405.34,136,404.44,135.1,404.44,134z M404.44,125c0-1.11,0.899-2,2-2l0,0
			c1.109,0,2,0.89,2,2l0,0c0,1.1-0.891,2-2,2l0,0C405.34,127,404.44,126.1,404.44,125z M404.42,116.02c0-1.1,0.89-2,2-2l0,0
			c1.1,0,2,0.9,2,2l0,0c0,1.109-0.9,2-2,2l0,0C405.31,118.02,404.42,117.129,404.42,116.02z M395.42,116.02c0-1.1,0.89-2,2-2l0,0
			c1.1,0,2,0.9,2,2l0,0c0,1.109-0.9,2-2,2l0,0C396.31,118.02,395.42,117.129,395.42,116.02z M386.42,116.02c0-1.1,0.89-2,2-2l0,0
			c1.1,0,2,0.9,2,2l0,0c0,1.109-0.9,2-2,2l0,0C387.31,118.02,386.42,117.129,386.42,116.02z M377.42,116.02c0-1.1,0.89-2,2-2l0,0
			c1.1,0,2,0.9,2,2l0,0c0,1.109-0.9,2-2,2l0,0C378.31,118.02,377.42,117.129,377.42,116.02z M368.42,116.02c0-1.1,0.89-2,2-2l0,0
			c1.1,0,2,0.9,2,2l0,0c0,1.109-0.9,2-2,2l0,0C369.31,118.02,368.42,117.129,368.42,116.02z M359.44,116c0-1.101,0.89-2,2-2l0,0
			c1.1,0,2,0.899,2,2l0,0c0,1.109-0.9,2-2,2l0,0C360.33,118,359.44,117.109,359.44,116z M359.44,107c0-1.1,0.89-2,2-2l0,0
			c1.1,0,2,0.9,2,2l0,0c0,1.11-0.9,2-2,2l0,0C360.33,109,359.44,108.109,359.44,107z M359.44,98c0-1.1,0.89-2,2-2l0,0
			c1.1,0,2,0.9,2,2l0,0c0,1.11-0.9,2-2,2l0,0C360.33,100,359.44,99.109,359.44,98z M359.44,89c0-1.1,0.89-2,2-2l0,0c1.1,0,2,0.9,2,2
			l0,0c0,1.11-0.9,2-2,2l0,0C360.33,91,359.44,90.109,359.44,89z"/>
	</g>
</g>
</svg>
