<?xml version="1.0" encoding="utf-8"?>
<!-- Generator: Adobe Illustrator 16.0.0, SVG Export Plug-In . SVG Version: 6.00 Build 0)  -->
<!DOCTYPE svg PUBLIC "-//W3C//DTD SVG 1.1//EN" "http://www.w3.org/Graphics/SVG/1.1/DTD/svg11.dtd">
<svg version="1.1" id="Layer_1" xmlns="http://www.w3.org/2000/svg" xmlns:xlink="http://www.w3.org/1999/xlink" x="0px" y="0px"
	 width="523.191px" height="327.5px" viewBox="0 0 523.191 327.5" enable-background="new 0 0 523.191 327.5" xml:space="preserve">
<g>
	<g>
		<g>
			<path fill="#DCDCDC" d="M58.612,156.418c-0.433,0-0.85-0.171-1.152-0.482c-0.31-0.302-0.482-0.728-0.482-1.152
				c0-0.432,0.172-0.85,0.482-1.159c0.604-0.605,1.699-0.605,2.303,0c0.311,0.31,0.482,0.728,0.482,1.159
				c0,0.434-0.172,0.85-0.482,1.152C59.461,156.246,59.045,156.418,58.612,156.418z"/>
		</g>
		<g>
			<path fill="#DCDCDC" d="M56.979,243.025c0-0.904,0.727-1.631,1.634-1.631l0,0c0.898,0,1.634,0.727,1.634,1.631l0,0
				c0,0.9-0.735,1.637-1.634,1.637l0,0C57.706,244.662,56.979,243.924,56.979,243.025z M56.979,235.676
				c0-0.906,0.727-1.633,1.634-1.633l0,0c0.898,0,1.634,0.727,1.634,1.633l0,0c0,0.896-0.735,1.635-1.634,1.635l0,0
				C57.706,237.311,56.979,236.572,56.979,235.676z M56.979,228.316c0-0.898,0.727-1.635,1.634-1.635l0,0
				c0.898,0,1.634,0.734,1.634,1.635l0,0c0,0.906-0.735,1.635-1.634,1.635l0,0C57.706,229.951,56.979,229.223,56.979,228.316z
				 M56.979,220.965c0-0.9,0.727-1.635,1.634-1.635l0,0c0.898,0,1.634,0.734,1.634,1.635l0,0c0,0.906-0.735,1.633-1.634,1.633l0,0
				C57.706,222.598,56.979,221.871,56.979,220.965z M56.979,213.613c0-0.906,0.727-1.635,1.634-1.635l0,0
				c0.898,0,1.634,0.729,1.634,1.635l0,0c0,0.898-0.735,1.633-1.634,1.633l0,0C57.706,215.246,56.979,214.512,56.979,213.613z
				 M56.979,206.262c0-0.908,0.727-1.635,1.634-1.635l0,0c0.898,0,1.634,0.727,1.634,1.635l0,0c0,0.898-0.735,1.633-1.634,1.633l0,0
				C57.706,207.895,56.979,207.16,56.979,206.262z M56.979,198.9c0-0.896,0.727-1.633,1.634-1.633l0,0
				c0.898,0,1.634,0.736,1.634,1.633l0,0c0,0.906-0.735,1.635-1.634,1.635l0,0C57.706,200.535,56.979,199.807,56.979,198.9z
				 M56.979,191.549c0-0.896,0.727-1.633,1.634-1.633l0,0c0.898,0,1.634,0.734,1.634,1.633l0,0c0,0.908-0.735,1.635-1.634,1.635l0,0
				C57.706,193.184,56.979,192.457,56.979,191.549z M56.979,184.199c0-0.908,0.727-1.635,1.634-1.635l0,0
				c0.898,0,1.634,0.727,1.634,1.635l0,0c0,0.898-0.735,1.635-1.634,1.635l0,0C57.706,185.834,56.979,185.098,56.979,184.199z
				 M56.979,176.846c0-0.906,0.727-1.633,1.634-1.633l0,0c0.898,0,1.634,0.727,1.634,1.633l0,0c0,0.9-0.735,1.635-1.634,1.635l0,0
				C57.706,178.48,56.979,177.746,56.979,176.846z M56.979,169.486c0-0.897,0.727-1.633,1.634-1.633l0,0
				c0.898,0,1.634,0.734,1.634,1.633l0,0c0,0.906-0.735,1.635-1.634,1.635l0,0C57.706,171.121,56.979,170.393,56.979,169.486z
				 M56.979,162.135c0-0.899,0.727-1.634,1.634-1.634l0,0c0.898,0,1.634,0.735,1.634,1.634l0,0c0,0.905-0.735,1.634-1.634,1.634l0,0
				C57.706,163.769,56.979,163.042,56.979,162.135z"/>
		</g>
		<g>
			<path fill="#DCDCDC" d="M58.612,252.012c-0.433,0-0.85-0.17-1.152-0.475c-0.31-0.303-0.482-0.727-0.482-1.158
				c0-0.426,0.172-0.852,0.482-1.152c0.604-0.611,1.699-0.611,2.303,0c0.311,0.303,0.482,0.729,0.482,1.152
				c0,0.434-0.172,0.85-0.482,1.158C59.461,251.842,59.045,252.012,58.612,252.012z"/>
		</g>
	</g>
	<g>
		<path fill="#DCDCDC" d="M163.894,197.342c0-0.906,0.727-1.633,1.633-1.633l0,0c0.9,0,1.634,0.727,1.634,1.633l0,0
			c0,0.898-0.734,1.633-1.634,1.633l0,0C164.621,198.975,163.894,198.24,163.894,197.342z M163.894,189.99
			c0-0.906,0.727-1.635,1.633-1.635l0,0c0.9,0,1.634,0.729,1.634,1.635l0,0c0,0.898-0.734,1.635-1.634,1.635l0,0
			C164.621,191.625,163.894,190.889,163.894,189.99z M163.894,182.639c0-0.906,0.727-1.635,1.633-1.635l0,0
			c0.9,0,1.634,0.729,1.634,1.635l0,0c0,0.898-0.734,1.635-1.634,1.635l0,0C164.621,184.273,163.894,183.539,163.894,182.639z
			 M163.894,175.285c0-0.906,0.727-1.633,1.633-1.633l0,0c0.9,0,1.634,0.727,1.634,1.633l0,0c0,0.9-0.734,1.635-1.634,1.635l0,0
			C164.621,176.92,163.894,176.186,163.894,175.285z M163.894,167.936c0-0.908,0.727-1.635,1.633-1.635l0,0
			c0.9,0,1.634,0.729,1.634,1.635l0,0c0,0.898-0.734,1.633-1.634,1.633l0,0C164.621,169.568,163.894,168.834,163.894,167.936z
			 M163.894,160.584c0-0.906,0.727-1.634,1.633-1.634l0,0c0.9,0,1.634,0.729,1.634,1.634l0,0c0,0.899-0.734,1.633-1.634,1.633l0,0
			C164.621,162.216,163.894,161.483,163.894,160.584z M163.559,153.558c0-0.905,0.734-1.634,1.634-1.634l0,0
			c0.907,0,1.633,0.729,1.633,1.634l0,0c0,0.906-0.727,1.634-1.633,1.634l0,0C164.293,155.192,163.559,154.464,163.559,153.558z
			 M156.207,153.558c0-0.905,0.735-1.634,1.634-1.634l0,0c0.907,0,1.634,0.729,1.634,1.634l0,0c0,0.906-0.728,1.634-1.634,1.634l0,0
			C156.942,155.192,156.207,154.464,156.207,153.558z M148.856,153.558c0-0.905,0.734-1.634,1.633-1.634l0,0
			c0.908,0,1.634,0.729,1.634,1.634l0,0c0,0.906-0.727,1.634-1.634,1.634l0,0C149.59,155.192,148.856,154.464,148.856,153.558z
			 M141.505,153.558c0-0.905,0.733-1.634,1.633-1.634l0,0c0.907,0,1.634,0.729,1.634,1.634l0,0c0,0.906-0.727,1.634-1.634,1.634l0,0
			C142.238,155.192,141.505,154.464,141.505,153.558z M134.153,153.558c0-0.905,0.735-1.634,1.634-1.634l0,0
			c0.907,0,1.633,0.729,1.633,1.634l0,0c0,0.906-0.727,1.634-1.633,1.634l0,0C134.888,155.192,134.153,154.464,134.153,153.558z
			 M127.038,153.321c0-0.899,0.736-1.634,1.634-1.634l0,0c0.906,0,1.634,0.735,1.634,1.634l0,0c0,0.899-0.728,1.634-1.634,1.634l0,0
			C127.774,154.955,127.038,154.22,127.038,153.321z M127.038,145.969c0-0.906,0.736-1.633,1.634-1.633l0,0
			c0.906,0,1.634,0.727,1.634,1.633l0,0c0,0.9-0.728,1.634-1.634,1.634l0,0C127.774,147.604,127.038,146.87,127.038,145.969z
			 M127.038,138.619c0-0.907,0.736-1.634,1.634-1.634l0,0c0.906,0,1.634,0.727,1.634,1.634l0,0c0,0.907-0.728,1.633-1.634,1.633l0,0
			C127.774,140.252,127.038,139.526,127.038,138.619z M127.038,131.267c0-0.907,0.736-1.634,1.634-1.634l0,0
			c0.906,0,1.634,0.727,1.634,1.634l0,0c0,0.899-0.728,1.633-1.634,1.633l0,0C127.774,132.9,127.038,132.166,127.038,131.267z
			 M127.038,123.915c0-0.906,0.736-1.634,1.634-1.634l0,0c0.906,0,1.634,0.728,1.634,1.634l0,0c0,0.899-0.728,1.634-1.634,1.634l0,0
			C127.774,125.549,127.038,124.814,127.038,123.915z M127.038,116.564c0-0.9,0.736-1.633,1.634-1.633l0,0
			c0.906,0,1.634,0.733,1.634,1.633l0,0c0,0.899-0.728,1.634-1.634,1.634l0,0C127.774,118.198,127.038,117.463,127.038,116.564z
			 M127.038,109.212c0-0.906,0.736-1.633,1.634-1.633l0,0c0.906,0,1.634,0.727,1.634,1.633l0,0c0,0.899-0.728,1.634-1.634,1.634l0,0
			C127.774,110.846,127.038,110.111,127.038,109.212z M127.038,101.861c0-0.899,0.736-1.634,1.634-1.634l0,0
			c0.906,0,1.634,0.734,1.634,1.634l0,0c0,0.899-0.728,1.633-1.634,1.633l0,0C127.774,103.494,127.038,102.76,127.038,101.861z
			 M127.038,94.509c0-0.907,0.736-1.634,1.634-1.634l0,0c0.906,0,1.634,0.727,1.634,1.634l0,0c0,0.899-0.728,1.634-1.634,1.634l0,0
			C127.774,96.143,127.038,95.409,127.038,94.509z M127.038,87.157c0-0.906,0.736-1.634,1.634-1.634l0,0
			c0.906,0,1.634,0.728,1.634,1.634l0,0c0,0.908-0.728,1.634-1.634,1.634l0,0C127.774,88.792,127.038,88.065,127.038,87.157z
			 M127.038,79.806c0-0.907,0.736-1.634,1.634-1.634l0,0c0.906,0,1.634,0.727,1.634,1.634l0,0c0,0.899-0.728,1.634-1.634,1.634l0,0
			C127.774,81.44,127.038,80.706,127.038,79.806z M127.038,72.455c0-0.907,0.736-1.634,1.634-1.634l0,0
			c0.906,0,1.634,0.727,1.634,1.634l0,0c0,0.898-0.728,1.634-1.634,1.634l0,0C127.774,74.088,127.038,73.353,127.038,72.455z
			 M127.038,65.103c0-0.898,0.736-1.634,1.634-1.634l0,0c0.906,0,1.634,0.736,1.634,1.634l0,0c0,0.899-0.728,1.633-1.634,1.633l0,0
			C127.774,66.736,127.038,66.002,127.038,65.103z M126.811,57.981c0-0.899,0.726-1.634,1.634-1.634l0,0
			c0.898,0,1.634,0.735,1.634,1.634l0,0c0,0.907-0.735,1.634-1.634,1.634l0,0C127.536,59.615,126.811,58.887,126.811,57.981z
			 M119.459,57.981c0-0.899,0.726-1.634,1.634-1.634l0,0c0.898,0,1.633,0.735,1.633,1.634l0,0c0,0.907-0.735,1.634-1.633,1.634l0,0
			C120.184,59.615,119.459,58.887,119.459,57.981z M112.108,57.981c0-0.899,0.726-1.634,1.634-1.634l0,0
			c0.898,0,1.633,0.735,1.633,1.634l0,0c0,0.907-0.735,1.634-1.633,1.634l0,0C112.833,59.615,112.108,58.887,112.108,57.981z
			 M104.756,57.981c0-0.899,0.726-1.634,1.634-1.634l0,0c0.899,0,1.634,0.735,1.634,1.634l0,0c0,0.907-0.735,1.634-1.634,1.634l0,0
			C105.481,59.615,104.756,58.887,104.756,57.981z M97.405,57.981c0-0.899,0.726-1.634,1.633-1.634l0,0
			c0.898,0,1.634,0.735,1.634,1.634l0,0c0,0.907-0.735,1.634-1.634,1.634l0,0C98.129,59.615,97.405,58.887,97.405,57.981z
			 M90.052,57.981c0-0.899,0.735-1.634,1.633-1.634l0,0c0.898,0,1.634,0.735,1.634,1.634l0,0c0,0.907-0.736,1.634-1.634,1.634l0,0
			C90.788,59.615,90.052,58.887,90.052,57.981z M82.701,57.981c0-0.899,0.726-1.634,1.633-1.634l0,0
			c0.899,0,1.634,0.735,1.634,1.634l0,0c0,0.907-0.735,1.634-1.634,1.634l0,0C83.427,59.615,82.701,58.887,82.701,57.981z
			 M75.463,57.866c0-0.898,0.735-1.634,1.634-1.634l0,0c0.907,0,1.633,0.736,1.633,1.634l0,0c0,0.906-0.727,1.634-1.633,1.634l0,0
			C76.199,59.5,75.463,58.772,75.463,57.866z M75.463,50.514c0-0.898,0.735-1.633,1.634-1.633l0,0c0.907,0,1.633,0.735,1.633,1.633
			l0,0c0,0.907-0.727,1.634-1.633,1.634l0,0C76.199,52.148,75.463,51.421,75.463,50.514z M75.463,43.163
			c0-0.898,0.735-1.633,1.634-1.633l0,0c0.907,0,1.633,0.735,1.633,1.633l0,0c0,0.907-0.727,1.634-1.633,1.634l0,0
			C76.199,44.796,75.463,44.07,75.463,43.163z M75.463,35.812c0-0.898,0.735-1.634,1.634-1.634l0,0c0.907,0,1.633,0.735,1.633,1.634
			l0,0c0,0.906-0.727,1.633-1.633,1.633l0,0C76.199,37.445,75.463,36.718,75.463,35.812z M75.463,28.46
			c0-0.899,0.735-1.634,1.634-1.634l0,0c0.907,0,1.633,0.735,1.633,1.634l0,0c0,0.906-0.727,1.633-1.633,1.633l0,0
			C76.199,30.093,75.463,29.366,75.463,28.46z"/>
	</g>
	<g>
		<path fill="#DCDCDC" d="M107.483,316.191c0-0.906,0.734-1.635,1.634-1.635l0,0c0.905,0,1.633,0.729,1.633,1.635l0,0
			c0,0.896-0.728,1.633-1.633,1.633l0,0C108.218,317.824,107.483,317.088,107.483,316.191z M107.483,308.84
			c0-0.908,0.734-1.637,1.634-1.637l0,0c0.905,0,1.633,0.729,1.633,1.637l0,0c0,0.896-0.728,1.633-1.633,1.633l0,0
			C108.218,310.473,107.483,309.736,107.483,308.84z M107.483,301.486c0-0.904,0.734-1.633,1.634-1.633l0,0
			c0.905,0,1.633,0.729,1.633,1.633l0,0c0,0.898-0.728,1.635-1.633,1.635l0,0C108.218,303.121,107.483,302.385,107.483,301.486z
			 M107.483,294.137c0-0.908,0.734-1.635,1.634-1.635l0,0c0.905,0,1.633,0.727,1.633,1.635l0,0c0,0.898-0.728,1.633-1.633,1.633l0,0
			C108.218,295.77,107.483,295.037,107.483,294.137z M107.483,286.785c0-0.908,0.734-1.635,1.634-1.635l0,0
			c0.905,0,1.633,0.727,1.633,1.635l0,0c0,0.898-0.728,1.633-1.633,1.633l0,0C108.218,288.418,107.483,287.684,107.483,286.785z
			 M107.483,279.432c0-0.906,0.734-1.633,1.634-1.633l0,0c0.905,0,1.633,0.727,1.633,1.633l0,0c0,0.9-0.728,1.635-1.633,1.635l0,0
			C108.218,281.066,107.483,280.334,107.483,279.432z M107.483,272.082c0-0.906,0.734-1.635,1.634-1.635l0,0
			c0.905,0,1.633,0.729,1.633,1.635l0,0c0,0.898-0.728,1.633-1.633,1.633l0,0C108.218,273.715,107.483,272.98,107.483,272.082z
			 M107.483,264.729c0-0.906,0.734-1.633,1.634-1.633l0,0c0.905,0,1.633,0.727,1.633,1.633l0,0c0,0.9-0.728,1.635-1.633,1.635l0,0
			C108.218,266.363,107.483,265.629,107.483,264.729z M107.483,257.379c0-0.906,0.734-1.635,1.634-1.635l0,0
			c0.905,0,1.633,0.729,1.633,1.635l0,0c0,0.896-0.728,1.633-1.633,1.633l0,0C108.218,259.012,107.483,258.277,107.483,257.379z
			 M107.483,250.027c0-0.906,0.734-1.635,1.634-1.635l0,0c0.905,0,1.633,0.729,1.633,1.635l0,0c0,0.898-0.728,1.633-1.633,1.633l0,0
			C108.218,251.66,107.483,250.926,107.483,250.027z M107.483,242.676c0-0.906,0.734-1.635,1.634-1.635l0,0
			c0.905,0,1.633,0.729,1.633,1.635l0,0c0,0.896-0.728,1.633-1.633,1.633l0,0C108.218,244.309,107.483,243.574,107.483,242.676z
			 M107.483,235.324c0-0.906,0.734-1.633,1.634-1.633l0,0c0.905,0,1.633,0.727,1.633,1.633l0,0c0,0.898-0.728,1.635-1.633,1.635l0,0
			C108.218,236.959,107.483,236.223,107.483,235.324z M107.483,227.971c0-0.904,0.734-1.633,1.634-1.633l0,0
			c0.905,0,1.633,0.729,1.633,1.633l0,0c0,0.902-0.728,1.635-1.633,1.635l0,0C108.218,229.605,107.483,228.873,107.483,227.971z
			 M107.483,220.621c0-0.906,0.734-1.635,1.634-1.635l0,0c0.905,0,1.633,0.729,1.633,1.635l0,0c0,0.898-0.728,1.633-1.633,1.633l0,0
			C108.218,222.254,107.483,221.52,107.483,220.621z M107.483,213.268c0-0.904,0.734-1.633,1.634-1.633l0,0
			c0.905,0,1.633,0.729,1.633,1.633l0,0c0,0.902-0.728,1.637-1.633,1.637l0,0C108.218,214.904,107.483,214.17,107.483,213.268z
			 M107.483,205.918c0-0.904,0.734-1.633,1.634-1.633l0,0c0.905,0,1.633,0.729,1.633,1.633l0,0c0,0.898-0.728,1.635-1.633,1.635l0,0
			C108.218,207.551,107.483,206.816,107.483,205.918z M107.483,198.566c0-0.906,0.734-1.633,1.634-1.633l0,0
			c0.905,0,1.633,0.727,1.633,1.633l0,0c0,0.898-0.728,1.635-1.633,1.635l0,0C108.218,200.201,107.483,199.465,107.483,198.566z
			 M107.483,191.215c0-0.906,0.734-1.633,1.634-1.633l0,0c0.905,0,1.633,0.727,1.633,1.633l0,0c0,0.898-0.728,1.635-1.633,1.635l0,0
			C108.218,192.85,107.483,192.113,107.483,191.215z M107.483,183.863c0-0.906,0.734-1.633,1.634-1.633l0,0
			c0.905,0,1.633,0.727,1.633,1.633l0,0c0,0.898-0.728,1.635-1.633,1.635l0,0C108.218,185.498,107.483,184.762,107.483,183.863z
			 M107.483,176.512c0-0.906,0.734-1.633,1.634-1.633l0,0c0.905,0,1.633,0.727,1.633,1.633l0,0c0,0.898-0.728,1.633-1.633,1.633l0,0
			C108.218,178.145,107.483,177.412,107.483,176.512z M107.483,169.16c0-0.906,0.734-1.635,1.634-1.635l0,0
			c0.905,0,1.633,0.729,1.633,1.635l0,0c0,0.9-0.728,1.633-1.633,1.633l0,0C108.218,170.793,107.483,170.061,107.483,169.16z
			 M107.483,161.808c0-0.906,0.734-1.634,1.634-1.634l0,0c0.905,0,1.633,0.728,1.633,1.634l0,0c0,0.9-0.728,1.634-1.633,1.634l0,0
			C108.218,163.442,107.483,162.708,107.483,161.808z M107.483,154.457c0-0.906,0.734-1.633,1.634-1.633l0,0
			c0.905,0,1.633,0.729,1.633,1.633l0,0c0,0.899-0.728,1.634-1.633,1.634l0,0C108.218,156.091,107.483,155.356,107.483,154.457z
			 M107.483,147.105c0-0.905,0.734-1.633,1.634-1.633l0,0c0.905,0,1.633,0.728,1.633,1.633l0,0c0,0.899-0.728,1.634-1.633,1.634l0,0
			C108.218,148.739,107.483,148.004,107.483,147.105z M107.483,139.754c0-0.906,0.734-1.634,1.634-1.634l0,0
			c0.905,0,1.633,0.728,1.633,1.634l0,0c0,0.898-0.728,1.633-1.633,1.633l0,0C108.218,141.387,107.483,140.653,107.483,139.754z
			 M107.483,132.403c0-0.907,0.734-1.634,1.634-1.634l0,0c0.905,0,1.633,0.728,1.633,1.634l0,0c0,0.899-0.728,1.633-1.633,1.633l0,0
			C108.218,134.036,107.483,133.302,107.483,132.403z M180.95,132.353c0-0.906,0.735-1.633,1.634-1.633l0,0
			c0.905,0,1.634,0.727,1.634,1.633l0,0c0,0.899-0.729,1.634-1.634,1.634l0,0C181.685,133.987,180.95,133.252,180.95,132.353z
			 M173.598,132.353c0-0.906,0.735-1.633,1.634-1.633l0,0c0.906,0,1.634,0.727,1.634,1.633l0,0c0,0.899-0.728,1.634-1.634,1.634l0,0
			C174.333,133.987,173.598,133.252,173.598,132.353z M166.247,132.353c0-0.906,0.735-1.633,1.634-1.633l0,0
			c0.906,0,1.633,0.727,1.633,1.633l0,0c0,0.899-0.728,1.634-1.633,1.634l0,0C166.982,133.987,166.247,133.252,166.247,132.353z
			 M158.895,132.353c0-0.906,0.735-1.633,1.634-1.633l0,0c0.905,0,1.633,0.727,1.633,1.633l0,0c0,0.899-0.728,1.634-1.633,1.634l0,0
			C159.63,133.987,158.895,133.252,158.895,132.353z M151.543,132.353c0-0.906,0.736-1.633,1.634-1.633l0,0
			c0.906,0,1.634,0.727,1.634,1.633l0,0c0,0.899-0.728,1.634-1.634,1.634l0,0C152.279,133.987,151.543,133.252,151.543,132.353z
			 M144.192,132.353c0-0.906,0.735-1.633,1.633-1.633l0,0c0.907,0,1.634,0.727,1.634,1.633l0,0c0,0.899-0.728,1.634-1.634,1.634l0,0
			C144.927,133.987,144.192,133.252,144.192,132.353z M136.841,132.353c0-0.906,0.734-1.633,1.633-1.633l0,0
			c0.906,0,1.634,0.727,1.634,1.633l0,0c0,0.899-0.728,1.634-1.634,1.634l0,0C137.575,133.987,136.841,133.252,136.841,132.353z
			 M129.489,132.353c0-0.906,0.735-1.633,1.634-1.633l0,0c0.905,0,1.633,0.727,1.633,1.633l0,0c0,0.899-0.728,1.634-1.633,1.634l0,0
			C130.224,133.987,129.489,133.252,129.489,132.353z M122.137,132.353c0-0.906,0.735-1.633,1.634-1.633l0,0
			c0.906,0,1.633,0.727,1.633,1.633l0,0c0,0.899-0.727,1.634-1.633,1.634l0,0C122.873,133.987,122.137,133.252,122.137,132.353z
			 M114.786,132.353c0-0.906,0.735-1.633,1.634-1.633l0,0c0.905,0,1.634,0.727,1.634,1.633l0,0c0,0.899-0.729,1.634-1.634,1.634l0,0
			C115.521,133.987,114.786,133.252,114.786,132.353z M181.187,125.231c0-0.898,0.727-1.633,1.633-1.633l0,0
			c0.899,0,1.634,0.735,1.634,1.633l0,0c0,0.906-0.735,1.634-1.634,1.634l0,0C181.914,126.865,181.187,126.137,181.187,125.231z
			 M181.187,117.88c0-0.898,0.727-1.634,1.633-1.634l0,0c0.899,0,1.634,0.735,1.634,1.634l0,0c0,0.906-0.735,1.633-1.634,1.633l0,0
			C181.914,119.513,181.187,118.786,181.187,117.88z M181.187,110.529c0-0.898,0.727-1.634,1.633-1.634l0,0
			c0.899,0,1.634,0.735,1.634,1.634l0,0c0,0.905-0.735,1.633-1.634,1.633l0,0C181.914,112.162,181.187,111.434,181.187,110.529z
			 M181.187,103.177c0-0.899,0.727-1.634,1.633-1.634l0,0c0.899,0,1.634,0.735,1.634,1.634l0,0c0,0.905-0.735,1.641-1.634,1.641l0,0
			C181.914,104.818,181.187,104.083,181.187,103.177z"/>
	</g>
	<g>
		<path fill="#DCDCDC" d="M224.348,275.846c0-0.896,0.735-1.631,1.634-1.631l0,0c0.907,0,1.633,0.732,1.633,1.631l0,0
			c0,0.906-0.727,1.635-1.633,1.635l0,0C225.083,277.48,224.348,276.754,224.348,275.846z M224.348,268.496
			c0-0.898,0.735-1.635,1.634-1.635l0,0c0.907,0,1.633,0.734,1.633,1.635l0,0c0,0.906-0.727,1.635-1.633,1.635l0,0
			C225.083,270.129,224.348,269.402,224.348,268.496z M224.348,261.145c0-0.898,0.735-1.635,1.634-1.635l0,0
			c0.907,0,1.633,0.734,1.633,1.635l0,0c0,0.906-0.727,1.633-1.633,1.633l0,0C225.083,262.777,224.348,262.051,224.348,261.145z
			 M224.348,253.793c0-0.9,0.735-1.635,1.634-1.635l0,0c0.907,0,1.633,0.734,1.633,1.635l0,0c0,0.904-0.727,1.633-1.633,1.633l0,0
			C225.083,255.426,224.348,254.701,224.348,253.793z M224.348,246.439c0-0.896,0.735-1.633,1.634-1.633l0,0
			c0.907,0,1.633,0.734,1.633,1.633l0,0c0,0.908-0.727,1.637-1.633,1.637l0,0C225.083,248.076,224.348,247.348,224.348,246.439z
			 M224.348,239.088c0-0.898,0.735-1.633,1.634-1.633l0,0c0.907,0,1.633,0.734,1.633,1.633l0,0c0,0.908-0.727,1.635-1.633,1.635l0,0
			C225.083,240.723,224.348,239.998,224.348,239.088z M224.348,231.736c0-0.896,0.735-1.633,1.634-1.633l0,0
			c0.907,0,1.633,0.734,1.633,1.633l0,0c0,0.91-0.727,1.635-1.633,1.635l0,0C225.083,233.371,224.348,232.646,224.348,231.736z
			 M224.348,224.385c0-0.896,0.735-1.633,1.634-1.633l0,0c0.907,0,1.633,0.736,1.633,1.633l0,0c0,0.908-0.727,1.635-1.633,1.635l0,0
			C225.083,226.02,224.348,225.293,224.348,224.385z M224.348,217.035c0-0.898,0.735-1.635,1.634-1.635l0,0
			c0.907,0,1.633,0.736,1.633,1.635l0,0c0,0.906-0.727,1.633-1.633,1.633l0,0C225.083,218.668,224.348,217.941,224.348,217.035z
			 M224.348,209.682c0-0.895,0.735-1.633,1.634-1.633l0,0c0.907,0,1.633,0.736,1.633,1.633l0,0c0,0.908-0.727,1.635-1.633,1.635l0,0
			C225.083,211.316,224.348,210.59,224.348,209.682z M224.348,202.332c0-0.898,0.735-1.635,1.634-1.635l0,0
			c0.907,0,1.633,0.736,1.633,1.635l0,0c0,0.906-0.727,1.633-1.633,1.633l0,0C225.083,203.965,224.348,203.238,224.348,202.332z
			 M224.348,194.98c0-0.898,0.735-1.635,1.634-1.635l0,0c0.907,0,1.633,0.736,1.633,1.635l0,0c0,0.906-0.727,1.633-1.633,1.633l0,0
			C225.083,196.613,224.348,195.887,224.348,194.98z M224.348,187.629c0-0.898,0.735-1.635,1.634-1.635l0,0
			c0.907,0,1.633,0.734,1.633,1.635l0,0c0,0.906-0.727,1.633-1.633,1.633l0,0C225.083,189.262,224.348,188.537,224.348,187.629z
			 M224.348,180.277c0-0.898,0.735-1.635,1.634-1.635l0,0c0.907,0,1.633,0.736,1.633,1.635l0,0c0,0.906-0.727,1.633-1.633,1.633l0,0
			C225.083,181.91,224.348,181.184,224.348,180.277z M224.348,172.926c0-0.9,0.735-1.635,1.634-1.635l0,0
			c0.907,0,1.633,0.734,1.633,1.635l0,0c0,0.908-0.727,1.633-1.633,1.633l0,0C225.083,174.559,224.348,173.834,224.348,172.926z
			 M224.348,165.574c0-0.899,0.735-1.634,1.634-1.634l0,0c0.907,0,1.633,0.734,1.633,1.634l0,0c0,0.906-0.727,1.633-1.633,1.633l0,0
			C225.083,167.207,224.348,166.48,224.348,165.574z M224.348,158.222c0-0.899,0.735-1.634,1.634-1.634l0,0
			c0.907,0,1.633,0.734,1.633,1.634l0,0c0,0.907-0.727,1.634-1.633,1.634l0,0C225.083,159.856,224.348,159.129,224.348,158.222z
			 M224.348,150.871c0-0.899,0.735-1.633,1.634-1.633l0,0c0.907,0,1.633,0.734,1.633,1.633l0,0c0,0.908-0.727,1.634-1.633,1.634l0,0
			C225.083,152.505,224.348,151.779,224.348,150.871z M224.348,143.519c0-0.9,0.735-1.634,1.634-1.634l0,0
			c0.907,0,1.633,0.734,1.633,1.634l0,0c0,0.908-0.727,1.634-1.633,1.634l0,0C225.083,145.153,224.348,144.427,224.348,143.519z
			 M224.348,136.168c0-0.9,0.735-1.634,1.634-1.634l0,0c0.907,0,1.633,0.734,1.633,1.634l0,0c0,0.907-0.727,1.633-1.633,1.633l0,0
			C225.083,137.801,224.348,137.076,224.348,136.168z M224.348,128.816c0-0.899,0.735-1.634,1.634-1.634l0,0
			c0.907,0,1.633,0.735,1.633,1.634l0,0c0,0.907-0.727,1.633-1.633,1.633l0,0C225.083,130.45,224.348,129.724,224.348,128.816z
			 M224.348,121.464c0-0.899,0.735-1.634,1.634-1.634l0,0c0.907,0,1.633,0.735,1.633,1.634l0,0c0,0.907-0.727,1.634-1.633,1.634l0,0
			C225.083,123.098,224.348,122.373,224.348,121.464z M224.348,114.113c0-0.899,0.735-1.633,1.634-1.633l0,0
			c0.907,0,1.633,0.734,1.633,1.633l0,0c0,0.907-0.727,1.634-1.633,1.634l0,0C225.083,115.747,224.348,115.021,224.348,114.113z
			 M224.348,106.761c0-0.899,0.735-1.633,1.634-1.633l0,0c0.907,0,1.633,0.734,1.633,1.633l0,0c0,0.907-0.727,1.634-1.633,1.634l0,0
			C225.083,108.395,224.348,107.669,224.348,106.761z M224.348,99.41c0-0.899,0.735-1.634,1.634-1.634l0,0
			c0.907,0,1.633,0.734,1.633,1.634l0,0c0,0.907-0.727,1.633-1.633,1.633l0,0C225.083,101.043,224.348,100.317,224.348,99.41z
			 M224.348,92.059c0-0.899,0.735-1.634,1.634-1.634l0,0c0.907,0,1.633,0.734,1.633,1.634l0,0c0,0.907-0.727,1.633-1.633,1.633l0,0
			C225.083,93.692,224.348,92.966,224.348,92.059z M246.37,92.026c0-0.906,0.728-1.634,1.634-1.634l0,0
			c0.898,0,1.633,0.728,1.633,1.634l0,0c0,0.898-0.735,1.634-1.633,1.634l0,0C247.097,93.66,246.37,92.924,246.37,92.026z
			 M239.018,92.026c0-0.906,0.728-1.634,1.634-1.634l0,0c0.898,0,1.634,0.728,1.634,1.634l0,0c0,0.898-0.735,1.634-1.634,1.634l0,0
			C239.745,93.66,239.018,92.924,239.018,92.026z M231.667,92.026c0-0.906,0.728-1.634,1.634-1.634l0,0
			c0.898,0,1.633,0.728,1.633,1.634l0,0c0,0.898-0.735,1.634-1.633,1.634l0,0C232.394,93.66,231.667,92.924,231.667,92.026z
			 M247.015,85.313c0-0.899,0.727-1.625,1.626-1.625l0,0c0.906,0,1.641,0.727,1.641,1.625l0,0c0,0.907-0.733,1.642-1.641,1.642l0,0
			C247.741,86.953,247.015,86.219,247.015,85.313z M247.015,77.968c0-0.906,0.727-1.633,1.626-1.633l0,0
			c0.906,0,1.641,0.727,1.641,1.633l0,0c0,0.899-0.733,1.634-1.641,1.634l0,0C247.741,79.602,247.015,78.867,247.015,77.968z
			 M247.015,70.617c0-0.907,0.727-1.642,1.626-1.642l0,0c0.906,0,1.641,0.735,1.641,1.642l0,0c0,0.898-0.733,1.626-1.641,1.626l0,0
			C247.741,72.244,247.015,71.515,247.015,70.617z M247.015,63.257c0-0.898,0.727-1.625,1.626-1.625l0,0
			c0.906,0,1.641,0.728,1.641,1.625l0,0c0,0.908-0.733,1.642-1.641,1.642l0,0C247.741,64.898,247.015,64.164,247.015,63.257z
			 M247.015,55.914c0-0.907,0.727-1.634,1.626-1.634l0,0c0.906,0,1.641,0.728,1.641,1.634l0,0c0,0.898-0.733,1.633-1.641,1.633l0,0
			C247.741,57.547,247.015,56.812,247.015,55.914z M247.015,48.563c0-0.907,0.727-1.634,1.626-1.634l0,0
			c0.906,0,1.641,0.728,1.641,1.634l0,0c0,0.898-0.733,1.633-1.641,1.633l0,0C247.741,50.196,247.015,49.46,247.015,48.563z
			 M246.876,41.341c0-0.906,0.734-1.633,1.633-1.633l0,0c0.899,0,1.634,0.727,1.634,1.633l0,0c0,0.898-0.735,1.634-1.634,1.634l0,0
			C247.61,42.975,246.876,42.24,246.876,41.341z M239.525,41.341c0-0.906,0.734-1.633,1.633-1.633l0,0
			c0.907,0,1.633,0.727,1.633,1.633l0,0c0,0.898-0.727,1.634-1.633,1.634l0,0C240.259,42.975,239.525,42.24,239.525,41.341z
			 M232.173,41.341c0-0.906,0.734-1.633,1.633-1.633l0,0c0.907,0,1.633,0.727,1.633,1.633l0,0c0,0.898-0.727,1.634-1.633,1.634l0,0
			C232.908,42.975,232.173,42.24,232.173,41.341z M232.132,34.03c0-0.898,0.728-1.625,1.625-1.625l0,0
			c0.907,0,1.643,0.727,1.643,1.625l0,0c0,0.907-0.735,1.642-1.643,1.642l0,0C232.86,35.673,232.132,34.938,232.132,34.03z
			 M232.132,26.688c0-0.906,0.728-1.634,1.625-1.634l0,0c0.907,0,1.643,0.728,1.643,1.634l0,0c0,0.898-0.735,1.633-1.643,1.633l0,0
			C232.86,28.322,232.132,27.586,232.132,26.688z M232.132,19.337c0-0.907,0.728-1.633,1.625-1.633l0,0
			c0.907,0,1.643,0.727,1.643,1.633l0,0c0,0.898-0.735,1.634-1.643,1.634l0,0C232.86,20.971,232.132,20.235,232.132,19.337z
			 M232.132,11.976c0-0.898,0.728-1.625,1.625-1.625l0,0c0.907,0,1.643,0.727,1.643,1.625l0,0c0,0.907-0.735,1.643-1.643,1.643l0,0
			C232.86,13.619,232.132,12.884,232.132,11.976z M232.132,4.634c0-0.907,0.728-1.634,1.625-1.634l0,0
			c0.907,0,1.643,0.727,1.643,1.634l0,0c0,0.899-0.735,1.634-1.643,1.634l0,0C232.86,6.268,232.132,5.533,232.132,4.634z"/>
	</g>
	<g>
		<path fill="#DCDCDC" d="M317.868,285.002c0-0.904,0.727-1.631,1.634-1.631l0,0c0.898,0,1.635,0.727,1.635,1.631l0,0
			c0,0.9-0.736,1.637-1.635,1.637l0,0C318.594,286.639,317.868,285.902,317.868,285.002z M317.868,277.652
			c0-0.904,0.727-1.635,1.634-1.635l0,0c0.898,0,1.635,0.73,1.635,1.635l0,0c0,0.898-0.736,1.635-1.635,1.635l0,0
			C318.594,279.287,317.868,278.551,317.868,277.652z M317.868,270.301c0-0.906,0.727-1.635,1.634-1.635l0,0
			c0.898,0,1.635,0.729,1.635,1.635l0,0c0,0.896-0.736,1.633-1.635,1.633l0,0C318.594,271.934,317.868,271.199,317.868,270.301z
			 M317.868,262.949c0-0.904,0.727-1.635,1.634-1.635l0,0c0.898,0,1.635,0.73,1.635,1.635l0,0c0,0.898-0.736,1.635-1.635,1.635l0,0
			C318.594,264.584,317.868,263.848,317.868,262.949z M317.868,255.598c0-0.906,0.727-1.633,1.634-1.633l0,0
			c0.898,0,1.635,0.727,1.635,1.633l0,0c0,0.898-0.736,1.633-1.635,1.633l0,0C318.594,257.23,317.868,256.496,317.868,255.598z
			 M317.868,248.246c0-0.906,0.727-1.635,1.634-1.635l0,0c0.898,0,1.635,0.729,1.635,1.635l0,0c0,0.9-0.736,1.635-1.635,1.635l0,0
			C318.594,249.879,317.868,249.146,317.868,248.246z M317.868,240.895c0-0.906,0.727-1.633,1.634-1.633l0,0
			c0.898,0,1.635,0.727,1.635,1.633l0,0c0,0.898-0.736,1.633-1.635,1.633l0,0C318.594,242.527,317.868,241.793,317.868,240.895z
			 M317.868,233.543c0-0.906,0.727-1.633,1.634-1.633l0,0c0.898,0,1.635,0.727,1.635,1.633l0,0c0,0.898-0.736,1.635-1.635,1.635l0,0
			C318.594,235.178,317.868,234.441,317.868,233.543z M317.868,226.191c0-0.904,0.727-1.635,1.634-1.635l0,0
			c0.898,0,1.635,0.73,1.635,1.635l0,0c0,0.898-0.736,1.635-1.635,1.635l0,0C318.594,227.826,317.868,227.09,317.868,226.191z
			 M317.868,218.84c0-0.906,0.727-1.633,1.634-1.633l0,0c0.898,0,1.635,0.727,1.635,1.633l0,0c0,0.898-0.736,1.635-1.635,1.635l0,0
			C318.594,220.475,317.868,219.738,317.868,218.84z M317.868,211.49c0-0.906,0.727-1.637,1.634-1.637l0,0
			c0.898,0,1.635,0.73,1.635,1.637l0,0c0,0.898-0.736,1.633-1.635,1.633l0,0C318.594,213.123,317.868,212.389,317.868,211.49z
			 M317.868,204.137c0-0.906,0.727-1.635,1.634-1.635l0,0c0.898,0,1.635,0.729,1.635,1.635l0,0c0,0.9-0.736,1.633-1.635,1.633l0,0
			C318.594,205.77,317.868,205.037,317.868,204.137z M317.868,196.787c0-0.908,0.727-1.637,1.634-1.637l0,0
			c0.898,0,1.635,0.729,1.635,1.637l0,0c0,0.898-0.736,1.633-1.635,1.633l0,0C318.594,198.42,317.868,197.686,317.868,196.787z
			 M316.234,191.066c0-0.906,0.727-1.633,1.634-1.633l0,0c0.897,0,1.634,0.727,1.634,1.633l0,0c0,0.9-0.734,1.635-1.634,1.635l0,0
			C316.96,192.701,316.234,191.967,316.234,191.066z M308.883,191.066c0-0.906,0.727-1.633,1.633-1.633l0,0
			c0.899,0,1.635,0.727,1.635,1.633l0,0c0,0.9-0.734,1.635-1.635,1.635l0,0C309.609,192.701,308.883,191.967,308.883,191.066z
			 M301.532,191.066c0-0.906,0.726-1.633,1.632-1.633l0,0c0.898,0,1.635,0.727,1.635,1.633l0,0c0,0.9-0.734,1.635-1.635,1.635l0,0
			C302.257,192.701,301.532,191.967,301.532,191.066z M295.764,189.482c0-0.904,0.733-1.633,1.635-1.633l0,0
			c0.906,0,1.633,0.729,1.633,1.633l0,0c0,0.898-0.727,1.633-1.633,1.633l0,0C296.499,191.115,295.764,190.381,295.764,189.482z
			 M295.764,182.131c0-0.906,0.733-1.633,1.635-1.633l0,0c0.906,0,1.633,0.727,1.633,1.633l0,0c0,0.898-0.727,1.635-1.633,1.635l0,0
			C296.499,183.766,295.764,183.031,295.764,182.131z M295.764,174.779c0-0.904,0.733-1.633,1.635-1.633l0,0
			c0.906,0,1.633,0.729,1.633,1.633l0,0c0,0.898-0.727,1.635-1.633,1.635l0,0C296.499,176.414,295.764,175.678,295.764,174.779z"/>
	</g>
	<g>
		<path fill="#DCDCDC" d="M464.433,289.326c0-0.908,0.728-1.635,1.634-1.635l0,0c0.905,0,1.634,0.727,1.634,1.635l0,0
			c0,0.898-0.729,1.633-1.634,1.633l0,0C465.16,290.959,464.433,290.225,464.433,289.326z M464.433,281.973
			c0-0.906,0.728-1.633,1.634-1.633l0,0c0.905,0,1.634,0.727,1.634,1.633l0,0c0,0.898-0.729,1.635-1.634,1.635l0,0
			C465.16,283.607,464.433,282.873,464.433,281.973z M464.433,274.623c0-0.908,0.728-1.635,1.634-1.635l0,0
			c0.905,0,1.634,0.727,1.634,1.635l0,0c0,0.898-0.729,1.633-1.634,1.633l0,0C465.16,276.256,464.433,275.521,464.433,274.623z
			 M464.433,267.27c0-0.906,0.728-1.635,1.634-1.635l0,0c0.905,0,1.634,0.729,1.634,1.635l0,0c0,0.9-0.729,1.635-1.634,1.635l0,0
			C465.16,268.904,464.433,268.17,464.433,267.27z M464.433,259.92c0-0.908,0.728-1.635,1.634-1.635l0,0
			c0.905,0,1.634,0.727,1.634,1.635l0,0c0,0.896-0.729,1.633-1.634,1.633l0,0C465.16,261.553,464.433,260.818,464.433,259.92z
			 M464.433,252.568c0-0.908,0.728-1.637,1.634-1.637l0,0c0.905,0,1.634,0.729,1.634,1.637l0,0c0,0.898-0.729,1.633-1.634,1.633l0,0
			C465.16,254.201,464.433,253.467,464.433,252.568z M464.433,245.217c0-0.908,0.728-1.637,1.634-1.637l0,0
			c0.905,0,1.634,0.729,1.634,1.637l0,0c0,0.896-0.729,1.631-1.634,1.631l0,0C465.16,246.848,464.433,246.115,464.433,245.217z
			 M464.433,237.863c0-0.904,0.728-1.633,1.634-1.633l0,0c0.905,0,1.634,0.729,1.634,1.633l0,0c0,0.9-0.729,1.635-1.634,1.635l0,0
			C465.16,239.498,464.433,238.764,464.433,237.863z M464.433,230.512c0-0.906,0.728-1.633,1.634-1.633l0,0
			c0.905,0,1.634,0.727,1.634,1.633l0,0c0,0.9-0.729,1.633-1.634,1.633l0,0C465.16,232.145,464.433,231.412,464.433,230.512z
			 M464.433,223.16c0-0.906,0.728-1.633,1.634-1.633l0,0c0.905,0,1.634,0.727,1.634,1.633l0,0c0,0.9-0.729,1.635-1.634,1.635l0,0
			C465.16,224.793,464.433,224.061,464.433,223.16z M464.433,215.809c0-0.904,0.728-1.633,1.634-1.633l0,0
			c0.905,0,1.634,0.729,1.634,1.633l0,0c0,0.9-0.729,1.635-1.634,1.635l0,0C465.16,217.443,464.433,216.709,464.433,215.809z
			 M464.433,208.457c0-0.904,0.728-1.633,1.634-1.633l0,0c0.905,0,1.634,0.729,1.634,1.633l0,0c0,0.9-0.729,1.635-1.634,1.635l0,0
			C465.16,210.092,464.433,209.357,464.433,208.457z M464.433,201.105c0-0.904,0.728-1.633,1.634-1.633l0,0
			c0.905,0,1.634,0.729,1.634,1.633l0,0c0,0.9-0.729,1.635-1.634,1.635l0,0C465.16,202.74,464.433,202.006,464.433,201.105z
			 M486.658,193.926c0-0.904,0.729-1.633,1.633-1.633l0,0c0.9,0,1.635,0.729,1.635,1.633l0,0c0,0.9-0.733,1.635-1.635,1.635l0,0
			C487.386,195.561,486.658,194.826,486.658,193.926z M479.306,193.926c0-0.904,0.729-1.633,1.636-1.633l0,0
			c0.897,0,1.633,0.729,1.633,1.633l0,0c0,0.9-0.734,1.635-1.633,1.635l0,0C480.034,195.561,479.306,194.826,479.306,193.926z
			 M471.955,193.926c0-0.904,0.729-1.633,1.634-1.633l0,0c0.9,0,1.634,0.729,1.634,1.633l0,0c0,0.9-0.732,1.635-1.634,1.635l0,0
			C472.682,195.561,471.955,194.826,471.955,193.926z M464.604,193.926c0-0.904,0.729-1.633,1.634-1.633l0,0
			c0.898,0,1.634,0.729,1.634,1.633l0,0c0,0.9-0.734,1.635-1.634,1.635l0,0C465.332,195.561,464.604,194.826,464.604,193.926z
			 M486.714,186.633c0-0.906,0.729-1.633,1.635-1.633l0,0c0.906,0,1.634,0.727,1.634,1.633l0,0c0,0.898-0.728,1.633-1.634,1.633l0,0
			C487.442,188.266,486.714,187.531,486.714,186.633z M486.714,179.281c0-0.906,0.729-1.633,1.635-1.633l0,0
			c0.906,0,1.634,0.727,1.634,1.633l0,0c0,0.9-0.728,1.635-1.634,1.635l0,0C487.442,180.916,486.714,180.18,486.714,179.281z
			 M486.714,171.93c0-0.906,0.729-1.635,1.635-1.635l0,0c0.906,0,1.634,0.729,1.634,1.635l0,0c0,0.898-0.728,1.633-1.634,1.633l0,0
			C487.442,173.562,486.714,172.828,486.714,171.93z M486.714,164.577c0-0.905,0.729-1.633,1.635-1.633l0,0
			c0.906,0,1.634,0.728,1.634,1.633l0,0c0,0.899-0.728,1.634-1.634,1.634l0,0C487.442,166.211,486.714,165.477,486.714,164.577z
			 M486.714,157.226c0-0.906,0.729-1.633,1.635-1.633l0,0c0.906,0,1.634,0.727,1.634,1.633l0,0c0,0.899-0.728,1.634-1.634,1.634l0,0
			C487.442,158.86,486.714,158.125,486.714,157.226z M486.714,149.876c0-0.908,0.729-1.634,1.635-1.634l0,0
			c0.906,0,1.634,0.727,1.634,1.634l0,0c0,0.898-0.728,1.632-1.634,1.632l0,0C487.442,151.508,486.714,150.773,486.714,149.876z
			 M486.714,142.524c0-0.906,0.729-1.634,1.635-1.634l0,0c0.906,0,1.634,0.728,1.634,1.634l0,0c0,0.898-0.728,1.634-1.634,1.634l0,0
			C487.442,144.158,486.714,143.421,486.714,142.524z M486.714,135.172c0-0.906,0.729-1.634,1.635-1.634l0,0
			c0.906,0,1.634,0.728,1.634,1.634l0,0c0,0.898-0.728,1.634-1.634,1.634l0,0C487.442,136.806,486.714,136.07,486.714,135.172z
			 M486.714,127.821c0-0.907,0.729-1.633,1.635-1.633l0,0c0.906,0,1.634,0.727,1.634,1.633l0,0c0,0.898-0.728,1.633-1.634,1.633l0,0
			C487.442,129.454,486.714,128.718,486.714,127.821z M486.714,120.469c0-0.907,0.729-1.634,1.635-1.634l0,0
			c0.906,0,1.634,0.727,1.634,1.634l0,0c0,0.899-0.728,1.633-1.634,1.633l0,0C487.442,122.103,486.714,121.367,486.714,120.469z
			 M486.714,113.118c0-0.907,0.729-1.634,1.635-1.634l0,0c0.906,0,1.634,0.727,1.634,1.634l0,0c0,0.898-0.728,1.633-1.634,1.633l0,0
			C487.442,114.751,486.714,114.016,486.714,113.118z M486.714,105.766c0-0.907,0.729-1.634,1.635-1.634l0,0
			c0.906,0,1.634,0.727,1.634,1.634l0,0c0,0.898-0.728,1.634-1.634,1.634l0,0C487.442,107.4,486.714,106.664,486.714,105.766z
			 M486.714,98.414c0-0.906,0.729-1.633,1.635-1.633l0,0c0.906,0,1.634,0.727,1.634,1.633l0,0c0,0.899-0.728,1.634-1.634,1.634l0,0
			C487.442,100.048,486.714,99.313,486.714,98.414z M486.714,91.063c0-0.906,0.729-1.633,1.635-1.633l0,0
			c0.906,0,1.634,0.728,1.634,1.633l0,0c0,0.899-0.728,1.634-1.634,1.634l0,0C487.442,92.697,486.714,91.961,486.714,91.063z
			 M486.714,83.712c0-0.907,0.729-1.634,1.635-1.634l0,0c0.906,0,1.634,0.727,1.634,1.634l0,0c0,0.898-0.728,1.633-1.634,1.633l0,0
			C487.442,85.345,486.714,84.609,486.714,83.712z M486.714,76.36c0-0.907,0.729-1.634,1.635-1.634l0,0
			c0.906,0,1.634,0.728,1.634,1.634l0,0c0,0.898-0.728,1.633-1.634,1.633l0,0C487.442,77.994,486.714,77.259,486.714,76.36z
			 M486.714,69.009c0-0.906,0.729-1.633,1.635-1.633l0,0c0.906,0,1.634,0.727,1.634,1.633l0,0c0,0.898-0.728,1.634-1.634,1.634l0,0
			C487.442,70.643,486.714,69.907,486.714,69.009z M486.714,61.657c0-0.907,0.729-1.633,1.635-1.633l0,0
			c0.906,0,1.634,0.727,1.634,1.633l0,0c0,0.898-0.728,1.633-1.634,1.633l0,0C487.442,63.291,486.714,62.555,486.714,61.657z
			 M486.714,54.305c0-0.906,0.729-1.633,1.635-1.633l0,0c0.906,0,1.634,0.727,1.634,1.633l0,0c0,0.899-0.728,1.634-1.634,1.634l0,0
			C487.442,55.939,486.714,55.205,486.714,54.305z M486.714,46.954c0-0.907,0.729-1.634,1.635-1.634l0,0
			c0.906,0,1.634,0.727,1.634,1.634l0,0c0,0.898-0.728,1.634-1.634,1.634l0,0C487.442,48.588,486.714,47.853,486.714,46.954z
			 M486.714,39.603c0-0.907,0.729-1.634,1.635-1.634l0,0c0.906,0,1.634,0.727,1.634,1.634l0,0c0,0.899-0.728,1.633-1.634,1.633l0,0
			C487.442,41.236,486.714,40.501,486.714,39.603z M486.714,32.251c0-0.906,0.729-1.634,1.635-1.634l0,0
			c0.906,0,1.634,0.728,1.634,1.634l0,0c0,0.899-0.728,1.634-1.634,1.634l0,0C487.442,33.885,486.714,33.15,486.714,32.251z
			 M486.714,24.899c0-0.899,0.729-1.634,1.635-1.634l0,0c0.906,0,1.634,0.735,1.634,1.634l0,0c0,0.898-0.728,1.634-1.634,1.634l0,0
			C487.442,26.533,486.714,25.798,486.714,24.899z M486.714,17.548c0-0.907,0.729-1.634,1.635-1.634l0,0
			c0.906,0,1.634,0.727,1.634,1.634l0,0c0,0.898-0.728,1.633-1.634,1.633l0,0C487.442,19.181,486.714,18.447,486.714,17.548z"/>
	</g>
	<g>
		<path fill="#DCDCDC" d="M406.681,230.553c0-0.898,0.729-1.633,1.635-1.633l0,0c0.898,0,1.633,0.734,1.633,1.633l0,0
			c0,0.906-0.733,1.635-1.633,1.635l0,0C407.409,232.188,406.681,231.459,406.681,230.553z M406.681,223.203
			c0-0.898,0.729-1.635,1.635-1.635l0,0c0.898,0,1.633,0.736,1.633,1.635l0,0c0,0.904-0.733,1.633-1.633,1.633l0,0
			C407.409,224.834,406.681,224.107,406.681,223.203z M406.681,215.85c0-0.896,0.729-1.633,1.635-1.633l0,0
			c0.898,0,1.633,0.736,1.633,1.633l0,0c0,0.906-0.733,1.633-1.633,1.633l0,0C407.409,217.482,406.681,216.756,406.681,215.85z
			 M406.681,208.5c0-0.898,0.729-1.625,1.635-1.625l0,0c0.898,0,1.633,0.727,1.633,1.625l0,0c0,0.904-0.733,1.635-1.633,1.635l0,0
			C407.409,210.133,406.681,209.404,406.681,208.5z M406.681,201.146c0-0.896,0.729-1.633,1.635-1.633l0,0
			c0.898,0,1.633,0.736,1.633,1.633l0,0c0,0.906-0.733,1.635-1.633,1.635l0,0C407.409,202.781,406.681,202.053,406.681,201.146z
			 M436.064,201.131c0-0.906,0.727-1.633,1.634-1.633l0,0c0.896,0,1.632,0.727,1.632,1.633l0,0c0,0.898-0.735,1.633-1.632,1.633l0,0
			C436.791,202.764,436.064,202.029,436.064,201.131z M428.712,201.131c0-0.906,0.728-1.633,1.633-1.633l0,0
			c0.899,0,1.634,0.727,1.634,1.633l0,0c0,0.898-0.733,1.633-1.634,1.633l0,0C429.439,202.764,428.712,202.029,428.712,201.131z
			 M421.361,201.131c0-0.906,0.728-1.633,1.633-1.633l0,0c0.897,0,1.633,0.727,1.633,1.633l0,0c0,0.898-0.734,1.633-1.633,1.633l0,0
			C422.088,202.764,421.361,202.029,421.361,201.131z M414.009,201.131c0-0.906,0.729-1.633,1.633-1.633l0,0
			c0.899,0,1.634,0.727,1.634,1.633l0,0c0,0.898-0.733,1.633-1.634,1.633l0,0C414.737,202.764,414.009,202.029,414.009,201.131z
			 M442.933,200.641c0-0.9,0.729-1.635,1.635-1.635l0,0c0.896,0,1.633,0.734,1.633,1.635l0,0c0,0.908-0.735,1.633-1.633,1.633l0,0
			C443.661,202.273,442.933,201.549,442.933,200.641z M442.933,193.289c0-0.898,0.729-1.625,1.635-1.625l0,0
			c0.896,0,1.633,0.729,1.633,1.625l0,0c0,0.908-0.735,1.643-1.633,1.643l0,0C443.661,194.93,442.933,194.197,442.933,193.289z
			 M442.933,185.938c0-0.898,0.729-1.625,1.635-1.625l0,0c0.896,0,1.633,0.729,1.633,1.625l0,0c0,0.908-0.735,1.643-1.633,1.643l0,0
			C443.661,187.58,442.933,186.846,442.933,185.938z M442.933,178.586c0-0.898,0.729-1.625,1.635-1.625l0,0
			c0.896,0,1.633,0.729,1.633,1.625l0,0c0,0.908-0.735,1.643-1.633,1.643l0,0C443.661,180.229,442.933,179.494,442.933,178.586z
			 M442.933,171.244c0-0.906,0.729-1.635,1.635-1.635l0,0c0.896,0,1.633,0.729,1.633,1.635l0,0c0,0.898-0.735,1.633-1.633,1.633l0,0
			C443.661,172.877,442.933,172.143,442.933,171.244z M442.933,163.892c0-0.906,0.729-1.634,1.635-1.634l0,0
			c0.896,0,1.633,0.728,1.633,1.634l0,0c0,0.898-0.735,1.633-1.633,1.633l0,0C443.661,165.525,442.933,164.79,442.933,163.892z
			 M442.933,156.54c0-0.906,0.729-1.633,1.635-1.633l0,0c0.896,0,1.633,0.727,1.633,1.633l0,0c0,0.899-0.735,1.634-1.633,1.634l0,0
			C443.661,158.174,442.933,157.438,442.933,156.54z M442.933,149.188c0-0.906,0.729-1.642,1.635-1.642l0,0
			c0.896,0,1.633,0.734,1.633,1.642l0,0c0,0.899-0.735,1.634-1.633,1.634l0,0C443.661,150.823,442.933,150.086,442.933,149.188z"/>
	</g>
	<g>
		<path fill="#DCDCDC" d="M342.338,297.689c0-0.906,0.736-1.635,1.643-1.635l0,0c0.899,0,1.635,0.729,1.635,1.635l0,0
			c0,0.898-0.734,1.633-1.635,1.633l0,0C343.075,299.322,342.338,298.588,342.338,297.689z M342.338,290.338
			c0-0.906,0.736-1.633,1.643-1.633l0,0c0.899,0,1.635,0.727,1.635,1.633l0,0c0,0.898-0.734,1.635-1.635,1.635l0,0
			C343.075,291.973,342.338,291.236,342.338,290.338z M342.338,282.986c0-0.904,0.736-1.633,1.643-1.633l0,0
			c0.899,0,1.635,0.729,1.635,1.633l0,0c0,0.898-0.734,1.635-1.635,1.635l0,0C343.075,284.621,342.338,283.885,342.338,282.986z
			 M342.338,275.635c0-0.906,0.736-1.635,1.643-1.635l0,0c0.899,0,1.635,0.729,1.635,1.635l0,0c0,0.896-0.734,1.633-1.635,1.633l0,0
			C343.075,277.268,342.338,276.533,342.338,275.635z M342.338,268.283c0-0.906,0.736-1.633,1.643-1.633l0,0
			c0.899,0,1.635,0.727,1.635,1.633l0,0c0,0.898-0.734,1.635-1.635,1.635l0,0C343.075,269.918,342.338,269.182,342.338,268.283z
			 M342.338,260.932c0-0.906,0.736-1.635,1.643-1.635l0,0c0.899,0,1.635,0.729,1.635,1.635l0,0c0,0.898-0.734,1.635-1.635,1.635l0,0
			C343.075,262.566,342.338,261.83,342.338,260.932z M342.338,253.582c0-0.908,0.736-1.635,1.643-1.635l0,0
			c0.899,0,1.635,0.727,1.635,1.635l0,0c0,0.896-0.734,1.633-1.635,1.633l0,0C343.075,255.213,342.338,254.479,342.338,253.582z
			 M342.338,246.229c0-0.906,0.736-1.633,1.643-1.633l0,0c0.899,0,1.635,0.727,1.635,1.633l0,0c0,0.898-0.734,1.635-1.635,1.635l0,0
			C343.075,247.863,342.338,247.127,342.338,246.229z M342.338,238.877c0-0.906,0.736-1.633,1.643-1.633l0,0
			c0.899,0,1.635,0.727,1.635,1.633l0,0c0,0.896-0.734,1.633-1.635,1.633l0,0C343.075,240.51,342.338,239.775,342.338,238.877z
			 M342.338,231.527c0-0.908,0.736-1.635,1.643-1.635l0,0c0.899,0,1.635,0.727,1.635,1.635l0,0c0,0.898-0.734,1.633-1.635,1.633l0,0
			C343.075,233.16,342.338,232.426,342.338,231.527z M342.338,224.176c0-0.908,0.736-1.635,1.643-1.635l0,0
			c0.899,0,1.635,0.727,1.635,1.635l0,0c0,0.896-0.734,1.633-1.635,1.633l0,0C343.075,225.809,342.338,225.072,342.338,224.176z
			 M342.338,216.822c0-0.904,0.736-1.633,1.643-1.633l0,0c0.899,0,1.635,0.729,1.635,1.633l0,0c0,0.9-0.734,1.637-1.635,1.637l0,0
			C343.075,218.459,342.338,217.721,342.338,216.822z M342.338,209.473c0-0.908,0.736-1.635,1.643-1.635l0,0
			c0.899,0,1.635,0.727,1.635,1.635l0,0c0,0.896-0.734,1.633-1.635,1.633l0,0C343.075,211.105,342.338,210.371,342.338,209.473z
			 M342.338,202.121c0-0.906,0.736-1.635,1.643-1.635l0,0c0.899,0,1.635,0.729,1.635,1.635l0,0c0,0.898-0.734,1.635-1.635,1.635l0,0
			C343.075,203.754,342.338,203.018,342.338,202.121z M342.338,194.77c0-0.906,0.736-1.635,1.643-1.635l0,0
			c0.899,0,1.635,0.729,1.635,1.635l0,0c0,0.896-0.734,1.633-1.635,1.633l0,0C343.075,196.402,342.338,195.666,342.338,194.77z
			 M357.4,187.768c0-0.898,0.735-1.625,1.637-1.625l0,0c0.904,0,1.634,0.729,1.634,1.625l0,0c0,0.908-0.729,1.643-1.634,1.643l0,0
			C358.136,189.41,357.4,188.676,357.4,187.768z M350.05,187.768c0-0.898,0.734-1.625,1.634-1.625l0,0
			c0.906,0,1.635,0.729,1.635,1.625l0,0c0,0.908-0.729,1.643-1.635,1.643l0,0C350.785,189.41,350.05,188.676,350.05,187.768z
			 M342.698,187.768c0-0.898,0.735-1.625,1.635-1.625l0,0c0.905,0,1.634,0.729,1.634,1.625l0,0c0,0.908-0.729,1.643-1.634,1.643l0,0
			C343.434,189.41,342.698,188.676,342.698,187.768z M364.55,187.572c0-0.906,0.733-1.635,1.634-1.635l0,0
			c0.905,0,1.635,0.729,1.635,1.635l0,0c0,0.898-0.729,1.633-1.635,1.633l0,0C365.284,189.205,364.55,188.471,364.55,187.572z
			 M364.55,180.219c0-0.904,0.733-1.633,1.634-1.633l0,0c0.905,0,1.635,0.729,1.635,1.633l0,0c0,0.9-0.729,1.635-1.635,1.635l0,0
			C365.284,181.854,364.55,181.121,364.55,180.219z M364.55,172.869c0-0.906,0.733-1.635,1.634-1.635l0,0
			c0.905,0,1.635,0.729,1.635,1.635l0,0c0,0.898-0.729,1.633-1.635,1.633l0,0C365.284,174.502,364.55,173.768,364.55,172.869z
			 M364.55,165.518c0-0.906,0.733-1.632,1.634-1.632l0,0c0.905,0,1.635,0.726,1.635,1.632l0,0c0,0.898-0.729,1.635-1.635,1.635l0,0
			C365.284,167.152,364.55,166.416,364.55,165.518z M364.55,158.167c0-0.907,0.733-1.634,1.634-1.634l0,0
			c0.905,0,1.635,0.727,1.635,1.634l0,0c0,0.898-0.729,1.633-1.635,1.633l0,0C365.284,159.8,364.55,159.065,364.55,158.167z
			 M364.55,150.815c0-0.907,0.733-1.634,1.634-1.634l0,0c0.905,0,1.635,0.727,1.635,1.634l0,0c0,0.898-0.729,1.633-1.635,1.633l0,0
			C365.284,152.448,364.55,151.713,364.55,150.815z M364.55,143.463c0-0.908,0.733-1.634,1.634-1.634l0,0
			c0.905,0,1.635,0.727,1.635,1.634l0,0c0,0.898-0.729,1.634-1.635,1.634l0,0C365.284,145.097,364.55,144.362,364.55,143.463z
			 M364.55,136.111c0-0.906,0.733-1.634,1.634-1.634l0,0c0.905,0,1.635,0.728,1.635,1.634l0,0c0,0.899-0.729,1.634-1.635,1.634l0,0
			C365.284,137.745,364.55,137.01,364.55,136.111z M364.55,128.76c0-0.906,0.733-1.633,1.634-1.633l0,0
			c0.905,0,1.635,0.727,1.635,1.633l0,0c0,0.897-0.729,1.634-1.635,1.634l0,0C365.284,130.394,364.55,129.658,364.55,128.76z
			 M364.55,121.409c0-0.907,0.733-1.634,1.634-1.634l0,0c0.905,0,1.635,0.727,1.635,1.634l0,0c0,0.898-0.729,1.633-1.635,1.633l0,0
			C365.284,123.042,364.55,122.307,364.55,121.409z M364.55,114.057c0-0.906,0.733-1.633,1.634-1.633l0,0
			c0.905,0,1.635,0.727,1.635,1.633l0,0c0,0.899-0.729,1.633-1.635,1.633l0,0C365.284,115.69,364.55,114.956,364.55,114.057z
			 M364.55,106.705c0-0.906,0.733-1.633,1.634-1.633l0,0c0.905,0,1.635,0.728,1.635,1.633l0,0c0,0.899-0.729,1.634-1.635,1.634l0,0
			C365.284,108.339,364.55,107.604,364.55,106.705z M364.55,99.354c0-0.907,0.733-1.634,1.634-1.634l0,0
			c0.905,0,1.635,0.727,1.635,1.634l0,0c0,0.898-0.729,1.634-1.635,1.634l0,0C365.284,100.988,364.55,100.252,364.55,99.354z
			 M364.55,92.002c0-0.907,0.733-1.634,1.634-1.634l0,0c0.905,0,1.635,0.727,1.635,1.634l0,0c0,0.898-0.729,1.634-1.635,1.634l0,0
			C365.284,93.636,364.55,92.901,364.55,92.002z M364.534,84.667c0-0.899,0.728-1.633,1.632-1.633l0,0
			c0.898,0,1.636,0.734,1.636,1.633l0,0c0,0.906-0.735,1.634-1.636,1.634l0,0C365.261,86.301,364.534,85.573,364.534,84.667z
			 M357.182,84.667c0-0.899,0.729-1.633,1.633-1.633l0,0c0.898,0,1.636,0.734,1.636,1.633l0,0c0,0.906-0.736,1.634-1.636,1.634l0,0
			C357.91,86.301,357.182,85.573,357.182,84.667z M349.83,84.667c0-0.899,0.729-1.633,1.633-1.633l0,0
			c0.898,0,1.635,0.734,1.635,1.633l0,0c0,0.906-0.734,1.634-1.635,1.634l0,0C350.557,86.301,349.83,85.573,349.83,84.667z
			 M342.479,84.667c0-0.899,0.728-1.633,1.633-1.633l0,0c0.898,0,1.636,0.734,1.636,1.633l0,0c0,0.906-0.736,1.634-1.636,1.634l0,0
			C343.206,86.301,342.479,85.573,342.479,84.667z M335.126,84.667c0-0.899,0.728-1.633,1.634-1.633l0,0
			c0.897,0,1.635,0.734,1.635,1.633l0,0c0,0.906-0.736,1.634-1.635,1.634l0,0C335.854,86.301,335.126,85.573,335.126,84.667z
			 M327.792,84.651c0-0.899,0.728-1.634,1.634-1.634l0,0c0.899,0,1.633,0.734,1.633,1.634l0,0c0,0.906-0.732,1.634-1.633,1.634l0,0
			C328.52,86.285,327.792,85.557,327.792,84.651z M327.792,77.3c0-0.899,0.728-1.634,1.634-1.634l0,0
			c0.899,0,1.633,0.735,1.633,1.634l0,0c0,0.906-0.732,1.633-1.633,1.633l0,0C328.52,78.933,327.792,78.205,327.792,77.3z
			 M327.792,69.948c0-0.898,0.728-1.634,1.634-1.634l0,0c0.899,0,1.633,0.735,1.633,1.634l0,0c0,0.907-0.732,1.634-1.633,1.634l0,0
			C328.52,71.582,327.792,70.854,327.792,69.948z M327.792,62.596c0-0.898,0.728-1.634,1.634-1.634l0,0
			c0.899,0,1.633,0.735,1.633,1.634l0,0c0,0.907-0.732,1.634-1.633,1.634l0,0C328.52,64.23,327.792,63.501,327.792,62.596z"/>
	</g>
</g>
</svg>
