<?xml version="1.0" encoding="utf-8"?>
<!-- Generator: Adobe Illustrator 16.0.0, SVG Export Plug-In . SVG Version: 6.00 Build 0)  -->
<!DOCTYPE svg PUBLIC "-//W3C//DTD SVG 1.1//EN" "http://www.w3.org/Graphics/SVG/1.1/DTD/svg11.dtd">
<svg version="1.1" xmlns="http://www.w3.org/2000/svg" xmlns:xlink="http://www.w3.org/1999/xlink" x="0px" y="0px" width="108px"
	 height="108px" viewBox="0 0 108 108" enable-background="new 0 0 108 108" xml:space="preserve">
<g id="Layer_2">
	<g>
		<circle fill="#004860" cx="54.053" cy="54.909" r="49.148"/>
	</g>
</g>
<g id="Layer_6">
	<ellipse fill="#FFFFFF" cx="54.055" cy="39.831" rx="18.812" ry="21.971"/>
</g>
<g id="Layer_4">
	<g>
		<g>
			<g>
				<path fill="#AFC01D" d="M82.146,92.7c0-16.293-11.344-29.643-25.752-30.898V92.7H82.146z"/>
				<path fill="#AFC01D" d="M26.201,92.7h25.748V61.802C37.541,63.059,26.201,76.407,26.201,92.7z"/>
				<path fill="#7EA800" d="M56.396,61.802c-0.732-0.063-1.475-0.104-2.223-0.104c-0.75,0-1.49,0.041-2.225,0.104V92.7h4.446V61.802
					H56.396z"/>
			</g>
			<g>
				<path fill="#FFFFFF" d="M41.224,32.129c-5.188,0.925-9.004,7.614-9.004,7.614c0,12.124,9.83,21.952,21.953,21.952V17.79
					C53.228,26.98,46.412,31.203,41.224,32.129z"/>
				<path fill="#DCDCDC" d="M76.125,39.743c0-12.125-9.828-21.953-21.952-21.953v43.905C66.297,61.695,76.125,51.867,76.125,39.743z
					"/>
			</g>
		</g>
		<g>
			<path fill="#002738" d="M41.224,32.129c5.188-0.926,12.004-5.147,12.949-14.339c-12.123,0-21.953,9.828-21.953,21.953
				C32.22,39.743,36.037,33.054,41.224,32.129z"/>
			<path fill="#002738" d="M67.123,32.129c-5.188-0.926-12.006-5.147-12.95-14.339c12.124,0,21.952,9.828,21.952,21.953
				C76.125,39.743,72.311,33.054,67.123,32.129z"/>
		</g>
		<path fill="#002738" d="M64.406,51.922c0-4.532-4.582-8.206-10.233-8.206c-5.652,0-10.232,3.674-10.232,8.206"/>
	</g>
</g>
</svg>
