<?xml version="1.0" encoding="utf-8"?>
<!-- Generator: Adobe Illustrator 16.0.0, SVG Export Plug-In . SVG Version: 6.00 Build 0)  -->
<!DOCTYPE svg PUBLIC "-//W3C//DTD SVG 1.1//EN" "http://www.w3.org/Graphics/SVG/1.1/DTD/svg11.dtd">
<svg version="1.1" xmlns="http://www.w3.org/2000/svg" xmlns:xlink="http://www.w3.org/1999/xlink" x="0px" y="0px" width="108px"
	 height="108px" viewBox="0 0 108 108" enable-background="new 0 0 108 108" xml:space="preserve">
<g id="Layer_2">
	<g>
		<circle fill="#004860" cx="54.053" cy="54.909" r="49.148"/>
	</g>
</g>
<g id="Layer_6">
	<ellipse fill="#FFFFFF" cx="53.25" cy="40.593" rx="18.812" ry="20.842"/>
	<path fill="#FFFFFF" d="M79.982,90.999c-0.009-16.321-11.94-29.549-26.66-29.549c-14.719,0-26.651,13.228-26.66,29.549H79.982z"/>
	<rect x="52.719" y="58.021" fill="#002738" width="0.955" height="3.426"/>
	<rect x="53.25" y="49.082" fill="#002738" width="0.359" height="3.434"/>
</g>
<g id="Layer_5">
	<g>
		<path fill="#002738" d="M81.094,18.818c-0.177,2.294-2.296,6.002-7.119,6.531c-3.236,0.354-6.453-0.858-8.227-1.696
			c-3.462-2.54-7.723-4.049-12.342-4.049c-10.546,0-19.245,7.812-20.689,17.958c7.042-0.615,12.686-6.062,13.627-13.008
			c3.833,7.658,11.746,12.916,20.893,12.916c2.328,0,4.569-0.356,6.691-0.994c-0.008-0.041-0.023-0.082-0.031-0.125
			C85.212,32.154,81.094,18.818,81.094,18.818z"/>
		<path fill="#00BEC5" d="M53.322,67.717c3.185,0,5.809-2.378,6.207-5.455c2.504,0.663,4.861,1.736,7.035,3.121v25.616H53.263V67.71
			C53.283,67.71,53.302,67.717,53.322,67.717z"/>
		<g>
			<polygon fill="none" points="43.602,52.42 43.608,52.415 43.606,52.415 			"/>
			<path fill="none" d="M41.619,54.407c-0.004,0.007-0.009,0.017-0.015,0.021C41.61,54.424,41.614,54.414,41.619,54.407z"/>
			<path fill="none" d="M44.665,51.641c-0.027,0.018-0.056,0.035-0.083,0.053C44.608,51.676,44.637,51.657,44.665,51.641z"/>
			<path fill="none" d="M42.484,53.442c0.052-0.052,0.105-0.104,0.16-0.158C42.589,53.337,42.538,53.391,42.484,53.442z"/>
			<path fill="none" d="M45.809,50.955c-0.081,0.043-0.162,0.086-0.24,0.131C45.647,51.041,45.728,50.998,45.809,50.955z"/>
			<path fill="none" d="M50.787,49.287c-0.133,0.021-0.266,0.042-0.397,0.065C50.522,49.329,50.654,49.309,50.787,49.287z"/>
			<path fill="none" d="M52.051,49.137c-0.128,0.01-0.252,0.024-0.378,0.037C51.798,49.162,51.922,49.146,52.051,49.137z"/>
			<path fill="none" d="M49.482,49.549c-0.095,0.021-0.195,0.043-0.29,0.067C49.287,49.592,49.386,49.569,49.482,49.549z"/>
			<path fill="none" d="M46.9,50.417c-0.084,0.038-0.167,0.076-0.25,0.115C46.733,50.493,46.816,50.455,46.9,50.417z"/>
			<path fill="none" d="M48.014,49.975c-0.01,0.004-0.023,0.008-0.034,0.012C47.991,49.982,48.004,49.979,48.014,49.975z"/>
			<path fill="none" d="M40.903,55.416c-0.054,0.083-0.108,0.168-0.159,0.252C40.796,55.584,40.85,55.499,40.903,55.416z"/>
			<path fill="none" d="M53.383,61.446c-0.021,0-0.039,0.002-0.061,0.002c0.021,0,0.039,0.002,0.061,0.002V61.446z"/>
			<path fill="#AFC01D" d="M26.662,90.999h13.419V65.383C32.071,70.479,26.662,80.027,26.662,90.999z"/>
			<path fill="#69E2DE" d="M53.322,67.717c-3.187,0-5.81-2.378-6.208-5.455c-2.503,0.663-4.858,1.736-7.033,3.121v25.616h13.301
				V67.71C53.361,67.71,53.344,67.717,53.322,67.717z"/>
			<path fill="#FFFFFF" d="M53.322,67.717c0.021,0,0.039-0.007,0.061-0.007v-6.26c-0.021,0-0.039-0.002-0.061-0.002
				c-2.139,0-4.216,0.287-6.208,0.812C47.513,65.339,50.136,67.717,53.322,67.717z"/>
			<path fill="#002738" d="M53.383,49.087c-0.021,0-0.039-0.005-0.061-0.005c-0.43,0-0.854,0.022-1.271,0.055
				c-0.128,0.01-0.252,0.024-0.378,0.037c-0.299,0.031-0.594,0.067-0.885,0.112c-0.133,0.021-0.266,0.043-0.397,0.066
				c-0.306,0.055-0.608,0.121-0.908,0.195c-0.095,0.021-0.195,0.043-0.29,0.067c-0.399,0.105-0.792,0.224-1.177,0.357
				c-0.01,0.004-0.023,0.008-0.034,0.012c-0.368,0.131-0.728,0.275-1.08,0.432c-0.084,0.037-0.167,0.076-0.25,0.115
				c-0.288,0.134-0.569,0.272-0.842,0.422c-0.081,0.044-0.162,0.087-0.24,0.132c-0.308,0.176-0.612,0.359-0.904,0.555
				c-0.027,0.018-0.056,0.035-0.083,0.053c-0.338,0.229-0.663,0.469-0.975,0.723c-0.002,0.003-0.004,0.005-0.006,0.005
				c0.001,0,0.004-0.002,0.004-0.005c-5.591-2.969-9.642-8.424-10.722-14.888c-0.084,0.009-0.166,0.024-0.248,0.034
				c-0.14,0.971-0.235,1.955-0.235,2.965c0,6.556,3.032,12.385,7.749,16.222c0.107,0.088,0.209,0.178,0.318,0.263
				c3.549,2.771,8.003,4.438,12.854,4.438c0.021,0,0.039-0.002,0.061-0.002v-3.434c-0.021,0-0.039,0.007-0.061,0.007
				c-3.043,0-5.511-2.466-5.511-5.509h5.571L53.383,49.087L53.383,49.087z"/>
			<path fill="#002738" d="M43.602,52.42c-0.337,0.272-0.654,0.563-0.958,0.863C42.947,52.984,43.265,52.693,43.602,52.42z"/>
			<path fill="#002738" d="M41.604,54.43c-0.252,0.316-0.482,0.646-0.701,0.986C41.122,55.075,41.352,54.746,41.604,54.43z"/>
			<path fill="#002738" d="M41.619,54.407c0.27-0.336,0.561-0.655,0.865-0.966C42.179,53.752,41.888,54.071,41.619,54.407z"/>
			<path fill="#002738" d="M40.15,56.748c0.176-0.37,0.379-0.729,0.595-1.08C40.528,56.02,40.326,56.378,40.15,56.748z"/>
			<path fill="#FFFFFF" d="M43.606,52.415c0.002,0,0.002,0,0.002,0c0.312-0.254,0.637-0.494,0.975-0.723
				c0.026-0.018,0.055-0.035,0.083-0.053c0.292-0.194,0.594-0.379,0.904-0.555c0.079-0.045,0.16-0.088,0.24-0.131
				c0.273-0.149,0.555-0.289,0.842-0.423c0.083-0.039,0.166-0.077,0.25-0.115c0.353-0.155,0.712-0.301,1.08-0.432
				c0.01-0.004,0.023-0.008,0.034-0.012c0.385-0.135,0.778-0.252,1.177-0.357c0.095-0.024,0.195-0.047,0.29-0.067
				c0.3-0.074,0.602-0.142,0.908-0.195c0.132-0.023,0.265-0.045,0.397-0.065c0.292-0.046,0.586-0.082,0.885-0.113
				c0.126-0.012,0.25-0.027,0.378-0.037c0.419-0.031,0.842-0.055,1.271-0.055c0.021,0,0.039,0.003,0.061,0.003V32.977
				c-2.993-2.189-5.448-5.078-7.121-8.422c-0.932,6.861-6.456,12.254-13.379,12.974C33.963,43.991,38.015,49.446,43.606,52.415z"/>
			<path fill="#FFFFFF" d="M45.568,51.086c-0.31,0.176-0.612,0.359-0.904,0.555C44.956,51.445,45.261,51.262,45.568,51.086z"/>
			<path fill="#FFFFFF" d="M44.582,51.693c-0.338,0.229-0.663,0.47-0.975,0.723C43.92,52.162,44.244,51.921,44.582,51.693z"/>
			<path fill="#FFFFFF" d="M53.322,49.082c0.021,0,0.039,0.005,0.061,0.005v-0.002C53.361,49.085,53.344,49.082,53.322,49.082z"/>
			<path fill="#FFFFFF" d="M46.651,50.532c-0.288,0.134-0.569,0.272-0.842,0.423C46.082,50.806,46.363,50.666,46.651,50.532z"/>
			<path fill="#FFFFFF" d="M53.322,49.082c-0.43,0-0.853,0.022-1.271,0.055C52.47,49.105,52.893,49.082,53.322,49.082z"/>
			<path fill="#FFFFFF" d="M50.39,49.354c-0.306,0.055-0.608,0.121-0.908,0.195C49.782,49.475,50.084,49.407,50.39,49.354z"/>
			<path fill="#FFFFFF" d="M51.672,49.174c-0.299,0.031-0.594,0.067-0.885,0.113C51.079,49.241,51.374,49.205,51.672,49.174z"/>
			<path fill="#FFFFFF" d="M49.192,49.616c-0.399,0.105-0.792,0.224-1.177,0.357C48.4,49.84,48.793,49.723,49.192,49.616z"/>
			<path fill="#FFFFFF" d="M47.981,49.986c-0.368,0.131-0.728,0.275-1.08,0.432C47.253,50.262,47.612,50.116,47.981,49.986z"/>
			<path fill="#FFFFFF" d="M47.812,52.512c0,3.043,2.468,5.509,5.512,5.509c0.021,0,0.039-0.007,0.06-0.007v-5.502H47.812z"/>
			<path fill="#002738" d="M54.596,49.137c0.129,0.01,0.252,0.024,0.379,0.037C54.848,49.162,54.725,49.146,54.596,49.137z"/>
			<path fill="#002738" d="M64.008,53.289c0.049,0.05,0.102,0.099,0.15,0.147C64.109,53.388,64.057,53.339,64.008,53.289z"/>
			<path fill="#002738" d="M61.995,51.648c0.021,0.016,0.042,0.027,0.065,0.041C62.038,51.676,62.016,51.663,61.995,51.648z"/>
			<path fill="#002738" d="M59.747,50.417c0.083,0.038,0.164,0.076,0.245,0.113C59.911,50.493,59.831,50.455,59.747,50.417z"/>
			<path fill="#002738" d="M60.844,50.957c0.077,0.041,0.153,0.084,0.229,0.126C60.997,51.041,60.921,50.998,60.844,50.957z"/>
			<path fill="#002738" d="M58.634,49.975c0.009,0.002,0.017,0.006,0.022,0.008C58.65,49.98,58.643,49.977,58.634,49.975z"/>
			<path fill="#002738" d="M65.027,54.409c0.002,0.005,0.004,0.007,0.006,0.011C65.031,54.416,65.029,54.414,65.027,54.409z"/>
			<path fill="#002738" d="M65.742,55.418c0.055,0.084,0.107,0.166,0.158,0.249C65.85,55.584,65.797,55.502,65.742,55.418z"/>
			<path fill="#002738" d="M55.859,49.287c0.133,0.021,0.266,0.042,0.397,0.065C56.125,49.329,55.992,49.309,55.859,49.287z"/>
			<path fill="#002738" d="M57.164,49.549c0.097,0.021,0.195,0.043,0.291,0.067C57.359,49.592,57.261,49.569,57.164,49.549z"/>
			<path fill="#7EA800" d="M66.566,65.383v25.616h13.416C79.982,80.027,74.574,70.479,66.566,65.383z"/>
			<path fill="#DCDCDC" d="M59.529,62.262c-1.974-0.521-4.029-0.807-6.146-0.812v6.26C56.541,67.679,59.135,65.318,59.529,62.262z"
				/>
			<path fill="#002738" d="M73.883,36.736c-0.867,6.812-5.025,12.588-10.843,15.68c-0.312-0.253-0.64-0.495-0.979-0.727
				c-0.022-0.014-0.045-0.025-0.064-0.041c-0.299-0.199-0.605-0.387-0.922-0.564c-0.076-0.042-0.152-0.085-0.229-0.126
				c-0.279-0.151-0.562-0.291-0.852-0.427c-0.081-0.037-0.162-0.075-0.245-0.113c-0.354-0.155-0.718-0.303-1.091-0.436
				c-0.006-0.002-0.014-0.006-0.022-0.008c-0.384-0.135-0.78-0.252-1.18-0.357c-0.095-0.024-0.194-0.047-0.291-0.067
				c-0.3-0.075-0.601-0.142-0.907-0.195c-0.133-0.023-0.266-0.045-0.396-0.065c-0.293-0.046-0.588-0.082-0.887-0.113
				c-0.125-0.012-0.25-0.027-0.378-0.037c-0.399-0.031-0.804-0.05-1.213-0.05v3.425h5.451c0,3.021-2.437,5.47-5.451,5.502v3.434
				c4.827-0.015,9.261-1.676,12.795-4.437c0.107-0.085,0.212-0.175,0.317-0.263c4.719-3.836,7.751-9.666,7.751-16.222
				C74.246,39.23,74.109,37.967,73.883,36.736z"/>
			<path fill="#002738" d="M64.008,53.289c-0.309-0.306-0.627-0.597-0.968-0.874l0,0C63.381,52.693,63.699,52.986,64.008,53.289z"/>
			<path fill="#002738" d="M66.495,56.748c-0.177-0.372-0.38-0.73-0.595-1.081C66.115,56.018,66.318,56.376,66.495,56.748z"/>
			<path fill="#002738" d="M65.033,54.42c0.257,0.321,0.488,0.655,0.709,0.998C65.525,55.075,65.29,54.741,65.033,54.42z"/>
			<path fill="#002738" d="M64.158,53.438c0.308,0.312,0.599,0.635,0.869,0.973C64.759,54.071,64.465,53.75,64.158,53.438z"/>
			<path fill="#DCDCDC" d="M54.596,49.137c0.129,0.01,0.252,0.024,0.379,0.037c0.297,0.031,0.594,0.067,0.885,0.113
				c0.133,0.021,0.266,0.042,0.397,0.065c0.306,0.055,0.608,0.121,0.907,0.195c0.097,0.021,0.195,0.043,0.291,0.067
				c0.4,0.105,0.795,0.224,1.18,0.357c0.01,0.002,0.016,0.006,0.023,0.008c0.373,0.133,0.734,0.279,1.09,0.436
				c0.083,0.037,0.164,0.076,0.244,0.113c0.289,0.136,0.572,0.274,0.853,0.427c0.077,0.041,0.153,0.084,0.229,0.126
				c0.314,0.179,0.623,0.365,0.921,0.564c0.021,0.015,0.042,0.027,0.065,0.041c0.34,0.23,0.666,0.473,0.979,0.727
				c5.818-3.092,9.975-8.868,10.843-15.68c-0.015-0.086-0.021-0.175-0.037-0.26c-2.123,0.638-4.362,0.994-6.69,0.994
				c-5.152,0-9.912-1.669-13.772-4.494v16.108C53.792,49.087,54.195,49.105,54.596,49.137z"/>
			<path fill="#002738" d="M63.04,52.415c-0.312-0.254-0.64-0.495-0.979-0.727C62.4,51.92,62.729,52.162,63.04,52.415L63.04,52.415z
				"/>
			<path fill="#002738" d="M61.074,51.083c0.314,0.179,0.623,0.365,0.921,0.564C61.695,51.448,61.389,51.262,61.074,51.083z"/>
			<path fill="#002738" d="M54.975,49.174c0.297,0.031,0.594,0.067,0.885,0.113C55.568,49.241,55.271,49.205,54.975,49.174z"/>
			<path fill="#002738" d="M56.257,49.354c0.306,0.055,0.608,0.12,0.907,0.195C56.865,49.475,56.564,49.407,56.257,49.354z"/>
			<path fill="#002738" d="M53.383,49.085v0.002c0.409,0,0.812,0.019,1.213,0.05C54.195,49.105,53.792,49.087,53.383,49.085z"/>
			<path fill="#002738" d="M57.455,49.616c0.4,0.105,0.795,0.224,1.18,0.357C58.25,49.84,57.855,49.723,57.455,49.616z"/>
			<path fill="#002738" d="M59.992,50.53c0.289,0.136,0.572,0.274,0.852,0.427C60.564,50.806,60.281,50.666,59.992,50.53z"/>
			<path fill="#002738" d="M58.656,49.982c0.373,0.133,0.734,0.279,1.091,0.436C59.393,50.262,59.029,50.114,58.656,49.982z"/>
			<path fill="#DCDCDC" d="M58.834,52.512h-5.451v5.502C56.398,57.981,58.834,55.533,58.834,52.512z"/>
		</g>
	</g>
</g>
</svg>
