<?xml version="1.0" encoding="utf-8"?>
<!-- Generator: Adobe Illustrator 16.0.0, SVG Export Plug-In . SVG Version: 6.00 Build 0)  -->
<!DOCTYPE svg PUBLIC "-//W3C//DTD SVG 1.1//EN" "http://www.w3.org/Graphics/SVG/1.1/DTD/svg11.dtd">
<svg version="1.1" xmlns="http://www.w3.org/2000/svg" xmlns:xlink="http://www.w3.org/1999/xlink" x="0px" y="0px" width="108px"
	 height="108px" viewBox="0 0 108 108" enable-background="new 0 0 108 108" xml:space="preserve">
<g id="Layer_2">
	<g>
		<circle fill="#004860" cx="54.053" cy="54.909" r="49.148"/>
	</g>
</g>
<g id="Layer_3">
	<ellipse fill="#FFFFFF" cx="53.989" cy="37.987" rx="19.511" ry="20.967"/>
	<polygon fill="#FFFFFF" points="36.268,91.518 54.053,60.645 71.838,91.519 	"/>
</g>
<g id="Layer_5">
	<g>
		<path fill="#69E2DE" d="M48.999,71.203c-0.818,1.282-1.463,2.894-1.625,4.91l-9.725-9.507c-6.936,5.603-11.447,14.67-11.447,24.91
			h21.672l3.299-16.215L48.999,71.203z"/>
		<path fill="#FFFFFF" d="M53.999,60.708c-2.854,0-5.607,0.479-8.201,1.366l8.201,4.892V60.708z"/>
		<path fill="#1D1D1B" d="M48.999,71.203l2.174,4.1l-3.299,16.215h6.125V66.966C53.989,66.971,50.971,68.119,48.999,71.203z"/>
		<path fill="#AFC01D" d="M48.999,71.203c1.973-3.084,4.99-4.232,5-4.237l0,0l-8.201-4.892c-2.957,1.012-5.701,2.558-8.146,4.532
			l9.725,9.507C47.536,74.097,48.178,72.485,48.999,71.203z"/>
		<path fill="#FFFFFF" d="M53.999,43.183V30.912c-3.092-2.278-5.629-5.269-7.361-8.732c-0.98,7.241-6.865,12.92-14.207,13.562
			c-0.145,1.014-0.244,2.04-0.244,3.092c0,6.99,3.301,13.194,8.412,17.188C42.215,48.623,47.594,43.183,53.999,43.183z"/>
		<path fill="#FCD07A" d="M48.254,51.109h5.744v-7.928c-6.402,0-11.783,5.44-13.4,12.837c3.699,2.891,8.344,4.628,13.4,4.628v-3.791
			C50.827,56.855,48.254,54.284,48.254,51.109z"/>
		<path fill="#FCD07A" d="M46.637,22.18c1.732,3.465,4.27,6.454,7.361,8.732V17.02c-10.994,0-20.062,8.144-21.568,18.722
			C39.77,35.1,45.655,29.421,46.637,22.18z"/>
		<path fill="#FFFFFF" d="M53.999,56.855v-5.746h-5.744C48.254,54.284,50.827,56.855,53.999,56.855z"/>
		<path fill="#DCDCDC" d="M54,66.966l8.204-4.892c-2.594-0.889-5.35-1.366-8.204-1.366h-0.001v6.258H54z"/>
		<path fill="#00BEC5" d="M70.351,66.606l-9.723,9.506c-0.162-2.017-0.807-3.627-1.627-4.909l-2.174,4.1l3.301,16.215h21.668
			C81.798,81.276,77.286,72.209,70.351,66.606z"/>
		<path fill="#002738" d="M59.001,71.203C57.028,68.111,54,66.966,54,66.966h-0.001v24.552h6.129l-3.301-16.215L59.001,71.203z"/>
		<path fill="#FFFFFF" d="M53.999,66.966H54H53.999z"/>
		<path fill="#7EA800" d="M59.001,71.203c0.82,1.282,1.465,2.894,1.629,4.91l9.723-9.507c-2.443-1.976-5.189-3.521-8.148-4.532
			l-8.202,4.892C54,66.966,57.028,68.111,59.001,71.203z"/>
		<path fill="#DCDCDC" d="M53.999,30.912v12.271c6.407,0,11.786,5.44,13.405,12.837c5.111-3.992,8.412-10.199,8.412-17.188
			c0-1.445-0.15-2.854-0.418-4.222c-2.213,0.664-4.549,1.035-6.977,1.035C63.021,35.646,58.036,33.887,53.999,30.912z"/>
		<path fill="#FFA033" d="M53.999,43.183v7.928h5.747c0,3.175-2.57,5.746-5.747,5.746v3.791c5.061,0,9.704-1.737,13.405-4.628
			C65.784,48.623,60.405,43.183,53.999,43.183z"/>
		<path fill="#FFA033" d="M68.421,35.646c2.428,0,4.764-0.371,6.979-1.035C73.431,24.586,64.603,17.019,54,17.019v13.894
			C58.036,33.887,63.021,35.646,68.421,35.646z"/>
		<path fill="#DCDCDC" d="M59.745,51.109h-5.747v5.746C57.175,56.855,59.745,54.284,59.745,51.109z"/>
	</g>
</g>
</svg>
