<?xml version="1.0" encoding="utf-8"?>
<!-- Generator: Adobe Illustrator 16.0.0, SVG Export Plug-In . SVG Version: 6.00 Build 0)  -->
<!DOCTYPE svg PUBLIC "-//W3C//DTD SVG 1.1//EN" "http://www.w3.org/Graphics/SVG/1.1/DTD/svg11.dtd">
<svg version="1.1" xmlns="http://www.w3.org/2000/svg" xmlns:xlink="http://www.w3.org/1999/xlink" x="0px" y="0px" width="108px"
	 height="108px" viewBox="0 0 108 108" enable-background="new 0 0 108 108" xml:space="preserve">
<g id="Layer_2">
	<g>
		<circle fill="#004860" cx="54.053" cy="54.909" r="49.148"/>
	</g>
</g>
<g id="Layer_6">
	<ellipse fill="#FFFFFF" cx="53.25" cy="40.732" rx="18.812" ry="20.981"/>
	<path fill="#FFFFFF" d="M79.551,92.402c-0.009-16.965-11.94-30.715-26.66-30.715c-14.719,0-26.651,13.75-26.66,30.715H79.551z"/>
	<rect x="51.917" y="79.81" fill="#002738" width="2.136" height="12.594"/>
</g>
<g id="Layer_4">
	<g>
		<path fill="#FCD07A" d="M82.013,17.442c-0.185,2.385-2.385,6.233-7.395,6.783c-5.009,0.55-9.995-2.523-9.995-2.523
			s-0.002,0.016-0.003,0.021c-3.384-2.182-7.402-3.461-11.729-3.461c-10.952,0-19.985,8.108-21.484,18.646
			c7.312-0.64,13.173-6.295,14.15-13.508c3.982,7.953,12.2,13.413,21.698,13.413c1.607,0,3.17-0.177,4.688-0.479
			c0.692-0.093,1.44-0.269,2.26-0.553C86.382,31.57,82.013,17.442,82.013,17.442z"/>
		<g>
			<path fill="#002738" d="M52.89,79.81c-9.073-3.474-13.425-14.184-13.444-14.231c-8.494,5.239-14.243,15.287-14.243,26.825h27.688
				L52.89,79.81L52.89,79.81L52.89,79.81z"/>
			<path fill="#FFFFFF" d="M52.89,79.81L52.89,79.81l0.001-18.095H52.89c-4.881,0-9.462,1.405-13.444,3.862
				C39.465,65.626,43.817,76.336,52.89,79.81z"/>
			<polygon fill="none" points="42.796,52.34 42.802,52.334 42.8,52.335 			"/>
			<path fill="#FFFFFF" d="M45.557,23.4c-0.965,7.127-6.703,12.727-13.893,13.476c-0.087,0.008-0.171,0.023-0.258,0.032
				c-0.143,1.009-0.243,2.031-0.243,3.08c0,6.809,3.148,12.861,8.048,16.846c0.111,0.091,0.217,0.185,0.33,0.271
				c3.686,2.878,8.311,4.608,13.35,4.608V32.1C49.811,29.829,47.284,26.853,45.557,23.4z M42.796,52.34
				c0.001-0.001,0.002-0.003,0.004-0.005c0-0.001,0.001-0.001,0.002-0.001C42.8,52.337,42.798,52.339,42.796,52.34z"/>
			<path fill="#002738" d="M66.335,65.577c-0.02,0.049-4.371,10.758-13.443,14.231v12.594h27.686
				C80.577,80.863,74.828,70.816,66.335,65.577z"/>
			<path fill="#DCDCDC" d="M66.335,65.577c-3.982-2.457-8.562-3.862-13.443-3.862V79.81C61.964,76.335,66.315,65.626,66.335,65.577z
				"/>
			<path fill="#DCDCDC" d="M66.571,56.834c4.9-3.983,8.048-10.039,8.048-16.846c0-1.348-0.14-2.659-0.375-3.938
				c-0.017-0.09-0.022-0.18-0.04-0.271c-2.205,0.661-4.531,1.032-6.949,1.032c-5.377,0-10.344-1.754-14.364-4.714v29.614
				c5.04,0,9.665-1.73,13.35-4.608C66.354,57.019,66.46,56.925,66.571,56.834z"/>
		</g>
	</g>
</g>
</svg>
