<?xml version="1.0" encoding="utf-8"?>
<!-- Generator: Adobe Illustrator 16.0.0, SVG Export Plug-In . SVG Version: 6.00 Build 0)  -->
<!DOCTYPE svg PUBLIC "-//W3C//DTD SVG 1.1//EN" "http://www.w3.org/Graphics/SVG/1.1/DTD/svg11.dtd">
<svg version="1.1" xmlns="http://www.w3.org/2000/svg" xmlns:xlink="http://www.w3.org/1999/xlink" x="0px" y="0px" width="108px"
	 height="108px" viewBox="0 0 108 108" enable-background="new 0 0 108 108" xml:space="preserve">
<g id="Layer_2">
	<g>
		<circle fill="#004860" cx="54.053" cy="54.909" r="49.148"/>
	</g>
</g>
<g id="Layer_4">
	<g>
		<g>
			<path fill="#AFC01D" d="M32.521,36.444v1.027c0.019-0.343,0.021-0.688,0.052-1.027H32.521z"/>
			<path fill="#AFC01D" d="M76.041,39.526c-0.016,0.34-0.021,0.687-0.051,1.023v40.502h0.051V39.526z"/>
			<path fill="#AFC01D" d="M54.281,66.847l-5.643-5.877c1.822-0.418,3.707-0.656,5.643-0.656c-11.699,0-21.221-9.219-21.761-20.788
				v41.526h21.761V66.847L54.281,66.847z"/>
			<path fill="#AFC01D" d="M76.041,36.444H75.99c0.03,0.339,0.033,0.686,0.051,1.027V36.444z"/>
			<path fill="#FFFFFF" d="M32.469,38.5c0,0.347,0.036,0.683,0.052,1.025v-2.054C32.502,37.815,32.469,38.151,32.469,38.5z"/>
			<path fill="#FFFFFF" d="M76.095,38.5c0-0.349-0.034-0.686-0.054-1.027v2.054C76.059,39.182,76.095,38.846,76.095,38.5z"/>
			<path fill="#FFFFFF" d="M76.041,39.526v-2.054c-0.018-0.343-0.021-0.688-0.051-1.027v4.104
				C76.021,40.211,76.027,39.865,76.041,39.526z"/>
			<path fill="#FFFFFF" d="M44.084,36.444c-1.8,0.608-3.735,0.95-5.763,0.95c-2.021,0-3.951-0.347-5.75-0.95
				c-0.031,0.339-0.034,0.686-0.052,1.027v2.054c0.54,11.568,10.062,20.787,21.762,20.787V36.444v-9.486
				C52.551,31.362,48.802,34.85,44.084,36.444z"/>
			<path fill="#AFC01D" d="M32.573,36.444c1.798,0.604,3.728,0.95,5.75,0.95c2.027,0,3.963-0.342,5.763-0.95
				c4.717-1.595,8.466-5.082,10.195-9.486V16.687C42.929,16.688,33.611,25.362,32.573,36.444z"/>
			<path fill="#FFFFFF" d="M54.281,66.847L54.281,66.847v-6.533c-1.936,0-3.819,0.238-5.643,0.656L54.281,66.847z"/>
			<rect x="54.281" y="81.052" fill="#002738" width="21.709" height="10.068"/>
			<path fill="#DCDCDC" d="M70.24,37.395c-2.024,0-3.963-0.342-5.764-0.95c-4.716-1.595-8.464-5.082-10.195-9.486v9.486v23.869
				c11.354,0,20.676-8.678,21.709-19.764v-4.104C74.191,37.048,72.262,37.395,70.24,37.395z"/>
			<g>
				<path fill="#7EA800" d="M54.281,60.313c1.938,0,3.82,0.238,5.644,0.656l-5.642,5.877h-0.002v14.205H75.99V40.549
					C74.957,51.636,65.635,60.313,54.281,60.313z"/>
				<path fill="#7EA800" d="M64.477,36.444c1.801,0.608,3.738,0.95,5.764,0.95c2.021,0,3.951-0.347,5.75-0.95
					c-1.037-11.082-10.354-19.757-21.709-19.757v10.271C56.013,31.362,59.761,34.85,64.477,36.444z"/>
			</g>
			<path fill="#DCDCDC" d="M54.283,66.847l5.642-5.877c-1.822-0.418-3.706-0.656-5.644-0.656v6.533H54.283z"/>
		</g>
		<g>
			<g>
				<path fill="#00BEC5" d="M54.283,66.847h-0.002l0,0l0,0c0,0,0,0.025,0,0.055C54.281,66.872,54.283,66.847,54.283,66.847
					L54.283,66.847z"/>
				<path fill="#002738" d="M66.73,63.601c-0.145,1.814-1.119,7.438-6.896,8.4c-5.389,0.896-5.555-4.316-5.553-5.061
					c0.004,0.742-0.164,5.957-5.551,5.061c-5.779-0.963-6.753-6.586-6.898-8.4c-9.095,5.062-15.346,15.471-15.346,27.52h55.589
					C82.076,79.071,75.824,68.661,66.73,63.601z"/>
				<path fill="#69E2DE" d="M54.281,66.847l-5.643-5.877c-0.277,0.062-0.557,0.119-0.83,0.193c-2.098,0.553-4.094,1.389-5.977,2.438
					c0.146,1.814,1.119,7.438,6.898,8.4c5.387,0.896,5.556-4.316,5.552-5.061c0-0.018,0-0.027,0-0.039
					C54.281,66.872,54.281,66.847,54.281,66.847z"/>
				<path fill="#00BEC5" d="M60.754,61.163c-0.272-0.074-0.553-0.131-0.83-0.193l-5.641,5.877c0,0-0.002,0.025-0.002,0.055
					c0,0.012,0,0.023,0,0.039c-0.004,0.744,0.164,5.957,5.551,5.061c5.779-0.963,6.754-6.586,6.897-8.4
					C64.848,62.552,62.852,61.716,60.754,61.163z"/>
				<path fill="#DCDCDC" d="M54.281,66.901c0,0.012,0,0.021,0,0.039C54.281,66.925,54.281,66.913,54.281,66.901z"/>
			</g>
			<circle fill="#69E2DE" cx="54.281" cy="74.853" r="1.193"/>
			<circle fill="#69E2DE" cx="54.281" cy="79.86" r="1.193"/>
			<circle fill="#69E2DE" cx="54.281" cy="84.865" r="1.192"/>
		</g>
	</g>
</g>
</svg>
