<?xml version="1.0" encoding="utf-8"?>
<!-- Generator: Adobe Illustrator 16.0.0, SVG Export Plug-In . SVG Version: 6.00 Build 0)  -->
<!DOCTYPE svg PUBLIC "-//W3C//DTD SVG 1.1//EN" "http://www.w3.org/Graphics/SVG/1.1/DTD/svg11.dtd">
<svg version="1.1" xmlns="http://www.w3.org/2000/svg" xmlns:xlink="http://www.w3.org/1999/xlink" x="0px" y="0px" width="144px"
	 height="144px" viewBox="0 0 144 144" enable-background="new 0 0 144 144" xml:space="preserve">
<g id="Layer_1" display="none">
	<g id="Layer_1_1_" display="inline">
		<g>
			<g>
				<circle fill="#004860" cx="72.661" cy="72.008" r="49.148"/>
			</g>
		</g>
	</g>
	<g id="Layer_3" display="inline">
		<g>
			<g>
				<path fill="#FFFFFF" d="M103.312,85.113c0,1.753-1.442,3.174-3.224,3.174H45.773c-1.78,0-3.223-1.421-3.223-3.174V57.155
					c0-1.753,1.442-3.175,3.223-3.175h54.316c1.78,0,3.224,1.421,3.224,3.175V85.113L103.312,85.113z"/>
				<polygon fill="#FFFFFF" points="72.591,83.579 58.936,102.414 58.936,82.232 				"/>
			</g>
			<g>
				<ellipse fill="#4296C9" cx="55.854" cy="71.844" rx="3.284" ry="3.236"/>
				<ellipse fill="#4296C9" cx="67.239" cy="71.844" rx="3.284" ry="3.236"/>
				<ellipse fill="#4296C9" cx="78.624" cy="71.844" rx="3.284" ry="3.236"/>
				<ellipse fill="#4296C9" cx="90.012" cy="71.844" rx="3.283" ry="3.236"/>
			</g>
		</g>
	</g>
	<g id="Layer_4">
		<g display="inline">
			<g>
				<path fill="#FFFFFF" d="M42.551,85.113c0,1.753,1.442,3.174,3.223,3.174h54.316c1.78,0,3.223-1.421,3.223-3.174V57.155
					c0-1.753-1.441-3.175-3.223-3.175H45.773c-1.78,0-3.223,1.421-3.223,3.175L42.551,85.113L42.551,85.113z"/>
				<polygon fill="#FFFFFF" points="73.271,83.579 86.928,102.414 86.928,82.232 				"/>
			</g>
			<g>
				<ellipse fill="#4296C9" cx="90.009" cy="71.844" rx="3.284" ry="3.236"/>
				<ellipse fill="#4296C9" cx="78.624" cy="71.844" rx="3.284" ry="3.236"/>
				<ellipse fill="#4296C9" cx="67.239" cy="71.844" rx="3.284" ry="3.236"/>
				<ellipse fill="#4296C9" cx="55.853" cy="71.844" rx="3.284" ry="3.236"/>
			</g>
		</g>
	</g>
	<g id="Layer_5">
	</g>
</g>
<g id="Layer_2">
	<g>
		<circle fill="#004860" cx="72.932" cy="72.008" r="49.148"/>
		<g>
			<path fill="#FCD07A" d="M100.955,34.528c-0.186,2.385-2.385,6.233-7.395,6.783s-9.996-2.523-9.996-2.523
				s-0.002,0.016-0.002,0.021c-3.385-2.182-7.402-3.461-11.729-3.461c-10.952,0-19.985,8.108-21.484,18.646
				c7.312-0.64,13.173-6.295,14.15-13.508c3.981,7.953,12.2,13.413,21.698,13.413c1.607,0,3.17-0.177,4.688-0.479
				c0.693-0.093,1.441-0.269,2.26-0.554C105.324,48.656,100.955,34.528,100.955,34.528z"/>
			<g>
				<path fill="#002738" d="M71.832,96.896c-9.072-3.474-13.424-14.184-13.443-14.231c-8.494,5.239-14.243,15.286-14.243,26.825
					h27.688V96.896H71.832L71.832,96.896z"/>
				<path fill="#FFFFFF" d="M71.832,96.896h0.002V78.801h-0.002c-4.881,0-9.461,1.405-13.443,3.862
					C58.408,82.712,62.759,93.422,71.832,96.896z"/>
				<polygon fill="none" points="61.738,69.426 61.744,69.42 61.742,69.421 				"/>
				<path fill="#FFFFFF" d="M64.5,40.486c-0.965,7.127-6.703,12.727-13.894,13.476c-0.087,0.008-0.171,0.023-0.258,0.032
					c-0.144,1.009-0.243,2.031-0.243,3.08c0,6.809,3.148,12.861,8.049,16.846c0.11,0.091,0.217,0.185,0.329,0.271
					c3.687,2.878,8.312,4.608,13.351,4.608V49.186C68.753,46.915,66.226,43.938,64.5,40.486z M61.738,69.426
					c0.002-0.001,0.002-0.003,0.004-0.005c0-0.001,0.002-0.001,0.002-0.001C61.742,69.423,61.74,69.425,61.738,69.426z"/>
				<path fill="#002738" d="M85.277,82.663c-0.02,0.049-4.371,10.758-13.444,14.231v12.594H99.52
					C99.52,97.949,93.77,87.902,85.277,82.663z"/>
				<path fill="#DCDCDC" d="M85.277,82.663c-3.982-2.457-8.562-3.862-13.444-3.862v18.095
					C80.906,93.421,85.258,82.712,85.277,82.663z"/>
				<path fill="#DCDCDC" d="M85.514,73.92c4.9-3.983,8.047-10.039,8.047-16.846c0-1.348-0.139-2.659-0.375-3.938
					c-0.016-0.09-0.021-0.18-0.039-0.271c-2.205,0.661-4.531,1.032-6.949,1.032c-5.377,0-10.344-1.754-14.364-4.714v29.614
					c5.04,0,9.665-1.73,13.35-4.608C85.297,74.104,85.402,74.011,85.514,73.92z"/>
			</g>
		</g>
	</g>
</g>
</svg>
