<?xml version="1.0" encoding="utf-8"?>
<!-- Generator: Adobe Illustrator 16.0.0, SVG Export Plug-In . SVG Version: 6.00 Build 0)  -->
<!DOCTYPE svg PUBLIC "-//W3C//DTD SVG 1.1//EN" "http://www.w3.org/Graphics/SVG/1.1/DTD/svg11.dtd">
<svg version="1.1" xmlns="http://www.w3.org/2000/svg" xmlns:xlink="http://www.w3.org/1999/xlink" x="0px" y="0px" width="108px"
	 height="108px" viewBox="0 0 108 108" enable-background="new 0 0 108 108" xml:space="preserve">
<g id="Layer_2">
	<g>
		<circle fill="#004860" cx="54.053" cy="54.909" r="49.148"/>
	</g>
</g>
<g id="Layer_3">
	<ellipse fill="#FFFFFF" cx="53.989" cy="40.682" rx="19.511" ry="23.661"/>
	<polygon fill="#FFFFFF" points="36.268,92.518 54.053,64.343 71.838,92.519 	"/>
</g>
<g id="Layer_4">
	<g>
		<g>
			<path fill="#FFFFFF" d="M33.731,44.02c0,11.226,9.102,20.322,20.323,20.322V23.698C42.831,23.698,33.731,32.795,33.731,44.02z"/>
			<path fill="#FFFFFF" d="M46.592,77.1c4.122,0,7.461,3.341,7.461,7.459c0-0.006,0-0.013,0-0.021V64.342l0,0
				c-5.557,0-10.702,1.947-14.92,5.251v14.966C39.133,80.44,42.473,77.1,46.592,77.1z"/>
			<path fill="#FF5B45" d="M54.054,84.559c0-4.118-3.34-7.459-7.461-7.459c-4.119,0-7.459,3.341-7.459,7.459V69.594
				c-6.637,5.197-10.975,13.762-10.975,23.452h10.975h14.92v-8.507C54.054,84.547,54.054,84.553,54.054,84.559z"/>
			<path fill="#DCDCDC" d="M74.378,44.02c0-11.226-9.102-20.321-20.324-20.321v40.645C65.278,64.343,74.378,55.245,74.378,44.02z"/>
			<path fill="#DCDCDC" d="M61.515,77.1c4.119,0,7.459,3.341,7.459,7.459V69.592c-4.217-3.303-9.361-5.25-14.92-5.25v20.196
				C54.065,80.429,57.401,77.1,61.515,77.1z"/>
			<path fill="#EF3522" d="M68.974,69.593V84.56c0-4.118-3.34-7.459-7.459-7.459c-4.113,0-7.449,3.329-7.461,7.438v8.507h14.92
				h10.98C79.952,83.353,75.612,74.788,68.974,69.593z"/>
		</g>
		<path fill="#002738" d="M83.358,35.288c0-4.676-3.602-8.489-8.18-8.867c-2.387-4.491-9.547-8.342-18.383-9.381
			c-11.317-1.331-21.063,2.448-21.77,8.44c-0.055,0.463-0.08,1.776-0.111,2.017c-0.41-0.059-0.822-0.098-1.246-0.098
			c-4.926,0-8.92,3.991-8.92,8.917c0,3.749,2.314,6.949,5.59,8.27c-0.826,0.962-1.342,2.196-1.342,3.562
			c0,3.036,2.461,5.495,5.494,5.495s5.492-2.459,5.492-5.495c0-1.642-0.732-3.099-1.875-4.104c2.629-1.516,4.408-4.326,4.471-7.563
			c0.047,0.002,0.092,0.009,0.137,0.009c1.764,0,3.389-0.588,4.701-1.565c1.541,5.518,7.368,9.627,14.336,9.627
			c2.828,0,5.463-0.688,7.707-1.861c0.615,0.412,1.291,0.745,2.002,0.997c-1.395,0.997-2.311,2.62-2.311,4.463
			c0,3.036,2.461,5.495,5.494,5.495c3.035,0,5.494-2.459,5.494-5.495c0-1.903-0.969-3.579-2.438-4.564
			C81.013,42.28,83.358,39.06,83.358,35.288z"/>
	</g>
</g>
</svg>
