<?xml version="1.0" encoding="utf-8"?>
<!-- Generator: Adobe Illustrator 16.0.0, SVG Export Plug-In . SVG Version: 6.00 Build 0)  -->
<!DOCTYPE svg PUBLIC "-//W3C//DTD SVG 1.1//EN" "http://www.w3.org/Graphics/SVG/1.1/DTD/svg11.dtd">
<svg version="1.1" xmlns="http://www.w3.org/2000/svg" xmlns:xlink="http://www.w3.org/1999/xlink" x="0px" y="0px" width="108px"
	 height="108px" viewBox="0 0 108 108" enable-background="new 0 0 108 108" xml:space="preserve">
<g id="Layer_2">
	<g>
		<circle fill="#004860" cx="54.053" cy="54.909" r="49.148"/>
	</g>
</g>
<g id="Layer_6">
	<ellipse fill="#FFFFFF" cx="54.055" cy="42.168" rx="18.812" ry="22.417"/>
	<path fill="#FFFFFF" d="M81.11,94.576c-0.009-16.565-12.119-29.99-27.058-29.99s-27.049,13.425-27.058,29.99H81.11z"/>
</g>
<g id="Layer_3">
	<g>
		<path fill="none" d="M36.981,30.767c-0.104,0.141-0.217,0.277-0.316,0.421C36.766,31.044,36.877,30.906,36.981,30.767z"/>
		<path fill="none" d="M33.684,37.396c-0.104,0.343-0.188,0.694-0.271,1.046C33.497,38.09,33.583,37.737,33.684,37.396z"/>
		<path fill="none" d="M32.922,41.298c-0.062,0.678-0.104,1.363-0.104,2.057C32.819,42.661,32.858,41.976,32.922,41.298z"/>
		<path fill="none" d="M35.088,33.843c-0.125,0.248-0.246,0.497-0.361,0.75C34.842,34.34,34.963,34.091,35.088,33.843z"/>
		<path fill="none" d="M35.991,32.231c-0.123,0.199-0.25,0.398-0.367,0.603C35.741,32.63,35.868,32.431,35.991,32.231z"/>
		<path fill="none" d="M34.311,35.568c-0.115,0.293-0.223,0.591-0.326,0.892C34.088,36.159,34.196,35.861,34.311,35.568z"/>
		<path fill="none" d="M33.215,39.308c-0.082,0.42-0.139,0.848-0.193,1.275C33.077,40.154,33.133,39.728,33.215,39.308z"/>
		<path fill="#FFFFFF" d="M38.395,70.126c-6.896,5.434-11.4,14.356-11.4,24.45h11.4V79.583V70.126z"/>
		<path fill="#FFFFFF" d="M54.054,79.583V64.587c-4.922,0-9.53,1.465-13.508,4.008v10.988H54.054z"/>
		<path fill="#69E2DE" d="M40.545,79.583V68.595c-0.738,0.475-1.457,0.984-2.148,1.531v9.457v14.993h15.657V79.583H40.545z"/>
		<path fill="#FFFFFF" d="M37.836,40.343V29.662c-0.301,0.354-0.578,0.729-0.854,1.104c-0.105,0.141-0.217,0.277-0.316,0.421
			c-0.236,0.341-0.457,0.691-0.674,1.044c-0.123,0.199-0.25,0.398-0.367,0.603c-0.189,0.331-0.363,0.669-0.535,1.01
			c-0.125,0.248-0.246,0.497-0.361,0.75c-0.146,0.321-0.285,0.646-0.416,0.977c-0.115,0.293-0.223,0.592-0.326,0.892
			c-0.105,0.309-0.209,0.619-0.303,0.936c-0.1,0.343-0.188,0.694-0.27,1.046c-0.068,0.288-0.141,0.573-0.199,0.866
			c-0.08,0.42-0.139,0.848-0.193,1.275c-0.031,0.237-0.074,0.473-0.098,0.715c-0.064,0.678-0.104,1.363-0.104,2.057
			c0,4.785,1.6,9.186,4.27,12.735c3.875,5.15,10.02,8.497,16.963,8.497V40.344L37.836,40.343L37.836,40.343z"/>
		<path fill="#FF5B45" d="M32.922,41.298c0.023-0.242,0.066-0.478,0.1-0.715c0.055-0.429,0.111-0.855,0.193-1.275
			c0.059-0.293,0.129-0.577,0.197-0.866c0.084-0.352,0.168-0.703,0.271-1.046c0.092-0.315,0.195-0.627,0.303-0.936
			c0.104-0.301,0.211-0.599,0.324-0.892c0.133-0.33,0.271-0.654,0.416-0.977c0.115-0.253,0.236-0.502,0.361-0.75
			c0.172-0.341,0.348-0.679,0.535-1.01c0.117-0.203,0.244-0.402,0.367-0.603c0.217-0.354,0.438-0.703,0.674-1.044
			c0.102-0.144,0.213-0.28,0.316-0.421c2.385-3.229,5.65-5.752,9.457-7.216v-5.535c-10.898,3.273-18.84,13.375-18.84,25.339v12.735
			h3.264h6.229c-2.67-3.551-4.27-7.95-4.27-12.735C32.819,42.661,32.858,41.976,32.922,41.298z"/>
		<path fill="#FF5B45" d="M54.054,16.9c-1.229,0-2.436,0.09-3.622,0.253l3.622,1.732V16.9z"/>
		<path fill="#FF5B45" d="M33.413,38.441c-0.068,0.289-0.141,0.573-0.197,0.866C33.272,39.015,33.344,38.729,33.413,38.441z"/>
		<path fill="#FF5B45" d="M33.02,40.583c-0.031,0.237-0.074,0.473-0.098,0.715C32.946,41.056,32.989,40.82,33.02,40.583z"/>
		<path fill="#FF5B45" d="M36.665,31.188c-0.236,0.341-0.457,0.689-0.674,1.044C36.208,31.879,36.428,31.527,36.665,31.188z"/>
		<path fill="#FF5B45" d="M35.624,32.833c-0.188,0.331-0.363,0.669-0.535,1.01C35.26,33.502,35.436,33.164,35.624,32.833z"/>
		<path fill="#FF5B45" d="M34.727,34.593c-0.145,0.321-0.283,0.646-0.414,0.977C34.442,35.238,34.581,34.914,34.727,34.593z"/>
		<path fill="#FF5B45" d="M33.985,36.46c-0.105,0.309-0.211,0.619-0.303,0.936C33.776,37.079,33.879,36.769,33.985,36.46z"/>
		<path fill="#FF5B45" d="M46.438,26.646v-3.095c-3.807,1.464-7.072,3.987-9.457,7.216c0.277-0.375,0.555-0.75,0.855-1.104v10.681
			h16.215V23.002L46.438,26.646z"/>
		<path fill="#69E2DE" d="M46.438,15.24v2.774c1.291-0.386,2.627-0.675,3.994-0.862L46.438,15.24z"/>
		<path fill="#69E2DE" d="M54.054,22.12v-3.234l-3.622-1.732c-1.367,0.188-2.701,0.478-3.992,0.862v5.535
			C48.803,22.641,51.364,22.12,54.054,22.12z"/>
		<path fill="#69E2DE" d="M54.054,23.001V22.12c-2.688,0-5.25,0.521-7.614,1.431v3.095L54.054,23.001z"/>
		<path fill="#FF5B45" d="M74.12,36.46c-0.104-0.301-0.209-0.599-0.326-0.892C73.911,35.861,74.019,36.159,74.12,36.46z"/>
		<path fill="#FF5B45" d="M74.692,38.441c-0.082-0.352-0.168-0.703-0.271-1.046C74.522,37.737,74.61,38.09,74.692,38.441z"/>
		<path fill="#FF5B45" d="M75.286,43.354c0-0.692-0.039-1.379-0.104-2.057C75.247,41.976,75.286,42.661,75.286,43.354z"/>
		<path fill="#FF5B45" d="M75.085,40.583c-0.055-0.429-0.113-0.855-0.193-1.275C74.972,39.728,75.03,40.154,75.085,40.583z"/>
		<path fill="#FF5B45" d="M72.481,32.833c-0.117-0.203-0.242-0.402-0.367-0.603C72.239,32.431,72.364,32.63,72.481,32.833z"/>
		<path fill="#FF5B45" d="M71.44,31.188c-0.102-0.144-0.213-0.28-0.314-0.421C71.228,30.906,71.341,31.044,71.44,31.188z"/>
		<path fill="#FF5B45" d="M73.38,34.593c-0.117-0.253-0.238-0.502-0.361-0.75C73.142,34.091,73.263,34.34,73.38,34.593z"/>
		<path fill="#DCDCDC" d="M69.708,70.126v9.457v14.993H81.11C81.11,84.483,76.606,75.56,69.708,70.126z"/>
		<path fill="#DCDCDC" d="M67.56,79.583V68.595c-3.977-2.543-8.586-4.008-13.506-4.008v14.996H67.56z"/>
		<path fill="#00BEC5" d="M69.708,70.126c-0.691-0.547-1.41-1.058-2.148-1.531v10.988H54.054v14.993h15.654V79.583V70.126z"/>
		<path fill="#DCDCDC" d="M71.017,56.09c2.668-3.551,4.271-7.95,4.271-12.735c0-0.692-0.039-1.379-0.105-2.057
			c-0.021-0.242-0.064-0.478-0.098-0.715c-0.055-0.429-0.111-0.855-0.193-1.275c-0.057-0.293-0.129-0.578-0.197-0.866
			c-0.082-0.352-0.17-0.703-0.271-1.046c-0.092-0.315-0.195-0.627-0.301-0.936c-0.104-0.3-0.211-0.599-0.328-0.892
			c-0.129-0.33-0.268-0.654-0.414-0.977c-0.115-0.253-0.238-0.502-0.361-0.75c-0.172-0.341-0.348-0.679-0.535-1.01
			c-0.117-0.203-0.242-0.402-0.367-0.603c-0.217-0.353-0.438-0.703-0.674-1.044c-0.102-0.144-0.211-0.28-0.314-0.421
			c-0.279-0.375-0.557-0.75-0.855-1.104v10.681H54.056v24.244C60.997,64.587,67.142,61.24,71.017,56.09z"/>
		<path fill="#EF3522" d="M57.673,17.152c-1.184-0.163-2.391-0.253-3.619-0.253v1.985L57.673,17.152z"/>
		<path fill="#EF3522" d="M71.126,30.767c0.104,0.141,0.215,0.277,0.314,0.421c0.236,0.341,0.457,0.689,0.674,1.044
			c0.125,0.199,0.25,0.398,0.367,0.603c0.188,0.331,0.363,0.669,0.535,1.01c0.125,0.248,0.246,0.497,0.361,0.75
			c0.146,0.321,0.285,0.646,0.414,0.977c0.117,0.293,0.223,0.592,0.328,0.892c0.104,0.309,0.211,0.619,0.301,0.936
			c0.104,0.343,0.189,0.694,0.271,1.046c0.068,0.289,0.143,0.573,0.197,0.866c0.082,0.42,0.141,0.848,0.193,1.275
			c0.033,0.237,0.076,0.473,0.098,0.715c0.066,0.678,0.105,1.363,0.105,2.057c0,4.785-1.604,9.186-4.271,12.735h6.229h3.264V43.356
			c0-11.964-7.941-22.064-18.84-25.337v5.533C65.474,25.015,68.739,27.538,71.126,30.767z"/>
		<path fill="#FF5B45" d="M74.892,39.308c-0.057-0.293-0.131-0.577-0.197-0.866C74.761,38.729,74.835,39.015,74.892,39.308z"/>
		<path fill="#FF5B45" d="M75.183,41.298c-0.021-0.242-0.064-0.478-0.098-0.715C75.116,40.82,75.159,41.056,75.183,41.298z"/>
		<path fill="#FF5B45" d="M73.019,33.843c-0.174-0.341-0.348-0.679-0.535-1.01C72.671,33.164,72.845,33.502,73.019,33.843z"/>
		<path fill="#FF5B45" d="M72.114,32.231c-0.217-0.354-0.438-0.703-0.674-1.044C71.679,31.527,71.897,31.879,72.114,32.231z"/>
		<path fill="#FF5B45" d="M74.423,37.396c-0.092-0.315-0.197-0.627-0.303-0.936C74.226,36.769,74.329,37.079,74.423,37.396z"/>
		<path fill="#EF3522" d="M61.669,23.551v3.095l-7.615-3.645v17.342h16.217V29.662c0.301,0.354,0.576,0.729,0.855,1.104
			C68.739,27.538,65.474,25.015,61.669,23.551z"/>
		<path fill="#FF5B45" d="M73.794,35.568c-0.131-0.33-0.27-0.654-0.414-0.977C73.524,34.914,73.663,35.238,73.794,35.568z"/>
		<polygon fill="#00BEC5" points="57.673,17.152 54.054,18.886 54.054,22.12 54.054,23.001 61.669,26.646 61.669,23.551 
			61.669,18.018 61.669,15.24 		"/>
	</g>
</g>
</svg>
