<?xml version="1.0" encoding="utf-8"?>
<!-- Generator: Adobe Illustrator 16.0.0, SVG Export Plug-In . SVG Version: 6.00 Build 0)  -->
<!DOCTYPE svg PUBLIC "-//W3C//DTD SVG 1.1//EN" "http://www.w3.org/Graphics/SVG/1.1/DTD/svg11.dtd">
<svg version="1.1" xmlns="http://www.w3.org/2000/svg" xmlns:xlink="http://www.w3.org/1999/xlink" x="0px" y="0px" width="108px"
	 height="108px" viewBox="0 0 108 108" enable-background="new 0 0 108 108" xml:space="preserve">
<g id="Layer_2">
	<g>
		<circle fill="#004860" cx="54.053" cy="54.909" r="49.148"/>
	</g>
</g>
<g id="Layer_3">
	<circle fill="#FFFFFF" cx="54.088" cy="39.872" r="21.164"/>
	<polygon fill="#FFFFFF" points="37.126,91.119 54.281,61.405 71.437,91.12 	"/>
</g>
<g id="Layer_1">
	<g>
		<path fill="#FF5B45" d="M54.053,77.663c-7.185,0-13.279-4.605-15.537-11.019c-6.937,5.42-11.477,14.354-11.477,24.476h27.242
			V77.652C54.204,77.655,54.129,77.663,54.053,77.663z"/>
		<path fill="#FCD07A" d="M54.053,77.663c0.076,0,0.15-0.008,0.228-0.011v-4.247c-0.077,0.002-0.151,0.01-0.228,0.01
			c-5.711,0-10.495-3.918-11.844-9.209c-1.295,0.701-2.524,1.524-3.693,2.438C40.774,73.058,46.868,77.663,54.053,77.663z"/>
		<path fill="#FFFFFF" d="M54.053,73.415c0.076,0,0.15-0.008,0.228-0.01v-12.22c-0.077-0.002-0.151-0.008-0.228-0.008
			c-4.25,0-8.268,1.09-11.844,3.027C43.558,69.497,48.342,73.415,54.053,73.415z"/>
		<path fill="#EF3522" d="M69.589,66.646c-2.233,6.345-8.224,10.912-15.309,11.008v13.468h26.787
			C81.066,80.999,76.527,72.064,69.589,66.646z"/>
		<path fill="#FFA033" d="M54.281,73.405v4.247c7.085-0.096,13.077-4.663,15.309-11.008c-1.169-0.914-2.398-1.737-3.691-2.438
			C64.566,69.427,59.889,73.302,54.281,73.405z"/>
		<path fill="#DCDCDC" d="M65.896,64.206c-3.513-1.902-7.451-2.982-11.615-3.021v12.22C59.889,73.302,64.566,69.427,65.896,64.206z"
			/>
		<g>
			<path fill="#00BEC5" d="M72.716,63.45c0-1.48-0.627-2.808-1.614-3.742c0.986-0.938,1.614-2.263,1.614-3.744
				c0-2.834-2.259-5.133-5.046-5.133c-2.786,0-5.045,2.299-5.045,5.133c0,1.481,0.626,2.807,1.613,3.744
				c-0.986,0.936-1.613,2.262-1.613,3.742c0,1.614,0.747,3.039,1.895,3.979c-0.718,0.785-1.166,1.828-1.166,2.982
				c0,1.688,0.946,3.137,2.318,3.869c-0.65,0.573-1.07,1.407-1.07,2.354c0,1.723,1.375,3.121,3.068,3.121
				c1.695,0,3.068-1.398,3.068-3.121c0-0.945-0.418-1.779-1.069-2.354c1.372-0.732,2.317-2.183,2.317-3.869
				c0-1.154-0.448-2.197-1.164-2.982C71.967,66.489,72.716,65.064,72.716,63.45z"/>
			<path fill="#00BEC5" d="M64.602,82.876c0,0.479,0.114,0.928,0.306,1.332c0.721,3.75-0.306,5.182-0.306,5.182
				c6.285,0,6.137-6.514,6.137-6.514c0-1.726-1.373-3.121-3.068-3.121S64.602,81.15,64.602,82.876z"/>
		</g>
		<g>
			<path fill="#FFFFFF" d="M32.925,38.486c-0.032,0.468-0.072,0.935-0.072,1.41c0,11.707,9.491,21.197,21.2,21.197
				c0.076,0,0.15-0.01,0.228-0.01V38.486H32.925z"/>
			<path fill="#69E2DE" d="M54.281,18.708c-0.077,0-0.151-0.01-0.228-0.01c-11.233,0-20.4,8.739-21.128,19.788H54.28L54.281,18.708
				L54.281,18.708z"/>
			<path fill="#DCDCDC" d="M75.252,39.896c0-0.477-0.04-0.942-0.072-1.41h-20.9v22.599C65.881,60.962,75.252,51.527,75.252,39.896z"
				/>
			<path fill="#00BEC5" d="M75.182,38.486c-0.724-10.975-9.774-19.659-20.901-19.778v19.778H75.182z"/>
		</g>
	</g>
</g>
</svg>
