<?xml version="1.0" encoding="utf-8"?>
<!-- Generator: Adobe Illustrator 16.0.0, SVG Export Plug-In . SVG Version: 6.00 Build 0)  -->
<!DOCTYPE svg PUBLIC "-//W3C//DTD SVG 1.1//EN" "http://www.w3.org/Graphics/SVG/1.1/DTD/svg11.dtd">
<svg version="1.1" id="Layer_1" xmlns="http://www.w3.org/2000/svg" xmlns:xlink="http://www.w3.org/1999/xlink" x="0px" y="0px"
	 width="122.758px" height="106.551px" viewBox="0 0 122.758 106.551" enable-background="new 0 0 122.758 106.551"
	 xml:space="preserve">
<g id="Layer_1_1_">
	<g>
		<rect x="9.687" y="11.202" fill="#D93D4A" width="103.881" height="25.187"/>
		<g>
			<g>
				<path fill="#D93D4A" d="M110.567,37.055v56.79h-97.88v-56.79H110.567 M113.567,34.055H9.687v62.79h103.881L113.567,34.055
					L113.567,34.055z"/>
			</g>
		</g>
	</g>
</g>
<g id="Text" display="none">
	<rect x="17.311" y="43.011" display="inline" fill="none" width="89.667" height="50.333"/>
	<text transform="matrix(1 0 0 1 22.4795 50.3809)" display="inline" font-family="'Aller'" font-size="10">I brought the tent </text>
	<text transform="matrix(1 0 0 1 25.2295 62.3813)" display="inline" font-family="'Aller'" font-size="10">to Banff and had </text>
	<text transform="matrix(1 0 0 1 21.0596 74.3813)" display="inline" font-family="'Aller'" font-size="10">the best time with </text>
	<text transform="matrix(1 0 0 1 38.5596 86.3813)" display="inline" font-family="'Aller'" font-size="10">my family.</text>
</g>
<g id="PR">
	<g id="Text_1_">
		<rect x="17.311" y="43.011" fill="none" width="89.667" height="50.333"/>
		<g enable-background="new    ">
			<path d="M23.359,43.19c0.08-0.013,0.164-0.022,0.25-0.029c0.087-0.007,0.173-0.011,0.26-0.011c0.086,0,0.173,0.004,0.26,0.011
				s0.17,0.017,0.25,0.029v7.19c-0.08,0.014-0.162,0.023-0.245,0.03c-0.083,0.006-0.171,0.01-0.265,0.01
				c-0.087,0-0.175-0.004-0.265-0.01c-0.09-0.007-0.172-0.017-0.245-0.03V43.19z"/>
			<path d="M28.419,43.051c0.073-0.014,0.155-0.023,0.245-0.03c0.09-0.006,0.171-0.01,0.245-0.01c0.074,0,0.157,0.004,0.25,0.01
				c0.093,0.007,0.177,0.017,0.25,0.03v2.82c0.12-0.2,0.307-0.373,0.56-0.521c0.253-0.146,0.56-0.22,0.92-0.22
				c0.307,0,0.59,0.05,0.85,0.15c0.26,0.1,0.483,0.255,0.67,0.465c0.187,0.21,0.332,0.477,0.435,0.8S33,47.251,33,47.69
				c0,0.881-0.249,1.569-0.745,2.065c-0.497,0.497-1.212,0.745-2.145,0.745c-0.293,0-0.595-0.028-0.905-0.085
				c-0.31-0.057-0.572-0.122-0.785-0.195V43.051z M29.409,49.551c0.12,0.04,0.249,0.068,0.385,0.085s0.278,0.025,0.425,0.025
				c0.247,0,0.475-0.038,0.685-0.115c0.21-0.076,0.392-0.193,0.545-0.35c0.153-0.157,0.275-0.357,0.365-0.601
				s0.135-0.531,0.135-0.865c0-0.553-0.097-0.982-0.29-1.29c-0.193-0.306-0.513-0.46-0.96-0.46c-0.153,0-0.305,0.025-0.455,0.075
				c-0.15,0.05-0.289,0.13-0.415,0.24c-0.127,0.11-0.229,0.257-0.305,0.44c-0.077,0.183-0.115,0.404-0.115,0.664V49.551z"/>
			<path d="M34.329,45.251c0.073-0.014,0.144-0.023,0.21-0.03c0.067-0.007,0.137-0.01,0.21-0.01c0.073,0,0.146,0.003,0.22,0.01
				s0.14,0.017,0.2,0.03c0.02,0.1,0.04,0.231,0.06,0.395c0.02,0.164,0.03,0.302,0.03,0.415c0.14-0.227,0.325-0.423,0.555-0.59
				c0.23-0.166,0.525-0.25,0.885-0.25c0.053,0,0.108,0.002,0.165,0.005c0.057,0.004,0.105,0.009,0.145,0.016
				c0.013,0.06,0.023,0.123,0.03,0.189c0.007,0.067,0.01,0.137,0.01,0.21c0,0.08-0.005,0.164-0.015,0.25
				c-0.01,0.087-0.021,0.17-0.035,0.25c-0.054-0.013-0.109-0.02-0.165-0.02c-0.057,0-0.102,0-0.135,0
				c-0.18,0-0.352,0.024-0.515,0.075c-0.163,0.05-0.31,0.138-0.44,0.265c-0.13,0.127-0.233,0.3-0.31,0.52
				c-0.077,0.221-0.115,0.504-0.115,0.851v2.55c-0.073,0.014-0.155,0.023-0.245,0.03c-0.09,0.006-0.172,0.01-0.245,0.01
				s-0.155-0.004-0.245-0.01c-0.09-0.007-0.175-0.017-0.255-0.03V45.251z"/>
			<path d="M39.979,50.501c-0.4,0-0.75-0.068-1.05-0.205c-0.3-0.137-0.55-0.325-0.75-0.565c-0.2-0.239-0.349-0.522-0.445-0.85
				c-0.097-0.326-0.145-0.68-0.145-1.06c0-0.381,0.048-0.733,0.145-1.061c0.097-0.326,0.245-0.61,0.445-0.85
				c0.2-0.24,0.45-0.431,0.75-0.57c0.3-0.14,0.65-0.21,1.05-0.21s0.75,0.07,1.05,0.21c0.3,0.14,0.55,0.33,0.75,0.57
				c0.2,0.239,0.348,0.523,0.445,0.85c0.097,0.327,0.145,0.68,0.145,1.061c0,0.38-0.048,0.733-0.145,1.06
				c-0.097,0.327-0.245,0.61-0.445,0.85c-0.2,0.24-0.45,0.429-0.75,0.565C40.729,50.433,40.379,50.501,39.979,50.501z
				 M39.979,49.711c0.46,0,0.8-0.167,1.02-0.5c0.22-0.333,0.33-0.797,0.33-1.39c0-0.594-0.11-1.056-0.33-1.386
				c-0.22-0.33-0.56-0.495-1.02-0.495s-0.798,0.165-1.015,0.495c-0.217,0.33-0.325,0.792-0.325,1.386
				c0,0.593,0.108,1.057,0.325,1.39C39.181,49.544,39.52,49.711,39.979,49.711z"/>
			<path d="M43.609,45.251c0.073-0.014,0.156-0.023,0.25-0.03c0.093-0.007,0.173-0.01,0.24-0.01c0.073,0,0.157,0.003,0.25,0.01
				s0.177,0.017,0.25,0.03v2.81c0,0.32,0.03,0.585,0.09,0.795s0.15,0.375,0.27,0.495c0.12,0.12,0.267,0.204,0.44,0.25
				c0.173,0.047,0.374,0.07,0.6,0.07c0.34,0,0.63-0.036,0.87-0.11v-4.31c0.073-0.014,0.155-0.023,0.245-0.03
				c0.09-0.007,0.171-0.01,0.245-0.01c0.073,0,0.155,0.003,0.245,0.01c0.09,0.007,0.172,0.017,0.245,0.03v4.97
				c-0.233,0.066-0.512,0.13-0.835,0.19c-0.323,0.06-0.659,0.09-1.005,0.09c-0.327,0-0.635-0.028-0.925-0.085
				s-0.545-0.172-0.765-0.345c-0.22-0.174-0.394-0.417-0.52-0.73c-0.127-0.313-0.19-0.727-0.19-1.24V45.251z"/>
			<path d="M52.159,49.721c0.593,0.014,1.023,0.141,1.29,0.38c0.267,0.24,0.4,0.57,0.4,0.99c0,0.273-0.07,0.519-0.21,0.735
				c-0.14,0.216-0.333,0.403-0.58,0.56c-0.247,0.156-0.539,0.276-0.875,0.36c-0.337,0.083-0.702,0.125-1.095,0.125
				c-0.687,0-1.21-0.107-1.57-0.32c-0.36-0.213-0.54-0.55-0.54-1.01c0-0.273,0.073-0.519,0.22-0.735s0.337-0.389,0.57-0.515
				c-0.134-0.087-0.245-0.195-0.335-0.325c-0.09-0.13-0.135-0.292-0.135-0.485c0-0.246,0.055-0.46,0.165-0.64
				s0.258-0.34,0.445-0.479c-0.22-0.153-0.396-0.352-0.53-0.596c-0.133-0.243-0.2-0.518-0.2-0.825c0-0.253,0.047-0.489,0.14-0.71
				c0.093-0.22,0.229-0.411,0.405-0.574c0.176-0.164,0.395-0.292,0.655-0.386c0.26-0.093,0.557-0.14,0.89-0.14
				c0.3,0,0.571,0.043,0.815,0.13c0.243,0.087,0.452,0.197,0.625,0.33c0.133-0.106,0.313-0.195,0.54-0.265
				c0.227-0.07,0.477-0.105,0.75-0.105c0.026,0.127,0.04,0.267,0.04,0.42c0,0.073-0.003,0.15-0.01,0.23s-0.017,0.16-0.03,0.24h-0.9
				c0.073,0.113,0.13,0.236,0.17,0.369c0.04,0.134,0.06,0.287,0.06,0.46c0,0.273-0.05,0.521-0.15,0.74
				c-0.1,0.22-0.242,0.408-0.425,0.565c-0.184,0.156-0.402,0.276-0.655,0.359c-0.254,0.084-0.53,0.125-0.83,0.125
				c-0.273,0-0.52-0.029-0.74-0.09c-0.093,0.054-0.185,0.135-0.275,0.245s-0.135,0.229-0.135,0.355c0,0.12,0.043,0.225,0.13,0.314
				c0.086,0.09,0.28,0.139,0.58,0.146L52.159,49.721z M50.81,50.511c-0.3-0.007-0.525,0.073-0.675,0.24
				c-0.15,0.166-0.225,0.366-0.225,0.6c0,0.146,0.03,0.267,0.09,0.36c0.06,0.093,0.145,0.168,0.255,0.225s0.24,0.097,0.39,0.12
				c0.15,0.023,0.315,0.035,0.495,0.035c0.534,0,0.95-0.089,1.25-0.265c0.3-0.177,0.45-0.398,0.45-0.665
				c0-0.2-0.063-0.354-0.19-0.46c-0.127-0.107-0.36-0.164-0.7-0.17L50.81,50.511z M51.27,48.011c0.36,0,0.626-0.1,0.8-0.3
				s0.26-0.457,0.26-0.771c0-0.319-0.087-0.581-0.26-0.784c-0.173-0.204-0.44-0.306-0.8-0.306c-0.36,0-0.625,0.102-0.795,0.306
				c-0.17,0.203-0.255,0.465-0.255,0.784c0,0.313,0.085,0.57,0.255,0.771C50.645,47.911,50.909,48.011,51.27,48.011z"/>
			<path d="M54.929,43.051c0.073-0.014,0.155-0.023,0.245-0.03c0.09-0.006,0.171-0.01,0.245-0.01c0.074,0,0.157,0.004,0.25,0.01
				c0.093,0.007,0.177,0.017,0.25,0.03v2.98c0.06-0.094,0.135-0.193,0.225-0.301c0.09-0.106,0.2-0.205,0.33-0.295
				s0.28-0.163,0.45-0.22s0.358-0.085,0.565-0.085c0.586,0,1.021,0.168,1.305,0.505c0.284,0.337,0.425,0.835,0.425,1.495v3.25
				c-0.074,0.014-0.155,0.023-0.245,0.03c-0.09,0.006-0.172,0.01-0.245,0.01s-0.155-0.004-0.245-0.01
				c-0.09-0.007-0.172-0.017-0.245-0.03V47.4c0-0.473-0.079-0.821-0.235-1.045c-0.157-0.223-0.395-0.335-0.715-0.335
				c-0.18,0-0.354,0.032-0.52,0.096s-0.313,0.163-0.44,0.3s-0.227,0.314-0.3,0.535c-0.074,0.22-0.11,0.486-0.11,0.8v2.63
				c-0.073,0.014-0.157,0.023-0.25,0.03c-0.093,0.006-0.176,0.01-0.25,0.01c-0.066,0-0.146-0.004-0.24-0.01
				c-0.093-0.007-0.177-0.017-0.25-0.03V43.051z"/>
			<path d="M60.909,46.041h-0.78l-0.04-0.141l1.72-1.92h0.08v1.271h1.3c0.026,0.113,0.04,0.24,0.04,0.38
				c0,0.073-0.004,0.144-0.01,0.21c-0.007,0.066-0.018,0.134-0.03,0.2h-1.3v2.34c0,0.28,0.012,0.504,0.035,0.67
				c0.023,0.167,0.062,0.295,0.119,0.385s0.134,0.15,0.23,0.181c0.097,0.029,0.219,0.045,0.365,0.045c0.113,0,0.22-0.009,0.32-0.025
				c0.1-0.017,0.189-0.035,0.27-0.055c0.047,0.133,0.074,0.27,0.085,0.41c0.01,0.14,0.015,0.263,0.015,0.37
				c-0.133,0.033-0.273,0.058-0.42,0.074s-0.303,0.025-0.47,0.025c-0.479,0-0.855-0.116-1.125-0.35s-0.405-0.62-0.405-1.16V46.041z"
				/>
			<path d="M66.86,46.041h-0.781L66.04,45.9l1.72-1.92h0.08v1.271h1.3c0.026,0.113,0.04,0.24,0.04,0.38
				c0,0.073-0.003,0.144-0.011,0.21c-0.006,0.066-0.016,0.134-0.029,0.2h-1.3v2.34c0,0.28,0.011,0.504,0.034,0.67
				c0.023,0.167,0.064,0.295,0.121,0.385s0.133,0.15,0.229,0.181c0.097,0.029,0.218,0.045,0.365,0.045
				c0.113,0,0.22-0.009,0.319-0.025c0.101-0.017,0.19-0.035,0.271-0.055c0.046,0.133,0.075,0.27,0.085,0.41
				c0.01,0.14,0.016,0.263,0.016,0.37c-0.135,0.033-0.273,0.058-0.42,0.074c-0.147,0.017-0.305,0.025-0.471,0.025
				c-0.48,0-0.855-0.116-1.125-0.35s-0.404-0.62-0.404-1.16V46.041z"/>
			<path d="M70.239,43.051c0.073-0.014,0.154-0.023,0.245-0.03c0.09-0.006,0.171-0.01,0.245-0.01c0.073,0,0.156,0.004,0.25,0.01
				c0.093,0.007,0.176,0.017,0.25,0.03v2.98c0.06-0.094,0.135-0.193,0.225-0.301c0.09-0.106,0.2-0.205,0.33-0.295
				s0.28-0.163,0.45-0.22s0.358-0.085,0.565-0.085c0.586,0,1.021,0.168,1.305,0.505s0.425,0.835,0.425,1.495v3.25
				c-0.073,0.014-0.155,0.023-0.245,0.03c-0.09,0.006-0.172,0.01-0.245,0.01s-0.155-0.004-0.245-0.01
				c-0.09-0.007-0.172-0.017-0.244-0.03V47.4c0-0.473-0.079-0.821-0.235-1.045c-0.157-0.223-0.396-0.335-0.716-0.335
				c-0.18,0-0.354,0.032-0.52,0.096s-0.313,0.163-0.439,0.3c-0.127,0.137-0.227,0.314-0.301,0.535
				c-0.073,0.22-0.109,0.486-0.109,0.8v2.63c-0.074,0.014-0.157,0.023-0.25,0.03c-0.094,0.006-0.177,0.01-0.25,0.01
				c-0.066,0-0.146-0.004-0.24-0.01c-0.094-0.007-0.177-0.017-0.25-0.03V43.051z"/>
			<path d="M76.768,48.061c0.014,0.561,0.158,0.971,0.436,1.23c0.276,0.26,0.686,0.39,1.225,0.39c0.474,0,0.924-0.083,1.35-0.25
				c0.055,0.101,0.098,0.222,0.131,0.365s0.053,0.285,0.061,0.425c-0.221,0.094-0.463,0.163-0.726,0.21
				c-0.264,0.047-0.556,0.07-0.875,0.07c-0.467,0-0.866-0.065-1.2-0.195s-0.608-0.313-0.824-0.55
				c-0.217-0.236-0.375-0.517-0.476-0.84s-0.149-0.679-0.149-1.065c0-0.38,0.047-0.734,0.145-1.064
				c0.096-0.33,0.244-0.617,0.445-0.86c0.199-0.243,0.451-0.437,0.754-0.58c0.304-0.144,0.662-0.215,1.076-0.215
				c0.353,0,0.662,0.06,0.93,0.18c0.266,0.12,0.49,0.285,0.67,0.495s0.316,0.46,0.41,0.75c0.093,0.29,0.14,0.605,0.14,0.945
				c0,0.094-0.003,0.191-0.011,0.295c-0.006,0.104-0.013,0.191-0.02,0.265H76.768z M79.309,47.321c0-0.187-0.025-0.365-0.076-0.535
				c-0.049-0.17-0.123-0.318-0.219-0.445c-0.098-0.127-0.221-0.229-0.371-0.305c-0.149-0.077-0.328-0.115-0.535-0.115
				c-0.406,0-0.718,0.123-0.935,0.37c-0.216,0.246-0.349,0.59-0.396,1.03H79.309z"/>
			<path d="M84.149,46.041h-0.78l-0.04-0.141l1.721-1.92h0.08v1.271h1.299c0.027,0.113,0.041,0.24,0.041,0.38
				c0,0.073-0.004,0.144-0.011,0.21s-0.017,0.134-0.03,0.2h-1.299v2.34c0,0.28,0.011,0.504,0.034,0.67
				c0.023,0.167,0.063,0.295,0.12,0.385s0.133,0.15,0.23,0.181c0.096,0.029,0.218,0.045,0.365,0.045
				c0.113,0,0.219-0.009,0.319-0.025s0.19-0.035,0.271-0.055c0.046,0.133,0.074,0.27,0.084,0.41c0.01,0.14,0.016,0.263,0.016,0.37
				c-0.134,0.033-0.273,0.058-0.42,0.074s-0.304,0.025-0.471,0.025c-0.479,0-0.854-0.116-1.125-0.35
				c-0.27-0.233-0.404-0.62-0.404-1.16V46.041z"/>
			<path d="M88.278,48.061c0.014,0.561,0.158,0.971,0.436,1.23c0.276,0.26,0.686,0.39,1.225,0.39c0.474,0,0.924-0.083,1.35-0.25
				c0.055,0.101,0.098,0.222,0.131,0.365s0.053,0.285,0.061,0.425c-0.221,0.094-0.463,0.163-0.726,0.21
				c-0.264,0.047-0.556,0.07-0.875,0.07c-0.467,0-0.866-0.065-1.2-0.195s-0.608-0.313-0.824-0.55
				c-0.217-0.236-0.375-0.517-0.476-0.84s-0.149-0.679-0.149-1.065c0-0.38,0.047-0.734,0.145-1.064
				c0.096-0.33,0.244-0.617,0.445-0.86c0.199-0.243,0.451-0.437,0.754-0.58c0.304-0.144,0.662-0.215,1.076-0.215
				c0.353,0,0.662,0.06,0.93,0.18c0.266,0.12,0.49,0.285,0.67,0.495s0.316,0.46,0.41,0.75c0.093,0.29,0.14,0.605,0.14,0.945
				c0,0.094-0.003,0.191-0.011,0.295c-0.006,0.104-0.013,0.191-0.02,0.265H88.278z M90.819,47.321c0-0.187-0.025-0.365-0.076-0.535
				c-0.049-0.17-0.123-0.318-0.219-0.445c-0.098-0.127-0.221-0.229-0.371-0.305c-0.149-0.077-0.328-0.115-0.535-0.115
				c-0.406,0-0.718,0.123-0.935,0.37c-0.216,0.246-0.349,0.59-0.396,1.03H90.819z"/>
			<path d="M93.098,45.251c0.073-0.014,0.145-0.023,0.215-0.03s0.143-0.01,0.215-0.01c0.074,0,0.143,0.003,0.205,0.01
				c0.063,0.007,0.132,0.017,0.205,0.03c0.021,0.1,0.041,0.235,0.061,0.405s0.029,0.312,0.029,0.425
				c0.066-0.113,0.152-0.227,0.256-0.34s0.221-0.216,0.354-0.306s0.286-0.163,0.46-0.22s0.363-0.085,0.57-0.085
				c0.586,0,1.02,0.168,1.3,0.505s0.42,0.835,0.42,1.495v3.25c-0.073,0.014-0.157,0.023-0.25,0.03
				c-0.093,0.006-0.177,0.01-0.25,0.01s-0.155-0.004-0.245-0.01c-0.09-0.007-0.172-0.017-0.244-0.03V47.4
				c0-0.473-0.074-0.821-0.221-1.045c-0.146-0.223-0.38-0.335-0.699-0.335c-0.188,0-0.364,0.034-0.531,0.101
				c-0.166,0.066-0.312,0.17-0.439,0.31c-0.127,0.141-0.229,0.322-0.305,0.545c-0.077,0.224-0.115,0.492-0.115,0.806v2.6
				c-0.073,0.014-0.155,0.023-0.245,0.03c-0.09,0.006-0.172,0.01-0.245,0.01s-0.156-0.004-0.25-0.01
				c-0.094-0.007-0.177-0.017-0.25-0.03V45.251z"/>
			<path d="M99.069,46.041h-0.78l-0.04-0.141l1.721-1.92h0.08v1.271h1.299c0.027,0.113,0.041,0.24,0.041,0.38
				c0,0.073-0.004,0.144-0.011,0.21s-0.017,0.134-0.03,0.2h-1.299v2.34c0,0.28,0.011,0.504,0.034,0.67
				c0.023,0.167,0.063,0.295,0.12,0.385s0.133,0.15,0.23,0.181c0.096,0.029,0.218,0.045,0.365,0.045
				c0.113,0,0.219-0.009,0.319-0.025s0.19-0.035,0.271-0.055c0.046,0.133,0.074,0.27,0.084,0.41c0.01,0.14,0.016,0.263,0.016,0.37
				c-0.134,0.033-0.273,0.058-0.42,0.074s-0.304,0.025-0.471,0.025c-0.479,0-0.854-0.116-1.125-0.35
				c-0.27-0.233-0.404-0.62-0.404-1.16V46.041z"/>
		</g>
		<g enable-background="new    ">
			<path d="M26.22,58.042h-0.78l-0.04-0.141l1.72-1.92h0.08v1.27h1.3c0.026,0.113,0.04,0.24,0.04,0.381
				c0,0.072-0.003,0.143-0.01,0.209c-0.006,0.066-0.017,0.135-0.03,0.201h-1.3v2.34c0,0.279,0.011,0.504,0.035,0.67
				s0.063,0.295,0.12,0.385s0.133,0.15,0.23,0.18s0.218,0.045,0.365,0.045c0.113,0,0.22-0.008,0.32-0.025
				c0.1-0.016,0.19-0.035,0.27-0.055c0.046,0.133,0.075,0.27,0.085,0.41c0.01,0.141,0.015,0.264,0.015,0.371
				c-0.134,0.033-0.273,0.057-0.42,0.074c-0.147,0.016-0.304,0.025-0.47,0.025c-0.48,0-0.855-0.117-1.125-0.35
				c-0.27-0.234-0.405-0.621-0.405-1.16V58.042z"/>
			<path d="M31.689,62.5c-0.4,0-0.75-0.068-1.05-0.205c-0.3-0.137-0.55-0.324-0.75-0.564c-0.2-0.24-0.349-0.523-0.445-0.85
				s-0.145-0.68-0.145-1.061s0.048-0.732,0.145-1.061c0.097-0.326,0.245-0.609,0.445-0.85c0.2-0.24,0.45-0.43,0.75-0.57
				c0.3-0.139,0.65-0.209,1.05-0.209s0.75,0.07,1.05,0.209c0.3,0.141,0.55,0.33,0.75,0.57c0.2,0.24,0.348,0.523,0.445,0.85
				c0.097,0.328,0.145,0.68,0.145,1.061s-0.048,0.734-0.145,1.061s-0.245,0.609-0.445,0.85c-0.2,0.24-0.45,0.428-0.75,0.564
				C32.439,62.432,32.089,62.5,31.689,62.5z M31.689,61.711c0.46,0,0.8-0.168,1.02-0.5c0.22-0.334,0.33-0.797,0.33-1.391
				s-0.11-1.055-0.33-1.385c-0.22-0.33-0.56-0.496-1.02-0.496s-0.798,0.166-1.015,0.496c-0.217,0.33-0.325,0.791-0.325,1.385
				s0.108,1.057,0.325,1.391C30.891,61.543,31.229,61.711,31.689,61.711z"/>
			<path d="M37.839,55.19c0.167-0.033,0.4-0.059,0.7-0.078c0.3-0.021,0.604-0.031,0.91-0.031c0.38,0,0.727,0.033,1.04,0.1
				c0.313,0.068,0.582,0.176,0.805,0.326c0.223,0.15,0.396,0.344,0.52,0.58c0.123,0.236,0.185,0.525,0.185,0.865
				c0,0.205-0.032,0.398-0.095,0.574c-0.063,0.176-0.148,0.334-0.255,0.471c-0.107,0.137-0.23,0.25-0.37,0.34
				s-0.284,0.154-0.43,0.195c0.187,0.02,0.375,0.068,0.565,0.148s0.362,0.193,0.515,0.34c0.153,0.148,0.278,0.332,0.375,0.557
				c0.097,0.223,0.145,0.494,0.145,0.814c0,0.387-0.077,0.715-0.23,0.984s-0.362,0.488-0.625,0.656
				c-0.264,0.166-0.573,0.285-0.93,0.359c-0.356,0.072-0.738,0.109-1.145,0.109c-0.253,0-0.53-0.012-0.83-0.035
				c-0.3-0.023-0.583-0.051-0.85-0.084V55.19z M39.579,58.19c0.454,0,0.8-0.098,1.04-0.295c0.24-0.195,0.36-0.49,0.36-0.885
				c0-0.379-0.128-0.662-0.385-0.85c-0.257-0.186-0.605-0.279-1.045-0.279c-0.133,0-0.262,0.004-0.385,0.01
				c-0.123,0.006-0.229,0.016-0.315,0.029v2.27H39.579z M38.849,61.59c0.093,0.014,0.211,0.023,0.355,0.031
				c0.144,0.006,0.285,0.01,0.425,0.01c0.24,0,0.465-0.02,0.675-0.061c0.21-0.039,0.395-0.107,0.555-0.205
				c0.16-0.096,0.287-0.227,0.38-0.391c0.093-0.162,0.14-0.371,0.14-0.625c0-0.246-0.043-0.455-0.13-0.625
				c-0.086-0.17-0.205-0.307-0.355-0.41c-0.15-0.102-0.328-0.176-0.535-0.219c-0.207-0.043-0.43-0.064-0.67-0.064h-0.84V61.59z"/>
			<path d="M46.409,59c0-0.393-0.1-0.666-0.3-0.82c-0.2-0.152-0.49-0.229-0.87-0.229c-0.233,0-0.452,0.018-0.655,0.055
				c-0.204,0.037-0.402,0.084-0.595,0.145c-0.126-0.221-0.19-0.482-0.19-0.789c0.227-0.074,0.477-0.131,0.75-0.172
				c0.273-0.039,0.537-0.059,0.79-0.059c0.667,0,1.173,0.15,1.52,0.455c0.347,0.303,0.52,0.787,0.52,1.455v3.209
				c-0.233,0.055-0.517,0.109-0.85,0.166s-0.673,0.084-1.02,0.084c-0.327,0-0.622-0.029-0.885-0.09
				c-0.264-0.061-0.487-0.156-0.67-0.289c-0.184-0.135-0.325-0.305-0.425-0.51c-0.1-0.207-0.15-0.457-0.15-0.75
				c0-0.287,0.058-0.539,0.175-0.756s0.275-0.396,0.475-0.541c0.2-0.143,0.43-0.25,0.69-0.318c0.26-0.07,0.534-0.105,0.82-0.105
				c0.213,0,0.388,0.004,0.525,0.016c0.137,0.01,0.251,0.021,0.345,0.033V59z M46.409,59.971c-0.1-0.014-0.227-0.027-0.38-0.041
				c-0.153-0.012-0.283-0.02-0.39-0.02c-0.414,0-0.729,0.076-0.945,0.23c-0.217,0.152-0.325,0.387-0.325,0.699
				c0,0.201,0.036,0.357,0.11,0.471c0.073,0.113,0.165,0.199,0.275,0.26s0.231,0.098,0.365,0.109c0.133,0.014,0.26,0.021,0.38,0.021
				c0.153,0,0.312-0.01,0.475-0.025c0.163-0.018,0.308-0.041,0.435-0.076V59.971z"/>
			<path d="M48.869,57.25c0.073-0.014,0.145-0.023,0.215-0.029c0.07-0.008,0.142-0.01,0.215-0.01s0.142,0.002,0.205,0.01
				c0.063,0.006,0.131,0.016,0.205,0.029c0.02,0.1,0.04,0.236,0.06,0.406s0.03,0.311,0.03,0.424c0.066-0.113,0.151-0.227,0.255-0.34
				s0.222-0.215,0.355-0.305s0.287-0.164,0.46-0.221s0.363-0.084,0.57-0.084c0.586,0,1.02,0.168,1.3,0.504
				c0.28,0.338,0.42,0.836,0.42,1.496v3.25c-0.073,0.014-0.157,0.023-0.25,0.029s-0.177,0.01-0.25,0.01s-0.155-0.004-0.245-0.01
				c-0.09-0.006-0.172-0.016-0.245-0.029v-2.98c0-0.473-0.074-0.822-0.22-1.045s-0.38-0.336-0.7-0.336
				c-0.187,0-0.364,0.035-0.53,0.102s-0.313,0.17-0.44,0.309c-0.126,0.141-0.229,0.322-0.305,0.545
				c-0.077,0.225-0.115,0.492-0.115,0.807v2.6c-0.073,0.014-0.155,0.023-0.245,0.029s-0.172,0.01-0.245,0.01s-0.157-0.004-0.25-0.01
				s-0.177-0.016-0.25-0.029V57.25z"/>
			<path d="M54.999,58.032h-0.84c-0.027-0.107-0.04-0.238-0.04-0.391c0-0.146,0.013-0.277,0.04-0.391h0.84V56.94
				c0-0.633,0.157-1.113,0.47-1.443c0.313-0.33,0.767-0.496,1.36-0.496c0.173,0,0.333,0.012,0.48,0.035s0.276,0.053,0.39,0.086
				c-0.02,0.172-0.054,0.32-0.1,0.443c-0.047,0.125-0.097,0.242-0.15,0.355c-0.06-0.02-0.133-0.037-0.22-0.055
				c-0.086-0.016-0.19-0.025-0.31-0.025c-0.14,0-0.268,0.016-0.385,0.045c-0.117,0.031-0.215,0.088-0.295,0.17
				c-0.08,0.084-0.142,0.199-0.185,0.346c-0.043,0.146-0.065,0.336-0.065,0.57v0.279h2.16v-0.359c0-0.633,0.159-1.115,0.475-1.445
				c0.317-0.33,0.778-0.494,1.385-0.494c0.167,0,0.313,0.008,0.44,0.023c0.126,0.018,0.247,0.043,0.36,0.076
				c-0.013,0.166-0.032,0.311-0.055,0.43s-0.055,0.244-0.095,0.369c-0.067-0.012-0.145-0.027-0.235-0.045
				c-0.09-0.016-0.199-0.023-0.325-0.023c-0.146,0-0.278,0.014-0.395,0.045c-0.117,0.029-0.217,0.086-0.3,0.17
				c-0.083,0.082-0.148,0.199-0.195,0.35c-0.046,0.15-0.07,0.342-0.07,0.574v0.33h1.31c0.02,0.135,0.03,0.27,0.03,0.41
				c0,0.127-0.01,0.25-0.03,0.371h-1.31v4.35c-0.073,0.014-0.155,0.023-0.245,0.029s-0.172,0.01-0.245,0.01s-0.157-0.004-0.25-0.01
				s-0.177-0.016-0.25-0.029v-4.35h-2.16v4.35c-0.074,0.014-0.155,0.023-0.245,0.029s-0.172,0.01-0.245,0.01s-0.157-0.004-0.25-0.01
				s-0.177-0.016-0.25-0.029V58.032z"/>
			<path d="M66.579,59c0-0.393-0.1-0.666-0.3-0.82c-0.2-0.152-0.489-0.229-0.87-0.229c-0.233,0-0.451,0.018-0.654,0.055
				c-0.204,0.037-0.402,0.084-0.596,0.145c-0.127-0.221-0.189-0.482-0.189-0.789c0.227-0.074,0.477-0.131,0.75-0.172
				c0.273-0.039,0.536-0.059,0.789-0.059c0.667,0,1.174,0.15,1.521,0.455c0.347,0.303,0.521,0.787,0.521,1.455v3.209
				c-0.234,0.055-0.518,0.109-0.851,0.166S66.026,62.5,65.678,62.5c-0.326,0-0.621-0.029-0.885-0.09s-0.486-0.156-0.67-0.289
				c-0.184-0.135-0.324-0.305-0.425-0.51c-0.101-0.207-0.149-0.457-0.149-0.75c0-0.287,0.058-0.539,0.174-0.756
				c0.117-0.217,0.275-0.396,0.476-0.541c0.2-0.143,0.431-0.25,0.69-0.318c0.26-0.07,0.533-0.105,0.82-0.105
				c0.213,0,0.388,0.004,0.524,0.016c0.137,0.01,0.251,0.021,0.345,0.033V59z M66.579,59.971c-0.1-0.014-0.227-0.027-0.38-0.041
				c-0.153-0.012-0.283-0.02-0.39-0.02c-0.414,0-0.729,0.076-0.945,0.23c-0.217,0.152-0.324,0.387-0.324,0.699
				c0,0.201,0.035,0.357,0.109,0.471c0.073,0.113,0.165,0.199,0.275,0.26c0.109,0.061,0.23,0.098,0.365,0.109
				c0.133,0.014,0.26,0.021,0.379,0.021c0.154,0,0.312-0.01,0.476-0.025c0.163-0.018,0.308-0.041,0.435-0.076V59.971z"/>
			<path d="M69.039,57.25c0.073-0.014,0.146-0.023,0.216-0.029c0.069-0.008,0.141-0.01,0.215-0.01c0.072,0,0.141,0.002,0.205,0.01
				c0.062,0.006,0.131,0.016,0.205,0.029c0.02,0.1,0.039,0.236,0.06,0.406s0.03,0.311,0.03,0.424c0.066-0.113,0.15-0.227,0.254-0.34
				s0.223-0.215,0.355-0.305s0.287-0.164,0.46-0.221s0.363-0.084,0.57-0.084c0.587,0,1.021,0.168,1.3,0.504
				c0.28,0.338,0.42,0.836,0.42,1.496v3.25c-0.073,0.014-0.156,0.023-0.25,0.029s-0.177,0.01-0.25,0.01s-0.154-0.004-0.244-0.01
				c-0.091-0.006-0.172-0.016-0.246-0.029v-2.98c0-0.473-0.073-0.822-0.22-1.045s-0.38-0.336-0.7-0.336
				c-0.187,0-0.363,0.035-0.529,0.102c-0.167,0.066-0.314,0.17-0.44,0.309c-0.126,0.141-0.229,0.322-0.306,0.545
				c-0.076,0.225-0.114,0.492-0.114,0.807v2.6c-0.073,0.014-0.155,0.023-0.245,0.029s-0.172,0.01-0.245,0.01s-0.157-0.004-0.25-0.01
				s-0.177-0.016-0.25-0.029V57.25z"/>
			<path d="M78.109,55.051c0.073-0.014,0.157-0.023,0.25-0.031c0.093-0.006,0.173-0.01,0.24-0.01c0.073,0,0.155,0.004,0.245,0.01
				c0.09,0.008,0.172,0.018,0.244,0.031v7.189c-0.253,0.074-0.536,0.135-0.85,0.186c-0.312,0.049-0.663,0.074-1.05,0.074
				c-0.36,0-0.702-0.045-1.024-0.135c-0.324-0.09-0.605-0.238-0.846-0.445s-0.43-0.473-0.57-0.799
				c-0.14-0.328-0.209-0.73-0.209-1.211c0-0.412,0.061-0.789,0.185-1.129c0.123-0.342,0.298-0.633,0.524-0.875
				c0.227-0.244,0.499-0.432,0.815-0.566c0.316-0.133,0.669-0.199,1.056-0.199c0.173,0,0.348,0.014,0.524,0.039
				c0.177,0.027,0.331,0.061,0.465,0.102V55.051z M78.109,58.122c-0.134-0.055-0.276-0.094-0.43-0.121
				c-0.153-0.025-0.32-0.039-0.5-0.039c-0.273,0-0.511,0.049-0.71,0.15c-0.2,0.1-0.365,0.236-0.495,0.408
				c-0.13,0.174-0.227,0.379-0.29,0.615c-0.063,0.238-0.096,0.496-0.096,0.775c0.008,0.633,0.157,1.088,0.451,1.359
				c0.293,0.273,0.693,0.41,1.199,0.41c0.174,0,0.334-0.008,0.48-0.023c0.146-0.018,0.276-0.043,0.39-0.076V58.122z"/>
			<path d="M83.04,55.051c0.072-0.014,0.154-0.023,0.244-0.031c0.09-0.006,0.172-0.01,0.245-0.01s0.157,0.004,0.25,0.01
				c0.093,0.008,0.177,0.018,0.25,0.031v2.98c0.06-0.094,0.136-0.193,0.226-0.301s0.199-0.205,0.33-0.295
				c0.129-0.09,0.279-0.164,0.449-0.221s0.358-0.084,0.565-0.084c0.587,0,1.021,0.168,1.305,0.504
				c0.284,0.338,0.425,0.836,0.425,1.496v3.25c-0.073,0.014-0.154,0.023-0.244,0.029s-0.172,0.01-0.246,0.01
				c-0.072,0-0.154-0.004-0.244-0.01s-0.172-0.016-0.245-0.029v-2.98c0-0.473-0.079-0.822-0.235-1.045s-0.395-0.336-0.715-0.336
				c-0.18,0-0.354,0.033-0.52,0.096c-0.167,0.064-0.314,0.164-0.44,0.301s-0.227,0.314-0.3,0.535
				c-0.074,0.219-0.11,0.486-0.11,0.799v2.631c-0.073,0.014-0.157,0.023-0.25,0.029s-0.177,0.01-0.25,0.01
				c-0.066,0-0.146-0.004-0.239-0.01c-0.094-0.006-0.178-0.016-0.25-0.029V55.051z"/>
			<path d="M91.539,59c0-0.393-0.1-0.666-0.3-0.82c-0.2-0.152-0.49-0.229-0.87-0.229c-0.233,0-0.452,0.018-0.655,0.055
				s-0.401,0.084-0.595,0.145c-0.126-0.221-0.19-0.482-0.19-0.789c0.227-0.074,0.477-0.131,0.75-0.172
				c0.273-0.039,0.537-0.059,0.791-0.059c0.666,0,1.173,0.15,1.52,0.455c0.347,0.303,0.52,0.787,0.52,1.455v3.209
				c-0.232,0.055-0.516,0.109-0.85,0.166s-0.674,0.084-1.02,0.084c-0.327,0-0.622-0.029-0.885-0.09
				c-0.264-0.061-0.487-0.156-0.67-0.289c-0.184-0.135-0.326-0.305-0.426-0.51c-0.1-0.207-0.15-0.457-0.15-0.75
				c0-0.287,0.059-0.539,0.176-0.756c0.116-0.217,0.275-0.396,0.475-0.541c0.2-0.143,0.43-0.25,0.689-0.318
				c0.261-0.07,0.534-0.105,0.82-0.105c0.214,0,0.389,0.004,0.525,0.016c0.137,0.01,0.252,0.021,0.345,0.033V59z M91.539,59.971
				c-0.1-0.014-0.227-0.027-0.38-0.041c-0.153-0.012-0.283-0.02-0.39-0.02c-0.413,0-0.729,0.076-0.945,0.23
				c-0.217,0.152-0.325,0.387-0.325,0.699c0,0.201,0.037,0.357,0.11,0.471s0.165,0.199,0.274,0.26
				c0.11,0.061,0.232,0.098,0.365,0.109c0.134,0.014,0.26,0.021,0.381,0.021c0.152,0,0.311-0.01,0.475-0.025
				c0.163-0.018,0.309-0.041,0.435-0.076V59.971z"/>
			<path d="M97.289,55.051c0.073-0.014,0.157-0.023,0.25-0.031c0.093-0.006,0.173-0.01,0.24-0.01c0.073,0,0.155,0.004,0.245,0.01
				c0.09,0.008,0.172,0.018,0.244,0.031v7.189c-0.253,0.074-0.536,0.135-0.85,0.186c-0.312,0.049-0.663,0.074-1.05,0.074
				c-0.36,0-0.702-0.045-1.024-0.135c-0.324-0.09-0.605-0.238-0.846-0.445s-0.43-0.473-0.57-0.799
				c-0.14-0.328-0.209-0.73-0.209-1.211c0-0.412,0.061-0.789,0.185-1.129c0.123-0.342,0.298-0.633,0.524-0.875
				c0.227-0.244,0.499-0.432,0.815-0.566c0.316-0.133,0.669-0.199,1.056-0.199c0.173,0,0.348,0.014,0.524,0.039
				c0.177,0.027,0.331,0.061,0.465,0.102V55.051z M97.289,58.122c-0.134-0.055-0.276-0.094-0.43-0.121
				c-0.153-0.025-0.32-0.039-0.5-0.039c-0.273,0-0.511,0.049-0.71,0.15c-0.2,0.1-0.365,0.236-0.495,0.408
				c-0.13,0.174-0.227,0.379-0.29,0.615c-0.063,0.238-0.096,0.496-0.096,0.775c0.008,0.633,0.157,1.088,0.451,1.359
				c0.293,0.273,0.693,0.41,1.199,0.41c0.174,0,0.334-0.008,0.48-0.023c0.146-0.018,0.276-0.043,0.39-0.076V58.122z"/>
		</g>
		<g enable-background="new    ">
			<path d="M22.05,70.042h-0.78l-0.04-0.141l1.72-1.92h0.08v1.27h1.3c0.026,0.113,0.04,0.24,0.04,0.381
				c0,0.072-0.003,0.143-0.01,0.209c-0.006,0.066-0.017,0.135-0.03,0.201h-1.3v2.34c0,0.279,0.011,0.504,0.035,0.67
				s0.063,0.295,0.12,0.385s0.133,0.15,0.23,0.18s0.218,0.045,0.365,0.045c0.113,0,0.22-0.008,0.32-0.025
				c0.1-0.016,0.19-0.035,0.27-0.055c0.046,0.133,0.075,0.27,0.085,0.41c0.01,0.141,0.015,0.264,0.015,0.371
				c-0.134,0.033-0.273,0.057-0.42,0.074c-0.147,0.016-0.304,0.025-0.47,0.025c-0.48,0-0.855-0.117-1.125-0.35
				c-0.27-0.234-0.405-0.621-0.405-1.16V70.042z"/>
			<path d="M25.43,67.051c0.073-0.014,0.155-0.023,0.245-0.031c0.09-0.006,0.171-0.01,0.245-0.01c0.074,0,0.157,0.004,0.25,0.01
				c0.093,0.008,0.177,0.018,0.25,0.031v2.98c0.06-0.094,0.135-0.193,0.225-0.301c0.09-0.107,0.2-0.205,0.33-0.295
				s0.28-0.164,0.45-0.221s0.358-0.084,0.565-0.084c0.586,0,1.021,0.168,1.305,0.504c0.284,0.338,0.425,0.836,0.425,1.496v3.25
				c-0.074,0.014-0.155,0.023-0.245,0.029s-0.172,0.01-0.245,0.01s-0.155-0.004-0.245-0.01c-0.09-0.006-0.172-0.016-0.245-0.029
				v-2.98c0-0.473-0.079-0.822-0.235-1.045c-0.157-0.223-0.395-0.336-0.715-0.336c-0.18,0-0.354,0.033-0.52,0.096
				c-0.167,0.064-0.313,0.164-0.44,0.301s-0.227,0.314-0.3,0.535c-0.074,0.219-0.11,0.486-0.11,0.799v2.631
				c-0.073,0.014-0.157,0.023-0.25,0.029s-0.176,0.01-0.25,0.01c-0.066,0-0.146-0.004-0.24-0.01s-0.177-0.016-0.25-0.029V67.051z"/>
			<path d="M31.959,72.061c0.013,0.561,0.158,0.971,0.435,1.23c0.276,0.26,0.685,0.389,1.225,0.389c0.473,0,0.923-0.082,1.35-0.25
				c0.054,0.102,0.097,0.223,0.13,0.365c0.033,0.145,0.053,0.285,0.06,0.426c-0.22,0.094-0.462,0.162-0.725,0.209
				c-0.264,0.047-0.555,0.07-0.875,0.07c-0.467,0-0.867-0.064-1.2-0.195c-0.333-0.129-0.608-0.312-0.825-0.549
				c-0.217-0.236-0.375-0.518-0.475-0.84c-0.1-0.324-0.15-0.68-0.15-1.066c0-0.379,0.048-0.734,0.145-1.064s0.245-0.617,0.445-0.859
				c0.2-0.244,0.452-0.438,0.755-0.58c0.303-0.145,0.662-0.215,1.075-0.215c0.353,0,0.663,0.059,0.93,0.18
				c0.267,0.119,0.49,0.285,0.67,0.494c0.18,0.211,0.317,0.461,0.41,0.75c0.093,0.291,0.14,0.605,0.14,0.945
				c0,0.094-0.003,0.191-0.01,0.295c-0.006,0.104-0.013,0.191-0.02,0.266H31.959z M34.5,71.321c0-0.186-0.025-0.365-0.075-0.535
				c-0.05-0.17-0.124-0.318-0.22-0.445c-0.097-0.127-0.22-0.229-0.37-0.305s-0.329-0.115-0.535-0.115
				c-0.407,0-0.718,0.123-0.935,0.371c-0.216,0.246-0.348,0.59-0.395,1.029H34.5z"/>
			<path d="M39.139,67.051c0.073-0.014,0.155-0.023,0.245-0.031c0.09-0.006,0.171-0.01,0.245-0.01c0.074,0,0.157,0.004,0.25,0.01
				c0.093,0.008,0.177,0.018,0.25,0.031v2.82c0.12-0.201,0.307-0.373,0.56-0.521c0.253-0.146,0.56-0.219,0.92-0.219
				c0.307,0,0.59,0.049,0.85,0.15c0.26,0.1,0.483,0.254,0.67,0.465c0.187,0.209,0.332,0.477,0.435,0.799
				c0.104,0.324,0.155,0.705,0.155,1.145c0,0.881-0.249,1.57-0.745,2.066S41.762,74.5,40.829,74.5c-0.293,0-0.595-0.027-0.905-0.084
				c-0.31-0.057-0.572-0.123-0.785-0.195V67.051z M40.129,73.551c0.12,0.039,0.249,0.068,0.385,0.084
				c0.137,0.018,0.278,0.025,0.425,0.025c0.247,0,0.475-0.037,0.685-0.115c0.21-0.076,0.392-0.193,0.545-0.35s0.275-0.357,0.365-0.6
				c0.09-0.244,0.135-0.531,0.135-0.865c0-0.553-0.097-0.982-0.29-1.291c-0.193-0.305-0.513-0.459-0.96-0.459
				c-0.153,0-0.305,0.025-0.455,0.074c-0.15,0.051-0.289,0.131-0.415,0.24c-0.127,0.111-0.229,0.258-0.305,0.441
				c-0.077,0.182-0.115,0.404-0.115,0.664V73.551z"/>
			<path d="M45.789,72.061c0.013,0.561,0.158,0.971,0.435,1.23c0.276,0.26,0.685,0.389,1.225,0.389c0.473,0,0.923-0.082,1.35-0.25
				c0.054,0.102,0.097,0.223,0.13,0.365c0.033,0.145,0.053,0.285,0.06,0.426c-0.22,0.094-0.462,0.162-0.725,0.209
				C48,74.477,47.709,74.5,47.389,74.5c-0.467,0-0.867-0.064-1.2-0.195c-0.333-0.129-0.608-0.312-0.825-0.549
				c-0.217-0.236-0.375-0.518-0.475-0.84c-0.1-0.324-0.15-0.68-0.15-1.066c0-0.379,0.048-0.734,0.145-1.064s0.245-0.617,0.445-0.859
				c0.2-0.244,0.452-0.438,0.755-0.58c0.303-0.145,0.662-0.215,1.075-0.215c0.353,0,0.663,0.059,0.93,0.18
				c0.267,0.119,0.49,0.285,0.67,0.494c0.18,0.211,0.317,0.461,0.41,0.75c0.093,0.291,0.14,0.605,0.14,0.945
				c0,0.094-0.003,0.191-0.01,0.295c-0.006,0.104-0.013,0.191-0.02,0.266H45.789z M48.329,71.321c0-0.186-0.025-0.365-0.075-0.535
				c-0.05-0.17-0.124-0.318-0.22-0.445c-0.097-0.127-0.22-0.229-0.37-0.305s-0.329-0.115-0.535-0.115
				c-0.407,0-0.718,0.123-0.935,0.371c-0.216,0.246-0.348,0.59-0.395,1.029H48.329z"/>
			<path d="M50.519,73.452c0.18,0.072,0.378,0.131,0.595,0.174c0.216,0.043,0.431,0.064,0.645,0.064c0.153,0,0.3-0.016,0.44-0.049
				c0.14-0.033,0.261-0.084,0.365-0.15s0.187-0.148,0.25-0.244c0.063-0.098,0.095-0.205,0.095-0.326c0-0.133-0.025-0.242-0.075-0.33
				c-0.05-0.086-0.117-0.16-0.2-0.219c-0.083-0.061-0.18-0.111-0.29-0.156c-0.11-0.043-0.229-0.084-0.355-0.125l-0.35-0.129
				c-0.427-0.16-0.737-0.34-0.93-0.541c-0.193-0.199-0.29-0.469-0.29-0.809c0-0.455,0.162-0.814,0.485-1.08
				c0.323-0.268,0.798-0.4,1.425-0.4c0.26,0,0.515,0.025,0.765,0.074c0.25,0.051,0.468,0.109,0.655,0.176
				c-0.013,0.133-0.039,0.266-0.075,0.4c-0.037,0.133-0.082,0.256-0.135,0.369c-0.146-0.053-0.322-0.105-0.525-0.154
				c-0.204-0.051-0.422-0.076-0.655-0.076c-0.247,0-0.465,0.043-0.655,0.131c-0.19,0.086-0.285,0.24-0.285,0.459
				c0,0.113,0.023,0.211,0.07,0.291c0.046,0.08,0.11,0.148,0.19,0.205s0.171,0.105,0.275,0.145c0.103,0.039,0.215,0.08,0.335,0.119
				l0.44,0.15c0.16,0.055,0.312,0.117,0.455,0.191c0.143,0.072,0.267,0.164,0.37,0.273c0.103,0.111,0.187,0.244,0.25,0.4
				c0.063,0.156,0.095,0.346,0.095,0.564c0,0.248-0.05,0.473-0.15,0.676s-0.242,0.377-0.425,0.52
				c-0.184,0.145-0.405,0.256-0.665,0.336c-0.26,0.08-0.547,0.119-0.86,0.119c-0.32,0-0.6-0.021-0.84-0.064
				c-0.24-0.043-0.463-0.102-0.67-0.176c0.013-0.133,0.042-0.268,0.085-0.404S50.466,73.584,50.519,73.452z"/>
			<path d="M55.35,70.042h-0.78l-0.04-0.141l1.72-1.92h0.08v1.27h1.3c0.026,0.113,0.04,0.24,0.04,0.381
				c0,0.072-0.003,0.143-0.01,0.209c-0.006,0.066-0.017,0.135-0.03,0.201h-1.3v2.34c0,0.279,0.011,0.504,0.035,0.67
				s0.063,0.295,0.12,0.385s0.133,0.15,0.23,0.18s0.218,0.045,0.365,0.045c0.113,0,0.22-0.008,0.32-0.025
				c0.1-0.016,0.19-0.035,0.27-0.055c0.046,0.133,0.075,0.27,0.085,0.41c0.01,0.141,0.015,0.264,0.015,0.371
				c-0.134,0.033-0.273,0.057-0.42,0.074c-0.147,0.016-0.304,0.025-0.47,0.025c-0.48,0-0.855-0.117-1.125-0.35
				c-0.27-0.234-0.405-0.621-0.405-1.16V70.042z"/>
			<path d="M61.299,70.042h-0.78l-0.04-0.141l1.721-1.92h0.08v1.27h1.299c0.027,0.113,0.041,0.24,0.041,0.381
				c0,0.072-0.004,0.143-0.011,0.209s-0.017,0.135-0.03,0.201H62.28v2.34c0,0.279,0.011,0.504,0.034,0.67s0.063,0.295,0.12,0.385
				s0.133,0.15,0.23,0.18c0.096,0.029,0.218,0.045,0.365,0.045c0.113,0,0.219-0.008,0.319-0.025c0.101-0.016,0.19-0.035,0.271-0.055
				c0.046,0.133,0.074,0.27,0.084,0.41s0.016,0.264,0.016,0.371c-0.134,0.033-0.273,0.057-0.42,0.074
				c-0.146,0.016-0.304,0.025-0.471,0.025c-0.479,0-0.854-0.117-1.125-0.35c-0.27-0.234-0.405-0.621-0.405-1.16V70.042z"/>
			<path d="M64.989,70.032h-0.65c-0.014-0.055-0.023-0.115-0.029-0.186c-0.008-0.07-0.01-0.139-0.01-0.205s0.002-0.135,0.01-0.205
				c0.006-0.07,0.016-0.131,0.029-0.186h1.62v5.131c-0.073,0.014-0.155,0.023-0.245,0.029s-0.172,0.01-0.244,0.01
				c-0.067,0-0.146-0.004-0.235-0.01c-0.091-0.006-0.172-0.016-0.245-0.029V70.032z M64.768,68.122
				c-0.013-0.08-0.021-0.168-0.024-0.26c-0.003-0.094-0.005-0.178-0.005-0.25c0-0.074,0.002-0.158,0.005-0.25
				c0.003-0.094,0.012-0.178,0.024-0.25c0.088-0.014,0.181-0.023,0.281-0.031c0.1-0.006,0.186-0.01,0.26-0.01
				c0.072,0,0.16,0.004,0.26,0.01c0.1,0.008,0.189,0.018,0.27,0.031c0.014,0.072,0.021,0.156,0.025,0.25
				c0.004,0.092,0.005,0.176,0.005,0.25c0,0.072-0.001,0.156-0.005,0.25c-0.004,0.092-0.012,0.18-0.025,0.26
				c-0.08,0.014-0.168,0.023-0.265,0.029s-0.182,0.01-0.255,0.01c-0.08,0-0.17-0.004-0.27-0.01
				C64.949,68.145,64.856,68.135,64.768,68.122z"/>
			<path d="M67.569,69.25c0.072-0.014,0.145-0.023,0.215-0.029c0.07-0.008,0.142-0.01,0.215-0.01s0.142,0.002,0.205,0.01
				c0.062,0.006,0.131,0.016,0.205,0.029c0.02,0.1,0.04,0.232,0.061,0.395c0.02,0.164,0.029,0.303,0.029,0.416
				c0.061-0.121,0.135-0.234,0.225-0.346c0.09-0.109,0.197-0.207,0.32-0.295c0.123-0.086,0.266-0.156,0.426-0.209
				c0.159-0.055,0.336-0.08,0.529-0.08c0.4,0,0.709,0.082,0.925,0.244c0.217,0.164,0.382,0.393,0.495,0.686
				c0.066-0.113,0.148-0.227,0.245-0.34s0.205-0.213,0.325-0.301c0.119-0.086,0.256-0.156,0.41-0.209
				c0.152-0.055,0.326-0.08,0.52-0.08c0.594,0,1.025,0.166,1.295,0.5c0.27,0.332,0.405,0.826,0.405,1.48v3.27
				c-0.073,0.014-0.157,0.023-0.25,0.029c-0.094,0.006-0.177,0.01-0.25,0.01s-0.155-0.004-0.245-0.01s-0.172-0.016-0.245-0.029
				v-2.98c0-0.461-0.069-0.805-0.21-1.035s-0.37-0.346-0.689-0.346c-0.34,0-0.615,0.125-0.826,0.371
				c-0.209,0.246-0.314,0.609-0.314,1.09v2.9c-0.073,0.014-0.154,0.023-0.244,0.029c-0.091,0.006-0.172,0.01-0.246,0.01
				c-0.073,0-0.154-0.004-0.244-0.01s-0.172-0.016-0.246-0.029v-3.051c0-0.445-0.066-0.781-0.199-1.004
				c-0.134-0.225-0.347-0.336-0.641-0.336c-0.166,0-0.322,0.037-0.47,0.109c-0.146,0.074-0.274,0.184-0.385,0.33
				s-0.196,0.332-0.261,0.557c-0.062,0.223-0.094,0.48-0.094,0.773v2.621c-0.074,0.014-0.156,0.023-0.246,0.029
				s-0.172,0.01-0.244,0.01c-0.074,0-0.157-0.004-0.25-0.01c-0.094-0.006-0.178-0.016-0.25-0.029V69.25z"/>
			<path d="M76.848,72.061c0.014,0.561,0.158,0.971,0.436,1.23c0.276,0.26,0.686,0.389,1.225,0.389c0.474,0,0.924-0.082,1.35-0.25
				c0.055,0.102,0.098,0.223,0.131,0.365c0.033,0.145,0.053,0.285,0.061,0.426c-0.221,0.094-0.463,0.162-0.726,0.209
				c-0.264,0.047-0.556,0.07-0.875,0.07c-0.467,0-0.866-0.064-1.2-0.195c-0.334-0.129-0.608-0.312-0.824-0.549
				c-0.217-0.236-0.375-0.518-0.476-0.84c-0.101-0.324-0.149-0.68-0.149-1.066c0-0.379,0.047-0.734,0.145-1.064
				c0.096-0.33,0.244-0.617,0.445-0.859c0.199-0.244,0.451-0.438,0.754-0.58c0.304-0.145,0.662-0.215,1.076-0.215
				c0.353,0,0.662,0.059,0.93,0.18c0.266,0.119,0.49,0.285,0.67,0.494c0.18,0.211,0.316,0.461,0.41,0.75
				c0.093,0.291,0.14,0.605,0.14,0.945c0,0.094-0.003,0.191-0.011,0.295c-0.006,0.104-0.013,0.191-0.02,0.266H76.848z
				 M79.389,71.321c0-0.186-0.025-0.365-0.076-0.535c-0.049-0.17-0.123-0.318-0.219-0.445c-0.098-0.127-0.221-0.229-0.371-0.305
				c-0.149-0.076-0.328-0.115-0.535-0.115c-0.406,0-0.718,0.123-0.935,0.371c-0.216,0.246-0.349,0.59-0.396,1.029H79.389z"/>
			<path d="M83.459,69.25c0.093-0.014,0.186-0.023,0.279-0.029c0.094-0.008,0.177-0.01,0.25-0.01c0.094,0,0.188,0.002,0.285,0.01
				c0.096,0.006,0.182,0.016,0.255,0.029l1,4.189l1.13-4.189c0.073-0.014,0.153-0.023,0.24-0.029c0.086-0.008,0.176-0.01,0.27-0.01
				c0.107,0.006,0.199,0.012,0.275,0.014c0.076,0.004,0.151,0.012,0.225,0.025l1.12,4.121l1-4.121
				c0.073-0.014,0.147-0.023,0.22-0.029c0.074-0.008,0.154-0.01,0.24-0.01c0.074,0,0.155,0.002,0.245,0.01
				c0.091,0.006,0.182,0.016,0.274,0.029l-1.529,5.131c-0.087,0.014-0.175,0.023-0.266,0.029c-0.09,0.006-0.171,0.01-0.244,0.01
				c-0.074,0-0.154-0.004-0.24-0.01c-0.087-0.006-0.174-0.016-0.26-0.029l-1.1-3.881l-1.15,3.881
				c-0.094,0.014-0.186,0.023-0.275,0.029s-0.172,0.01-0.244,0.01c-0.074,0-0.156-0.004-0.246-0.01s-0.172-0.016-0.244-0.029
				L83.459,69.25z"/>
			<path d="M92.088,70.032h-0.649c-0.014-0.055-0.023-0.115-0.03-0.186s-0.01-0.139-0.01-0.205s0.003-0.135,0.01-0.205
				s0.017-0.131,0.03-0.186h1.62v5.131c-0.074,0.014-0.155,0.023-0.245,0.029c-0.091,0.006-0.172,0.01-0.245,0.01
				c-0.066,0-0.145-0.004-0.234-0.01c-0.091-0.006-0.172-0.016-0.246-0.029V70.032z M91.869,68.122
				c-0.013-0.08-0.021-0.168-0.024-0.26c-0.004-0.094-0.006-0.178-0.006-0.25c0-0.074,0.002-0.158,0.006-0.25
				c0.003-0.094,0.012-0.178,0.024-0.25c0.087-0.014,0.181-0.023,0.28-0.031c0.1-0.006,0.187-0.01,0.26-0.01s0.16,0.004,0.26,0.01
				c0.1,0.008,0.19,0.018,0.271,0.031c0.013,0.072,0.021,0.156,0.024,0.25c0.004,0.092,0.006,0.176,0.006,0.25
				c0,0.072-0.002,0.156-0.006,0.25c-0.003,0.092-0.012,0.18-0.024,0.26c-0.08,0.014-0.169,0.023-0.265,0.029
				c-0.098,0.006-0.182,0.01-0.256,0.01c-0.08,0-0.17-0.004-0.27-0.01S91.956,68.135,91.869,68.122z"/>
			<path d="M94.859,70.042h-0.78l-0.04-0.141l1.72-1.92h0.08v1.27h1.301c0.025,0.113,0.039,0.24,0.039,0.381
				c0,0.072-0.003,0.143-0.01,0.209c-0.006,0.066-0.017,0.135-0.029,0.201h-1.301v2.34c0,0.279,0.012,0.504,0.035,0.67
				s0.063,0.295,0.12,0.385s0.134,0.15,0.229,0.18c0.098,0.029,0.219,0.045,0.365,0.045c0.113,0,0.221-0.008,0.32-0.025
				c0.1-0.016,0.189-0.035,0.27-0.055c0.047,0.133,0.075,0.27,0.086,0.41c0.01,0.141,0.015,0.264,0.015,0.371
				c-0.134,0.033-0.273,0.057-0.42,0.074c-0.147,0.016-0.304,0.025-0.47,0.025c-0.48,0-0.855-0.117-1.125-0.35
				c-0.271-0.234-0.405-0.621-0.405-1.16V70.042z"/>
			<path d="M98.239,67.051c0.072-0.014,0.154-0.023,0.244-0.031c0.09-0.006,0.172-0.01,0.245-0.01s0.157,0.004,0.25,0.01
				c0.093,0.008,0.177,0.018,0.25,0.031v2.98c0.06-0.094,0.136-0.193,0.226-0.301s0.199-0.205,0.33-0.295
				c0.129-0.09,0.279-0.164,0.449-0.221s0.358-0.084,0.565-0.084c0.587,0,1.021,0.168,1.305,0.504
				c0.284,0.338,0.425,0.836,0.425,1.496v3.25c-0.073,0.014-0.154,0.023-0.244,0.029s-0.172,0.01-0.246,0.01
				c-0.072,0-0.154-0.004-0.244-0.01s-0.172-0.016-0.245-0.029v-2.98c0-0.473-0.079-0.822-0.235-1.045s-0.395-0.336-0.715-0.336
				c-0.18,0-0.354,0.033-0.52,0.096c-0.167,0.064-0.314,0.164-0.44,0.301s-0.227,0.314-0.3,0.535
				c-0.074,0.219-0.11,0.486-0.11,0.799v2.631c-0.073,0.014-0.157,0.023-0.25,0.029s-0.177,0.01-0.25,0.01
				c-0.066,0-0.146-0.004-0.239-0.01c-0.094-0.006-0.178-0.016-0.25-0.029V67.051z"/>
		</g>
		<g enable-background="new    ">
			<path d="M39.359,81.25c0.073-0.014,0.145-0.023,0.215-0.029c0.07-0.008,0.142-0.01,0.215-0.01s0.142,0.002,0.205,0.01
				c0.063,0.006,0.131,0.016,0.205,0.029c0.02,0.1,0.04,0.232,0.06,0.395c0.02,0.164,0.03,0.303,0.03,0.416
				c0.06-0.121,0.135-0.234,0.225-0.346c0.09-0.109,0.196-0.207,0.32-0.295c0.124-0.086,0.265-0.156,0.425-0.209
				c0.16-0.055,0.336-0.08,0.53-0.08c0.4,0,0.708,0.082,0.925,0.244c0.217,0.164,0.382,0.393,0.495,0.686
				c0.067-0.113,0.148-0.227,0.245-0.34s0.205-0.213,0.325-0.301c0.12-0.086,0.256-0.156,0.41-0.209
				c0.153-0.055,0.327-0.08,0.52-0.08c0.593,0,1.025,0.166,1.295,0.5c0.27,0.332,0.405,0.826,0.405,1.48v3.27
				c-0.074,0.014-0.157,0.023-0.25,0.029c-0.094,0.006-0.177,0.01-0.25,0.01c-0.074,0-0.155-0.004-0.245-0.01
				s-0.172-0.016-0.245-0.029v-2.98c0-0.461-0.07-0.805-0.21-1.035s-0.37-0.346-0.69-0.346c-0.34,0-0.615,0.125-0.825,0.371
				c-0.21,0.246-0.315,0.609-0.315,1.09v2.9c-0.073,0.014-0.155,0.023-0.245,0.029c-0.09,0.006-0.172,0.01-0.245,0.01
				c-0.074,0-0.155-0.004-0.245-0.01s-0.172-0.016-0.245-0.029v-3.051c0-0.445-0.066-0.781-0.2-1.004
				c-0.134-0.225-0.347-0.336-0.64-0.336c-0.167,0-0.323,0.037-0.47,0.109c-0.146,0.074-0.275,0.184-0.385,0.33
				s-0.197,0.332-0.26,0.557c-0.063,0.223-0.095,0.48-0.095,0.773v2.621c-0.073,0.014-0.155,0.023-0.245,0.029
				s-0.172,0.01-0.245,0.01s-0.157-0.004-0.25-0.01s-0.177-0.016-0.25-0.029V81.25z"/>
			<path d="M49.649,86.391c-0.053,0-0.108,0.002-0.165,0.004c-0.057,0.004-0.111,0.006-0.165,0.006c-0.067,0-0.137-0.002-0.21-0.006
				c-0.073-0.002-0.133-0.008-0.18-0.014l-1.7-5.131c0.087-0.014,0.177-0.021,0.27-0.025c0.093-0.002,0.18-0.004,0.26-0.004
				c0.086,0,0.183,0.002,0.29,0.004c0.106,0.004,0.196,0.012,0.27,0.025l1.42,4.77l1.47-4.77c0.14-0.02,0.303-0.029,0.49-0.029
				c0.073,0,0.156,0.002,0.25,0.004c0.093,0.004,0.187,0.012,0.28,0.025l-1.99,6.17c-0.094,0.273-0.19,0.504-0.29,0.691
				c-0.1,0.186-0.213,0.336-0.34,0.449c-0.126,0.113-0.268,0.193-0.425,0.24s-0.338,0.07-0.545,0.07
				c-0.153,0-0.305-0.012-0.455-0.035s-0.282-0.053-0.395-0.086c0-0.152,0.013-0.289,0.04-0.41c0.026-0.119,0.066-0.24,0.12-0.359
				c0.06,0.02,0.142,0.041,0.245,0.064c0.103,0.023,0.215,0.035,0.335,0.035c0.086,0,0.168-0.008,0.245-0.025
				c0.077-0.016,0.148-0.049,0.215-0.1c0.066-0.049,0.128-0.121,0.185-0.215c0.056-0.094,0.111-0.221,0.165-0.379L49.649,86.391z"/>
			<path d="M55.909,82.032h-0.84c-0.027-0.107-0.04-0.238-0.04-0.391c0-0.146,0.013-0.277,0.04-0.391h0.84v-0.359
				c0-0.633,0.158-1.115,0.475-1.445c0.316-0.33,0.778-0.494,1.385-0.494c0.167,0,0.313,0.008,0.44,0.023
				c0.126,0.018,0.247,0.043,0.36,0.076c-0.014,0.166-0.032,0.311-0.055,0.43s-0.055,0.244-0.095,0.369
				c-0.067-0.012-0.145-0.027-0.235-0.045c-0.09-0.016-0.198-0.023-0.325-0.023c-0.147,0-0.278,0.014-0.395,0.045
				c-0.117,0.029-0.217,0.086-0.3,0.17c-0.083,0.082-0.148,0.199-0.195,0.35c-0.047,0.15-0.07,0.342-0.07,0.574v0.33h1.31
				c0.02,0.135,0.03,0.27,0.03,0.41c0,0.127-0.01,0.25-0.03,0.371h-1.31v4.35c-0.074,0.014-0.155,0.023-0.245,0.029
				s-0.172,0.01-0.245,0.01s-0.157-0.004-0.25-0.01s-0.177-0.016-0.25-0.029V82.032z"/>
			<path d="M61.869,83c0-0.393-0.1-0.666-0.3-0.82c-0.2-0.152-0.49-0.229-0.87-0.229c-0.233,0-0.452,0.018-0.655,0.055
				c-0.204,0.037-0.402,0.084-0.595,0.145c-0.126-0.221-0.19-0.482-0.19-0.789c0.227-0.074,0.477-0.131,0.75-0.172
				c0.273-0.039,0.537-0.059,0.79-0.059c0.667,0,1.174,0.15,1.52,0.455c0.348,0.303,0.521,0.787,0.521,1.455v3.209
				c-0.233,0.055-0.517,0.109-0.851,0.166c-0.333,0.057-0.673,0.084-1.02,0.084c-0.327,0-0.622-0.029-0.885-0.09
				c-0.264-0.061-0.487-0.156-0.67-0.289c-0.184-0.135-0.325-0.305-0.425-0.51c-0.1-0.207-0.15-0.457-0.15-0.75
				c0-0.287,0.058-0.539,0.175-0.756s0.275-0.396,0.475-0.541c0.2-0.143,0.43-0.25,0.69-0.318c0.26-0.07,0.534-0.105,0.82-0.105
				c0.213,0,0.388,0.004,0.525,0.016c0.137,0.01,0.251,0.021,0.345,0.033V83z M61.869,83.971c-0.1-0.014-0.227-0.027-0.38-0.041
				c-0.153-0.012-0.283-0.02-0.39-0.02c-0.414,0-0.729,0.076-0.945,0.23c-0.217,0.152-0.325,0.387-0.325,0.699
				c0,0.201,0.036,0.357,0.11,0.471c0.073,0.113,0.165,0.199,0.275,0.26s0.231,0.098,0.365,0.109c0.133,0.014,0.26,0.021,0.38,0.021
				c0.153,0,0.312-0.01,0.475-0.025c0.163-0.018,0.308-0.041,0.435-0.076V83.971z"/>
			<path d="M64.329,81.25c0.074-0.014,0.146-0.023,0.216-0.029c0.069-0.008,0.142-0.01,0.215-0.01s0.142,0.002,0.205,0.01
				c0.063,0.006,0.132,0.016,0.205,0.029c0.021,0.1,0.04,0.232,0.06,0.395c0.021,0.164,0.03,0.303,0.03,0.416
				c0.06-0.121,0.136-0.234,0.226-0.346c0.09-0.109,0.195-0.207,0.319-0.295c0.124-0.086,0.265-0.156,0.425-0.209
				c0.16-0.055,0.337-0.08,0.53-0.08c0.399,0,0.708,0.082,0.925,0.244c0.217,0.164,0.382,0.393,0.495,0.686
				c0.067-0.113,0.148-0.227,0.245-0.34s0.205-0.213,0.325-0.301c0.12-0.086,0.257-0.156,0.409-0.209
				c0.154-0.055,0.327-0.08,0.521-0.08c0.593,0,1.024,0.166,1.295,0.5c0.271,0.332,0.405,0.826,0.405,1.48v3.27
				c-0.074,0.014-0.156,0.023-0.25,0.029s-0.177,0.01-0.25,0.01c-0.074,0-0.155-0.004-0.245-0.01s-0.172-0.016-0.245-0.029v-2.98
				c0-0.461-0.07-0.805-0.21-1.035s-0.37-0.346-0.69-0.346c-0.34,0-0.614,0.125-0.824,0.371c-0.211,0.246-0.315,0.609-0.315,1.09
				v2.9c-0.073,0.014-0.155,0.023-0.245,0.029s-0.172,0.01-0.244,0.01c-0.074,0-0.156-0.004-0.246-0.01s-0.172-0.016-0.244-0.029
				v-3.051c0-0.445-0.066-0.781-0.2-1.004c-0.134-0.225-0.347-0.336-0.64-0.336c-0.167,0-0.324,0.037-0.471,0.109
				c-0.146,0.074-0.275,0.184-0.385,0.33s-0.197,0.332-0.26,0.557c-0.063,0.223-0.096,0.48-0.096,0.773v2.621
				c-0.072,0.014-0.154,0.023-0.244,0.029s-0.172,0.01-0.246,0.01c-0.072,0-0.156-0.004-0.25-0.01
				c-0.093-0.006-0.176-0.016-0.25-0.029V81.25z"/>
			<path d="M73.169,82.032H72.52c-0.014-0.055-0.023-0.115-0.031-0.186c-0.006-0.07-0.01-0.139-0.01-0.205s0.004-0.135,0.01-0.205
				c0.008-0.07,0.018-0.131,0.031-0.186h1.619v5.131c-0.073,0.014-0.154,0.023-0.244,0.029c-0.091,0.006-0.172,0.01-0.246,0.01
				c-0.066,0-0.145-0.004-0.234-0.01s-0.172-0.016-0.245-0.029V82.032z M72.95,80.122c-0.014-0.08-0.021-0.168-0.025-0.26
				c-0.004-0.094-0.005-0.178-0.005-0.25c0-0.074,0.001-0.158,0.005-0.25c0.004-0.094,0.012-0.178,0.025-0.25
				c0.086-0.014,0.18-0.023,0.279-0.031c0.1-0.006,0.188-0.01,0.26-0.01c0.074,0,0.16,0.004,0.261,0.01
				c0.1,0.008,0.19,0.018,0.271,0.031c0.013,0.072,0.021,0.156,0.024,0.25c0.003,0.092,0.005,0.176,0.005,0.25
				c0,0.072-0.002,0.156-0.005,0.25c-0.003,0.092-0.012,0.18-0.024,0.26c-0.08,0.014-0.169,0.023-0.266,0.029
				s-0.182,0.01-0.255,0.01c-0.08,0-0.171-0.004-0.271-0.01S73.036,80.135,72.95,80.122z"/>
			<path d="M75.729,79.051c0.074-0.014,0.155-0.023,0.245-0.031c0.091-0.006,0.172-0.01,0.245-0.01s0.154,0.004,0.245,0.01
				c0.09,0.008,0.171,0.018,0.245,0.031v5.779c0,0.188,0.016,0.334,0.05,0.439c0.033,0.107,0.078,0.189,0.135,0.246
				s0.124,0.094,0.2,0.109c0.076,0.018,0.158,0.025,0.245,0.025c0.06,0,0.128-0.004,0.205-0.01c0.076-0.006,0.142-0.018,0.194-0.029
				c0.061,0.232,0.09,0.486,0.09,0.76c-0.093,0.033-0.206,0.055-0.34,0.064c-0.133,0.01-0.256,0.016-0.369,0.016
				c-0.193,0-0.374-0.023-0.541-0.07c-0.166-0.047-0.312-0.123-0.439-0.23s-0.227-0.25-0.3-0.43s-0.11-0.404-0.11-0.67V79.051z"/>
			<path d="M80.479,86.391c-0.053,0-0.108,0.002-0.165,0.004c-0.057,0.004-0.111,0.006-0.165,0.006c-0.066,0-0.137-0.002-0.21-0.006
				c-0.073-0.002-0.134-0.008-0.18-0.014l-1.7-5.131c0.087-0.014,0.177-0.021,0.27-0.025c0.094-0.002,0.181-0.004,0.261-0.004
				c0.087,0,0.183,0.002,0.29,0.004c0.106,0.004,0.196,0.012,0.27,0.025l1.42,4.77l1.471-4.77c0.14-0.02,0.303-0.029,0.49-0.029
				c0.072,0,0.156,0.002,0.25,0.004c0.093,0.004,0.186,0.012,0.279,0.025l-1.99,6.17c-0.094,0.273-0.189,0.504-0.289,0.691
				c-0.101,0.186-0.214,0.336-0.341,0.449c-0.126,0.113-0.269,0.193-0.425,0.24s-0.338,0.07-0.545,0.07
				c-0.153,0-0.305-0.012-0.455-0.035s-0.281-0.053-0.395-0.086c0-0.152,0.013-0.289,0.039-0.41c0.027-0.119,0.066-0.24,0.121-0.359
				c0.06,0.02,0.141,0.041,0.244,0.064s0.215,0.035,0.336,0.035c0.086,0,0.168-0.008,0.244-0.025c0.076-0.016,0.148-0.049,0.215-0.1
				c0.066-0.049,0.129-0.121,0.186-0.215s0.111-0.221,0.165-0.379L80.479,86.391z"/>
			<path d="M83.569,86.381c-0.014-0.094-0.025-0.186-0.035-0.275s-0.015-0.182-0.015-0.275s0.005-0.188,0.015-0.285
				c0.01-0.096,0.021-0.191,0.035-0.285c0.094-0.012,0.186-0.023,0.275-0.029s0.182-0.01,0.275-0.01c0.093,0,0.186,0.004,0.279,0.01
				s0.187,0.018,0.279,0.029c0.014,0.094,0.025,0.188,0.035,0.281c0.011,0.094,0.016,0.186,0.016,0.279s-0.005,0.188-0.016,0.279
				c-0.01,0.094-0.021,0.188-0.035,0.281c-0.093,0.014-0.184,0.023-0.274,0.029c-0.09,0.006-0.182,0.01-0.274,0.01
				c-0.094,0-0.188-0.004-0.28-0.01C83.755,86.405,83.663,86.395,83.569,86.381z"/>
		</g>
	</g>
</g>
<g id="Name">
	<text transform="matrix(1 0 0 1 29.6113 30.3789)" fill="#FFFFFF" font-family="'Aller-Bold'" font-size="16">THOMAS</text>
</g>
</svg>
