<?xml version="1.0" encoding="utf-8"?>
<!-- Generator: Adobe Illustrator 16.0.0, SVG Export Plug-In . SVG Version: 6.00 Build 0)  -->
<!DOCTYPE svg PUBLIC "-//W3C//DTD SVG 1.1//EN" "http://www.w3.org/Graphics/SVG/1.1/DTD/svg11.dtd">
<svg version="1.1" id="Layer_1" xmlns="http://www.w3.org/2000/svg" xmlns:xlink="http://www.w3.org/1999/xlink" x="0px" y="0px"
	 width="122.758px" height="106.551px" viewBox="0 0 122.758 106.551" enable-background="new 0 0 122.758 106.551"
	 xml:space="preserve">
<g id="Layer_4">
	<g>
		<rect x="9.395" y="11.066" fill="#0DB3D9" width="104.173" height="24.639"/>
		<g>
			<g>
				<path fill="#0DB3D9" d="M110.567,36.955v56.89H12.395v-56.89H110.567 M113.567,33.955H9.395v62.89h104.173L113.567,33.955
					L113.567,33.955z"/>
			</g>
		</g>
	</g>
</g>
<g id="Text" display="none">
	<rect x="16.311" y="43.011" display="inline" fill="none" width="89.667" height="50.333"/>
	<text transform="matrix(1 0 0 1 16.3555 50.3809)" display="inline" fill="#191919" font-family="'Aller'" font-size="10">Borrowed lighting kit </text>
	<text transform="matrix(1 0 0 1 18.1055 62.3813)" display="inline" fill="#191919" font-family="'Aller'" font-size="10">from a nearby Lendr </text>
	<text transform="matrix(1 0 0 1 16.4199 74.3813)" display="inline" fill="#191919" font-family="'Aller'" font-size="10">to shoot product ads.</text>
	<text transform="matrix(1 0 0 1 20.2305 86.3813)" display="inline" fill="#191919" font-family="'Aller'" font-size="10"> It turned out great!</text>
</g>
<g id="PR">
	<g>
		<path fill="#191919" d="M17.475,43.191c0.167-0.033,0.4-0.06,0.7-0.08c0.3-0.02,0.604-0.03,0.91-0.03c0.38,0,0.727,0.033,1.04,0.1
			s0.582,0.175,0.805,0.325c0.223,0.15,0.396,0.343,0.52,0.58c0.123,0.237,0.185,0.525,0.185,0.865c0,0.207-0.032,0.398-0.095,0.575
			c-0.063,0.177-0.148,0.333-0.255,0.47c-0.107,0.137-0.23,0.25-0.37,0.34s-0.284,0.155-0.43,0.195
			c0.187,0.02,0.375,0.07,0.565,0.15c0.19,0.08,0.362,0.194,0.515,0.34s0.278,0.332,0.375,0.555
			c0.097,0.224,0.145,0.495,0.145,0.815c0,0.387-0.077,0.715-0.23,0.985s-0.362,0.488-0.625,0.655
			c-0.264,0.167-0.573,0.287-0.93,0.36c-0.356,0.074-0.738,0.11-1.145,0.11c-0.253,0-0.53-0.012-0.83-0.035
			c-0.3-0.023-0.583-0.052-0.85-0.085V43.191z M19.214,46.191c0.454,0,0.8-0.098,1.04-0.295c0.24-0.197,0.36-0.492,0.36-0.885
			c0-0.38-0.128-0.663-0.385-0.85s-0.605-0.28-1.045-0.28c-0.133,0-0.262,0.003-0.385,0.01c-0.123,0.007-0.229,0.017-0.315,0.03
			v2.27H19.214z M18.484,49.591c0.093,0.014,0.211,0.023,0.355,0.03c0.144,0.006,0.285,0.01,0.425,0.01
			c0.24,0,0.465-0.02,0.675-0.06c0.21-0.04,0.395-0.108,0.555-0.205c0.16-0.096,0.287-0.227,0.38-0.39
			c0.093-0.164,0.14-0.372,0.14-0.625c0-0.247-0.043-0.455-0.13-0.625c-0.086-0.17-0.205-0.307-0.355-0.41
			c-0.15-0.104-0.328-0.177-0.535-0.22c-0.207-0.043-0.43-0.065-0.67-0.065h-0.84V49.591z"/>
		<path fill="#191919" d="M25.124,50.501c-0.4,0-0.75-0.068-1.05-0.205c-0.3-0.137-0.55-0.325-0.75-0.565
			c-0.2-0.24-0.349-0.523-0.445-0.85c-0.096-0.327-0.145-0.68-0.145-1.06c0-0.38,0.048-0.733,0.145-1.06
			c0.097-0.327,0.245-0.61,0.445-0.85c0.2-0.24,0.45-0.43,0.75-0.57c0.3-0.14,0.65-0.21,1.05-0.21s0.75,0.07,1.05,0.21
			c0.3,0.14,0.55,0.33,0.75,0.57c0.2,0.24,0.348,0.523,0.445,0.85c0.097,0.327,0.145,0.68,0.145,1.06c0,0.38-0.048,0.733-0.145,1.06
			c-0.097,0.327-0.245,0.61-0.445,0.85c-0.2,0.24-0.45,0.428-0.75,0.565C25.874,50.433,25.524,50.501,25.124,50.501z M25.124,49.711
			c0.46,0,0.8-0.167,1.02-0.5c0.22-0.333,0.33-0.797,0.33-1.39c0-0.593-0.11-1.055-0.33-1.385c-0.22-0.33-0.56-0.495-1.02-0.495
			s-0.798,0.165-1.015,0.495c-0.217,0.33-0.325,0.792-0.325,1.385c0,0.593,0.108,1.057,0.325,1.39
			C24.326,49.545,24.664,49.711,25.124,49.711z"/>
		<path fill="#191919" d="M28.524,45.251c0.073-0.013,0.144-0.023,0.21-0.03c0.067-0.006,0.137-0.01,0.21-0.01
			c0.073,0,0.146,0.003,0.22,0.01c0.073,0.007,0.14,0.017,0.2,0.03c0.02,0.1,0.04,0.231,0.06,0.395
			c0.02,0.163,0.03,0.302,0.03,0.415c0.14-0.227,0.325-0.423,0.555-0.59s0.525-0.25,0.885-0.25c0.053,0,0.108,0.002,0.165,0.005
			s0.105,0.008,0.145,0.015c0.013,0.06,0.023,0.124,0.03,0.19c0.007,0.067,0.01,0.137,0.01,0.21c0,0.08-0.005,0.164-0.015,0.25
			c-0.01,0.087-0.021,0.17-0.035,0.25c-0.054-0.013-0.109-0.02-0.165-0.02c-0.057,0-0.102,0-0.135,0
			c-0.18,0-0.352,0.025-0.515,0.075c-0.163,0.05-0.31,0.139-0.44,0.265s-0.233,0.3-0.31,0.52s-0.115,0.503-0.115,0.85v2.55
			c-0.073,0.013-0.155,0.023-0.245,0.03c-0.09,0.007-0.172,0.01-0.245,0.01c-0.073,0-0.155-0.003-0.245-0.01
			c-0.09-0.006-0.175-0.017-0.255-0.03V45.251z"/>
		<path fill="#191919" d="M31.954,45.251c0.073-0.013,0.144-0.023,0.21-0.03c0.067-0.006,0.137-0.01,0.21-0.01
			c0.073,0,0.146,0.003,0.22,0.01c0.073,0.007,0.14,0.017,0.2,0.03c0.02,0.1,0.04,0.231,0.06,0.395
			c0.02,0.163,0.03,0.302,0.03,0.415c0.14-0.227,0.325-0.423,0.555-0.59s0.525-0.25,0.885-0.25c0.053,0,0.108,0.002,0.165,0.005
			c0.057,0.003,0.105,0.008,0.145,0.015c0.013,0.06,0.023,0.124,0.03,0.19c0.007,0.067,0.01,0.137,0.01,0.21
			c0,0.08-0.005,0.164-0.015,0.25c-0.01,0.087-0.021,0.17-0.035,0.25c-0.054-0.013-0.109-0.02-0.165-0.02c-0.057,0-0.102,0-0.135,0
			c-0.18,0-0.352,0.025-0.515,0.075c-0.163,0.05-0.31,0.139-0.44,0.265c-0.13,0.126-0.233,0.3-0.31,0.52s-0.115,0.503-0.115,0.85
			v2.55c-0.073,0.013-0.155,0.023-0.245,0.03c-0.09,0.007-0.172,0.01-0.245,0.01c-0.073,0-0.155-0.003-0.245-0.01
			c-0.09-0.006-0.175-0.017-0.255-0.03V45.251L31.954,45.251z"/>
		<path fill="#191919" d="M37.313,50.501c-0.4,0-0.75-0.068-1.05-0.205c-0.3-0.137-0.55-0.325-0.75-0.565
			c-0.2-0.24-0.349-0.523-0.445-0.85c-0.096-0.327-0.145-0.68-0.145-1.06c0-0.38,0.048-0.733,0.145-1.06
			c0.097-0.327,0.245-0.61,0.445-0.85c0.2-0.24,0.45-0.43,0.75-0.57c0.3-0.14,0.65-0.21,1.05-0.21s0.75,0.07,1.05,0.21
			c0.3,0.14,0.55,0.33,0.75,0.57c0.2,0.24,0.348,0.523,0.445,0.85c0.097,0.327,0.145,0.68,0.145,1.06c0,0.38-0.048,0.733-0.145,1.06
			c-0.097,0.327-0.245,0.61-0.445,0.85c-0.2,0.24-0.45,0.428-0.75,0.565C38.063,50.433,37.713,50.501,37.313,50.501z M37.313,49.711
			c0.46,0,0.8-0.167,1.02-0.5s0.33-0.797,0.33-1.39c0-0.593-0.11-1.055-0.33-1.385s-0.56-0.495-1.02-0.495s-0.798,0.165-1.015,0.495
			c-0.217,0.33-0.325,0.792-0.325,1.385c0,0.593,0.108,1.057,0.325,1.39C36.515,49.545,36.854,49.711,37.313,49.711z"/>
		<path fill="#191919" d="M39.984,45.251c0.093-0.013,0.187-0.023,0.28-0.03c0.093-0.006,0.177-0.01,0.25-0.01
			c0.093,0,0.188,0.003,0.285,0.01c0.096,0.007,0.182,0.017,0.255,0.03l1,4.19l1.13-4.19c0.073-0.013,0.153-0.023,0.24-0.03
			c0.086-0.006,0.176-0.01,0.27-0.01c0.106,0.007,0.198,0.012,0.275,0.015c0.077,0.003,0.151,0.012,0.225,0.025l1.12,4.12l1-4.12
			c0.073-0.013,0.147-0.023,0.22-0.03c0.073-0.006,0.153-0.01,0.24-0.01c0.074,0,0.155,0.003,0.245,0.01
			c0.09,0.007,0.182,0.017,0.275,0.03l-1.53,5.13c-0.087,0.013-0.175,0.023-0.265,0.03c-0.09,0.007-0.171,0.01-0.245,0.01
			c-0.074,0-0.154-0.003-0.24-0.01c-0.087-0.006-0.173-0.017-0.26-0.03l-1.1-3.88l-1.15,3.88c-0.094,0.013-0.185,0.023-0.275,0.03
			c-0.09,0.007-0.171,0.01-0.245,0.01c-0.074,0-0.155-0.003-0.245-0.01c-0.09-0.006-0.172-0.017-0.245-0.03L39.984,45.251z"/>
		<path fill="#191919" d="M48.604,48.062c0.013,0.56,0.158,0.97,0.435,1.23c0.276,0.26,0.685,0.39,1.225,0.39
			c0.473,0,0.923-0.083,1.35-0.25c0.054,0.1,0.097,0.222,0.13,0.365c0.033,0.144,0.053,0.285,0.06,0.425
			c-0.22,0.094-0.462,0.164-0.725,0.21c-0.264,0.047-0.555,0.07-0.875,0.07c-0.467,0-0.867-0.065-1.2-0.195
			c-0.333-0.13-0.608-0.313-0.825-0.55c-0.217-0.236-0.375-0.517-0.475-0.84s-0.15-0.678-0.15-1.065c0-0.38,0.048-0.735,0.145-1.065
			c0.097-0.33,0.245-0.616,0.445-0.86c0.2-0.243,0.452-0.437,0.755-0.58c0.303-0.143,0.662-0.215,1.075-0.215
			c0.353,0,0.663,0.06,0.93,0.18c0.267,0.12,0.49,0.285,0.67,0.495c0.18,0.21,0.317,0.46,0.41,0.75
			c0.093,0.29,0.14,0.605,0.14,0.945c0,0.093-0.003,0.191-0.01,0.295c-0.006,0.104-0.013,0.192-0.02,0.265H48.604z M51.144,47.321
			c0-0.187-0.025-0.365-0.075-0.535c-0.05-0.17-0.124-0.318-0.22-0.445c-0.097-0.126-0.22-0.228-0.37-0.305
			c-0.15-0.076-0.329-0.115-0.535-0.115c-0.407,0-0.718,0.124-0.935,0.37c-0.216,0.247-0.348,0.59-0.395,1.03H51.144z"/>
		<path fill="#191919" d="M56.424,43.051c0.073-0.013,0.157-0.023,0.25-0.03c0.093-0.007,0.173-0.01,0.24-0.01
			c0.073,0,0.155,0.003,0.245,0.01c0.09,0.006,0.171,0.017,0.245,0.03v7.19c-0.253,0.074-0.537,0.135-0.85,0.185
			c-0.313,0.05-0.664,0.075-1.05,0.075c-0.36,0-0.702-0.045-1.025-0.135c-0.323-0.09-0.605-0.238-0.845-0.445
			c-0.24-0.207-0.43-0.473-0.57-0.8s-0.21-0.73-0.21-1.21c0-0.413,0.062-0.79,0.185-1.13c0.123-0.34,0.298-0.631,0.525-0.875
			c0.227-0.243,0.499-0.432,0.815-0.565c0.316-0.133,0.668-0.2,1.055-0.2c0.173,0,0.348,0.014,0.525,0.04
			c0.177,0.027,0.332,0.06,0.465,0.1V43.051L56.424,43.051z M56.424,46.122c-0.133-0.054-0.276-0.094-0.43-0.12
			c-0.154-0.027-0.32-0.04-0.5-0.04c-0.273,0-0.51,0.05-0.71,0.15c-0.2,0.1-0.365,0.237-0.495,0.41s-0.227,0.378-0.29,0.615
			c-0.063,0.237-0.095,0.495-0.095,0.775c0.007,0.634,0.157,1.087,0.45,1.36s0.693,0.41,1.2,0.41c0.173,0,0.333-0.008,0.48-0.025
			c0.146-0.017,0.276-0.042,0.39-0.075V46.122z"/>
		<path fill="#191919" d="M60.764,43.051c0.074-0.013,0.155-0.023,0.245-0.03c0.09-0.007,0.172-0.01,0.245-0.01
			c0.073,0,0.155,0.003,0.245,0.01c0.09,0.006,0.171,0.017,0.245,0.03v5.78c0,0.187,0.017,0.333,0.05,0.44
			c0.033,0.106,0.078,0.188,0.135,0.245c0.057,0.057,0.124,0.094,0.2,0.11s0.158,0.025,0.244,0.025c0.061,0,0.129-0.003,0.205-0.01
			c0.076-0.006,0.143-0.016,0.194-0.03c0.062,0.233,0.09,0.487,0.09,0.76c-0.093,0.033-0.206,0.055-0.34,0.065
			c-0.133,0.01-0.256,0.015-0.37,0.015c-0.193,0-0.374-0.023-0.54-0.07c-0.166-0.047-0.313-0.123-0.44-0.23
			c-0.126-0.106-0.227-0.25-0.3-0.43c-0.074-0.18-0.11-0.403-0.11-0.67L60.764,43.051L60.764,43.051z"/>
		<path fill="#191919" d="M63.772,46.031h-0.648c-0.015-0.053-0.023-0.115-0.031-0.185c-0.006-0.07-0.01-0.138-0.01-0.205
			c0-0.066,0.004-0.135,0.01-0.205c0.008-0.07,0.018-0.132,0.031-0.185h1.619v5.13c-0.074,0.013-0.154,0.023-0.244,0.03
			c-0.09,0.007-0.172,0.01-0.246,0.01c-0.065,0-0.146-0.003-0.234-0.01c-0.09-0.006-0.172-0.017-0.245-0.03L63.772,46.031
			L63.772,46.031z M63.553,44.122c-0.014-0.08-0.021-0.167-0.024-0.26c-0.004-0.093-0.006-0.177-0.006-0.25
			c0-0.073,0.002-0.157,0.006-0.25c0.003-0.093,0.011-0.177,0.024-0.25c0.087-0.013,0.18-0.023,0.279-0.03
			c0.101-0.007,0.188-0.01,0.26-0.01c0.074,0,0.16,0.003,0.261,0.01c0.101,0.006,0.19,0.017,0.271,0.03
			c0.014,0.073,0.021,0.157,0.024,0.25c0.004,0.093,0.006,0.177,0.006,0.25c0,0.073-0.002,0.157-0.006,0.25
			c-0.003,0.093-0.012,0.18-0.024,0.26c-0.08,0.013-0.168,0.023-0.266,0.03c-0.097,0.007-0.182,0.01-0.255,0.01
			c-0.08,0-0.17-0.003-0.271-0.01C63.732,44.145,63.64,44.135,63.553,44.122z"/>
		<path fill="#191919" d="M68.812,49.721c0.595,0.014,1.022,0.14,1.29,0.38c0.268,0.24,0.4,0.57,0.4,0.99
			c0,0.273-0.07,0.519-0.211,0.735c-0.141,0.217-0.334,0.403-0.58,0.56c-0.246,0.157-0.539,0.277-0.875,0.36
			s-0.701,0.125-1.094,0.125c-0.688,0-1.211-0.107-1.57-0.32c-0.36-0.213-0.541-0.55-0.541-1.01c0-0.273,0.074-0.519,0.221-0.735
			c0.146-0.216,0.337-0.388,0.57-0.515c-0.135-0.087-0.246-0.195-0.336-0.325c-0.09-0.13-0.135-0.292-0.135-0.485
			c0-0.247,0.055-0.46,0.166-0.64c0.108-0.18,0.258-0.34,0.443-0.48c-0.221-0.153-0.396-0.352-0.529-0.595
			c-0.134-0.243-0.199-0.518-0.199-0.825c0-0.253,0.045-0.49,0.14-0.71c0.094-0.22,0.229-0.412,0.405-0.575
			c0.177-0.163,0.395-0.292,0.654-0.385c0.26-0.093,0.557-0.14,0.891-0.14c0.3,0,0.57,0.043,0.813,0.13
			c0.244,0.087,0.452,0.197,0.625,0.33c0.134-0.106,0.313-0.195,0.54-0.265c0.227-0.07,0.477-0.105,0.75-0.105
			c0.027,0.127,0.04,0.267,0.04,0.42c0,0.074-0.003,0.15-0.01,0.23s-0.017,0.16-0.03,0.24h-0.898c0.072,0.113,0.129,0.237,0.17,0.37
			c0.039,0.133,0.06,0.287,0.06,0.46c0,0.273-0.05,0.52-0.149,0.74c-0.101,0.22-0.242,0.409-0.426,0.565
			c-0.183,0.156-0.4,0.276-0.654,0.36c-0.254,0.083-0.529,0.125-0.83,0.125c-0.272,0-0.521-0.03-0.739-0.09
			c-0.095,0.054-0.185,0.135-0.274,0.245c-0.091,0.11-0.136,0.229-0.136,0.355c0,0.12,0.044,0.225,0.13,0.315
			c0.088,0.09,0.28,0.139,0.58,0.145L68.812,49.721z M67.463,50.511c-0.301-0.007-0.525,0.073-0.676,0.24
			c-0.149,0.167-0.226,0.366-0.226,0.6c0,0.146,0.03,0.266,0.09,0.36c0.062,0.093,0.146,0.168,0.255,0.225
			c0.11,0.056,0.24,0.096,0.391,0.12c0.149,0.023,0.314,0.035,0.496,0.035c0.533,0,0.949-0.088,1.25-0.265
			c0.299-0.177,0.449-0.398,0.449-0.665c0-0.2-0.062-0.353-0.189-0.46c-0.127-0.106-0.36-0.163-0.7-0.17L67.463,50.511z
			 M67.922,48.011c0.359,0,0.627-0.1,0.801-0.3c0.173-0.2,0.26-0.457,0.26-0.77c0-0.32-0.087-0.582-0.26-0.785
			c-0.174-0.203-0.439-0.305-0.801-0.305c-0.359,0-0.625,0.102-0.795,0.305c-0.17,0.204-0.254,0.465-0.254,0.785
			c0,0.313,0.084,0.57,0.254,0.77S67.562,48.011,67.922,48.011z"/>
		<path fill="#191919" d="M71.293,43.051c0.072-0.013,0.154-0.023,0.244-0.03s0.172-0.01,0.246-0.01c0.072,0,0.155,0.003,0.25,0.01
			c0.092,0.006,0.176,0.017,0.25,0.03v2.98c0.059-0.093,0.135-0.193,0.225-0.3s0.199-0.205,0.33-0.295
			c0.129-0.09,0.279-0.164,0.449-0.22c0.17-0.056,0.358-0.085,0.564-0.085c0.587,0,1.021,0.168,1.307,0.505
			c0.282,0.337,0.424,0.835,0.424,1.495v3.25c-0.072,0.013-0.154,0.023-0.244,0.03c-0.09,0.007-0.172,0.01-0.246,0.01
			c-0.072,0-0.154-0.003-0.244-0.01c-0.09-0.006-0.172-0.017-0.245-0.03v-2.98c0-0.473-0.078-0.822-0.233-1.045
			c-0.158-0.223-0.396-0.335-0.716-0.335c-0.181,0-0.354,0.032-0.521,0.095c-0.168,0.063-0.313,0.164-0.439,0.3
			c-0.127,0.137-0.229,0.315-0.301,0.535c-0.073,0.22-0.109,0.487-0.109,0.8v2.63c-0.072,0.013-0.156,0.023-0.25,0.03
			c-0.094,0.007-0.177,0.01-0.25,0.01c-0.066,0-0.146-0.003-0.24-0.01c-0.094-0.006-0.176-0.017-0.25-0.03V43.051L71.293,43.051z"/>
		<path fill="#191919" d="M76.984,46.042h-0.78l-0.039-0.14l1.719-1.92h0.08v1.27h1.301c0.027,0.113,0.04,0.24,0.04,0.38
			c0,0.073-0.003,0.144-0.011,0.21c-0.006,0.067-0.017,0.133-0.029,0.2h-1.301v2.34c0,0.28,0.013,0.503,0.035,0.67
			c0.023,0.167,0.063,0.295,0.121,0.385c0.057,0.09,0.133,0.15,0.229,0.18c0.096,0.03,0.218,0.045,0.364,0.045
			c0.113,0,0.221-0.008,0.32-0.025c0.098-0.017,0.189-0.035,0.27-0.055c0.047,0.133,0.074,0.27,0.085,0.41
			c0.011,0.14,0.016,0.264,0.016,0.37c-0.134,0.033-0.272,0.058-0.42,0.075c-0.146,0.017-0.304,0.025-0.471,0.025
			c-0.479,0-0.854-0.117-1.125-0.35c-0.271-0.233-0.404-0.62-0.404-1.16V46.042z"/>
		<path fill="#191919" d="M80.383,46.031h-0.648c-0.014-0.053-0.023-0.115-0.029-0.185c-0.008-0.07-0.011-0.138-0.011-0.205
			c0-0.066,0.003-0.135,0.011-0.205c0.006-0.07,0.017-0.132,0.029-0.185h1.62v5.13c-0.073,0.013-0.155,0.023-0.245,0.03
			c-0.09,0.007-0.172,0.01-0.244,0.01c-0.066,0-0.146-0.003-0.236-0.01c-0.09-0.006-0.172-0.017-0.244-0.03v-4.35H80.383z
			 M80.165,44.122c-0.015-0.08-0.021-0.167-0.024-0.26c-0.004-0.093-0.007-0.177-0.007-0.25c0-0.073,0.003-0.157,0.007-0.25
			c0.003-0.093,0.011-0.177,0.024-0.25c0.086-0.013,0.18-0.023,0.279-0.03s0.188-0.01,0.26-0.01c0.073,0,0.16,0.003,0.26,0.01
			c0.102,0.006,0.19,0.017,0.271,0.03c0.014,0.073,0.021,0.157,0.023,0.25c0.005,0.093,0.007,0.177,0.007,0.25
			c0,0.073-0.002,0.157-0.007,0.25c-0.002,0.093-0.012,0.18-0.023,0.26c-0.08,0.013-0.169,0.023-0.266,0.03
			c-0.098,0.007-0.182,0.01-0.256,0.01c-0.08,0-0.17-0.003-0.27-0.01C80.344,44.145,80.25,44.135,80.165,44.122z"/>
		<path fill="#191919" d="M82.674,45.251c0.072-0.013,0.146-0.023,0.215-0.03c0.07-0.006,0.143-0.01,0.216-0.01
			s0.142,0.003,0.204,0.01c0.062,0.007,0.132,0.017,0.205,0.03c0.021,0.1,0.04,0.235,0.061,0.405c0.021,0.17,0.03,0.312,0.03,0.425
			c0.065-0.113,0.151-0.227,0.255-0.34c0.104-0.113,0.223-0.215,0.354-0.305c0.135-0.09,0.287-0.164,0.461-0.22
			c0.174-0.057,0.363-0.085,0.57-0.085c0.586,0,1.02,0.168,1.299,0.505c0.281,0.337,0.42,0.835,0.42,1.495v3.25
			c-0.072,0.013-0.155,0.023-0.25,0.03c-0.094,0.007-0.176,0.01-0.25,0.01c-0.072,0-0.154-0.003-0.244-0.01
			c-0.09-0.006-0.172-0.017-0.245-0.03v-2.98c0-0.473-0.073-0.822-0.22-1.045c-0.147-0.223-0.381-0.335-0.7-0.335
			c-0.187,0-0.363,0.033-0.529,0.1c-0.167,0.066-0.313,0.17-0.44,0.31c-0.127,0.14-0.229,0.322-0.305,0.545
			s-0.115,0.492-0.115,0.805v2.6c-0.072,0.013-0.154,0.023-0.244,0.03c-0.09,0.007-0.172,0.01-0.246,0.01
			c-0.072,0-0.155-0.003-0.25-0.01c-0.092-0.006-0.176-0.017-0.25-0.03V45.251L82.674,45.251z"/>
		<path fill="#191919" d="M90.915,49.721c0.594,0.014,1.022,0.14,1.289,0.38c0.268,0.24,0.4,0.57,0.4,0.99
			c0,0.273-0.07,0.519-0.21,0.735c-0.142,0.217-0.334,0.403-0.58,0.56c-0.247,0.157-0.539,0.277-0.875,0.36
			c-0.337,0.083-0.702,0.125-1.095,0.125c-0.688,0-1.211-0.107-1.57-0.32c-0.359-0.213-0.54-0.55-0.54-1.01
			c0-0.273,0.073-0.519,0.22-0.735c0.146-0.216,0.338-0.388,0.57-0.515c-0.134-0.087-0.245-0.195-0.335-0.325
			c-0.09-0.13-0.135-0.292-0.135-0.485c0-0.247,0.055-0.46,0.165-0.64c0.109-0.18,0.258-0.34,0.443-0.48
			c-0.22-0.153-0.396-0.352-0.529-0.595c-0.133-0.243-0.199-0.518-0.199-0.825c0-0.253,0.046-0.49,0.141-0.71
			c0.094-0.22,0.229-0.412,0.404-0.575c0.178-0.163,0.395-0.292,0.654-0.385c0.261-0.093,0.557-0.14,0.891-0.14
			c0.301,0,0.571,0.043,0.814,0.13c0.244,0.087,0.451,0.197,0.625,0.33c0.134-0.106,0.312-0.195,0.539-0.265
			c0.228-0.07,0.478-0.105,0.75-0.105c0.027,0.127,0.041,0.267,0.041,0.42c0,0.074-0.004,0.15-0.01,0.23
			c-0.008,0.08-0.018,0.16-0.031,0.24h-0.898c0.072,0.113,0.13,0.237,0.17,0.37c0.04,0.133,0.061,0.287,0.061,0.46
			c0,0.273-0.051,0.52-0.149,0.74c-0.101,0.22-0.242,0.409-0.427,0.565c-0.182,0.156-0.4,0.276-0.653,0.36
			c-0.254,0.083-0.53,0.125-0.83,0.125c-0.272,0-0.521-0.03-0.739-0.09c-0.095,0.054-0.186,0.135-0.275,0.245
			c-0.09,0.11-0.135,0.229-0.135,0.355c0,0.12,0.043,0.225,0.129,0.315c0.088,0.09,0.281,0.139,0.58,0.145L90.915,49.721z
			 M89.564,50.511c-0.3-0.007-0.524,0.073-0.675,0.24s-0.227,0.366-0.227,0.6c0,0.146,0.03,0.266,0.09,0.36
			c0.062,0.093,0.146,0.168,0.256,0.225c0.109,0.056,0.24,0.096,0.391,0.12c0.148,0.023,0.314,0.035,0.495,0.035
			c0.532,0,0.95-0.088,1.25-0.265c0.3-0.177,0.45-0.398,0.45-0.665c0-0.2-0.063-0.353-0.19-0.46c-0.127-0.106-0.36-0.163-0.7-0.17
			L89.564,50.511z M90.024,48.011c0.359,0,0.626-0.1,0.801-0.3c0.172-0.2,0.26-0.457,0.26-0.77c0-0.32-0.088-0.582-0.26-0.785
			c-0.175-0.203-0.441-0.305-0.801-0.305s-0.625,0.102-0.795,0.305c-0.17,0.204-0.255,0.465-0.255,0.785
			c0,0.313,0.085,0.57,0.255,0.77S89.665,48.011,90.024,48.011z"/>
		<path fill="#191919" d="M95.444,43.051c0.073-0.013,0.155-0.023,0.245-0.03s0.172-0.01,0.245-0.01c0.072,0,0.156,0.003,0.25,0.01
			c0.094,0.006,0.177,0.017,0.25,0.03v7.33c-0.073,0.013-0.156,0.023-0.25,0.03c-0.094,0.007-0.178,0.01-0.25,0.01
			c-0.073,0-0.155-0.003-0.245-0.01c-0.09-0.006-0.172-0.017-0.245-0.03V43.051z M96.704,47.721l1.631-2.47
			c0.086-0.013,0.174-0.023,0.261-0.03c0.086-0.006,0.177-0.01,0.271-0.01c0.1,0,0.194,0.003,0.284,0.01
			c0.091,0.007,0.183,0.017,0.274,0.03l-1.629,2.4l1.908,2.73c-0.093,0.013-0.183,0.023-0.27,0.03
			c-0.087,0.007-0.178,0.01-0.27,0.01c-0.095,0-0.188-0.003-0.281-0.01c-0.094-0.006-0.187-0.017-0.279-0.03L96.704,47.721z"/>
		<path fill="#191919" d="M100.633,46.031h-0.648c-0.014-0.053-0.023-0.115-0.029-0.185c-0.008-0.07-0.011-0.138-0.011-0.205
			c0-0.066,0.003-0.135,0.011-0.205c0.006-0.07,0.017-0.132,0.029-0.185h1.62v5.13c-0.073,0.013-0.155,0.023-0.245,0.03
			c-0.09,0.007-0.172,0.01-0.244,0.01c-0.066,0-0.146-0.003-0.236-0.01c-0.09-0.006-0.172-0.017-0.244-0.03v-4.35H100.633z
			 M100.415,44.122c-0.015-0.08-0.021-0.167-0.024-0.26c-0.004-0.093-0.007-0.177-0.007-0.25c0-0.073,0.003-0.157,0.007-0.25
			c0.003-0.093,0.011-0.177,0.024-0.25c0.086-0.013,0.18-0.023,0.279-0.03s0.188-0.01,0.26-0.01c0.073,0,0.16,0.003,0.26,0.01
			c0.102,0.006,0.19,0.017,0.271,0.03c0.014,0.073,0.021,0.157,0.023,0.25c0.005,0.093,0.007,0.177,0.007,0.25
			c0,0.073-0.002,0.157-0.007,0.25c-0.002,0.093-0.012,0.18-0.023,0.26c-0.08,0.013-0.169,0.023-0.266,0.03
			c-0.098,0.007-0.182,0.01-0.256,0.01c-0.08,0-0.17-0.003-0.27-0.01C100.594,44.145,100.5,44.135,100.415,44.122z"/>
		<path fill="#191919" d="M103.114,46.042h-0.779l-0.041-0.14l1.721-1.92h0.08v1.27h1.3c0.026,0.113,0.04,0.24,0.04,0.38
			c0,0.073-0.003,0.144-0.01,0.21c-0.008,0.067-0.018,0.133-0.03,0.2h-1.3v2.34c0,0.28,0.012,0.503,0.035,0.67
			c0.022,0.167,0.062,0.295,0.119,0.385c0.058,0.09,0.133,0.15,0.23,0.18c0.096,0.03,0.218,0.045,0.363,0.045
			c0.113,0,0.222-0.008,0.32-0.025c0.1-0.017,0.19-0.035,0.271-0.055c0.047,0.133,0.075,0.27,0.085,0.41
			c0.011,0.14,0.016,0.264,0.016,0.37c-0.134,0.033-0.272,0.058-0.42,0.075c-0.146,0.017-0.304,0.025-0.471,0.025
			c-0.479,0-0.854-0.117-1.125-0.35c-0.27-0.233-0.404-0.62-0.404-1.16V46.042z"/>
		<path fill="#191919" d="M19.379,58.032h-0.84c-0.027-0.107-0.04-0.238-0.04-0.392c0-0.146,0.013-0.276,0.04-0.39h0.84v-0.36
			c0-0.634,0.158-1.114,0.475-1.444c0.316-0.33,0.778-0.496,1.385-0.496c0.167,0,0.313,0.01,0.44,0.025
			c0.126,0.018,0.247,0.042,0.36,0.074c-0.014,0.168-0.032,0.311-0.055,0.432c-0.023,0.119-0.055,0.242-0.095,0.369
			c-0.067-0.014-0.145-0.027-0.235-0.045c-0.09-0.018-0.198-0.025-0.325-0.025c-0.147,0-0.278,0.016-0.395,0.045
			c-0.117,0.031-0.217,0.088-0.3,0.172c-0.083,0.082-0.148,0.199-0.195,0.35s-0.07,0.342-0.07,0.574v0.33h1.31
			c0.02,0.135,0.03,0.271,0.03,0.41c0,0.127-0.01,0.25-0.03,0.371h-1.31v4.35c-0.074,0.014-0.155,0.022-0.245,0.029
			c-0.09,0.006-0.172,0.01-0.245,0.01c-0.073,0-0.157-0.004-0.25-0.01c-0.093-0.007-0.177-0.017-0.25-0.029V58.032z"/>
		<path fill="#191919" d="M22.439,57.25c0.073-0.014,0.144-0.022,0.21-0.029c0.067-0.008,0.137-0.01,0.21-0.01
			c0.073,0,0.146,0.002,0.22,0.01c0.074,0.007,0.14,0.017,0.2,0.029c0.02,0.101,0.04,0.231,0.06,0.396s0.03,0.302,0.03,0.415
			c0.14-0.227,0.325-0.423,0.555-0.59s0.525-0.25,0.885-0.25c0.053,0,0.108,0.002,0.165,0.005c0.057,0.004,0.105,0.009,0.145,0.017
			c0.013,0.059,0.023,0.123,0.03,0.188c0.007,0.067,0.01,0.137,0.01,0.21c0,0.08-0.005,0.164-0.015,0.25
			c-0.01,0.087-0.021,0.17-0.035,0.25c-0.054-0.014-0.109-0.02-0.165-0.02c-0.057,0-0.102,0-0.135,0
			c-0.18,0-0.352,0.023-0.515,0.074s-0.31,0.139-0.44,0.266s-0.233,0.299-0.31,0.52s-0.115,0.504-0.115,0.852v2.549
			c-0.073,0.015-0.155,0.023-0.245,0.031c-0.09,0.006-0.172,0.01-0.245,0.01c-0.073,0-0.155-0.004-0.245-0.01
			c-0.09-0.008-0.175-0.018-0.255-0.031V57.25z"/>
		<path fill="#191919" d="M27.799,62.5c-0.4,0-0.75-0.067-1.05-0.205c-0.3-0.137-0.55-0.324-0.75-0.564
			c-0.2-0.238-0.349-0.521-0.445-0.85c-0.097-0.326-0.145-0.68-0.145-1.061s0.048-0.732,0.145-1.061
			c0.097-0.326,0.245-0.61,0.445-0.85c0.2-0.24,0.45-0.432,0.75-0.57c0.3-0.141,0.65-0.211,1.05-0.211c0.4,0,0.75,0.07,1.05,0.211
			c0.3,0.14,0.55,0.33,0.75,0.57c0.2,0.238,0.348,0.522,0.445,0.85c0.097,0.326,0.145,0.68,0.145,1.061s-0.048,0.733-0.145,1.061
			c-0.097,0.326-0.245,0.609-0.445,0.85c-0.2,0.24-0.45,0.43-0.75,0.564C28.549,62.433,28.199,62.5,27.799,62.5z M27.799,61.711
			c0.46,0,0.8-0.168,1.02-0.5c0.22-0.334,0.33-0.797,0.33-1.391s-0.11-1.056-0.33-1.386c-0.22-0.33-0.56-0.495-1.02-0.495
			s-0.798,0.165-1.015,0.495c-0.217,0.33-0.325,0.792-0.325,1.386s0.108,1.057,0.325,1.391
			C27.001,61.543,27.339,61.711,27.799,61.711z"/>
		<path fill="#191919" d="M31.199,57.25c0.073-0.014,0.145-0.022,0.215-0.029c0.07-0.008,0.142-0.01,0.215-0.01
			c0.073,0,0.142,0.002,0.205,0.01c0.063,0.007,0.131,0.017,0.205,0.029c0.02,0.101,0.04,0.231,0.06,0.396s0.03,0.302,0.03,0.415
			c0.06-0.12,0.135-0.234,0.225-0.346c0.09-0.11,0.196-0.207,0.32-0.295c0.124-0.086,0.265-0.155,0.425-0.209
			c0.16-0.055,0.336-0.08,0.53-0.08c0.4,0,0.708,0.08,0.925,0.244c0.217,0.164,0.382,0.393,0.495,0.686
			c0.067-0.113,0.148-0.227,0.245-0.34s0.205-0.213,0.325-0.301c0.12-0.086,0.256-0.155,0.41-0.209
			c0.154-0.055,0.327-0.08,0.52-0.08c0.593,0,1.025,0.166,1.295,0.5c0.27,0.332,0.405,0.826,0.405,1.479v3.271
			c-0.074,0.014-0.157,0.022-0.25,0.029c-0.094,0.006-0.177,0.01-0.25,0.01c-0.074,0-0.155-0.004-0.245-0.01
			c-0.09-0.007-0.172-0.017-0.245-0.029V59.4c0-0.46-0.07-0.805-0.21-1.034c-0.14-0.23-0.37-0.346-0.69-0.346
			c-0.34,0-0.615,0.124-0.825,0.37c-0.21,0.247-0.315,0.61-0.315,1.09v2.899c-0.073,0.015-0.155,0.023-0.245,0.031
			c-0.09,0.006-0.172,0.01-0.245,0.01c-0.074,0-0.155-0.004-0.245-0.01c-0.09-0.008-0.172-0.018-0.245-0.031v-3.049
			c0-0.447-0.066-0.783-0.2-1.006c-0.134-0.224-0.347-0.334-0.64-0.334c-0.167,0-0.323,0.035-0.47,0.108
			c-0.146,0.073-0.275,0.185-0.385,0.33s-0.197,0.332-0.26,0.556c-0.063,0.223-0.095,0.48-0.095,0.773v2.621
			c-0.073,0.014-0.155,0.022-0.245,0.029c-0.09,0.006-0.172,0.01-0.245,0.01c-0.073,0-0.157-0.004-0.25-0.01
			c-0.093-0.007-0.177-0.017-0.25-0.029V57.25z"/>
		<path fill="#191919" d="M44.239,59c0-0.394-0.1-0.666-0.3-0.819s-0.49-0.229-0.87-0.229c-0.233,0-0.452,0.02-0.655,0.055
			c-0.204,0.037-0.402,0.086-0.595,0.146c-0.126-0.22-0.19-0.481-0.19-0.79c0.227-0.072,0.477-0.129,0.75-0.17
			c0.273-0.039,0.537-0.061,0.79-0.061c0.667,0,1.173,0.152,1.52,0.455c0.347,0.305,0.52,0.789,0.52,1.455v3.211
			c-0.233,0.054-0.517,0.107-0.85,0.164c-0.333,0.058-0.673,0.086-1.02,0.086c-0.327,0-0.622-0.03-0.885-0.09
			c-0.264-0.062-0.487-0.158-0.67-0.291c-0.184-0.134-0.325-0.304-0.425-0.51c-0.1-0.207-0.15-0.457-0.15-0.75
			c0-0.287,0.058-0.539,0.175-0.756c0.117-0.216,0.275-0.396,0.475-0.54c0.2-0.144,0.43-0.25,0.69-0.319
			c0.26-0.07,0.534-0.104,0.82-0.104c0.213,0,0.388,0.005,0.525,0.017c0.137,0.01,0.251,0.021,0.345,0.033L44.239,59L44.239,59z
			 M44.239,59.971c-0.1-0.014-0.227-0.026-0.38-0.04c-0.153-0.013-0.283-0.021-0.39-0.021c-0.414,0-0.729,0.076-0.945,0.229
			c-0.216,0.153-0.325,0.387-0.325,0.7c0,0.199,0.036,0.355,0.11,0.47c0.073,0.112,0.165,0.2,0.275,0.261s0.231,0.098,0.365,0.109
			c0.133,0.014,0.26,0.021,0.38,0.021c0.153,0,0.312-0.01,0.475-0.025c0.163-0.018,0.308-0.041,0.435-0.075V59.971z"/>
		<path fill="#191919" d="M48.49,57.25c0.073-0.014,0.145-0.022,0.215-0.029c0.07-0.008,0.142-0.01,0.215-0.01
			c0.073,0,0.142,0.002,0.205,0.01c0.063,0.007,0.131,0.017,0.205,0.029c0.02,0.101,0.04,0.235,0.06,0.406
			c0.02,0.17,0.03,0.311,0.03,0.424c0.066-0.113,0.151-0.227,0.255-0.34s0.222-0.216,0.355-0.306c0.133-0.09,0.287-0.163,0.46-0.22
			c0.173-0.057,0.363-0.086,0.57-0.086c0.586,0,1.02,0.17,1.3,0.506c0.28,0.337,0.42,0.835,0.42,1.494v3.25
			c-0.073,0.015-0.157,0.023-0.25,0.031c-0.093,0.006-0.177,0.01-0.25,0.01c-0.073,0-0.155-0.004-0.245-0.01
			c-0.09-0.008-0.172-0.018-0.245-0.031V59.4c0-0.474-0.074-0.821-0.22-1.045s-0.38-0.335-0.7-0.335
			c-0.187,0-0.364,0.034-0.53,0.102c-0.166,0.066-0.313,0.17-0.44,0.31c-0.126,0.142-0.229,0.321-0.305,0.545
			c-0.077,0.224-0.115,0.491-0.115,0.806v2.6c-0.073,0.015-0.155,0.023-0.245,0.031c-0.09,0.006-0.172,0.01-0.245,0.01
			c-0.073,0-0.157-0.004-0.25-0.01c-0.093-0.008-0.177-0.018-0.25-0.031V57.25z"/>
		<path fill="#191919" d="M54.72,60.061c0.013,0.561,0.158,0.971,0.435,1.23c0.276,0.26,0.685,0.39,1.225,0.39
			c0.473,0,0.923-0.083,1.35-0.25c0.054,0.101,0.097,0.222,0.13,0.364c0.033,0.145,0.053,0.285,0.06,0.426
			c-0.22,0.094-0.462,0.162-0.725,0.21C56.931,62.478,56.64,62.5,56.32,62.5c-0.467,0-0.867-0.064-1.2-0.194
			s-0.608-0.313-0.825-0.55c-0.217-0.236-0.375-0.518-0.475-0.84c-0.1-0.324-0.15-0.68-0.15-1.065c0-0.38,0.048-0.733,0.145-1.063
			s0.245-0.617,0.445-0.861c0.2-0.242,0.452-0.436,0.755-0.579c0.303-0.144,0.662-0.216,1.075-0.216c0.353,0,0.663,0.061,0.93,0.182
			c0.267,0.119,0.49,0.284,0.67,0.494s0.317,0.46,0.41,0.75c0.093,0.29,0.14,0.605,0.14,0.945c0,0.094-0.003,0.19-0.01,0.295
			c-0.006,0.104-0.013,0.19-0.02,0.265L54.72,60.061L54.72,60.061z M57.26,59.321c0-0.188-0.025-0.365-0.075-0.535
			c-0.05-0.17-0.124-0.318-0.22-0.445c-0.097-0.127-0.22-0.229-0.37-0.305c-0.15-0.076-0.329-0.115-0.535-0.115
			c-0.407,0-0.718,0.123-0.935,0.371c-0.216,0.246-0.348,0.59-0.395,1.029H57.26z"/>
		<path fill="#191919" d="M61.959,59c0-0.394-0.101-0.666-0.3-0.819c-0.2-0.153-0.49-0.229-0.87-0.229
			c-0.233,0-0.452,0.02-0.655,0.055c-0.204,0.037-0.402,0.086-0.595,0.146c-0.126-0.22-0.19-0.481-0.19-0.79
			c0.227-0.072,0.477-0.129,0.75-0.17c0.273-0.039,0.537-0.061,0.79-0.061c0.667,0,1.173,0.152,1.521,0.455
			c0.346,0.305,0.52,0.789,0.52,1.455v3.211c-0.234,0.054-0.518,0.107-0.85,0.164c-0.333,0.058-0.673,0.086-1.021,0.086
			c-0.327,0-0.622-0.03-0.885-0.09c-0.264-0.062-0.487-0.158-0.67-0.291c-0.184-0.134-0.325-0.304-0.425-0.51
			c-0.1-0.207-0.15-0.457-0.15-0.75c0-0.287,0.058-0.539,0.175-0.756c0.117-0.216,0.275-0.396,0.475-0.54
			c0.2-0.144,0.43-0.25,0.69-0.319c0.26-0.07,0.534-0.104,0.82-0.104c0.213,0,0.388,0.005,0.525,0.017
			c0.137,0.01,0.251,0.021,0.344,0.033V59L61.959,59z M61.959,59.971c-0.101-0.014-0.228-0.026-0.38-0.04
			c-0.153-0.013-0.283-0.021-0.39-0.021c-0.414,0-0.729,0.076-0.945,0.229c-0.216,0.153-0.325,0.387-0.325,0.7
			c0,0.199,0.036,0.355,0.11,0.47c0.073,0.112,0.165,0.2,0.275,0.261c0.11,0.061,0.231,0.098,0.365,0.109
			c0.133,0.014,0.26,0.021,0.38,0.021c0.153,0,0.312-0.01,0.475-0.025c0.163-0.018,0.308-0.041,0.436-0.075V59.971z"/>
		<path fill="#191919" d="M64.129,57.25c0.072-0.014,0.144-0.022,0.209-0.029c0.066-0.008,0.138-0.01,0.211-0.01
			c0.072,0,0.146,0.002,0.221,0.01c0.072,0.007,0.141,0.017,0.199,0.029c0.021,0.101,0.039,0.231,0.061,0.396
			c0.02,0.164,0.03,0.302,0.03,0.415c0.14-0.227,0.323-0.423,0.556-0.59c0.229-0.167,0.523-0.25,0.885-0.25
			c0.054,0,0.107,0.002,0.164,0.005c0.058,0.004,0.105,0.009,0.146,0.017c0.014,0.059,0.021,0.123,0.029,0.188
			c0.007,0.067,0.01,0.137,0.01,0.21c0,0.08-0.005,0.164-0.016,0.25c-0.01,0.087-0.021,0.17-0.035,0.25
			c-0.053-0.014-0.107-0.02-0.164-0.02s-0.102,0-0.135,0c-0.181,0-0.353,0.023-0.516,0.074c-0.164,0.051-0.311,0.139-0.439,0.266
			s-0.233,0.299-0.311,0.52c-0.076,0.221-0.115,0.504-0.115,0.852v2.549c-0.072,0.015-0.154,0.023-0.244,0.031
			c-0.09,0.006-0.172,0.01-0.246,0.01c-0.072,0-0.154-0.004-0.244-0.01c-0.09-0.008-0.176-0.018-0.256-0.031V57.25L64.129,57.25z"/>
		<path fill="#191919" d="M67.549,55.051c0.072-0.014,0.154-0.023,0.244-0.03s0.172-0.011,0.246-0.011
			c0.072,0,0.155,0.004,0.25,0.011c0.092,0.006,0.176,0.017,0.25,0.03v2.82c0.119-0.201,0.307-0.373,0.56-0.521
			c0.254-0.146,0.562-0.221,0.92-0.221c0.308,0,0.59,0.051,0.851,0.149c0.26,0.101,0.483,0.257,0.67,0.466
			c0.188,0.211,0.332,0.478,0.436,0.801c0.104,0.322,0.154,0.705,0.154,1.145c0,0.881-0.248,1.568-0.744,2.064
			c-0.497,0.498-1.213,0.746-2.145,0.746c-0.295,0-0.597-0.028-0.906-0.086c-0.311-0.057-0.571-0.121-0.785-0.194V55.051
			L67.549,55.051z M68.54,61.551c0.119,0.039,0.248,0.068,0.385,0.084c0.137,0.018,0.277,0.025,0.425,0.025
			c0.247,0,0.476-0.037,0.687-0.115c0.209-0.075,0.391-0.192,0.545-0.35c0.152-0.156,0.273-0.357,0.363-0.601
			c0.092-0.243,0.137-0.531,0.137-0.865c0-0.554-0.098-0.981-0.291-1.29c-0.192-0.307-0.514-0.46-0.959-0.46
			c-0.154,0-0.307,0.024-0.455,0.075c-0.15,0.05-0.289,0.13-0.416,0.24c-0.127,0.109-0.229,0.256-0.306,0.439
			c-0.075,0.184-0.114,0.404-0.114,0.664V61.551L68.54,61.551z"/>
		<path fill="#191919" d="M74.819,62.391c-0.054,0-0.107,0.002-0.165,0.005c-0.057,0.004-0.11,0.005-0.165,0.005
			c-0.066,0-0.137-0.001-0.21-0.005c-0.073-0.003-0.133-0.008-0.18-0.015l-1.7-5.131c0.087-0.014,0.178-0.021,0.271-0.024
			c0.093-0.003,0.18-0.005,0.26-0.005c0.086,0,0.184,0.002,0.29,0.005c0.106,0.004,0.196,0.012,0.271,0.024l1.42,4.771l1.471-4.771
			c0.14-0.02,0.303-0.029,0.488-0.029c0.073,0,0.157,0.002,0.25,0.005c0.094,0.004,0.188,0.012,0.28,0.024l-1.989,6.17
			c-0.094,0.273-0.189,0.504-0.291,0.69c-0.1,0.187-0.213,0.337-0.34,0.449s-0.269,0.192-0.425,0.239
			c-0.155,0.048-0.339,0.07-0.545,0.07c-0.153,0-0.306-0.012-0.455-0.035c-0.149-0.022-0.28-0.051-0.396-0.084
			c0-0.153,0.014-0.291,0.041-0.41c0.025-0.12,0.065-0.24,0.119-0.36c0.061,0.021,0.142,0.042,0.244,0.065
			c0.104,0.022,0.215,0.035,0.336,0.035c0.086,0,0.168-0.01,0.244-0.025c0.077-0.018,0.148-0.051,0.215-0.1
			c0.067-0.051,0.129-0.123,0.187-0.215c0.057-0.095,0.11-0.222,0.165-0.381L74.819,62.391z"/>
		<path fill="#191919" d="M80.23,55.191c0.073-0.013,0.151-0.022,0.235-0.03c0.082-0.006,0.171-0.01,0.265-0.01
			c0.087,0,0.174,0.003,0.261,0.01c0.086,0.008,0.17,0.018,0.25,0.03v6.29h2.819c0.015,0.074,0.021,0.15,0.024,0.23
			s0.006,0.152,0.006,0.22c0,0.159-0.01,0.312-0.03,0.45h-3.83V55.191z"/>
		<path fill="#191919" d="M85.551,60.061c0.014,0.561,0.158,0.971,0.435,1.23c0.277,0.26,0.687,0.39,1.226,0.39
			c0.474,0,0.924-0.083,1.351-0.25c0.054,0.101,0.097,0.222,0.13,0.364c0.033,0.144,0.055,0.285,0.061,0.426
			c-0.221,0.094-0.461,0.162-0.726,0.21c-0.263,0.047-0.555,0.069-0.875,0.069c-0.467,0-0.866-0.064-1.198-0.194
			c-0.334-0.13-0.608-0.313-0.826-0.55c-0.217-0.237-0.375-0.518-0.476-0.84c-0.101-0.324-0.149-0.68-0.149-1.065
			c0-0.38,0.049-0.733,0.146-1.063s0.245-0.617,0.444-0.861c0.201-0.242,0.451-0.436,0.756-0.579
			c0.304-0.144,0.66-0.216,1.074-0.216c0.354,0,0.664,0.061,0.931,0.182c0.267,0.119,0.489,0.284,0.67,0.494s0.315,0.46,0.41,0.75
			c0.094,0.29,0.14,0.605,0.14,0.945c0,0.094-0.003,0.19-0.01,0.295c-0.007,0.104-0.014,0.19-0.02,0.265L85.551,60.061
			L85.551,60.061z M88.09,59.321c0-0.188-0.024-0.365-0.074-0.535c-0.051-0.17-0.123-0.318-0.221-0.445
			c-0.096-0.127-0.219-0.229-0.369-0.305s-0.328-0.115-0.535-0.115c-0.406,0-0.719,0.123-0.936,0.371
			c-0.217,0.246-0.349,0.59-0.396,1.029H88.09z"/>
		<path fill="#191919" d="M90.081,57.25c0.072-0.014,0.146-0.022,0.215-0.029c0.07-0.008,0.142-0.01,0.216-0.01
			c0.073,0,0.141,0.002,0.204,0.01c0.062,0.007,0.132,0.017,0.205,0.029c0.021,0.101,0.039,0.235,0.061,0.406
			c0.02,0.17,0.03,0.311,0.03,0.424c0.065-0.113,0.151-0.227,0.255-0.34s0.222-0.216,0.354-0.306c0.135-0.09,0.287-0.163,0.461-0.22
			s0.362-0.086,0.569-0.086c0.587,0,1.021,0.17,1.3,0.506c0.28,0.337,0.42,0.835,0.42,1.494v3.25
			c-0.072,0.015-0.156,0.023-0.25,0.031c-0.094,0.006-0.177,0.01-0.25,0.01c-0.072,0-0.154-0.004-0.244-0.01
			c-0.09-0.008-0.172-0.018-0.246-0.031V59.4c0-0.474-0.072-0.821-0.219-1.045s-0.381-0.335-0.701-0.335
			c-0.187,0-0.362,0.034-0.528,0.102c-0.167,0.065-0.313,0.17-0.44,0.31c-0.127,0.142-0.229,0.321-0.305,0.545
			c-0.077,0.224-0.115,0.491-0.115,0.806v2.6c-0.072,0.015-0.154,0.023-0.244,0.031c-0.091,0.006-0.173,0.01-0.246,0.01
			c-0.072,0-0.156-0.004-0.25-0.01c-0.093-0.008-0.177-0.018-0.25-0.031V57.25L90.081,57.25z"/>
		<path fill="#191919" d="M98.86,55.051c0.073-0.014,0.156-0.023,0.25-0.03s0.174-0.011,0.24-0.011c0.072,0,0.154,0.004,0.245,0.011
			c0.09,0.006,0.171,0.017,0.245,0.03v7.189c-0.254,0.073-0.537,0.135-0.852,0.186c-0.314,0.05-0.662,0.074-1.05,0.074
			c-0.36,0-0.701-0.045-1.024-0.135c-0.324-0.091-0.604-0.238-0.846-0.445c-0.24-0.207-0.43-0.474-0.568-0.799
			c-0.142-0.328-0.211-0.73-0.211-1.211c0-0.412,0.062-0.789,0.186-1.129c0.123-0.342,0.298-0.633,0.525-0.875
			c0.227-0.244,0.498-0.433,0.813-0.566c0.315-0.133,0.668-0.199,1.056-0.199c0.174,0,0.348,0.014,0.524,0.04
			s0.332,0.062,0.465,0.101L98.86,55.051L98.86,55.051z M98.86,58.122c-0.133-0.055-0.275-0.095-0.43-0.121
			c-0.154-0.025-0.32-0.039-0.5-0.039c-0.273,0-0.51,0.049-0.71,0.149s-0.365,0.236-0.495,0.409c-0.13,0.174-0.227,0.379-0.29,0.615
			s-0.095,0.494-0.095,0.775c0.006,0.633,0.156,1.086,0.449,1.358s0.692,0.41,1.199,0.41c0.174,0,0.334-0.009,0.48-0.024
			s0.275-0.042,0.39-0.074L98.86,58.122L98.86,58.122z"/>
		<path fill="#191919" d="M101.141,57.25c0.072-0.014,0.145-0.022,0.21-0.029c0.065-0.008,0.137-0.01,0.21-0.01
			c0.072,0,0.146,0.002,0.221,0.01c0.073,0.007,0.141,0.017,0.199,0.029c0.021,0.101,0.04,0.231,0.061,0.396s0.03,0.302,0.03,0.415
			c0.14-0.227,0.324-0.423,0.556-0.59c0.229-0.167,0.523-0.25,0.885-0.25c0.054,0,0.107,0.002,0.164,0.005
			c0.058,0.004,0.105,0.009,0.146,0.017c0.014,0.059,0.022,0.123,0.029,0.188c0.007,0.067,0.01,0.137,0.01,0.21
			c0,0.08-0.005,0.164-0.015,0.25c-0.011,0.087-0.021,0.17-0.035,0.25c-0.054-0.014-0.108-0.02-0.165-0.02s-0.102,0-0.135,0
			c-0.18,0-0.352,0.023-0.516,0.074s-0.311,0.139-0.439,0.266s-0.232,0.299-0.311,0.52c-0.076,0.221-0.115,0.504-0.115,0.852v2.549
			c-0.072,0.015-0.154,0.023-0.244,0.031c-0.09,0.006-0.172,0.01-0.245,0.01s-0.155-0.004-0.245-0.01
			c-0.09-0.008-0.175-0.018-0.255-0.031L101.141,57.25L101.141,57.25z"/>
		<path fill="#191919" d="M17.485,70.042h-0.78l-0.04-0.142l1.72-1.92h0.08v1.271h1.3c0.026,0.113,0.04,0.24,0.04,0.381
			c0,0.072-0.003,0.144-0.01,0.209c-0.006,0.066-0.017,0.135-0.03,0.201h-1.3v2.34c0,0.279,0.011,0.504,0.035,0.67
			c0.023,0.166,0.063,0.295,0.12,0.385c0.057,0.09,0.133,0.15,0.23,0.182c0.097,0.028,0.218,0.045,0.365,0.045
			c0.113,0,0.22-0.01,0.32-0.025c0.1-0.016,0.19-0.035,0.27-0.055c0.046,0.133,0.075,0.27,0.085,0.41
			c0.01,0.139,0.015,0.262,0.015,0.369c-0.134,0.033-0.273,0.059-0.42,0.074c-0.147,0.018-0.304,0.025-0.47,0.025
			c-0.48,0-0.855-0.116-1.125-0.351c-0.27-0.233-0.405-0.62-0.405-1.159V70.042z"/>
		<path fill="#191919" d="M22.665,74.5c-0.4,0-0.75-0.067-1.05-0.205c-0.3-0.137-0.55-0.324-0.75-0.564
			c-0.2-0.238-0.349-0.521-0.445-0.85c-0.097-0.326-0.145-0.68-0.145-1.061s0.048-0.732,0.145-1.061
			c0.097-0.326,0.245-0.61,0.445-0.85c0.2-0.24,0.45-0.432,0.75-0.57c0.3-0.141,0.65-0.211,1.05-0.211s0.75,0.07,1.05,0.211
			c0.3,0.14,0.55,0.33,0.75,0.57c0.2,0.238,0.348,0.522,0.445,0.85c0.097,0.326,0.145,0.68,0.145,1.061s-0.048,0.733-0.145,1.061
			c-0.097,0.326-0.245,0.609-0.445,0.85c-0.2,0.24-0.45,0.43-0.75,0.564C23.415,74.433,23.064,74.5,22.665,74.5z M22.665,73.711
			c0.46,0,0.8-0.168,1.02-0.5c0.22-0.334,0.33-0.797,0.33-1.391s-0.11-1.056-0.33-1.386c-0.22-0.33-0.56-0.495-1.02-0.495
			s-0.798,0.165-1.015,0.495c-0.217,0.33-0.325,0.792-0.325,1.386s0.108,1.057,0.325,1.391
			C21.866,73.543,22.205,73.711,22.665,73.711z"/>
		<path fill="#191919" d="M28.055,73.452c0.18,0.072,0.378,0.131,0.595,0.174c0.216,0.043,0.431,0.064,0.645,0.064
			c0.153,0,0.3-0.018,0.44-0.05c0.14-0.033,0.261-0.083,0.365-0.149s0.187-0.148,0.25-0.244c0.063-0.098,0.095-0.205,0.095-0.326
			c0-0.133-0.025-0.242-0.075-0.33c-0.05-0.086-0.117-0.159-0.2-0.219c-0.083-0.062-0.18-0.111-0.29-0.156
			c-0.11-0.043-0.229-0.084-0.355-0.125l-0.35-0.129c-0.427-0.16-0.737-0.34-0.93-0.541c-0.193-0.199-0.29-0.469-0.29-0.81
			c0-0.454,0.162-0.813,0.485-1.079c0.323-0.268,0.798-0.4,1.425-0.4c0.26,0,0.515,0.025,0.765,0.074
			c0.25,0.051,0.468,0.108,0.655,0.176c-0.013,0.134-0.039,0.267-0.075,0.4c-0.037,0.133-0.082,0.256-0.135,0.368
			c-0.146-0.053-0.322-0.104-0.525-0.153c-0.204-0.051-0.422-0.076-0.655-0.076c-0.247,0-0.465,0.043-0.655,0.131
			c-0.19,0.087-0.285,0.24-0.285,0.459c0,0.113,0.023,0.211,0.07,0.291c0.046,0.08,0.11,0.148,0.19,0.205s0.171,0.104,0.275,0.145
			c0.103,0.04,0.215,0.08,0.335,0.12l0.44,0.149c0.16,0.055,0.312,0.117,0.455,0.19c0.143,0.073,0.267,0.164,0.37,0.274
			c0.103,0.109,0.187,0.242,0.25,0.4c0.063,0.155,0.095,0.344,0.095,0.563c0,0.247-0.05,0.472-0.15,0.675
			c-0.1,0.204-0.242,0.377-0.425,0.521c-0.184,0.144-0.405,0.254-0.665,0.334c-0.26,0.08-0.547,0.121-0.86,0.121
			c-0.32,0-0.6-0.021-0.84-0.065c-0.24-0.043-0.463-0.103-0.67-0.175c0.013-0.133,0.042-0.27,0.085-0.405
			C27.953,73.72,28.001,73.584,28.055,73.452z"/>
		<path fill="#191919" d="M32.395,67.051c0.073-0.014,0.155-0.023,0.245-0.03c0.09-0.006,0.171-0.011,0.245-0.011
			c0.074,0,0.157,0.005,0.25,0.011c0.093,0.007,0.177,0.017,0.25,0.03v2.98c0.06-0.095,0.135-0.193,0.225-0.302
			c0.09-0.106,0.2-0.205,0.33-0.295s0.28-0.163,0.45-0.22s0.358-0.086,0.565-0.086c0.586,0,1.021,0.168,1.305,0.506
			c0.284,0.337,0.425,0.835,0.425,1.494v3.25c-0.074,0.015-0.155,0.023-0.245,0.031c-0.09,0.006-0.172,0.01-0.245,0.01
			c-0.073,0-0.155-0.004-0.245-0.01c-0.09-0.008-0.172-0.018-0.245-0.031V71.4c0-0.474-0.079-0.821-0.235-1.045
			c-0.157-0.224-0.395-0.335-0.715-0.335c-0.18,0-0.354,0.031-0.52,0.096s-0.313,0.163-0.44,0.301
			c-0.127,0.137-0.227,0.313-0.3,0.535c-0.074,0.219-0.11,0.485-0.11,0.799v2.631c-0.073,0.014-0.157,0.022-0.25,0.029
			c-0.093,0.006-0.176,0.01-0.25,0.01c-0.066,0-0.146-0.004-0.24-0.01c-0.093-0.007-0.177-0.017-0.25-0.029V67.051z"/>
		<path fill="#191919" d="M39.974,74.5c-0.4,0-0.75-0.067-1.05-0.205c-0.3-0.137-0.55-0.324-0.75-0.564
			c-0.2-0.238-0.349-0.521-0.445-0.85c-0.097-0.326-0.145-0.68-0.145-1.061s0.048-0.732,0.145-1.061
			c0.097-0.326,0.245-0.61,0.445-0.85c0.2-0.24,0.45-0.432,0.75-0.57c0.3-0.141,0.65-0.211,1.05-0.211s0.75,0.07,1.05,0.211
			c0.3,0.14,0.55,0.33,0.75,0.57c0.2,0.238,0.348,0.522,0.445,0.85c0.097,0.326,0.145,0.68,0.145,1.061s-0.048,0.733-0.145,1.061
			c-0.097,0.326-0.245,0.609-0.445,0.85c-0.2,0.24-0.45,0.43-0.75,0.564C40.724,74.433,40.374,74.5,39.974,74.5z M39.974,73.711
			c0.46,0,0.8-0.168,1.02-0.5c0.22-0.334,0.33-0.797,0.33-1.391s-0.11-1.056-0.33-1.386c-0.22-0.33-0.56-0.495-1.02-0.495
			s-0.798,0.165-1.015,0.495s-0.325,0.792-0.325,1.386s0.108,1.057,0.325,1.391C39.176,73.543,39.514,73.711,39.974,73.711z"/>
		<path fill="#191919" d="M45.454,74.5c-0.4,0-0.75-0.067-1.05-0.205c-0.3-0.137-0.55-0.324-0.75-0.564
			c-0.2-0.238-0.349-0.521-0.445-0.85c-0.097-0.326-0.145-0.68-0.145-1.061s0.048-0.732,0.145-1.061
			c0.097-0.326,0.245-0.61,0.445-0.85c0.2-0.24,0.45-0.432,0.75-0.57c0.3-0.141,0.65-0.211,1.05-0.211s0.75,0.07,1.05,0.211
			c0.3,0.14,0.55,0.33,0.75,0.57c0.2,0.238,0.348,0.522,0.445,0.85c0.097,0.326,0.145,0.68,0.145,1.061s-0.048,0.733-0.145,1.061
			c-0.097,0.326-0.245,0.609-0.445,0.85c-0.2,0.24-0.45,0.43-0.75,0.564C46.204,74.433,45.854,74.5,45.454,74.5z M45.454,73.711
			c0.46,0,0.8-0.168,1.02-0.5c0.22-0.334,0.33-0.797,0.33-1.391s-0.11-1.056-0.33-1.386c-0.22-0.33-0.56-0.495-1.02-0.495
			s-0.798,0.165-1.015,0.495c-0.217,0.33-0.325,0.792-0.325,1.386s0.108,1.057,0.325,1.391
			C44.656,73.543,44.994,73.711,45.454,73.711z"/>
		<path fill="#191919" d="M49.045,70.042h-0.78l-0.04-0.142l1.72-1.92h0.08v1.271h1.3c0.026,0.113,0.04,0.24,0.04,0.381
			c0,0.072-0.003,0.144-0.01,0.209c-0.006,0.066-0.017,0.135-0.03,0.201h-1.3v2.34c0,0.279,0.011,0.504,0.035,0.67
			c0.023,0.166,0.063,0.295,0.12,0.385c0.057,0.09,0.133,0.15,0.23,0.182c0.097,0.028,0.218,0.045,0.365,0.045
			c0.113,0,0.22-0.01,0.32-0.025c0.1-0.016,0.19-0.035,0.27-0.055c0.046,0.133,0.075,0.27,0.085,0.41
			c0.01,0.139,0.015,0.262,0.015,0.369c-0.134,0.033-0.273,0.059-0.42,0.074c-0.147,0.018-0.304,0.025-0.47,0.025
			c-0.48,0-0.855-0.116-1.125-0.351c-0.27-0.233-0.405-0.62-0.405-1.159V70.042L49.045,70.042z"/>
		<path fill="#191919" d="M54.215,69.25c0.066-0.014,0.135-0.022,0.205-0.029c0.07-0.008,0.142-0.01,0.215-0.01
			c0.066,0,0.137,0.002,0.21,0.01c0.073,0.007,0.144,0.017,0.21,0.029c0.007,0.015,0.015,0.056,0.025,0.125
			c0.01,0.07,0.02,0.146,0.03,0.226c0.01,0.08,0.02,0.157,0.03,0.229c0.01,0.073,0.015,0.121,0.015,0.141
			c0.066-0.105,0.146-0.211,0.24-0.311c0.093-0.101,0.205-0.189,0.335-0.271c0.13-0.08,0.276-0.144,0.44-0.188
			c0.163-0.048,0.345-0.07,0.545-0.07c0.3,0,0.578,0.05,0.835,0.15c0.256,0.1,0.477,0.254,0.66,0.465
			c0.183,0.209,0.326,0.477,0.43,0.799c0.104,0.324,0.155,0.705,0.155,1.146c0,0.881-0.239,1.569-0.715,2.065
			c-0.477,0.496-1.151,0.744-2.025,0.744c-0.146,0-0.296-0.01-0.45-0.029s-0.287-0.047-0.4-0.08v2.352
			c-0.08,0.012-0.165,0.021-0.255,0.028c-0.09,0.007-0.171,0.011-0.245,0.011c-0.073,0-0.155-0.004-0.245-0.011
			s-0.172-0.017-0.245-0.028V69.25z M55.205,73.542c0.127,0.047,0.257,0.08,0.39,0.1c0.133,0.021,0.307,0.029,0.52,0.029
			c0.24,0,0.46-0.037,0.66-0.114c0.2-0.076,0.372-0.194,0.515-0.354s0.256-0.361,0.34-0.604c0.083-0.243,0.125-0.531,0.125-0.865
			c0-0.532-0.099-0.956-0.295-1.271c-0.197-0.312-0.519-0.469-0.965-0.469c-0.167,0-0.327,0.028-0.48,0.09
			c-0.153,0.06-0.29,0.148-0.41,0.27c-0.12,0.12-0.217,0.271-0.29,0.455c-0.074,0.184-0.11,0.402-0.11,0.654V73.542z"/>
		<path fill="#191919" d="M59.834,69.25c0.073-0.014,0.144-0.022,0.21-0.029c0.067-0.008,0.137-0.01,0.21-0.01
			c0.073,0,0.146,0.002,0.22,0.01c0.074,0.007,0.14,0.017,0.2,0.029c0.02,0.101,0.04,0.231,0.06,0.396s0.03,0.302,0.03,0.415
			c0.14-0.227,0.325-0.423,0.555-0.59c0.23-0.166,0.525-0.25,0.885-0.25c0.053,0,0.108,0.002,0.166,0.005
			c0.057,0.004,0.104,0.009,0.146,0.017c0.013,0.059,0.022,0.123,0.03,0.188c0.006,0.067,0.01,0.137,0.01,0.21
			c0,0.08-0.006,0.164-0.016,0.25c-0.011,0.087-0.021,0.17-0.035,0.25c-0.053-0.014-0.107-0.02-0.164-0.02s-0.103,0-0.135,0
			c-0.181,0-0.353,0.023-0.516,0.074s-0.31,0.139-0.44,0.266s-0.233,0.299-0.31,0.52s-0.115,0.504-0.115,0.852v2.549
			c-0.073,0.015-0.155,0.023-0.245,0.031c-0.09,0.006-0.172,0.01-0.245,0.01c-0.073,0-0.155-0.004-0.245-0.01
			c-0.09-0.008-0.175-0.018-0.255-0.031L59.834,69.25L59.834,69.25z"/>
		<path fill="#191919" d="M65.193,74.5c-0.399,0-0.75-0.067-1.05-0.205c-0.301-0.137-0.551-0.324-0.75-0.564
			c-0.2-0.238-0.35-0.521-0.445-0.85c-0.097-0.326-0.145-0.68-0.145-1.061s0.048-0.732,0.145-1.061
			c0.098-0.326,0.245-0.61,0.445-0.85c0.199-0.24,0.449-0.432,0.75-0.57c0.3-0.139,0.65-0.211,1.05-0.211s0.75,0.07,1.05,0.211
			c0.301,0.14,0.551,0.33,0.75,0.57c0.2,0.238,0.35,0.522,0.445,0.85c0.098,0.326,0.145,0.68,0.145,1.061s-0.047,0.733-0.145,1.061
			c-0.098,0.326-0.245,0.609-0.445,0.85c-0.199,0.24-0.449,0.43-0.75,0.564C65.943,74.433,65.594,74.5,65.193,74.5z M65.193,73.711
			c0.46,0,0.8-0.168,1.021-0.5c0.221-0.334,0.33-0.797,0.33-1.391s-0.109-1.056-0.33-1.386s-0.561-0.495-1.021-0.495
			s-0.798,0.165-1.015,0.495s-0.325,0.792-0.325,1.386s0.108,1.057,0.325,1.391C64.395,73.543,64.733,73.711,65.193,73.711z"/>
		<path fill="#191919" d="M71.883,67.051c0.072-0.014,0.156-0.023,0.25-0.03c0.094-0.006,0.174-0.011,0.24-0.011
			c0.072,0,0.154,0.005,0.244,0.011c0.09,0.007,0.172,0.017,0.245,0.03v7.189c-0.254,0.073-0.536,0.135-0.851,0.186
			c-0.314,0.05-0.663,0.074-1.051,0.074c-0.359,0-0.7-0.045-1.024-0.135c-0.323-0.091-0.604-0.238-0.845-0.445
			c-0.241-0.207-0.43-0.474-0.569-0.799c-0.142-0.328-0.211-0.73-0.211-1.211c0-0.412,0.062-0.789,0.187-1.129
			c0.123-0.342,0.297-0.633,0.524-0.875c0.228-0.244,0.498-0.433,0.813-0.566c0.316-0.133,0.668-0.199,1.056-0.199
			c0.174,0,0.349,0.014,0.524,0.04c0.178,0.026,0.332,0.062,0.465,0.101v-2.23H71.883z M71.883,70.122
			c-0.133-0.055-0.276-0.095-0.43-0.121c-0.154-0.025-0.32-0.039-0.5-0.039c-0.273,0-0.511,0.049-0.711,0.149
			c-0.199,0.101-0.365,0.236-0.494,0.409c-0.131,0.174-0.228,0.379-0.291,0.615c-0.062,0.236-0.095,0.494-0.095,0.775
			c0.007,0.633,0.156,1.086,0.449,1.358c0.294,0.272,0.692,0.41,1.2,0.41c0.174,0,0.334-0.009,0.48-0.024
			c0.146-0.016,0.275-0.042,0.389-0.074v-3.459H71.883z"/>
		<path fill="#191919" d="M74.104,69.25c0.072-0.014,0.156-0.022,0.25-0.029c0.093-0.008,0.173-0.01,0.24-0.01
			c0.072,0,0.156,0.002,0.25,0.01c0.093,0.007,0.176,0.017,0.25,0.029v2.811c0,0.32,0.029,0.585,0.09,0.795s0.148,0.375,0.27,0.495
			s0.268,0.204,0.44,0.25c0.173,0.047,0.373,0.069,0.601,0.069c0.34,0,0.629-0.035,0.869-0.109V69.25
			c0.073-0.014,0.155-0.022,0.245-0.029c0.091-0.008,0.172-0.01,0.245-0.01c0.072,0,0.154,0.002,0.245,0.01
			c0.09,0.007,0.171,0.017,0.245,0.029v4.971c-0.234,0.066-0.512,0.13-0.836,0.189c-0.323,0.061-0.658,0.09-1.006,0.09
			c-0.326,0-0.635-0.027-0.924-0.084c-0.291-0.058-0.545-0.172-0.766-0.346s-0.395-0.417-0.521-0.73
			c-0.125-0.312-0.188-0.727-0.188-1.239L74.104,69.25L74.104,69.25z"/>
		<path fill="#191919" d="M83.034,73.491c0.055,0.094,0.102,0.211,0.141,0.35c0.041,0.141,0.062,0.283,0.07,0.431
			c-0.395,0.153-0.844,0.229-1.351,0.229c-0.854,0-1.497-0.24-1.931-0.726c-0.434-0.481-0.649-1.135-0.649-1.954
			c0-0.381,0.054-0.732,0.16-1.061c0.106-0.326,0.265-0.61,0.476-0.85c0.209-0.24,0.471-0.432,0.784-0.57s0.677-0.211,1.091-0.211
			c0.279,0,0.525,0.018,0.739,0.051c0.213,0.033,0.417,0.087,0.61,0.16c0,0.113-0.016,0.244-0.045,0.396
			c-0.03,0.149-0.072,0.281-0.125,0.396c-0.328-0.113-0.7-0.17-1.121-0.17c-0.514,0-0.896,0.17-1.149,0.51s-0.38,0.79-0.38,1.352
			c0,0.639,0.145,1.107,0.43,1.403c0.287,0.297,0.682,0.444,1.182,0.444c0.199,0,0.385-0.014,0.555-0.039
			C82.69,73.605,82.861,73.558,83.034,73.491z"/>
		<path fill="#191919" d="M84.295,70.042h-0.78l-0.04-0.142l1.72-1.92h0.08v1.271h1.3c0.027,0.113,0.041,0.24,0.041,0.381
			c0,0.072-0.004,0.144-0.011,0.209c-0.007,0.066-0.017,0.135-0.03,0.201h-1.3v2.34c0,0.279,0.013,0.504,0.035,0.67
			s0.063,0.295,0.12,0.385s0.133,0.15,0.23,0.182c0.096,0.028,0.217,0.045,0.363,0.045c0.113,0,0.221-0.01,0.32-0.025
			c0.099-0.016,0.189-0.035,0.27-0.055c0.047,0.133,0.075,0.27,0.086,0.41c0.01,0.139,0.016,0.262,0.016,0.369
			c-0.135,0.033-0.273,0.059-0.42,0.074c-0.147,0.016-0.305,0.025-0.471,0.025c-0.479,0-0.854-0.116-1.125-0.351
			c-0.271-0.233-0.404-0.62-0.404-1.159V70.042L84.295,70.042z"/>
		<path fill="#191919" d="M92.185,71c0-0.394-0.101-0.666-0.3-0.819c-0.2-0.153-0.49-0.229-0.87-0.229
			c-0.233,0-0.451,0.02-0.655,0.055c-0.203,0.037-0.4,0.086-0.595,0.146c-0.127-0.22-0.188-0.481-0.188-0.789
			c0.227-0.073,0.477-0.131,0.75-0.171c0.271-0.04,0.535-0.061,0.789-0.061c0.666,0,1.174,0.152,1.52,0.455
			c0.348,0.305,0.521,0.789,0.521,1.455v3.211c-0.234,0.054-0.518,0.107-0.851,0.164c-0.333,0.058-0.673,0.086-1.021,0.086
			c-0.326,0-0.621-0.03-0.886-0.09c-0.263-0.062-0.485-0.158-0.67-0.291c-0.185-0.134-0.324-0.304-0.425-0.51
			c-0.1-0.207-0.149-0.457-0.149-0.75c0-0.287,0.058-0.539,0.175-0.756c0.116-0.216,0.274-0.396,0.476-0.54
			c0.2-0.144,0.43-0.25,0.69-0.319c0.26-0.07,0.532-0.104,0.818-0.104c0.214,0,0.389,0.005,0.525,0.017
			c0.137,0.01,0.252,0.021,0.345,0.033V71z M92.185,71.971c-0.101-0.014-0.228-0.026-0.38-0.04
			c-0.153-0.013-0.283-0.021-0.391-0.021c-0.414,0-0.729,0.076-0.944,0.229s-0.325,0.387-0.325,0.7c0,0.199,0.037,0.355,0.109,0.47
			c0.074,0.114,0.166,0.2,0.275,0.261s0.231,0.098,0.364,0.109c0.134,0.014,0.261,0.021,0.38,0.021c0.152,0,0.312-0.01,0.477-0.025
			c0.162-0.018,0.308-0.041,0.435-0.075V71.971z"/>
		<path fill="#191919" d="M97.645,67.051c0.072-0.014,0.156-0.023,0.25-0.03c0.094-0.006,0.174-0.011,0.24-0.011
			c0.072,0,0.154,0.005,0.244,0.011c0.091,0.007,0.172,0.017,0.246,0.03v7.189c-0.254,0.073-0.537,0.135-0.852,0.186
			c-0.314,0.05-0.663,0.074-1.05,0.074c-0.36,0-0.701-0.045-1.024-0.135c-0.324-0.091-0.604-0.238-0.846-0.445
			s-0.43-0.474-0.568-0.799c-0.142-0.328-0.211-0.73-0.211-1.211c0-0.412,0.062-0.789,0.186-1.129
			c0.123-0.342,0.298-0.633,0.525-0.875c0.227-0.244,0.498-0.433,0.813-0.566c0.315-0.133,0.668-0.199,1.055-0.199
			c0.175,0,0.349,0.014,0.525,0.04s0.332,0.062,0.465,0.101L97.645,67.051L97.645,67.051z M97.645,70.122
			c-0.133-0.055-0.275-0.095-0.43-0.121c-0.154-0.025-0.32-0.039-0.5-0.039c-0.273,0-0.51,0.049-0.711,0.149
			c-0.199,0.101-0.364,0.236-0.494,0.409c-0.131,0.174-0.227,0.379-0.29,0.615s-0.095,0.494-0.095,0.775
			c0.006,0.633,0.155,1.086,0.449,1.358c0.293,0.272,0.692,0.41,1.199,0.41c0.174,0,0.334-0.009,0.48-0.024
			c0.146-0.016,0.275-0.042,0.39-0.074L97.645,70.122L97.645,70.122z"/>
		<path fill="#191919" d="M99.834,73.452c0.181,0.072,0.379,0.131,0.596,0.174s0.432,0.064,0.646,0.064
			c0.152,0,0.299-0.018,0.438-0.05c0.142-0.033,0.262-0.083,0.364-0.149c0.104-0.066,0.188-0.148,0.25-0.244
			c0.063-0.098,0.096-0.205,0.096-0.326c0-0.133-0.023-0.242-0.074-0.33c-0.051-0.086-0.117-0.159-0.199-0.219
			c-0.084-0.062-0.182-0.111-0.291-0.156c-0.109-0.043-0.229-0.084-0.354-0.125l-0.351-0.129c-0.427-0.16-0.735-0.34-0.93-0.541
			c-0.193-0.199-0.29-0.469-0.29-0.81c0-0.454,0.161-0.813,0.484-1.079c0.323-0.268,0.799-0.4,1.425-0.4
			c0.262,0,0.516,0.025,0.766,0.074c0.25,0.051,0.469,0.108,0.655,0.176c-0.014,0.134-0.039,0.267-0.075,0.4
			c-0.037,0.133-0.082,0.256-0.135,0.368c-0.146-0.053-0.322-0.104-0.525-0.153c-0.203-0.051-0.422-0.076-0.654-0.076
			c-0.246,0-0.465,0.043-0.655,0.131c-0.188,0.087-0.284,0.24-0.284,0.459c0,0.113,0.021,0.211,0.069,0.291
			c0.047,0.08,0.11,0.148,0.19,0.205s0.172,0.104,0.273,0.145c0.104,0.04,0.216,0.08,0.336,0.12l0.439,0.149
			c0.16,0.055,0.312,0.117,0.455,0.19s0.267,0.164,0.369,0.274c0.104,0.109,0.188,0.242,0.25,0.4
			c0.063,0.155,0.096,0.344,0.096,0.563c0,0.247-0.051,0.472-0.149,0.675c-0.101,0.204-0.241,0.377-0.426,0.521
			c-0.183,0.144-0.404,0.254-0.665,0.334c-0.26,0.08-0.546,0.121-0.859,0.121c-0.32,0-0.601-0.021-0.84-0.065
			c-0.24-0.043-0.464-0.103-0.67-0.175c0.014-0.133,0.041-0.27,0.085-0.405C99.733,73.72,99.781,73.584,99.834,73.452z"/>
		<path fill="#191919" d="M104.036,74.381c-0.015-0.094-0.025-0.186-0.035-0.275s-0.017-0.182-0.017-0.273
			c0-0.095,0.007-0.188,0.017-0.285c0.01-0.098,0.021-0.191,0.035-0.285c0.092-0.014,0.185-0.023,0.273-0.03
			c0.09-0.006,0.182-0.01,0.275-0.01c0.093,0,0.187,0.004,0.279,0.01c0.094,0.007,0.188,0.019,0.279,0.03
			c0.014,0.094,0.025,0.188,0.035,0.279c0.01,0.094,0.015,0.188,0.015,0.28s-0.005,0.187-0.015,0.279
			c-0.01,0.094-0.021,0.187-0.035,0.28c-0.094,0.014-0.186,0.022-0.273,0.029c-0.092,0.006-0.183,0.01-0.275,0.01
			c-0.094,0-0.188-0.004-0.28-0.01C104.222,74.404,104.127,74.395,104.036,74.381z"/>
		<path fill="#191919" d="M23.265,79.19c0.08-0.014,0.164-0.021,0.25-0.029c0.087-0.007,0.173-0.011,0.26-0.011
			c0.086,0,0.173,0.004,0.26,0.011c0.087,0.008,0.17,0.018,0.25,0.029v7.189c-0.08,0.015-0.162,0.023-0.245,0.031
			c-0.083,0.006-0.171,0.01-0.265,0.01c-0.087,0-0.175-0.004-0.265-0.01c-0.09-0.008-0.172-0.018-0.245-0.031V79.19z"/>
		<path fill="#191919" d="M25.865,82.042h-0.78l-0.04-0.142l1.72-1.92h0.08v1.271h1.3c0.026,0.113,0.04,0.24,0.04,0.381
			c0,0.072-0.003,0.144-0.01,0.209c-0.006,0.066-0.017,0.135-0.03,0.201h-1.3v2.34c0,0.279,0.011,0.504,0.035,0.67
			c0.023,0.166,0.063,0.295,0.12,0.385s0.133,0.15,0.23,0.182c0.097,0.028,0.218,0.045,0.365,0.045c0.113,0,0.22-0.01,0.32-0.025
			s0.19-0.035,0.27-0.055c0.046,0.133,0.075,0.27,0.085,0.41c0.01,0.139,0.015,0.262,0.015,0.369
			c-0.134,0.033-0.273,0.059-0.42,0.074c-0.147,0.018-0.304,0.025-0.47,0.025c-0.48,0-0.855-0.116-1.125-0.351
			c-0.27-0.233-0.405-0.62-0.405-1.159V82.042L25.865,82.042z"/>
		<path fill="#191919" d="M31.235,82.042h-0.78l-0.04-0.142l1.72-1.92h0.08v1.271h1.3c0.026,0.113,0.04,0.24,0.04,0.381
			c0,0.072-0.003,0.144-0.01,0.209c-0.006,0.066-0.017,0.135-0.03,0.201h-1.3v2.34c0,0.279,0.011,0.504,0.035,0.67
			c0.023,0.166,0.063,0.295,0.12,0.385c0.057,0.09,0.133,0.15,0.23,0.182c0.097,0.028,0.218,0.045,0.365,0.045
			c0.113,0,0.22-0.01,0.32-0.025c0.1-0.016,0.19-0.035,0.27-0.055c0.046,0.133,0.075,0.27,0.085,0.41
			c0.01,0.139,0.015,0.262,0.015,0.369c-0.134,0.033-0.273,0.059-0.42,0.074c-0.147,0.018-0.304,0.025-0.47,0.025
			c-0.48,0-0.855-0.116-1.125-0.351c-0.27-0.233-0.405-0.62-0.405-1.159V82.042z"/>
		<path fill="#191919" d="M34.275,81.25c0.073-0.014,0.156-0.022,0.25-0.029c0.093-0.008,0.173-0.01,0.24-0.01
			c0.073,0,0.157,0.002,0.25,0.01c0.093,0.007,0.177,0.017,0.25,0.029v2.811c0,0.32,0.03,0.585,0.09,0.795s0.15,0.375,0.27,0.495
			s0.267,0.204,0.44,0.25c0.173,0.047,0.374,0.069,0.6,0.069c0.34,0,0.63-0.035,0.87-0.109V81.25
			c0.073-0.014,0.155-0.022,0.245-0.029c0.09-0.008,0.171-0.01,0.245-0.01c0.073,0,0.155,0.002,0.245,0.01
			c0.09,0.007,0.172,0.017,0.245,0.029v4.971c-0.233,0.066-0.512,0.13-0.835,0.189c-0.323,0.061-0.659,0.09-1.005,0.09
			c-0.327,0-0.635-0.027-0.925-0.084c-0.29-0.058-0.545-0.172-0.765-0.346c-0.22-0.174-0.394-0.417-0.52-0.73
			c-0.127-0.312-0.19-0.727-0.19-1.239V81.25z"/>
		<path fill="#191919" d="M39.784,81.25c0.073-0.014,0.144-0.022,0.21-0.029c0.067-0.008,0.137-0.01,0.21-0.01
			c0.073,0,0.146,0.002,0.22,0.01c0.074,0.007,0.14,0.017,0.2,0.029c0.02,0.101,0.04,0.231,0.06,0.396s0.03,0.302,0.03,0.415
			c0.14-0.227,0.325-0.423,0.555-0.59c0.23-0.166,0.525-0.25,0.885-0.25c0.053,0,0.108,0.002,0.165,0.005
			c0.057,0.004,0.105,0.009,0.145,0.017c0.013,0.059,0.023,0.123,0.03,0.188c0.007,0.067,0.01,0.137,0.01,0.21
			c0,0.08-0.005,0.164-0.015,0.25c-0.01,0.087-0.021,0.17-0.035,0.25c-0.054-0.014-0.109-0.02-0.165-0.02c-0.057,0-0.102,0-0.135,0
			c-0.18,0-0.352,0.023-0.515,0.074c-0.163,0.051-0.31,0.139-0.44,0.266c-0.13,0.127-0.233,0.299-0.31,0.52
			c-0.077,0.221-0.115,0.504-0.115,0.852v2.549c-0.073,0.015-0.155,0.023-0.245,0.031c-0.09,0.006-0.172,0.01-0.245,0.01
			c-0.073,0-0.155-0.004-0.245-0.01c-0.09-0.008-0.175-0.018-0.255-0.031V81.25z"/>
		<path fill="#191919" d="M43.214,81.25c0.073-0.014,0.145-0.022,0.215-0.029c0.07-0.008,0.142-0.01,0.215-0.01
			c0.073,0,0.142,0.002,0.205,0.01c0.063,0.007,0.131,0.017,0.205,0.029c0.02,0.101,0.04,0.235,0.06,0.406
			c0.02,0.17,0.03,0.311,0.03,0.424c0.066-0.113,0.151-0.227,0.255-0.34s0.222-0.216,0.355-0.306c0.133-0.09,0.287-0.163,0.46-0.22
			c0.173-0.057,0.363-0.086,0.57-0.086c0.586,0,1.02,0.168,1.3,0.506c0.28,0.337,0.42,0.835,0.42,1.494v3.25
			c-0.073,0.015-0.157,0.023-0.25,0.031c-0.093,0.006-0.177,0.01-0.25,0.01c-0.073,0-0.155-0.004-0.245-0.01
			c-0.09-0.008-0.172-0.018-0.245-0.031V83.4c0-0.474-0.074-0.821-0.22-1.045s-0.38-0.335-0.7-0.335
			c-0.187,0-0.364,0.034-0.53,0.102c-0.166,0.066-0.313,0.17-0.44,0.31c-0.126,0.141-0.229,0.321-0.305,0.545
			c-0.077,0.224-0.115,0.491-0.115,0.806v2.6c-0.073,0.015-0.155,0.023-0.245,0.031c-0.09,0.006-0.172,0.01-0.245,0.01
			c-0.073,0-0.157-0.004-0.25-0.01c-0.093-0.008-0.177-0.018-0.25-0.031V81.25z"/>
		<path fill="#191919" d="M49.444,84.061c0.013,0.561,0.158,0.971,0.435,1.23c0.276,0.26,0.685,0.39,1.225,0.39
			c0.473,0,0.923-0.083,1.35-0.25c0.054,0.101,0.097,0.222,0.13,0.364c0.033,0.145,0.053,0.285,0.06,0.426
			c-0.22,0.094-0.462,0.162-0.725,0.21c-0.264,0.047-0.555,0.069-0.875,0.069c-0.467,0-0.867-0.064-1.2-0.194
			c-0.333-0.13-0.608-0.313-0.825-0.55c-0.217-0.236-0.375-0.518-0.475-0.84c-0.1-0.324-0.15-0.68-0.15-1.065
			c0-0.38,0.048-0.733,0.145-1.063s0.245-0.617,0.445-0.861c0.2-0.242,0.452-0.436,0.755-0.579c0.303-0.144,0.662-0.216,1.075-0.216
			c0.353,0,0.663,0.061,0.93,0.181s0.49,0.285,0.67,0.495c0.18,0.21,0.317,0.46,0.41,0.75c0.093,0.29,0.14,0.605,0.14,0.945
			c0,0.094-0.003,0.19-0.01,0.295c-0.006,0.104-0.013,0.19-0.02,0.265L49.444,84.061L49.444,84.061z M51.984,83.321
			c0-0.188-0.025-0.365-0.075-0.535c-0.05-0.17-0.124-0.318-0.22-0.445c-0.097-0.127-0.22-0.229-0.37-0.305
			s-0.329-0.115-0.535-0.115c-0.407,0-0.718,0.123-0.935,0.371c-0.216,0.246-0.348,0.59-0.395,1.029H51.984z"/>
		<path fill="#191919" d="M57.264,79.051c0.073-0.014,0.157-0.023,0.25-0.03c0.093-0.006,0.173-0.011,0.24-0.011
			c0.073,0,0.155,0.005,0.245,0.011c0.09,0.007,0.171,0.017,0.245,0.03v7.189c-0.253,0.073-0.537,0.135-0.85,0.186
			c-0.313,0.05-0.664,0.074-1.05,0.074c-0.36,0-0.702-0.045-1.025-0.135c-0.323-0.091-0.605-0.238-0.845-0.445
			c-0.24-0.207-0.43-0.474-0.57-0.799c-0.14-0.328-0.21-0.73-0.21-1.211c0-0.412,0.062-0.789,0.185-1.129
			c0.123-0.342,0.298-0.633,0.525-0.875c0.227-0.244,0.499-0.433,0.815-0.566c0.316-0.133,0.668-0.199,1.055-0.199
			c0.173,0,0.348,0.014,0.525,0.04c0.177,0.026,0.332,0.062,0.465,0.101V79.051z M57.264,82.122
			c-0.133-0.055-0.276-0.095-0.43-0.121c-0.154-0.025-0.32-0.039-0.5-0.039c-0.273,0-0.51,0.049-0.71,0.149
			s-0.365,0.236-0.495,0.409c-0.13,0.174-0.227,0.379-0.29,0.615s-0.095,0.494-0.095,0.775c0.007,0.633,0.157,1.086,0.45,1.358
			s0.693,0.41,1.2,0.41c0.173,0,0.333-0.009,0.48-0.024c0.146-0.017,0.276-0.042,0.39-0.074V82.122z"/>
		<path fill="#191919" d="M63.704,86.5c-0.398,0-0.75-0.067-1.05-0.205c-0.301-0.137-0.551-0.324-0.75-0.564
			c-0.2-0.238-0.349-0.521-0.445-0.85c-0.097-0.326-0.145-0.68-0.145-1.061s0.048-0.732,0.145-1.061
			c0.097-0.326,0.245-0.61,0.445-0.85c0.2-0.24,0.45-0.432,0.75-0.57c0.3-0.141,0.65-0.211,1.05-0.211s0.75,0.07,1.051,0.211
			c0.301,0.14,0.551,0.33,0.75,0.57c0.199,0.238,0.348,0.522,0.445,0.85c0.096,0.326,0.145,0.68,0.145,1.061
			s-0.049,0.733-0.145,1.061c-0.099,0.326-0.246,0.609-0.445,0.85s-0.449,0.43-0.75,0.564C64.454,86.432,64.104,86.5,63.704,86.5z
			 M63.704,85.711c0.461,0,0.801-0.168,1.021-0.5c0.219-0.334,0.33-0.797,0.33-1.391s-0.111-1.056-0.33-1.386
			c-0.222-0.33-0.562-0.495-1.021-0.495s-0.797,0.165-1.015,0.495c-0.217,0.33-0.326,0.792-0.326,1.386s0.109,1.057,0.326,1.391
			C62.907,85.543,63.245,85.711,63.704,85.711z"/>
		<path fill="#191919" d="M67.043,81.25c0.072-0.014,0.156-0.022,0.25-0.029c0.093-0.008,0.172-0.01,0.24-0.01
			c0.072,0,0.155,0.002,0.25,0.01c0.092,0.007,0.176,0.017,0.25,0.029v2.811c0,0.32,0.028,0.585,0.09,0.795
			c0.06,0.21,0.148,0.375,0.27,0.495s0.268,0.204,0.439,0.25c0.174,0.047,0.373,0.069,0.601,0.069c0.34,0,0.63-0.035,0.87-0.109
			V81.25c0.072-0.014,0.154-0.022,0.244-0.029c0.091-0.008,0.173-0.01,0.246-0.01c0.072,0,0.153,0.002,0.244,0.01
			c0.09,0.007,0.172,0.017,0.246,0.029v4.971c-0.234,0.066-0.513,0.13-0.837,0.189c-0.323,0.061-0.657,0.09-1.005,0.09
			c-0.326,0-0.635-0.027-0.925-0.084c-0.29-0.058-0.545-0.172-0.765-0.346c-0.221-0.174-0.395-0.417-0.521-0.73
			c-0.126-0.312-0.189-0.727-0.189-1.239V81.25H67.043z"/>
		<path fill="#191919" d="M72.745,82.042h-0.781L71.924,81.9l1.72-1.92h0.08v1.271h1.3c0.027,0.113,0.04,0.24,0.04,0.381
			c0,0.072-0.003,0.144-0.01,0.209c-0.007,0.066-0.017,0.135-0.03,0.201h-1.3v2.34c0,0.279,0.012,0.504,0.034,0.67
			c0.023,0.166,0.064,0.295,0.121,0.385s0.133,0.15,0.229,0.182c0.097,0.028,0.218,0.045,0.364,0.045c0.113,0,0.221-0.01,0.32-0.025
			c0.099-0.016,0.189-0.035,0.27-0.055c0.047,0.133,0.075,0.27,0.085,0.41c0.011,0.139,0.017,0.262,0.017,0.369
			c-0.135,0.033-0.273,0.059-0.42,0.074c-0.147,0.016-0.305,0.025-0.472,0.025c-0.479,0-0.854-0.116-1.125-0.351
			c-0.271-0.233-0.403-0.62-0.403-1.159V82.042L72.745,82.042z"/>
		<path fill="#191919" d="M80.674,85.721c0.594,0.014,1.022,0.141,1.289,0.38c0.268,0.239,0.4,0.569,0.4,0.989
			c0,0.273-0.07,0.52-0.21,0.736c-0.141,0.215-0.334,0.402-0.579,0.559c-0.248,0.156-0.539,0.277-0.875,0.361
			c-0.338,0.082-0.703,0.125-1.096,0.125c-0.688,0-1.211-0.107-1.57-0.32s-0.539-0.551-0.539-1.01c0-0.273,0.072-0.52,0.219-0.735
			c0.147-0.216,0.338-0.39,0.57-0.515c-0.134-0.088-0.244-0.195-0.334-0.326c-0.091-0.129-0.136-0.291-0.136-0.484
			c0-0.246,0.056-0.46,0.165-0.641c0.109-0.18,0.258-0.34,0.443-0.479c-0.219-0.152-0.396-0.352-0.529-0.596
			c-0.133-0.243-0.199-0.518-0.199-0.825c0-0.253,0.047-0.489,0.141-0.71s0.229-0.411,0.404-0.574
			c0.178-0.164,0.395-0.291,0.654-0.386c0.261-0.093,0.557-0.14,0.891-0.14c0.301,0,0.571,0.043,0.814,0.129
			c0.244,0.088,0.451,0.197,0.625,0.33c0.134-0.105,0.312-0.194,0.54-0.264c0.228-0.07,0.478-0.105,0.75-0.105
			c0.026,0.127,0.04,0.267,0.04,0.42c0,0.072-0.004,0.15-0.01,0.23c-0.008,0.08-0.018,0.16-0.03,0.239h-0.899
			c0.073,0.113,0.131,0.236,0.17,0.369c0.041,0.134,0.061,0.287,0.061,0.46c0,0.273-0.051,0.521-0.149,0.74
			c-0.101,0.22-0.241,0.408-0.426,0.564c-0.183,0.156-0.401,0.276-0.653,0.359c-0.255,0.084-0.531,0.125-0.83,0.125
			c-0.273,0-0.521-0.029-0.74-0.09c-0.094,0.054-0.186,0.135-0.275,0.244c-0.09,0.111-0.135,0.229-0.135,0.355
			c0,0.12,0.044,0.225,0.13,0.314c0.087,0.09,0.28,0.139,0.58,0.146L80.674,85.721z M79.325,86.51
			c-0.301-0.006-0.525,0.074-0.676,0.24s-0.227,0.367-0.227,0.601c0,0.146,0.031,0.267,0.091,0.36
			c0.062,0.093,0.146,0.168,0.255,0.225s0.24,0.098,0.391,0.12c0.149,0.022,0.314,0.034,0.495,0.034c0.533,0,0.95-0.088,1.25-0.264
			c0.3-0.178,0.45-0.398,0.45-0.666c0-0.199-0.062-0.354-0.189-0.459c-0.127-0.107-0.36-0.164-0.701-0.17L79.325,86.51z
			 M79.784,84.01c0.359,0,0.627-0.1,0.801-0.299c0.172-0.201,0.26-0.457,0.26-0.771c0-0.318-0.088-0.581-0.26-0.783
			c-0.174-0.205-0.44-0.307-0.801-0.307c-0.359,0-0.625,0.102-0.795,0.307c-0.17,0.202-0.255,0.465-0.255,0.783
			c0,0.312,0.085,0.57,0.255,0.771S79.424,84.01,79.784,84.01z"/>
		<path fill="#191919" d="M83.165,81.25c0.072-0.014,0.144-0.022,0.209-0.029c0.066-0.008,0.138-0.01,0.211-0.01
			c0.072,0,0.146,0.002,0.221,0.01c0.072,0.007,0.14,0.017,0.199,0.029c0.021,0.101,0.039,0.231,0.061,0.396
			c0.02,0.164,0.03,0.302,0.03,0.415c0.14-0.227,0.323-0.423,0.555-0.59c0.229-0.166,0.524-0.25,0.886-0.25
			c0.053,0,0.107,0.002,0.164,0.005c0.057,0.004,0.105,0.009,0.146,0.017c0.013,0.059,0.021,0.123,0.029,0.188
			c0.006,0.067,0.01,0.137,0.01,0.21c0,0.08-0.006,0.164-0.016,0.25c-0.01,0.087-0.021,0.17-0.035,0.25
			c-0.053-0.014-0.107-0.02-0.164-0.02c-0.058,0-0.103,0-0.135,0c-0.181,0-0.353,0.023-0.516,0.074
			c-0.164,0.051-0.311,0.139-0.439,0.266s-0.233,0.299-0.311,0.52s-0.115,0.504-0.115,0.852v2.549
			c-0.072,0.015-0.154,0.023-0.244,0.031c-0.091,0.006-0.173,0.01-0.246,0.01c-0.072,0-0.154-0.004-0.244-0.01
			c-0.09-0.008-0.176-0.018-0.256-0.031V81.25L83.165,81.25z"/>
		<path fill="#191919" d="M87.184,84.061c0.014,0.561,0.158,0.971,0.436,1.23c0.276,0.26,0.686,0.39,1.226,0.39
			c0.473,0,0.923-0.083,1.35-0.25c0.054,0.101,0.097,0.222,0.13,0.364c0.033,0.144,0.055,0.285,0.061,0.426
			c-0.221,0.094-0.461,0.162-0.725,0.21c-0.264,0.047-0.556,0.069-0.875,0.069c-0.468,0-0.867-0.064-1.199-0.194
			c-0.334-0.13-0.608-0.313-0.826-0.55c-0.217-0.237-0.375-0.518-0.475-0.84c-0.101-0.324-0.15-0.68-0.15-1.065
			c0-0.38,0.049-0.733,0.146-1.063s0.245-0.617,0.445-0.861c0.2-0.242,0.45-0.436,0.755-0.579s0.661-0.216,1.075-0.216
			c0.354,0,0.663,0.061,0.93,0.181s0.49,0.285,0.67,0.495c0.181,0.21,0.316,0.46,0.41,0.75c0.095,0.29,0.14,0.605,0.14,0.945
			c0,0.094-0.002,0.19-0.01,0.295c-0.007,0.104-0.014,0.19-0.02,0.265L87.184,84.061L87.184,84.061z M89.724,83.321
			c0-0.188-0.024-0.365-0.075-0.535c-0.05-0.17-0.123-0.318-0.22-0.445s-0.22-0.229-0.37-0.305s-0.328-0.115-0.535-0.115
			c-0.406,0-0.719,0.123-0.936,0.371c-0.217,0.246-0.348,0.59-0.396,1.029H89.724z"/>
		<path fill="#191919" d="M94.422,83c0-0.394-0.1-0.666-0.299-0.819c-0.201-0.153-0.49-0.229-0.871-0.229
			c-0.232,0-0.451,0.02-0.654,0.055c-0.203,0.037-0.401,0.086-0.596,0.146c-0.127-0.22-0.188-0.481-0.188-0.789
			c0.228-0.073,0.478-0.131,0.75-0.171s0.536-0.061,0.79-0.061c0.666,0,1.173,0.152,1.52,0.455c0.348,0.305,0.521,0.789,0.521,1.455
			v3.211c-0.234,0.054-0.518,0.107-0.852,0.164c-0.332,0.058-0.672,0.086-1.02,0.086c-0.327,0-0.622-0.03-0.886-0.09
			c-0.263-0.062-0.486-0.158-0.671-0.291c-0.184-0.134-0.323-0.304-0.424-0.51c-0.101-0.207-0.149-0.457-0.149-0.75
			c0-0.287,0.058-0.539,0.175-0.756c0.116-0.216,0.273-0.396,0.475-0.54s0.431-0.25,0.69-0.319c0.261-0.07,0.533-0.104,0.819-0.104
			c0.214,0,0.389,0.005,0.525,0.017c0.137,0.01,0.252,0.021,0.344,0.033V83z M94.422,83.971c-0.1-0.014-0.227-0.026-0.379-0.04
			c-0.153-0.013-0.283-0.021-0.391-0.021c-0.414,0-0.729,0.076-0.945,0.229c-0.215,0.153-0.324,0.387-0.324,0.7
			c0,0.199,0.037,0.355,0.109,0.47c0.073,0.114,0.166,0.2,0.275,0.261s0.23,0.098,0.363,0.109c0.135,0.014,0.262,0.021,0.381,0.021
			c0.152,0,0.312-0.01,0.476-0.025c0.163-0.018,0.308-0.041,0.435-0.075V83.971z"/>
		<path fill="#191919" d="M96.784,82.042h-0.781L95.963,81.9l1.72-1.92h0.08v1.271h1.3c0.027,0.113,0.04,0.24,0.04,0.381
			c0,0.072-0.003,0.144-0.011,0.209c-0.006,0.066-0.016,0.135-0.029,0.201h-1.3v2.34c0,0.279,0.012,0.504,0.034,0.67
			c0.023,0.166,0.063,0.295,0.121,0.385c0.057,0.09,0.133,0.15,0.229,0.182c0.097,0.028,0.218,0.045,0.364,0.045
			c0.113,0,0.221-0.01,0.32-0.025c0.099-0.016,0.189-0.035,0.27-0.055c0.047,0.133,0.074,0.27,0.085,0.41
			c0.011,0.139,0.017,0.262,0.017,0.369c-0.135,0.033-0.273,0.059-0.42,0.074c-0.147,0.016-0.305,0.025-0.472,0.025
			c-0.479,0-0.854-0.116-1.125-0.351c-0.271-0.233-0.403-0.62-0.403-1.159V82.042z"/>
		<path fill="#191919" d="M99.973,86.381c-0.014-0.094-0.023-0.186-0.029-0.275c-0.007-0.09-0.011-0.182-0.011-0.273
			c0-0.095,0.004-0.188,0.011-0.285c0.006-0.098,0.018-0.191,0.029-0.285c0.094-0.014,0.186-0.023,0.275-0.03
			c0.09-0.006,0.182-0.01,0.274-0.01s0.188,0.004,0.284,0.01c0.097,0.007,0.191,0.019,0.285,0.03
			c0.014,0.094,0.023,0.188,0.029,0.279c0.008,0.094,0.01,0.188,0.01,0.28s-0.002,0.187-0.01,0.279
			c-0.006,0.094-0.017,0.187-0.029,0.28c-0.094,0.014-0.188,0.022-0.279,0.029c-0.094,0.006-0.188,0.01-0.279,0.01
			c-0.095,0-0.188-0.004-0.281-0.01C100.159,86.404,100.066,86.395,99.973,86.381z M100.013,79.19
			c0.087-0.014,0.172-0.021,0.255-0.029c0.084-0.007,0.169-0.011,0.256-0.011c0.094,0,0.188,0.004,0.279,0.011
			c0.094,0.008,0.188,0.018,0.279,0.029l-0.06,5.03c-0.153,0.026-0.312,0.04-0.472,0.04c-0.18,0-0.336-0.014-0.469-0.04
			L100.013,79.19z"/>
	</g>
</g>
<g id="Name">
	<text transform="matrix(1 0 0 1 33.1069 30.3789)" fill="#FFFFFF" font-family="'Aller-Bold'" font-size="16">ROBERT</text>
</g>
</svg>
