<?xml version="1.0" encoding="utf-8"?>
<!-- Generator: Adobe Illustrator 16.0.0, SVG Export Plug-In . SVG Version: 6.00 Build 0)  -->
<!DOCTYPE svg PUBLIC "-//W3C//DTD SVG 1.1//EN" "http://www.w3.org/Graphics/SVG/1.1/DTD/svg11.dtd">
<svg version="1.1" id="Layer_1" xmlns="http://www.w3.org/2000/svg" xmlns:xlink="http://www.w3.org/1999/xlink" x="0px" y="0px"
	 width="122.758px" height="106.551px" viewBox="0 0 122.758 106.551" enable-background="new 0 0 122.758 106.551"
	 xml:space="preserve">
<g id="Layer_1_1_">
	<g>
		<rect x="9.687" y="11.202" fill="#D93D4A" width="103.881" height="25.187"/>
		<g>
			<g>
				<path fill="#D93D4A" d="M110.566,37.055v56.791H12.687V37.055H110.566 M113.566,34.055H9.687v62.791h103.881L113.566,34.055
					L113.566,34.055z"/>
			</g>
		</g>
	</g>
</g>
<g id="Text" display="none">
	<rect x="17.311" y="43.011" display="inline" fill="none" width="89.667" height="50.333"/>
	<text transform="matrix(1 0 0 1 22.4795 50.3809)" display="inline" font-family="'Aller'" font-size="10">I brought the tent </text>
	<text transform="matrix(1 0 0 1 25.2295 62.3809)" display="inline" font-family="'Aller'" font-size="10">to Banff and had </text>
	<text transform="matrix(1 0 0 1 21.0596 74.3809)" display="inline" font-family="'Aller'" font-size="10">the best time with </text>
	<text transform="matrix(1 0 0 1 38.5596 86.3809)" display="inline" font-family="'Aller'" font-size="10">my family.</text>
</g>
<g id="PR">
	<g id="Text_1_">
		<rect x="17.311" y="43.011" fill="none" width="89.667" height="50.333"/>
		<g enable-background="new    ">
			<path d="M23.359,43.19c0.08-0.013,0.164-0.022,0.25-0.029c0.087-0.007,0.173-0.011,0.26-0.011c0.086,0,0.173,0.004,0.26,0.011
				c0.087,0.007,0.17,0.017,0.25,0.029v7.19c-0.08,0.014-0.162,0.023-0.245,0.03c-0.083,0.006-0.171,0.01-0.265,0.01
				c-0.087,0-0.175-0.004-0.265-0.01c-0.09-0.007-0.172-0.017-0.245-0.03V43.19z"/>
			<path d="M28.419,43.051c0.073-0.014,0.155-0.023,0.245-0.03c0.09-0.006,0.171-0.01,0.245-0.01c0.074,0,0.157,0.004,0.25,0.01
				c0.093,0.007,0.177,0.017,0.25,0.03v2.82c0.12-0.2,0.307-0.373,0.56-0.521c0.253-0.146,0.56-0.22,0.92-0.22
				c0.307,0,0.59,0.05,0.85,0.15c0.26,0.1,0.483,0.255,0.67,0.465s0.332,0.477,0.435,0.8C32.947,46.868,33,47.251,33,47.69
				c0,0.881-0.249,1.569-0.745,2.065c-0.497,0.497-1.212,0.745-2.145,0.745c-0.293,0-0.595-0.028-0.905-0.085
				s-0.572-0.122-0.785-0.195L28.419,43.051L28.419,43.051z M29.409,49.551c0.12,0.04,0.249,0.068,0.385,0.085
				c0.136,0.017,0.278,0.025,0.425,0.025c0.247,0,0.475-0.038,0.685-0.115c0.21-0.076,0.392-0.193,0.545-0.35
				c0.153-0.157,0.275-0.357,0.365-0.601c0.09-0.244,0.135-0.531,0.135-0.865c0-0.553-0.097-0.982-0.29-1.29
				c-0.193-0.306-0.513-0.46-0.96-0.46c-0.153,0-0.305,0.025-0.455,0.075c-0.15,0.05-0.289,0.13-0.415,0.24
				c-0.127,0.11-0.229,0.257-0.305,0.44c-0.077,0.183-0.115,0.404-0.115,0.664V49.551z"/>
			<path d="M34.329,45.251c0.073-0.014,0.144-0.023,0.21-0.03c0.067-0.007,0.137-0.01,0.21-0.01c0.073,0,0.146,0.003,0.22,0.01
				c0.074,0.007,0.14,0.017,0.2,0.03c0.02,0.1,0.04,0.231,0.06,0.395s0.03,0.302,0.03,0.415c0.14-0.227,0.325-0.423,0.555-0.59
				c0.23-0.166,0.525-0.25,0.885-0.25c0.053,0,0.108,0.002,0.165,0.005c0.057,0.004,0.105,0.009,0.145,0.016
				c0.013,0.06,0.023,0.123,0.03,0.189c0.007,0.067,0.01,0.137,0.01,0.21c0,0.08-0.005,0.164-0.015,0.25
				c-0.01,0.087-0.021,0.17-0.035,0.25c-0.054-0.013-0.109-0.02-0.165-0.02c-0.057,0-0.102,0-0.135,0
				c-0.18,0-0.352,0.024-0.515,0.075c-0.163,0.05-0.31,0.138-0.44,0.265c-0.13,0.127-0.233,0.3-0.31,0.52
				c-0.077,0.221-0.115,0.504-0.115,0.851v2.55c-0.073,0.014-0.155,0.023-0.245,0.03c-0.09,0.006-0.172,0.01-0.245,0.01
				c-0.073,0-0.155-0.004-0.245-0.01c-0.09-0.007-0.175-0.017-0.255-0.03V45.251z"/>
			<path d="M39.979,50.501c-0.4,0-0.75-0.068-1.05-0.205c-0.3-0.137-0.55-0.325-0.75-0.565c-0.2-0.239-0.349-0.522-0.445-0.85
				c-0.097-0.326-0.145-0.68-0.145-1.06c0-0.381,0.048-0.733,0.145-1.061c0.097-0.326,0.245-0.61,0.445-0.85
				c0.2-0.24,0.45-0.431,0.75-0.57c0.3-0.14,0.65-0.21,1.05-0.21s0.75,0.07,1.05,0.21c0.3,0.14,0.55,0.33,0.75,0.57
				c0.2,0.239,0.348,0.523,0.445,0.85c0.097,0.327,0.145,0.68,0.145,1.061c0,0.38-0.048,0.733-0.145,1.06
				c-0.097,0.327-0.245,0.61-0.445,0.85c-0.2,0.24-0.45,0.429-0.75,0.565C40.729,50.433,40.379,50.501,39.979,50.501z
				 M39.979,49.711c0.46,0,0.8-0.167,1.02-0.5s0.33-0.797,0.33-1.39c0-0.594-0.11-1.056-0.33-1.386s-0.56-0.495-1.02-0.495
				s-0.798,0.165-1.015,0.495c-0.217,0.33-0.325,0.792-0.325,1.386c0,0.593,0.108,1.057,0.325,1.39
				C39.181,49.544,39.52,49.711,39.979,49.711z"/>
			<path d="M43.609,45.251c0.073-0.014,0.156-0.023,0.25-0.03c0.093-0.007,0.173-0.01,0.24-0.01c0.073,0,0.157,0.003,0.25,0.01
				c0.093,0.007,0.177,0.017,0.25,0.03v2.81c0,0.32,0.03,0.585,0.09,0.795s0.15,0.375,0.27,0.495s0.267,0.204,0.44,0.25
				c0.173,0.047,0.374,0.07,0.6,0.07c0.34,0,0.63-0.036,0.87-0.11v-4.31c0.073-0.014,0.155-0.023,0.245-0.03
				c0.09-0.007,0.171-0.01,0.245-0.01c0.073,0,0.155,0.003,0.245,0.01c0.09,0.007,0.172,0.017,0.245,0.03v4.97
				c-0.233,0.066-0.512,0.13-0.835,0.19c-0.323,0.06-0.659,0.09-1.005,0.09c-0.327,0-0.635-0.028-0.925-0.085
				s-0.545-0.172-0.765-0.345c-0.22-0.174-0.394-0.417-0.52-0.73c-0.127-0.313-0.19-0.727-0.19-1.24V45.251L43.609,45.251z"/>
			<path d="M52.159,49.721c0.593,0.014,1.023,0.141,1.29,0.38c0.267,0.24,0.4,0.57,0.4,0.99c0,0.273-0.07,0.519-0.21,0.735
				c-0.14,0.216-0.333,0.403-0.58,0.56c-0.247,0.156-0.539,0.276-0.875,0.36c-0.337,0.083-0.702,0.125-1.095,0.125
				c-0.687,0-1.21-0.107-1.57-0.32c-0.36-0.213-0.54-0.55-0.54-1.01c0-0.273,0.073-0.519,0.22-0.735
				c0.147-0.216,0.337-0.389,0.57-0.515c-0.134-0.087-0.245-0.195-0.335-0.325c-0.09-0.13-0.135-0.292-0.135-0.485
				c0-0.246,0.055-0.46,0.165-0.64c0.11-0.18,0.258-0.34,0.445-0.479c-0.22-0.153-0.396-0.352-0.53-0.596
				c-0.133-0.243-0.2-0.518-0.2-0.825c0-0.253,0.047-0.489,0.14-0.71c0.093-0.22,0.229-0.411,0.405-0.574
				c0.176-0.164,0.395-0.292,0.655-0.386c0.26-0.093,0.557-0.14,0.89-0.14c0.3,0,0.571,0.043,0.815,0.13
				c0.243,0.087,0.452,0.197,0.625,0.33c0.133-0.106,0.313-0.195,0.54-0.265c0.227-0.07,0.477-0.105,0.75-0.105
				c0.026,0.127,0.04,0.267,0.04,0.42c0,0.073-0.003,0.15-0.01,0.23c-0.007,0.08-0.017,0.16-0.03,0.24h-0.9
				c0.073,0.113,0.13,0.236,0.17,0.369c0.04,0.134,0.06,0.287,0.06,0.46c0,0.273-0.05,0.521-0.15,0.74
				c-0.1,0.22-0.242,0.408-0.425,0.565c-0.184,0.156-0.402,0.276-0.655,0.359c-0.254,0.084-0.53,0.125-0.83,0.125
				c-0.273,0-0.52-0.029-0.74-0.09c-0.093,0.054-0.185,0.135-0.275,0.245c-0.09,0.11-0.135,0.229-0.135,0.355
				c0,0.12,0.043,0.225,0.13,0.314c0.086,0.09,0.28,0.139,0.58,0.146L52.159,49.721z M50.81,50.511
				c-0.3-0.007-0.525,0.073-0.675,0.24c-0.15,0.166-0.225,0.366-0.225,0.6c0,0.146,0.03,0.267,0.09,0.36
				c0.06,0.093,0.145,0.168,0.255,0.225c0.11,0.057,0.24,0.097,0.39,0.12s0.315,0.035,0.495,0.035c0.534,0,0.95-0.089,1.25-0.265
				c0.3-0.177,0.45-0.398,0.45-0.665c0-0.2-0.063-0.354-0.19-0.46c-0.127-0.107-0.36-0.164-0.7-0.17L50.81,50.511z M51.27,48.011
				c0.36,0,0.626-0.1,0.8-0.3c0.174-0.2,0.26-0.457,0.26-0.771c0-0.319-0.087-0.581-0.26-0.784c-0.173-0.204-0.44-0.306-0.8-0.306
				s-0.625,0.102-0.795,0.306c-0.17,0.203-0.255,0.465-0.255,0.784c0,0.313,0.085,0.57,0.255,0.771
				C50.645,47.911,50.909,48.011,51.27,48.011z"/>
			<path d="M54.929,43.051c0.073-0.014,0.155-0.023,0.245-0.03c0.09-0.006,0.171-0.01,0.245-0.01c0.074,0,0.157,0.004,0.25,0.01
				c0.093,0.007,0.177,0.017,0.25,0.03v2.98c0.06-0.094,0.135-0.193,0.225-0.301c0.09-0.106,0.2-0.205,0.33-0.295
				s0.28-0.163,0.45-0.22c0.17-0.057,0.358-0.085,0.565-0.085c0.586,0,1.021,0.168,1.305,0.505c0.284,0.337,0.425,0.835,0.425,1.495
				v3.25c-0.074,0.014-0.155,0.023-0.245,0.03c-0.09,0.006-0.172,0.01-0.245,0.01c-0.073,0-0.155-0.004-0.245-0.01
				c-0.09-0.007-0.172-0.017-0.245-0.03V47.4c0-0.473-0.079-0.821-0.235-1.045c-0.157-0.223-0.395-0.335-0.715-0.335
				c-0.18,0-0.354,0.032-0.52,0.096c-0.166,0.064-0.313,0.163-0.44,0.3s-0.227,0.314-0.3,0.535c-0.074,0.22-0.11,0.486-0.11,0.8
				v2.63c-0.073,0.014-0.157,0.023-0.25,0.03c-0.093,0.006-0.176,0.01-0.25,0.01c-0.066,0-0.146-0.004-0.24-0.01
				c-0.093-0.007-0.177-0.017-0.25-0.03V43.051z"/>
			<path d="M60.909,46.041h-0.78l-0.04-0.141l1.72-1.92h0.08v1.271h1.301c0.025,0.113,0.039,0.24,0.039,0.38
				c0,0.073-0.004,0.144-0.01,0.21c-0.007,0.066-0.018,0.134-0.029,0.2h-1.301v2.34c0,0.28,0.012,0.504,0.035,0.67
				c0.023,0.167,0.062,0.295,0.119,0.385s0.135,0.15,0.23,0.181c0.097,0.029,0.219,0.045,0.365,0.045
				c0.111,0,0.219-0.009,0.318-0.025c0.102-0.017,0.188-0.035,0.271-0.055c0.047,0.133,0.072,0.27,0.084,0.41
				c0.011,0.14,0.016,0.263,0.016,0.37c-0.133,0.033-0.273,0.058-0.42,0.074s-0.303,0.025-0.471,0.025
				c-0.479,0-0.854-0.116-1.125-0.35c-0.27-0.234-0.405-0.62-0.405-1.16L60.909,46.041L60.909,46.041z"/>
			<path d="M66.859,46.041h-0.78L66.04,45.9l1.72-1.92h0.08v1.271h1.301c0.025,0.113,0.039,0.24,0.039,0.38
				c0,0.073-0.002,0.144-0.011,0.21c-0.006,0.066-0.017,0.134-0.028,0.2H67.84v2.34c0,0.28,0.012,0.504,0.034,0.67
				c0.022,0.167,0.063,0.295,0.121,0.385c0.057,0.09,0.133,0.15,0.229,0.181c0.096,0.029,0.217,0.045,0.363,0.045
				c0.113,0,0.221-0.009,0.319-0.025c0.101-0.017,0.188-0.035,0.271-0.055c0.045,0.133,0.074,0.27,0.084,0.41
				c0.01,0.14,0.016,0.263,0.016,0.37c-0.135,0.033-0.271,0.058-0.42,0.074c-0.146,0.017-0.305,0.025-0.471,0.025
				c-0.479,0-0.854-0.116-1.125-0.35c-0.27-0.234-0.404-0.62-0.404-1.16v-2.91H66.859z"/>
			<path d="M70.238,43.051c0.074-0.014,0.154-0.023,0.246-0.03c0.09-0.006,0.17-0.01,0.244-0.01c0.072,0,0.155,0.004,0.25,0.01
				c0.094,0.007,0.176,0.017,0.25,0.03v2.98c0.061-0.094,0.135-0.193,0.226-0.301c0.09-0.106,0.2-0.205,0.33-0.295
				s0.28-0.163,0.45-0.22c0.17-0.057,0.356-0.085,0.563-0.085c0.586,0,1.021,0.168,1.306,0.505c0.285,0.337,0.426,0.835,0.426,1.495
				v3.25c-0.073,0.014-0.155,0.023-0.245,0.03c-0.091,0.006-0.173,0.01-0.245,0.01c-0.073,0-0.155-0.004-0.245-0.01
				c-0.09-0.007-0.172-0.017-0.244-0.03V47.4c0-0.473-0.079-0.821-0.235-1.045c-0.155-0.223-0.396-0.335-0.715-0.335
				c-0.181,0-0.354,0.032-0.521,0.096c-0.166,0.064-0.313,0.163-0.438,0.3c-0.127,0.137-0.228,0.314-0.302,0.535
				c-0.073,0.22-0.108,0.486-0.108,0.8v2.63c-0.073,0.014-0.156,0.023-0.25,0.03c-0.095,0.006-0.178,0.01-0.25,0.01
				c-0.065,0-0.146-0.004-0.239-0.01c-0.095-0.007-0.179-0.017-0.25-0.03v-7.33H70.238z"/>
			<path d="M76.768,48.061c0.016,0.561,0.158,0.971,0.438,1.23c0.275,0.26,0.688,0.39,1.227,0.39c0.473,0,0.924-0.083,1.35-0.25
				c0.055,0.101,0.098,0.222,0.131,0.365s0.053,0.285,0.061,0.425c-0.221,0.094-0.463,0.163-0.726,0.21
				c-0.265,0.047-0.556,0.07-0.875,0.07c-0.468,0-0.866-0.065-1.2-0.195c-0.334-0.13-0.607-0.313-0.824-0.55
				c-0.217-0.236-0.375-0.517-0.476-0.84s-0.149-0.679-0.149-1.065c0-0.38,0.047-0.734,0.146-1.064
				c0.096-0.33,0.242-0.617,0.443-0.86c0.199-0.243,0.451-0.437,0.754-0.58c0.306-0.144,0.662-0.215,1.076-0.215
				c0.354,0,0.662,0.06,0.93,0.18s0.49,0.285,0.672,0.495c0.18,0.21,0.314,0.46,0.408,0.75c0.095,0.29,0.142,0.605,0.142,0.945
				c0,0.094-0.003,0.191-0.012,0.295c-0.007,0.104-0.013,0.191-0.021,0.265L76.768,48.061L76.768,48.061z M79.309,47.321
				c0-0.187-0.023-0.365-0.076-0.535c-0.049-0.17-0.123-0.318-0.219-0.445c-0.098-0.127-0.221-0.229-0.371-0.305
				c-0.147-0.077-0.328-0.115-0.535-0.115c-0.404,0-0.717,0.123-0.935,0.37c-0.216,0.246-0.349,0.59-0.396,1.03H79.309z"/>
			<path d="M84.148,46.041h-0.779l-0.04-0.141l1.721-1.92h0.08v1.271h1.3c0.026,0.113,0.041,0.24,0.041,0.38
				c0,0.073-0.005,0.144-0.012,0.21c-0.007,0.066-0.018,0.134-0.029,0.2h-1.3v2.34c0,0.28,0.011,0.504,0.034,0.67
				c0.023,0.167,0.062,0.295,0.12,0.385c0.057,0.09,0.133,0.15,0.229,0.181c0.096,0.029,0.219,0.045,0.364,0.045
				c0.113,0,0.22-0.009,0.319-0.025c0.1-0.016,0.189-0.035,0.271-0.055c0.048,0.133,0.074,0.27,0.084,0.41
				c0.011,0.14,0.017,0.263,0.017,0.37c-0.133,0.033-0.272,0.058-0.42,0.074c-0.146,0.016-0.303,0.025-0.472,0.025
				c-0.479,0-0.854-0.116-1.125-0.35c-0.27-0.233-0.403-0.62-0.403-1.16V46.041L84.148,46.041z"/>
			<path d="M88.277,48.061c0.015,0.561,0.158,0.971,0.437,1.23c0.276,0.26,0.687,0.39,1.226,0.39c0.475,0,0.924-0.083,1.351-0.25
				c0.056,0.101,0.099,0.222,0.131,0.365c0.033,0.143,0.054,0.285,0.062,0.425c-0.222,0.094-0.463,0.163-0.727,0.21
				c-0.264,0.047-0.556,0.07-0.875,0.07c-0.467,0-0.865-0.065-1.199-0.195c-0.334-0.13-0.607-0.313-0.824-0.55
				c-0.217-0.236-0.375-0.517-0.477-0.84s-0.148-0.679-0.148-1.065c0-0.38,0.047-0.734,0.146-1.064
				c0.097-0.33,0.244-0.617,0.444-0.86c0.199-0.243,0.451-0.437,0.755-0.58c0.304-0.144,0.661-0.215,1.075-0.215
				c0.354,0,0.662,0.06,0.931,0.18c0.267,0.12,0.489,0.285,0.67,0.495s0.315,0.46,0.41,0.75c0.093,0.29,0.14,0.605,0.14,0.945
				c0,0.094-0.003,0.191-0.011,0.295c-0.006,0.104-0.013,0.191-0.021,0.265L88.277,48.061L88.277,48.061z M90.818,47.321
				c0-0.187-0.024-0.365-0.075-0.535c-0.05-0.17-0.123-0.318-0.22-0.445c-0.099-0.127-0.222-0.229-0.371-0.305
				c-0.148-0.077-0.327-0.115-0.534-0.115c-0.406,0-0.718,0.123-0.935,0.37c-0.218,0.246-0.351,0.59-0.396,1.03H90.818z"/>
			<path d="M93.098,45.251c0.073-0.014,0.146-0.023,0.215-0.03c0.07-0.007,0.145-0.01,0.215-0.01c0.074,0,0.145,0.003,0.205,0.01
				c0.063,0.007,0.134,0.017,0.205,0.03c0.021,0.1,0.041,0.235,0.062,0.405c0.021,0.17,0.027,0.312,0.027,0.425
				c0.066-0.113,0.152-0.227,0.258-0.34c0.104-0.113,0.221-0.216,0.354-0.306s0.285-0.163,0.459-0.22
				c0.174-0.057,0.363-0.085,0.57-0.085c0.586,0,1.02,0.168,1.3,0.505c0.28,0.337,0.421,0.835,0.421,1.495v3.25
				c-0.074,0.014-0.158,0.023-0.25,0.03c-0.094,0.006-0.178,0.01-0.25,0.01c-0.074,0-0.156-0.004-0.246-0.01
				c-0.09-0.007-0.172-0.017-0.244-0.03V47.4c0-0.473-0.072-0.821-0.221-1.045c-0.146-0.223-0.38-0.335-0.699-0.335
				c-0.188,0-0.362,0.034-0.531,0.101c-0.164,0.066-0.311,0.17-0.438,0.31c-0.127,0.141-0.229,0.322-0.305,0.545
				c-0.077,0.224-0.115,0.492-0.115,0.806v2.6c-0.072,0.014-0.154,0.023-0.244,0.03c-0.091,0.006-0.173,0.01-0.244,0.01
				c-0.074,0-0.156-0.004-0.25-0.01c-0.096-0.007-0.179-0.017-0.25-0.03v-5.131H93.098z"/>
			<path d="M99.068,46.041h-0.779l-0.04-0.141l1.722-1.92h0.079v1.271h1.3c0.026,0.113,0.041,0.24,0.041,0.38
				c0,0.073-0.004,0.144-0.012,0.21c-0.007,0.066-0.018,0.134-0.029,0.2h-1.3v2.34c0,0.28,0.011,0.504,0.034,0.67
				c0.023,0.167,0.062,0.295,0.12,0.385s0.133,0.15,0.229,0.181c0.096,0.029,0.219,0.045,0.364,0.045
				c0.113,0,0.22-0.009,0.319-0.025c0.1-0.016,0.189-0.035,0.271-0.055c0.047,0.133,0.073,0.27,0.084,0.41
				c0.01,0.14,0.016,0.263,0.016,0.37c-0.133,0.033-0.272,0.058-0.42,0.074c-0.146,0.016-0.303,0.025-0.471,0.025
				c-0.479,0-0.854-0.116-1.125-0.35c-0.271-0.233-0.404-0.62-0.404-1.16V46.041z"/>
		</g>
		<g enable-background="new    ">
			<path d="M26.22,58.042h-0.78L25.4,57.9l1.72-1.92h0.08v1.271h1.3c0.026,0.113,0.04,0.24,0.04,0.381
				c0,0.072-0.003,0.144-0.01,0.209c-0.006,0.066-0.017,0.136-0.03,0.201h-1.3v2.34c0,0.279,0.011,0.505,0.035,0.67
				c0.024,0.166,0.063,0.296,0.12,0.386s0.133,0.149,0.23,0.181c0.097,0.028,0.218,0.045,0.365,0.045c0.113,0,0.22-0.009,0.32-0.024
				c0.1-0.017,0.19-0.035,0.27-0.056c0.046,0.133,0.075,0.271,0.085,0.41s0.015,0.264,0.015,0.371
				c-0.134,0.032-0.273,0.057-0.42,0.073s-0.304,0.024-0.47,0.024c-0.48,0-0.855-0.116-1.125-0.351
				c-0.27-0.233-0.405-0.62-0.405-1.159V58.042z"/>
			<path d="M31.689,62.5c-0.4,0-0.75-0.068-1.05-0.205c-0.3-0.137-0.55-0.324-0.75-0.564c-0.2-0.238-0.349-0.521-0.445-0.85
				c-0.096-0.326-0.145-0.68-0.145-1.061s0.048-0.732,0.145-1.062c0.097-0.324,0.245-0.607,0.445-0.85
				c0.2-0.24,0.45-0.432,0.75-0.57c0.3-0.139,0.65-0.209,1.05-0.209s0.75,0.07,1.05,0.209c0.3,0.143,0.55,0.33,0.75,0.57
				c0.2,0.238,0.348,0.521,0.445,0.85c0.097,0.328,0.145,0.682,0.145,1.062s-0.048,0.734-0.145,1.061
				c-0.097,0.327-0.245,0.609-0.445,0.85c-0.2,0.24-0.45,0.43-0.75,0.564C32.439,62.432,32.089,62.5,31.689,62.5z M31.689,61.711
				c0.46,0,0.8-0.168,1.02-0.5c0.22-0.334,0.33-0.797,0.33-1.391s-0.11-1.055-0.33-1.385s-0.56-0.496-1.02-0.496
				s-0.798,0.166-1.015,0.496c-0.217,0.33-0.325,0.791-0.325,1.385s0.108,1.057,0.325,1.391
				C30.891,61.543,31.229,61.711,31.689,61.711z"/>
			<path d="M37.839,55.189c0.167-0.032,0.4-0.06,0.7-0.078c0.3-0.021,0.604-0.03,0.91-0.03c0.38,0,0.727,0.033,1.04,0.101
				c0.313,0.068,0.582,0.176,0.805,0.325c0.223,0.15,0.396,0.345,0.52,0.58c0.123,0.236,0.185,0.524,0.185,0.865
				c0,0.205-0.032,0.397-0.095,0.573c-0.063,0.177-0.148,0.334-0.255,0.472c-0.107,0.137-0.23,0.25-0.37,0.34
				c-0.14,0.09-0.284,0.154-0.43,0.195c0.187,0.02,0.375,0.067,0.565,0.147c0.19,0.079,0.362,0.192,0.515,0.34
				c0.153,0.147,0.278,0.332,0.375,0.558c0.097,0.223,0.145,0.493,0.145,0.813c0,0.387-0.077,0.715-0.23,0.983
				c-0.153,0.271-0.362,0.487-0.625,0.655c-0.264,0.166-0.573,0.285-0.93,0.359c-0.356,0.071-0.738,0.108-1.145,0.108
				c-0.253,0-0.53-0.013-0.83-0.035s-0.583-0.051-0.85-0.084V55.189z M39.579,58.189c0.454,0,0.8-0.099,1.04-0.295
				c0.24-0.194,0.36-0.49,0.36-0.886c0-0.379-0.128-0.661-0.385-0.85c-0.257-0.187-0.605-0.279-1.045-0.279
				c-0.133,0-0.262,0.004-0.385,0.011c-0.123,0.006-0.229,0.017-0.315,0.028v2.271H39.579z M38.849,61.59
				c0.093,0.014,0.211,0.023,0.355,0.031c0.144,0.006,0.285,0.01,0.425,0.01c0.24,0,0.465-0.02,0.675-0.061
				c0.21-0.039,0.395-0.107,0.555-0.205c0.16-0.096,0.287-0.227,0.38-0.391c0.093-0.162,0.14-0.371,0.14-0.625
				c0-0.246-0.043-0.455-0.13-0.625c-0.086-0.17-0.205-0.309-0.355-0.41c-0.15-0.103-0.328-0.176-0.535-0.219
				c-0.207-0.045-0.43-0.064-0.67-0.064h-0.84V61.59z"/>
			<path d="M46.409,59c0-0.393-0.1-0.666-0.3-0.82c-0.2-0.152-0.49-0.229-0.87-0.229c-0.233,0-0.452,0.018-0.655,0.055
				c-0.204,0.037-0.402,0.084-0.595,0.145c-0.126-0.221-0.19-0.48-0.19-0.789c0.227-0.072,0.477-0.131,0.75-0.172
				c0.273-0.039,0.537-0.059,0.79-0.059c0.667,0,1.173,0.15,1.52,0.455c0.347,0.303,0.52,0.787,0.52,1.455v3.209
				c-0.233,0.055-0.517,0.109-0.85,0.166s-0.673,0.084-1.02,0.084c-0.327,0-0.622-0.029-0.885-0.09
				c-0.264-0.061-0.487-0.156-0.67-0.289c-0.184-0.135-0.325-0.305-0.425-0.51c-0.1-0.207-0.15-0.457-0.15-0.75
				c0-0.287,0.058-0.539,0.175-0.756c0.117-0.217,0.275-0.396,0.475-0.541c0.2-0.145,0.43-0.25,0.69-0.318
				c0.26-0.07,0.534-0.105,0.82-0.105c0.213,0,0.388,0.004,0.525,0.018c0.137,0.01,0.251,0.021,0.345,0.031V59L46.409,59z
				 M46.409,59.971c-0.1-0.014-0.227-0.027-0.38-0.041c-0.153-0.012-0.283-0.02-0.39-0.02c-0.414,0-0.729,0.076-0.945,0.23
				c-0.217,0.15-0.325,0.387-0.325,0.697c0,0.201,0.036,0.355,0.11,0.473c0.073,0.111,0.165,0.197,0.275,0.26
				c0.11,0.061,0.231,0.098,0.365,0.109c0.133,0.014,0.26,0.021,0.38,0.021c0.153,0,0.312-0.011,0.475-0.025
				c0.163-0.018,0.308-0.041,0.435-0.075V59.971z"/>
			<path d="M48.869,57.25c0.073-0.014,0.145-0.023,0.215-0.029c0.07-0.008,0.142-0.01,0.215-0.01c0.073,0,0.142,0.002,0.205,0.01
				c0.063,0.006,0.131,0.016,0.205,0.029c0.02,0.1,0.04,0.236,0.06,0.406s0.03,0.311,0.03,0.424c0.066-0.113,0.151-0.227,0.255-0.34
				s0.222-0.215,0.355-0.305c0.133-0.09,0.287-0.164,0.46-0.223c0.173-0.057,0.363-0.084,0.57-0.084c0.586,0,1.02,0.168,1.3,0.504
				c0.28,0.34,0.42,0.838,0.42,1.496v3.25c-0.073,0.016-0.157,0.021-0.25,0.029c-0.093,0.006-0.177,0.01-0.25,0.01
				c-0.073,0-0.155-0.004-0.245-0.01c-0.09-0.008-0.172-0.018-0.245-0.029V59.4c0-0.475-0.074-0.822-0.22-1.045
				c-0.146-0.225-0.38-0.336-0.7-0.336c-0.187,0-0.364,0.035-0.53,0.102c-0.166,0.066-0.312,0.17-0.44,0.309
				c-0.126,0.141-0.229,0.322-0.305,0.545c-0.077,0.227-0.115,0.492-0.115,0.809v2.6c-0.073,0.016-0.155,0.021-0.245,0.029
				c-0.09,0.006-0.172,0.01-0.245,0.01c-0.073,0-0.157-0.004-0.25-0.01c-0.093-0.008-0.177-0.018-0.25-0.029V57.25z"/>
			<path d="M54.999,58.032h-0.84c-0.027-0.107-0.04-0.238-0.04-0.392c0-0.146,0.013-0.276,0.04-0.392h0.84v-0.312
				c0-0.633,0.157-1.111,0.47-1.441c0.313-0.33,0.767-0.496,1.36-0.496c0.173,0,0.333,0.014,0.48,0.035s0.276,0.053,0.39,0.086
				c-0.02,0.172-0.054,0.318-0.1,0.441c-0.047,0.125-0.097,0.242-0.15,0.355c-0.06-0.02-0.133-0.037-0.22-0.055
				c-0.086-0.016-0.19-0.025-0.31-0.025c-0.14,0-0.268,0.016-0.385,0.045c-0.117,0.031-0.215,0.088-0.295,0.17
				c-0.08,0.084-0.142,0.199-0.185,0.346c-0.043,0.147-0.065,0.336-0.065,0.57v0.279h2.16v-0.359c0-0.633,0.159-1.115,0.475-1.445
				c0.317-0.328,0.778-0.492,1.385-0.492c0.167,0,0.313,0.008,0.44,0.021c0.126,0.02,0.247,0.043,0.36,0.076
				c-0.013,0.166-0.032,0.311-0.055,0.43s-0.055,0.244-0.095,0.369c-0.067-0.012-0.145-0.025-0.235-0.045
				c-0.09-0.016-0.199-0.021-0.325-0.021c-0.146,0-0.278,0.014-0.395,0.045c-0.117,0.027-0.217,0.086-0.3,0.17
				c-0.083,0.082-0.148,0.197-0.195,0.352c-0.046,0.148-0.07,0.342-0.07,0.572v0.33h1.31c0.02,0.135,0.03,0.271,0.03,0.41
				c0,0.127-0.01,0.25-0.03,0.371h-1.31v4.35c-0.073,0.016-0.155,0.021-0.245,0.029c-0.09,0.006-0.172,0.01-0.245,0.01
				c-0.073,0-0.157-0.004-0.25-0.01c-0.093-0.008-0.177-0.018-0.25-0.029v-4.35h-2.16v4.35c-0.074,0.016-0.155,0.021-0.245,0.029
				c-0.09,0.006-0.172,0.01-0.245,0.01c-0.073,0-0.157-0.004-0.25-0.01c-0.093-0.008-0.177-0.018-0.25-0.029V58.032z"/>
			<path d="M66.579,59c0-0.393-0.101-0.666-0.3-0.82c-0.2-0.152-0.489-0.229-0.87-0.229c-0.233,0-0.451,0.018-0.654,0.055
				c-0.204,0.037-0.401,0.084-0.596,0.145c-0.127-0.221-0.188-0.48-0.188-0.789c0.228-0.072,0.478-0.131,0.75-0.172
				c0.272-0.039,0.535-0.059,0.788-0.059c0.667,0,1.175,0.15,1.521,0.455c0.349,0.303,0.521,0.787,0.521,1.455v3.209
				c-0.234,0.055-0.518,0.109-0.851,0.166S66.025,62.5,65.678,62.5c-0.326,0-0.621-0.029-0.885-0.09s-0.486-0.156-0.67-0.289
				c-0.184-0.135-0.324-0.305-0.425-0.51c-0.101-0.207-0.149-0.457-0.149-0.75c0-0.287,0.059-0.539,0.174-0.756
				c0.117-0.217,0.275-0.396,0.478-0.541c0.198-0.145,0.431-0.25,0.688-0.318c0.26-0.07,0.533-0.105,0.82-0.105
				c0.213,0,0.389,0.004,0.523,0.018c0.138,0.01,0.252,0.021,0.346,0.031L66.579,59L66.579,59z M66.579,59.971
				c-0.101-0.014-0.228-0.027-0.38-0.041c-0.153-0.012-0.283-0.02-0.391-0.02c-0.414,0-0.729,0.076-0.945,0.23
				c-0.217,0.15-0.323,0.387-0.323,0.697c0,0.201,0.035,0.355,0.108,0.473c0.074,0.111,0.166,0.197,0.274,0.26
				c0.109,0.061,0.229,0.098,0.365,0.109c0.133,0.014,0.26,0.021,0.379,0.021c0.153,0,0.312-0.011,0.478-0.025
				c0.162-0.018,0.308-0.041,0.435-0.075V59.971z"/>
			<path d="M69.039,57.25c0.072-0.014,0.146-0.023,0.216-0.029c0.069-0.008,0.142-0.01,0.216-0.01c0.071,0,0.141,0.002,0.204,0.01
				c0.062,0.006,0.132,0.016,0.205,0.029c0.021,0.1,0.039,0.236,0.06,0.406c0.021,0.17,0.031,0.311,0.031,0.424
				c0.065-0.113,0.149-0.227,0.254-0.34s0.224-0.215,0.354-0.305s0.287-0.164,0.46-0.223c0.173-0.057,0.363-0.084,0.57-0.084
				c0.586,0,1.021,0.168,1.3,0.504c0.28,0.34,0.42,0.838,0.42,1.496v3.25c-0.073,0.016-0.156,0.021-0.25,0.029
				c-0.095,0.006-0.177,0.01-0.25,0.01s-0.154-0.004-0.244-0.01c-0.091-0.008-0.172-0.018-0.246-0.029V59.4
				c0-0.475-0.073-0.822-0.22-1.045c-0.146-0.225-0.381-0.336-0.7-0.336c-0.187,0-0.362,0.035-0.528,0.102
				c-0.168,0.066-0.313,0.17-0.439,0.309c-0.126,0.141-0.229,0.322-0.307,0.545c-0.076,0.227-0.115,0.492-0.115,0.809v2.6
				c-0.071,0.016-0.153,0.021-0.243,0.029c-0.091,0.006-0.173,0.01-0.245,0.01c-0.073,0-0.157-0.004-0.25-0.01
				c-0.094-0.008-0.178-0.018-0.25-0.029L69.039,57.25L69.039,57.25z"/>
			<path d="M78.109,55.051c0.072-0.014,0.156-0.023,0.25-0.031c0.093-0.006,0.173-0.01,0.24-0.01c0.071,0,0.153,0.004,0.243,0.01
				c0.091,0.008,0.173,0.02,0.244,0.031v7.189c-0.253,0.074-0.536,0.135-0.851,0.186c-0.312,0.049-0.662,0.074-1.051,0.074
				c-0.358,0-0.701-0.045-1.022-0.135c-0.324-0.09-0.604-0.238-0.847-0.445c-0.24-0.207-0.43-0.473-0.569-0.799
				c-0.142-0.328-0.209-0.73-0.209-1.211c0-0.412,0.062-0.789,0.187-1.129c0.123-0.342,0.297-0.633,0.522-0.875
				c0.228-0.244,0.499-0.432,0.813-0.566c0.316-0.133,0.67-0.199,1.058-0.199c0.173,0,0.348,0.014,0.522,0.039
				c0.178,0.027,0.332,0.062,0.465,0.104v-2.231L78.109,55.051L78.109,55.051z M78.109,58.122c-0.135-0.056-0.276-0.095-0.43-0.121
				c-0.154-0.024-0.32-0.039-0.5-0.039c-0.273,0-0.513,0.049-0.712,0.149c-0.198,0.1-0.364,0.236-0.493,0.408
				c-0.132,0.174-0.229,0.379-0.291,0.614c-0.062,0.238-0.097,0.496-0.097,0.775c0.009,0.633,0.157,1.088,0.451,1.358
				c0.293,0.272,0.692,0.41,1.198,0.41c0.175,0,0.334-0.009,0.479-0.023c0.146-0.018,0.276-0.043,0.39-0.075v-3.458L78.109,58.122
				L78.109,58.122z"/>
			<path d="M83.04,55.051c0.071-0.014,0.153-0.023,0.244-0.031c0.09-0.006,0.172-0.01,0.245-0.01c0.072,0,0.156,0.004,0.25,0.01
				c0.093,0.008,0.177,0.02,0.25,0.031v2.98c0.06-0.094,0.136-0.193,0.226-0.301c0.091-0.108,0.199-0.205,0.33-0.295
				c0.129-0.09,0.278-0.164,0.449-0.223c0.17-0.057,0.358-0.084,0.565-0.084c0.586,0,1.021,0.168,1.305,0.504
				c0.283,0.34,0.425,0.838,0.425,1.496v3.25c-0.073,0.016-0.154,0.021-0.244,0.029c-0.09,0.006-0.172,0.01-0.246,0.01
				c-0.071,0-0.153-0.004-0.243-0.01c-0.091-0.008-0.173-0.018-0.246-0.029V59.4c0-0.475-0.078-0.822-0.233-1.045
				c-0.156-0.225-0.396-0.336-0.716-0.336c-0.18,0-0.354,0.031-0.521,0.096s-0.313,0.164-0.44,0.301
				c-0.125,0.137-0.227,0.314-0.299,0.535c-0.074,0.219-0.111,0.486-0.111,0.799v2.631c-0.071,0.014-0.155,0.023-0.25,0.029
				c-0.092,0.006-0.176,0.01-0.25,0.01c-0.064,0-0.146-0.004-0.237-0.01c-0.094-0.006-0.179-0.016-0.25-0.029L83.04,55.051
				L83.04,55.051z"/>
			<path d="M91.539,59c0-0.393-0.1-0.666-0.301-0.82c-0.199-0.152-0.489-0.229-0.869-0.229c-0.232,0-0.452,0.018-0.655,0.055
				c-0.202,0.037-0.401,0.084-0.595,0.145c-0.126-0.221-0.189-0.48-0.189-0.789c0.228-0.072,0.478-0.131,0.75-0.172
				c0.272-0.039,0.536-0.059,0.791-0.059c0.666,0,1.172,0.15,1.521,0.455c0.347,0.303,0.52,0.787,0.52,1.455v3.209
				c-0.231,0.055-0.516,0.109-0.85,0.166S90.986,62.5,90.641,62.5c-0.328,0-0.623-0.029-0.886-0.09
				c-0.264-0.061-0.487-0.156-0.67-0.289c-0.185-0.135-0.326-0.305-0.426-0.51c-0.101-0.207-0.15-0.457-0.15-0.75
				c0-0.287,0.06-0.539,0.177-0.756c0.115-0.217,0.274-0.396,0.476-0.541c0.198-0.145,0.43-0.25,0.688-0.318
				c0.26-0.07,0.533-0.105,0.819-0.105c0.214,0,0.39,0.004,0.524,0.018c0.138,0.01,0.252,0.021,0.346,0.031V59z M91.539,59.971
				c-0.1-0.014-0.227-0.027-0.38-0.041c-0.153-0.012-0.283-0.02-0.39-0.02c-0.414,0-0.729,0.076-0.945,0.23
				c-0.217,0.15-0.325,0.387-0.325,0.697c0,0.201,0.037,0.355,0.11,0.473c0.072,0.112,0.164,0.197,0.272,0.26
				c0.11,0.061,0.232,0.098,0.365,0.109c0.134,0.014,0.26,0.021,0.381,0.021c0.151,0,0.312-0.011,0.476-0.025
				c0.164-0.018,0.31-0.041,0.436-0.075V59.971z"/>
			<path d="M97.289,55.051c0.072-0.014,0.156-0.023,0.25-0.031c0.093-0.006,0.173-0.01,0.24-0.01c0.072,0,0.154,0.004,0.244,0.01
				c0.09,0.008,0.172,0.02,0.244,0.031v7.189c-0.252,0.074-0.535,0.135-0.851,0.186c-0.312,0.049-0.663,0.074-1.05,0.074
				c-0.36,0-0.702-0.045-1.024-0.135c-0.323-0.09-0.604-0.238-0.846-0.445s-0.431-0.473-0.57-0.799
				c-0.14-0.328-0.209-0.73-0.209-1.211c0-0.412,0.062-0.789,0.187-1.129c0.123-0.342,0.298-0.633,0.522-0.875
				c0.228-0.244,0.499-0.432,0.815-0.566c0.314-0.133,0.669-0.199,1.056-0.199c0.175,0,0.349,0.014,0.524,0.039
				c0.177,0.027,0.33,0.062,0.465,0.104L97.289,55.051L97.289,55.051z M97.289,58.122c-0.135-0.056-0.275-0.095-0.43-0.121
				c-0.153-0.024-0.32-0.039-0.5-0.039c-0.273,0-0.512,0.049-0.711,0.149c-0.199,0.1-0.364,0.236-0.494,0.408
				c-0.131,0.174-0.229,0.379-0.291,0.614c-0.062,0.238-0.096,0.496-0.096,0.775c0.008,0.633,0.156,1.088,0.45,1.358
				c0.294,0.272,0.693,0.41,1.199,0.41c0.174,0,0.334-0.009,0.479-0.023c0.146-0.018,0.275-0.043,0.391-0.075L97.289,58.122
				L97.289,58.122z"/>
		</g>
		<g enable-background="new    ">
			<path d="M22.05,70.042h-0.78L21.23,69.9l1.72-1.92h0.08v1.271h1.3c0.026,0.113,0.04,0.24,0.04,0.381
				c0,0.072-0.003,0.144-0.01,0.209c-0.006,0.066-0.017,0.136-0.03,0.201h-1.3v2.34c0,0.279,0.011,0.504,0.035,0.67
				s0.063,0.296,0.12,0.386s0.133,0.149,0.23,0.181c0.097,0.028,0.218,0.045,0.365,0.045c0.113,0,0.22-0.009,0.32-0.024
				c0.1-0.017,0.19-0.035,0.27-0.056c0.046,0.133,0.075,0.271,0.085,0.41c0.01,0.141,0.015,0.264,0.015,0.371
				c-0.134,0.032-0.273,0.057-0.42,0.073s-0.304,0.024-0.47,0.024c-0.48,0-0.855-0.116-1.125-0.351
				c-0.27-0.233-0.405-0.62-0.405-1.159V70.042L22.05,70.042z"/>
			<path d="M25.43,67.051c0.073-0.014,0.155-0.023,0.245-0.031c0.09-0.006,0.171-0.01,0.245-0.01c0.074,0,0.157,0.004,0.25,0.01
				c0.093,0.008,0.177,0.02,0.25,0.031v2.98c0.06-0.094,0.135-0.193,0.225-0.301c0.09-0.108,0.2-0.205,0.33-0.295
				s0.28-0.164,0.45-0.223c0.17-0.057,0.358-0.084,0.565-0.084c0.586,0,1.021,0.168,1.305,0.504c0.284,0.34,0.425,0.838,0.425,1.496
				v3.25c-0.074,0.016-0.155,0.021-0.245,0.029c-0.09,0.006-0.172,0.01-0.245,0.01c-0.073,0-0.155-0.004-0.245-0.01
				c-0.09-0.008-0.172-0.018-0.245-0.029V71.4c0-0.475-0.079-0.822-0.235-1.045c-0.157-0.225-0.395-0.336-0.715-0.336
				c-0.18,0-0.354,0.031-0.52,0.096c-0.167,0.064-0.313,0.164-0.44,0.301s-0.227,0.314-0.3,0.535
				c-0.074,0.219-0.11,0.486-0.11,0.799v2.631c-0.073,0.014-0.157,0.023-0.25,0.029c-0.093,0.006-0.176,0.01-0.25,0.01
				c-0.066,0-0.146-0.004-0.24-0.01c-0.094-0.006-0.177-0.016-0.25-0.029V67.051z"/>
			<path d="M31.959,72.061c0.013,0.562,0.158,0.973,0.435,1.23c0.276,0.26,0.685,0.389,1.225,0.389c0.473,0,0.923-0.082,1.35-0.25
				c0.054,0.104,0.097,0.223,0.13,0.365c0.033,0.145,0.053,0.285,0.06,0.426c-0.22,0.094-0.462,0.162-0.725,0.209
				c-0.264,0.047-0.555,0.07-0.875,0.07c-0.467,0-0.867-0.064-1.2-0.195c-0.333-0.129-0.608-0.312-0.825-0.549
				c-0.217-0.236-0.375-0.518-0.475-0.84c-0.1-0.324-0.15-0.68-0.15-1.066c0-0.379,0.048-0.732,0.145-1.062
				c0.097-0.33,0.245-0.617,0.445-0.859s0.452-0.438,0.755-0.578c0.303-0.146,0.662-0.217,1.075-0.217
				c0.353,0,0.663,0.061,0.93,0.182c0.267,0.119,0.49,0.285,0.67,0.494c0.18,0.211,0.317,0.461,0.41,0.75
				c0.093,0.291,0.14,0.604,0.14,0.943c0,0.096-0.003,0.189-0.01,0.295c-0.006,0.104-0.013,0.189-0.02,0.268h-3.49V72.061z
				 M34.5,71.32c0-0.187-0.025-0.364-0.075-0.534c-0.05-0.17-0.124-0.318-0.22-0.445c-0.097-0.127-0.22-0.229-0.37-0.305
				c-0.15-0.076-0.329-0.115-0.535-0.115c-0.407,0-0.718,0.123-0.935,0.371c-0.216,0.246-0.348,0.59-0.395,1.028H34.5z"/>
			<path d="M39.139,67.051c0.073-0.014,0.155-0.023,0.245-0.031c0.09-0.006,0.171-0.01,0.245-0.01c0.074,0,0.157,0.004,0.25,0.01
				c0.093,0.008,0.177,0.02,0.25,0.031v2.82c0.12-0.201,0.307-0.373,0.56-0.521c0.253-0.146,0.56-0.219,0.92-0.219
				c0.307,0,0.59,0.049,0.85,0.15c0.26,0.1,0.483,0.254,0.67,0.465c0.187,0.209,0.332,0.477,0.435,0.799
				c0.104,0.324,0.155,0.705,0.155,1.145c0,0.881-0.249,1.57-0.745,2.066S41.762,74.5,40.829,74.5c-0.293,0-0.595-0.027-0.905-0.084
				s-0.572-0.123-0.785-0.195V67.051z M40.129,73.551c0.12,0.039,0.249,0.068,0.385,0.084c0.137,0.018,0.278,0.025,0.425,0.025
				c0.247,0,0.475-0.037,0.685-0.115c0.21-0.076,0.392-0.193,0.545-0.35c0.153-0.157,0.275-0.357,0.365-0.6
				c0.09-0.244,0.135-0.531,0.135-0.865c0-0.555-0.097-0.982-0.29-1.291c-0.193-0.307-0.513-0.459-0.96-0.459
				c-0.153,0-0.305,0.023-0.455,0.074s-0.289,0.131-0.415,0.238c-0.127,0.109-0.229,0.258-0.305,0.439
				c-0.077,0.184-0.115,0.404-0.115,0.664V73.551z"/>
			<path d="M45.789,72.061c0.013,0.562,0.158,0.973,0.435,1.23c0.276,0.26,0.685,0.389,1.225,0.389c0.473,0,0.923-0.082,1.35-0.25
				c0.054,0.104,0.097,0.223,0.13,0.365c0.033,0.145,0.053,0.285,0.06,0.426c-0.22,0.094-0.462,0.162-0.725,0.209
				C48,74.477,47.709,74.5,47.389,74.5c-0.467,0-0.867-0.064-1.2-0.195c-0.333-0.129-0.608-0.312-0.825-0.549
				c-0.217-0.236-0.375-0.518-0.475-0.84c-0.1-0.324-0.15-0.68-0.15-1.066c0-0.379,0.048-0.732,0.145-1.062
				c0.097-0.33,0.245-0.617,0.445-0.859c0.2-0.242,0.452-0.438,0.755-0.578c0.303-0.146,0.662-0.217,1.075-0.217
				c0.353,0,0.663,0.061,0.93,0.182c0.267,0.119,0.49,0.285,0.67,0.494c0.18,0.211,0.317,0.461,0.41,0.75
				c0.093,0.291,0.14,0.604,0.14,0.943c0,0.096-0.003,0.189-0.01,0.295c-0.006,0.104-0.013,0.189-0.02,0.268h-3.49V72.061z
				 M48.329,71.32c0-0.187-0.025-0.364-0.075-0.534c-0.05-0.17-0.124-0.318-0.22-0.445c-0.097-0.127-0.22-0.229-0.37-0.305
				c-0.15-0.076-0.329-0.115-0.535-0.115c-0.407,0-0.718,0.123-0.935,0.371c-0.216,0.246-0.348,0.59-0.395,1.028H48.329z"/>
			<path d="M50.519,73.452c0.18,0.071,0.378,0.131,0.595,0.174c0.216,0.043,0.431,0.063,0.645,0.063c0.153,0,0.3-0.017,0.44-0.049
				c0.14-0.033,0.261-0.084,0.365-0.149c0.104-0.066,0.187-0.148,0.25-0.244c0.063-0.099,0.095-0.205,0.095-0.326
				c0-0.133-0.025-0.241-0.075-0.33c-0.05-0.086-0.117-0.159-0.2-0.219c-0.083-0.062-0.18-0.111-0.29-0.156
				c-0.11-0.043-0.229-0.084-0.355-0.125l-0.35-0.129c-0.427-0.16-0.737-0.34-0.93-0.541c-0.193-0.198-0.29-0.469-0.29-0.81
				c0-0.454,0.162-0.813,0.485-1.079c0.323-0.269,0.798-0.4,1.425-0.4c0.26,0,0.515,0.025,0.765,0.074
				c0.25,0.051,0.468,0.108,0.655,0.176c-0.013,0.134-0.039,0.267-0.075,0.4c-0.037,0.133-0.082,0.256-0.135,0.368
				c-0.146-0.053-0.322-0.104-0.525-0.153c-0.204-0.052-0.422-0.076-0.655-0.076c-0.247,0-0.465,0.043-0.655,0.131
				c-0.19,0.087-0.285,0.24-0.285,0.46c0,0.112,0.023,0.211,0.07,0.29c0.046,0.08,0.11,0.148,0.19,0.205
				c0.08,0.058,0.171,0.104,0.275,0.146c0.103,0.039,0.215,0.08,0.335,0.119l0.44,0.149c0.16,0.056,0.312,0.117,0.455,0.19
				c0.143,0.072,0.267,0.164,0.37,0.272c0.103,0.111,0.187,0.244,0.25,0.4c0.063,0.155,0.095,0.346,0.095,0.563
				c0,0.248-0.05,0.473-0.15,0.676s-0.242,0.377-0.425,0.521c-0.184,0.146-0.405,0.256-0.665,0.336
				c-0.26,0.08-0.547,0.119-0.86,0.119c-0.32,0-0.6-0.021-0.84-0.063c-0.24-0.043-0.463-0.103-0.67-0.177
				c0.013-0.133,0.042-0.268,0.085-0.403C50.417,73.721,50.466,73.584,50.519,73.452z"/>
			<path d="M55.35,70.042h-0.78L54.53,69.9l1.72-1.92h0.08v1.271h1.3c0.026,0.113,0.04,0.24,0.04,0.381
				c0,0.072-0.003,0.144-0.01,0.209c-0.006,0.066-0.017,0.136-0.03,0.201h-1.3v2.34c0,0.279,0.011,0.504,0.035,0.67
				c0.024,0.166,0.063,0.296,0.12,0.386c0.057,0.09,0.133,0.149,0.23,0.181c0.097,0.028,0.218,0.045,0.365,0.045
				c0.113,0,0.22-0.009,0.32-0.024c0.1-0.017,0.19-0.035,0.27-0.056c0.046,0.133,0.075,0.271,0.085,0.41
				c0.01,0.141,0.015,0.264,0.015,0.371c-0.134,0.032-0.273,0.057-0.42,0.073s-0.304,0.024-0.47,0.024
				c-0.48,0-0.855-0.116-1.125-0.351c-0.27-0.233-0.405-0.62-0.405-1.159V70.042z"/>
			<path d="M61.299,70.042h-0.78l-0.04-0.142l1.721-1.92h0.079v1.271h1.3c0.026,0.113,0.041,0.24,0.041,0.381
				c0,0.072-0.004,0.144-0.011,0.209c-0.008,0.066-0.019,0.136-0.03,0.201h-1.3v2.34c0,0.279,0.012,0.504,0.035,0.67
				c0.021,0.166,0.062,0.296,0.119,0.386s0.133,0.149,0.229,0.181c0.096,0.028,0.218,0.045,0.364,0.045
				c0.113,0,0.22-0.009,0.318-0.024c0.103-0.017,0.19-0.035,0.271-0.056c0.046,0.133,0.074,0.271,0.084,0.41
				s0.016,0.264,0.016,0.371c-0.134,0.032-0.273,0.057-0.42,0.073s-0.304,0.024-0.471,0.024c-0.479,0-0.854-0.116-1.125-0.351
				c-0.27-0.233-0.405-0.62-0.405-1.159L61.299,70.042L61.299,70.042z"/>
			<path d="M64.988,70.032h-0.649c-0.014-0.056-0.022-0.115-0.028-0.187c-0.009-0.07-0.011-0.14-0.011-0.205
				s0.002-0.136,0.011-0.205c0.006-0.069,0.017-0.131,0.028-0.187h1.62v5.131c-0.072,0.015-0.154,0.022-0.245,0.029
				c-0.09,0.006-0.172,0.01-0.243,0.01c-0.068,0-0.146-0.004-0.236-0.01c-0.09-0.007-0.172-0.017-0.243-0.029v-4.349L64.988,70.032
				L64.988,70.032z M64.768,68.122c-0.013-0.08-0.021-0.168-0.022-0.261c-0.003-0.094-0.007-0.178-0.007-0.25
				c0-0.073,0.004-0.157,0.007-0.25c0.003-0.094,0.012-0.178,0.022-0.25c0.088-0.014,0.183-0.022,0.281-0.03
				c0.1-0.006,0.186-0.011,0.26-0.011c0.072,0,0.16,0.005,0.26,0.011c0.102,0.008,0.189,0.019,0.271,0.03
				c0.016,0.072,0.021,0.156,0.023,0.25c0.006,0.093,0.007,0.177,0.007,0.25c0,0.072-0.001,0.156-0.007,0.25
				c-0.004,0.093-0.012,0.181-0.023,0.261c-0.08,0.014-0.168,0.022-0.265,0.028c-0.099,0.007-0.183,0.011-0.257,0.011
				c-0.08,0-0.17-0.004-0.27-0.011C64.949,68.145,64.855,68.135,64.768,68.122z"/>
			<path d="M67.568,69.25c0.072-0.014,0.146-0.023,0.216-0.029c0.069-0.008,0.142-0.01,0.215-0.01s0.142,0.002,0.205,0.01
				c0.062,0.006,0.131,0.016,0.205,0.029c0.021,0.1,0.04,0.232,0.062,0.395c0.021,0.164,0.028,0.305,0.028,0.416
				c0.062-0.121,0.135-0.232,0.226-0.346c0.09-0.109,0.196-0.207,0.319-0.295c0.123-0.086,0.267-0.156,0.427-0.209
				c0.158-0.055,0.336-0.08,0.528-0.08c0.399,0,0.709,0.082,0.925,0.244c0.217,0.164,0.383,0.393,0.495,0.686
				c0.065-0.111,0.147-0.227,0.245-0.34s0.205-0.213,0.324-0.301c0.119-0.086,0.257-0.156,0.41-0.209
				c0.151-0.055,0.326-0.08,0.521-0.08c0.595,0,1.024,0.166,1.295,0.5c0.271,0.332,0.405,0.826,0.405,1.48v3.27
				c-0.073,0.014-0.157,0.023-0.25,0.029c-0.094,0.006-0.178,0.01-0.25,0.01c-0.073,0-0.155-0.004-0.245-0.01
				s-0.172-0.016-0.245-0.029V71.4c0-0.461-0.068-0.805-0.21-1.034c-0.142-0.23-0.37-0.347-0.688-0.347
				c-0.34,0-0.614,0.125-0.826,0.371C71.695,70.637,71.59,71,71.59,71.48v2.899c-0.072,0.015-0.154,0.022-0.244,0.029
				c-0.091,0.006-0.172,0.01-0.246,0.01c-0.072,0-0.154-0.004-0.244-0.01c-0.09-0.007-0.172-0.017-0.246-0.029v-3.05
				c0-0.445-0.064-0.781-0.197-1.004c-0.135-0.225-0.348-0.336-0.643-0.336c-0.166,0-0.322,0.037-0.47,0.109
				c-0.146,0.072-0.274,0.184-0.385,0.33c-0.11,0.146-0.196,0.33-0.261,0.557c-0.062,0.223-0.094,0.479-0.094,0.771v2.621
				c-0.074,0.016-0.156,0.021-0.246,0.029c-0.09,0.006-0.172,0.01-0.244,0.01c-0.074,0-0.157-0.004-0.25-0.01
				c-0.094-0.008-0.178-0.018-0.25-0.029v-5.13L67.568,69.25L67.568,69.25z"/>
			<path d="M76.848,72.061c0.014,0.562,0.158,0.973,0.438,1.23c0.275,0.26,0.688,0.389,1.225,0.389c0.475,0,0.926-0.082,1.352-0.25
				c0.055,0.104,0.098,0.223,0.131,0.365c0.033,0.145,0.053,0.285,0.061,0.426c-0.221,0.094-0.463,0.162-0.726,0.209
				c-0.265,0.047-0.556,0.07-0.875,0.07c-0.468,0-0.866-0.064-1.2-0.195c-0.334-0.129-0.607-0.312-0.824-0.549
				c-0.217-0.236-0.375-0.518-0.476-0.84c-0.101-0.324-0.149-0.68-0.149-1.066c0-0.379,0.047-0.732,0.145-1.062
				s0.244-0.617,0.445-0.859c0.199-0.242,0.451-0.438,0.754-0.578c0.306-0.146,0.662-0.217,1.076-0.217
				c0.354,0,0.662,0.061,0.93,0.182c0.268,0.119,0.49,0.285,0.67,0.494c0.182,0.211,0.316,0.461,0.41,0.75
				c0.095,0.291,0.142,0.604,0.142,0.943c0,0.096-0.003,0.189-0.013,0.295c-0.006,0.104-0.012,0.189-0.02,0.268H76.85v-0.004H76.848
				z M79.389,71.32c0-0.187-0.025-0.364-0.076-0.534c-0.049-0.17-0.123-0.318-0.219-0.445c-0.098-0.127-0.221-0.229-0.371-0.305
				c-0.147-0.076-0.328-0.115-0.535-0.115c-0.404,0-0.717,0.123-0.935,0.371c-0.216,0.246-0.349,0.59-0.396,1.028H79.389z"/>
			<path d="M83.459,69.25c0.093-0.014,0.186-0.023,0.279-0.029c0.094-0.008,0.177-0.01,0.25-0.01c0.094,0,0.188,0.002,0.285,0.01
				c0.096,0.006,0.182,0.016,0.254,0.029l1,4.189l1.131-4.189c0.072-0.014,0.152-0.023,0.24-0.029c0.086-0.008,0.176-0.01,0.27-0.01
				c0.107,0.006,0.199,0.012,0.275,0.014c0.076,0.004,0.149,0.012,0.225,0.025l1.12,4.121l1-4.121
				c0.073-0.014,0.147-0.023,0.22-0.029c0.074-0.008,0.154-0.01,0.24-0.01c0.074,0,0.154,0.002,0.245,0.01
				c0.091,0.006,0.182,0.016,0.274,0.029l-1.529,5.131c-0.088,0.014-0.176,0.023-0.266,0.029c-0.092,0.006-0.173,0.01-0.244,0.01
				c-0.074,0-0.154-0.004-0.24-0.01c-0.088-0.006-0.174-0.016-0.26-0.029L87.128,70.5l-1.149,3.881
				c-0.095,0.014-0.187,0.023-0.274,0.029c-0.091,0.006-0.172,0.01-0.244,0.01c-0.073,0-0.155-0.004-0.246-0.01
				c-0.09-0.006-0.172-0.016-0.243-0.029L83.459,69.25z"/>
			<path d="M92.088,70.032h-0.648c-0.015-0.056-0.022-0.115-0.029-0.187c-0.008-0.07-0.012-0.14-0.012-0.205
				s0.004-0.136,0.012-0.205c0.007-0.069,0.017-0.131,0.029-0.187h1.619v5.131c-0.074,0.015-0.154,0.022-0.244,0.029
				c-0.092,0.006-0.172,0.01-0.246,0.01c-0.064,0-0.145-0.004-0.232-0.01c-0.091-0.007-0.172-0.017-0.246-0.029L92.088,70.032
				L92.088,70.032z M91.869,68.122c-0.014-0.08-0.021-0.168-0.023-0.261c-0.005-0.094-0.007-0.178-0.007-0.25
				c0-0.073,0.002-0.157,0.007-0.25c0.002-0.094,0.012-0.178,0.023-0.25c0.087-0.014,0.181-0.022,0.279-0.03
				c0.101-0.006,0.188-0.011,0.261-0.011s0.159,0.005,0.26,0.011c0.101,0.008,0.19,0.019,0.271,0.03
				c0.015,0.072,0.021,0.156,0.024,0.25c0.004,0.093,0.007,0.177,0.007,0.25c0,0.072-0.003,0.156-0.007,0.25
				c-0.003,0.093-0.012,0.181-0.024,0.261c-0.08,0.014-0.168,0.022-0.265,0.028c-0.098,0.007-0.182,0.011-0.256,0.011
				c-0.08,0-0.17-0.004-0.271-0.011C92.049,68.145,91.956,68.135,91.869,68.122z"/>
			<path d="M94.859,70.042h-0.78l-0.04-0.142l1.72-1.92h0.08v1.271h1.302c0.024,0.113,0.039,0.24,0.039,0.381
				c0,0.072-0.004,0.144-0.011,0.209c-0.006,0.066-0.017,0.136-0.028,0.201h-1.302v2.34c0,0.279,0.013,0.504,0.035,0.67
				s0.063,0.296,0.12,0.386s0.134,0.149,0.229,0.181c0.098,0.028,0.219,0.045,0.365,0.045c0.113,0,0.221-0.009,0.32-0.024
				c0.1-0.017,0.189-0.035,0.27-0.056c0.047,0.133,0.075,0.271,0.086,0.41c0.01,0.141,0.016,0.264,0.016,0.371
				c-0.135,0.032-0.272,0.057-0.42,0.073c-0.146,0.017-0.305,0.024-0.471,0.024c-0.479,0-0.854-0.116-1.125-0.351
				c-0.271-0.233-0.404-0.62-0.404-1.159V70.042L94.859,70.042z"/>
			<path d="M98.238,67.051c0.072-0.014,0.154-0.023,0.244-0.031c0.091-0.006,0.172-0.01,0.246-0.01c0.071,0,0.155,0.004,0.25,0.01
				c0.092,0.008,0.176,0.02,0.25,0.031v2.98c0.06-0.094,0.135-0.193,0.226-0.301c0.09-0.108,0.198-0.205,0.33-0.295
				c0.129-0.09,0.278-0.164,0.448-0.223c0.17-0.057,0.357-0.084,0.564-0.084c0.587,0,1.021,0.168,1.307,0.504
				c0.283,0.34,0.424,0.838,0.424,1.496v3.25c-0.072,0.016-0.153,0.021-0.243,0.029c-0.091,0.006-0.173,0.01-0.246,0.01
				c-0.072,0-0.154-0.004-0.244-0.01c-0.09-0.008-0.172-0.018-0.245-0.029V71.4c0-0.475-0.078-0.822-0.234-1.045
				c-0.155-0.225-0.396-0.336-0.715-0.336c-0.181,0-0.354,0.031-0.521,0.096s-0.313,0.164-0.44,0.301
				c-0.125,0.137-0.227,0.314-0.3,0.535c-0.073,0.219-0.11,0.486-0.11,0.799v2.631c-0.071,0.014-0.155,0.023-0.25,0.029
				c-0.092,0.006-0.177,0.01-0.25,0.01c-0.064,0-0.146-0.004-0.237-0.01c-0.095-0.006-0.179-0.016-0.25-0.029v-7.33H98.238
				L98.238,67.051z"/>
		</g>
		<g enable-background="new    ">
			<path d="M39.359,81.25c0.073-0.014,0.145-0.023,0.215-0.029c0.07-0.008,0.142-0.01,0.215-0.01c0.073,0,0.142,0.002,0.205,0.01
				c0.063,0.006,0.131,0.016,0.205,0.029c0.02,0.1,0.04,0.232,0.06,0.395c0.02,0.164,0.03,0.305,0.03,0.416
				c0.06-0.121,0.135-0.232,0.225-0.346c0.09-0.109,0.196-0.207,0.32-0.295c0.124-0.086,0.265-0.156,0.425-0.209
				c0.16-0.055,0.336-0.08,0.53-0.08c0.4,0,0.708,0.082,0.925,0.244c0.217,0.164,0.382,0.393,0.495,0.686
				c0.067-0.111,0.148-0.227,0.245-0.34c0.097-0.113,0.205-0.213,0.325-0.301c0.12-0.086,0.256-0.156,0.41-0.209
				c0.153-0.055,0.327-0.08,0.52-0.08c0.593,0,1.025,0.166,1.295,0.5c0.27,0.332,0.405,0.826,0.405,1.48v3.27
				c-0.074,0.014-0.157,0.023-0.25,0.029c-0.094,0.006-0.177,0.01-0.25,0.01c-0.074,0-0.155-0.004-0.245-0.01
				s-0.172-0.016-0.245-0.029V83.4c0-0.461-0.07-0.805-0.21-1.034c-0.14-0.23-0.37-0.347-0.69-0.347
				c-0.34,0-0.615,0.125-0.825,0.371S43.379,83,43.379,83.48v2.899c-0.073,0.015-0.155,0.022-0.245,0.029
				c-0.09,0.006-0.172,0.01-0.245,0.01c-0.074,0-0.155-0.004-0.245-0.01c-0.09-0.007-0.172-0.017-0.245-0.029v-3.05
				c0-0.445-0.066-0.781-0.2-1.004c-0.134-0.225-0.347-0.336-0.64-0.336c-0.167,0-0.323,0.037-0.47,0.109
				c-0.146,0.072-0.275,0.184-0.385,0.33c-0.11,0.146-0.197,0.33-0.26,0.557c-0.063,0.223-0.095,0.479-0.095,0.771v2.621
				c-0.073,0.016-0.155,0.021-0.245,0.029c-0.09,0.006-0.172,0.01-0.245,0.01c-0.073,0-0.157-0.004-0.25-0.01
				c-0.093-0.008-0.177-0.018-0.25-0.029V81.25z"/>
			<path d="M49.649,86.391c-0.053,0-0.108,0.002-0.165,0.004c-0.057,0.004-0.111,0.006-0.165,0.006c-0.067,0-0.137-0.002-0.21-0.006
				c-0.073-0.002-0.133-0.008-0.18-0.014l-1.7-5.131c0.087-0.014,0.177-0.021,0.27-0.025c0.093-0.002,0.18-0.004,0.26-0.004
				c0.086,0,0.183,0.002,0.29,0.004c0.106,0.004,0.196,0.012,0.27,0.025l1.42,4.77l1.47-4.77c0.14-0.02,0.303-0.029,0.49-0.029
				c0.073,0,0.156,0.002,0.25,0.004c0.093,0.004,0.187,0.012,0.28,0.025l-1.99,6.17c-0.094,0.273-0.19,0.504-0.29,0.691
				c-0.1,0.186-0.213,0.336-0.34,0.449c-0.126,0.111-0.268,0.191-0.425,0.238c-0.157,0.049-0.338,0.07-0.545,0.07
				c-0.153,0-0.305-0.014-0.455-0.035s-0.282-0.053-0.395-0.086c0-0.15,0.013-0.289,0.04-0.41c0.026-0.119,0.066-0.238,0.12-0.357
				c0.06,0.02,0.142,0.041,0.245,0.062s0.215,0.035,0.335,0.035c0.086,0,0.168-0.01,0.245-0.023
				c0.077-0.018,0.148-0.051,0.215-0.102c0.066-0.051,0.128-0.121,0.185-0.215c0.056-0.096,0.111-0.223,0.165-0.381L49.649,86.391z"
				/>
			<path d="M55.909,82.032h-0.84c-0.027-0.107-0.04-0.238-0.04-0.392c0-0.146,0.013-0.276,0.04-0.392h0.84v-0.358
				c0-0.634,0.158-1.115,0.475-1.445c0.316-0.329,0.778-0.493,1.385-0.493c0.167,0,0.313,0.008,0.44,0.022
				c0.126,0.019,0.247,0.043,0.36,0.075c-0.014,0.166-0.032,0.312-0.055,0.431s-0.055,0.244-0.095,0.369
				c-0.067-0.013-0.145-0.026-0.235-0.045c-0.09-0.017-0.198-0.022-0.325-0.022c-0.147,0-0.278,0.014-0.395,0.045
				c-0.117,0.028-0.217,0.086-0.3,0.17c-0.083,0.082-0.148,0.198-0.195,0.351c-0.047,0.149-0.07,0.342-0.07,0.573v0.33h1.31
				c0.02,0.135,0.03,0.271,0.03,0.41c0,0.127-0.01,0.25-0.03,0.371h-1.31v4.35c-0.074,0.015-0.155,0.022-0.245,0.029
				c-0.09,0.006-0.172,0.01-0.245,0.01c-0.073,0-0.157-0.004-0.25-0.01c-0.093-0.007-0.177-0.017-0.25-0.029V82.032z"/>
			<path d="M61.869,83c0-0.393-0.1-0.666-0.3-0.82c-0.2-0.152-0.49-0.229-0.87-0.229c-0.233,0-0.452,0.018-0.655,0.055
				c-0.204,0.037-0.402,0.084-0.595,0.145c-0.126-0.221-0.19-0.48-0.19-0.789c0.227-0.072,0.477-0.131,0.75-0.172
				c0.273-0.039,0.537-0.059,0.79-0.059c0.667,0,1.174,0.15,1.52,0.455c0.35,0.303,0.521,0.787,0.521,1.455v3.209
				c-0.232,0.055-0.517,0.109-0.852,0.166c-0.333,0.057-0.672,0.084-1.021,0.084c-0.327,0-0.622-0.029-0.885-0.09
				c-0.264-0.061-0.487-0.156-0.67-0.289c-0.184-0.135-0.325-0.305-0.425-0.51c-0.1-0.207-0.15-0.457-0.15-0.75
				c0-0.287,0.058-0.539,0.175-0.756c0.117-0.217,0.275-0.396,0.475-0.541c0.2-0.145,0.43-0.25,0.69-0.318
				c0.26-0.07,0.534-0.105,0.82-0.105c0.213,0,0.388,0.004,0.525,0.018c0.137,0.01,0.251,0.021,0.345,0.031L61.869,83L61.869,83z
				 M61.869,83.971c-0.1-0.014-0.227-0.027-0.38-0.041c-0.153-0.012-0.283-0.02-0.39-0.02c-0.414,0-0.729,0.076-0.945,0.23
				c-0.217,0.15-0.325,0.387-0.325,0.697c0,0.201,0.036,0.355,0.11,0.473c0.073,0.111,0.165,0.197,0.275,0.26
				c0.11,0.061,0.231,0.098,0.365,0.109c0.133,0.014,0.26,0.021,0.38,0.021c0.153,0,0.312-0.011,0.475-0.025
				c0.163-0.018,0.308-0.041,0.435-0.075V83.971z"/>
			<path d="M64.329,81.25c0.073-0.014,0.146-0.023,0.216-0.029c0.068-0.008,0.143-0.01,0.215-0.01c0.073,0,0.143,0.002,0.205,0.01
				c0.062,0.006,0.133,0.016,0.205,0.029c0.021,0.1,0.04,0.232,0.061,0.395c0.021,0.164,0.029,0.305,0.029,0.416
				c0.061-0.121,0.137-0.232,0.227-0.346c0.091-0.109,0.195-0.207,0.318-0.295c0.125-0.086,0.266-0.156,0.426-0.209
				c0.16-0.055,0.336-0.08,0.529-0.08c0.399,0,0.708,0.082,0.926,0.244c0.217,0.164,0.381,0.393,0.494,0.686
				c0.067-0.111,0.148-0.227,0.245-0.34s0.205-0.213,0.325-0.301c0.12-0.086,0.257-0.156,0.409-0.209
				c0.153-0.055,0.327-0.08,0.521-0.08c0.594,0,1.024,0.166,1.295,0.5c0.271,0.332,0.405,0.826,0.405,1.48v3.27
				c-0.073,0.014-0.155,0.023-0.25,0.029c-0.094,0.006-0.177,0.01-0.25,0.01s-0.155-0.004-0.245-0.01s-0.172-0.016-0.244-0.029V83.4
				c0-0.461-0.07-0.805-0.211-1.034c-0.14-0.23-0.369-0.347-0.688-0.347c-0.341,0-0.614,0.125-0.824,0.371
				c-0.211,0.246-0.313,0.608-0.313,1.09v2.899c-0.074,0.015-0.156,0.022-0.246,0.029c-0.09,0.006-0.172,0.01-0.244,0.01
				c-0.073,0-0.155-0.004-0.245-0.01c-0.091-0.007-0.173-0.017-0.244-0.029v-3.05c0-0.445-0.065-0.781-0.2-1.004
				c-0.134-0.225-0.347-0.336-0.64-0.336c-0.167,0-0.324,0.037-0.472,0.109c-0.146,0.072-0.274,0.184-0.386,0.33
				c-0.108,0.146-0.196,0.33-0.26,0.557c-0.062,0.223-0.097,0.479-0.097,0.771v2.621c-0.071,0.016-0.153,0.021-0.243,0.029
				c-0.091,0.006-0.173,0.01-0.246,0.01c-0.072,0-0.156-0.004-0.25-0.01c-0.095-0.008-0.177-0.018-0.25-0.029L64.329,81.25
				L64.329,81.25z"/>
			<path d="M73.169,82.032H72.52c-0.014-0.056-0.021-0.115-0.031-0.187c-0.006-0.07-0.01-0.14-0.01-0.205s0.004-0.136,0.01-0.205
				c0.01-0.069,0.02-0.131,0.031-0.187h1.619v5.131c-0.072,0.015-0.154,0.022-0.244,0.029c-0.09,0.006-0.172,0.01-0.246,0.01
				c-0.064,0-0.145-0.004-0.232-0.01c-0.088-0.007-0.172-0.017-0.245-0.029L73.169,82.032L73.169,82.032z M72.95,80.122
				c-0.015-0.08-0.021-0.168-0.025-0.261c-0.004-0.094-0.005-0.178-0.005-0.25c0-0.073,0.001-0.157,0.005-0.25
				c0.005-0.094,0.013-0.178,0.025-0.25c0.086-0.014,0.18-0.022,0.278-0.03c0.101-0.006,0.188-0.011,0.26-0.011
				c0.074,0,0.16,0.005,0.262,0.011c0.1,0.008,0.189,0.019,0.271,0.03c0.013,0.072,0.021,0.156,0.022,0.25
				c0.003,0.093,0.005,0.177,0.005,0.25c0,0.072-0.002,0.156-0.005,0.25c-0.003,0.093-0.012,0.181-0.022,0.261
				c-0.08,0.014-0.17,0.022-0.268,0.028c-0.097,0.007-0.182,0.011-0.255,0.011c-0.08,0-0.171-0.004-0.271-0.011
				C73.129,80.145,73.036,80.135,72.95,80.122z"/>
			<path d="M75.729,79.051c0.074-0.014,0.155-0.023,0.246-0.031c0.09-0.006,0.172-0.01,0.244-0.01c0.073,0,0.154,0.004,0.245,0.01
				c0.091,0.008,0.171,0.02,0.245,0.031v5.779c0,0.188,0.016,0.334,0.05,0.439c0.033,0.105,0.078,0.188,0.136,0.246
				c0.058,0.057,0.123,0.094,0.199,0.107c0.076,0.02,0.158,0.023,0.245,0.023c0.06,0,0.128-0.004,0.205-0.01
				c0.076-0.006,0.142-0.018,0.194-0.029c0.061,0.232,0.09,0.486,0.09,0.762c-0.094,0.031-0.206,0.055-0.34,0.062
				c-0.133,0.01-0.256,0.018-0.369,0.018c-0.193,0-0.374-0.023-0.541-0.07c-0.166-0.047-0.312-0.123-0.439-0.229
				c-0.127-0.107-0.227-0.25-0.3-0.43c-0.073-0.182-0.11-0.404-0.11-0.672V79.051z"/>
			<path d="M80.479,86.391c-0.053,0-0.106,0.002-0.164,0.004c-0.058,0.004-0.11,0.006-0.166,0.006c-0.064,0-0.137-0.002-0.209-0.006
				c-0.072-0.002-0.135-0.008-0.181-0.014l-1.7-5.131c0.088-0.014,0.178-0.021,0.271-0.025c0.094-0.002,0.182-0.004,0.261-0.004
				c0.087,0,0.185,0.002,0.29,0.004c0.105,0.004,0.196,0.012,0.271,0.025l1.42,4.77l1.471-4.77c0.141-0.02,0.303-0.029,0.49-0.029
				c0.072,0,0.156,0.002,0.25,0.004c0.093,0.004,0.186,0.012,0.279,0.025l-1.99,6.17c-0.094,0.273-0.189,0.504-0.289,0.691
				c-0.102,0.186-0.215,0.336-0.342,0.449c-0.125,0.111-0.27,0.191-0.424,0.238c-0.156,0.049-0.34,0.07-0.545,0.07
				c-0.154,0-0.307-0.014-0.455-0.035c-0.15-0.021-0.281-0.053-0.396-0.086c0-0.15,0.013-0.289,0.039-0.41
				c0.025-0.119,0.064-0.238,0.119-0.357c0.062,0.02,0.143,0.041,0.244,0.062c0.104,0.021,0.215,0.035,0.336,0.035
				c0.086,0,0.168-0.01,0.244-0.023c0.076-0.018,0.148-0.051,0.215-0.102s0.131-0.121,0.188-0.215
				c0.059-0.096,0.111-0.223,0.165-0.381L80.479,86.391z"/>
			<path d="M83.568,86.381c-0.014-0.094-0.024-0.186-0.034-0.275c-0.011-0.088-0.015-0.182-0.015-0.273s0.004-0.188,0.015-0.285
				c0.01-0.096,0.021-0.189,0.034-0.285c0.095-0.012,0.187-0.021,0.274-0.027c0.091-0.006,0.183-0.01,0.275-0.01
				s0.187,0.004,0.278,0.01c0.094,0.006,0.188,0.018,0.278,0.027c0.015,0.096,0.025,0.188,0.035,0.281
				c0.011,0.094,0.017,0.188,0.017,0.277c0,0.095-0.006,0.188-0.017,0.279c-0.01,0.094-0.021,0.188-0.035,0.281
				c-0.093,0.014-0.184,0.023-0.274,0.029c-0.09,0.006-0.182,0.01-0.272,0.01c-0.094,0-0.188-0.004-0.278-0.01
				C83.755,86.404,83.663,86.395,83.568,86.381z"/>
		</g>
	</g>
</g>
<g id="Name">
	<g enable-background="new    ">
		<path fill="#FFFFFF" d="M37.727,18.859c0.341-0.054,0.736-0.097,1.184-0.129c0.448-0.031,1.008-0.048,1.68-0.048
			c0.586,0,1.141,0.048,1.664,0.145c0.522,0.096,0.979,0.259,1.368,0.487c0.389,0.229,0.696,0.536,0.92,0.921
			c0.224,0.384,0.336,0.863,0.336,1.439c0,0.342-0.051,0.659-0.152,0.952s-0.237,0.55-0.408,0.768
			c-0.171,0.219-0.363,0.4-0.576,0.544c-0.213,0.145-0.432,0.232-0.656,0.265c0.245,0.032,0.517,0.106,0.816,0.224
			c0.298,0.117,0.576,0.291,0.832,0.521c0.256,0.229,0.469,0.525,0.64,0.888c0.171,0.362,0.256,0.8,0.256,1.312
			c0,0.694-0.131,1.262-0.392,1.704c-0.262,0.443-0.614,0.792-1.056,1.048c-0.443,0.257-0.955,0.433-1.536,0.528
			c-0.581,0.096-1.192,0.145-1.832,0.145c-0.491,0-0.976-0.014-1.456-0.04c-0.48-0.027-1.024-0.078-1.632-0.152V18.859z
			 M40.75,23.531c0.267,0,0.515-0.024,0.744-0.072s0.429-0.134,0.6-0.256c0.17-0.123,0.304-0.288,0.4-0.496
			c0.096-0.208,0.144-0.472,0.144-0.792c0-0.31-0.056-0.562-0.168-0.76s-0.256-0.353-0.432-0.465
			c-0.176-0.111-0.374-0.186-0.592-0.224c-0.219-0.037-0.435-0.056-0.648-0.056c-0.299,0-0.55,0.016-0.752,0.048v3.072H40.75z
			 M40.047,28.619c0.149,0.021,0.322,0.037,0.52,0.048c0.197,0.011,0.376,0.016,0.536,0.016c0.224,0,0.458-0.021,0.704-0.063
			c0.245-0.043,0.475-0.125,0.688-0.248s0.389-0.293,0.528-0.512c0.138-0.219,0.208-0.505,0.208-0.856
			c0-0.33-0.053-0.605-0.16-0.824c-0.107-0.219-0.259-0.395-0.456-0.527c-0.198-0.134-0.432-0.227-0.704-0.28
			s-0.573-0.08-0.904-0.08h-0.96V28.619z"/>
		<path fill="#FFFFFF" d="M47.375,18.875h6.528c0.064,0.32,0.096,0.646,0.096,0.976c0,0.353-0.032,0.688-0.096,1.009H49.71v2.495
			h3.328c0.064,0.342,0.096,0.673,0.096,0.992c0,0.342-0.032,0.678-0.096,1.008H49.71v3.04h4.304
			c0.064,0.32,0.096,0.646,0.096,0.977c0,0.352-0.032,0.688-0.096,1.008h-6.64V18.875z"/>
		<path fill="#FFFFFF" d="M63.471,28.203c0.139,0.299,0.253,0.605,0.344,0.92c0.09,0.314,0.157,0.632,0.2,0.952
			c-0.555,0.202-1.054,0.336-1.496,0.399c-0.442,0.064-0.92,0.097-1.432,0.097c-0.907,0-1.702-0.147-2.384-0.44
			c-0.683-0.293-1.256-0.704-1.72-1.232c-0.464-0.527-0.813-1.154-1.048-1.88c-0.235-0.725-0.352-1.514-0.352-2.367
			s0.123-1.646,0.368-2.376c0.245-0.731,0.6-1.363,1.064-1.896c0.464-0.533,1.034-0.949,1.712-1.248
			c0.677-0.299,1.448-0.448,2.312-0.448c0.512,0,0.984,0.032,1.417,0.097c0.432,0.063,0.898,0.197,1.399,0.399
			c-0.021,0.32-0.085,0.632-0.192,0.937c-0.106,0.304-0.224,0.61-0.352,0.92c-0.373-0.128-0.704-0.219-0.992-0.272
			c-0.288-0.053-0.629-0.08-1.024-0.08c-1.024,0-1.811,0.334-2.36,1c-0.55,0.667-0.824,1.656-0.824,2.969
			c0,2.603,1.104,3.903,3.312,3.903c0.395,0,0.742-0.026,1.041-0.08C62.762,28.422,63.098,28.331,63.471,28.203z"/>
		<path fill="#FFFFFF" d="M65.758,18.859c0.203-0.032,0.4-0.054,0.592-0.064c0.192-0.011,0.39-0.016,0.593-0.016
			c0.181,0,0.368,0.005,0.56,0.016c0.192,0.011,0.39,0.032,0.592,0.064v11.535c-0.202,0.032-0.399,0.054-0.592,0.064
			c-0.191,0.011-0.384,0.016-0.576,0.016c-0.191,0-0.384-0.005-0.576-0.016c-0.191-0.011-0.389-0.032-0.592-0.064V18.859z
			 M68.43,24.587l3.121-5.712c0.244-0.043,0.471-0.069,0.68-0.08c0.207-0.011,0.396-0.016,0.568-0.016
			c0.181,0,0.383,0.011,0.607,0.031c0.225,0.021,0.459,0.043,0.704,0.064l-3.152,5.552l3.425,5.952
			c-0.246,0.021-0.483,0.043-0.713,0.064c-0.229,0.021-0.435,0.031-0.615,0.031c-0.172,0-0.36-0.005-0.568-0.016
			s-0.439-0.037-0.696-0.08L68.43,24.587z"/>
		<path fill="#FFFFFF" d="M78.287,26.267l-3.584-7.392c0.447-0.064,0.896-0.096,1.344-0.096c0.404,0,0.811,0.031,1.216,0.096
			l2.272,5.216l2.239-5.216c0.395-0.064,0.8-0.096,1.216-0.096c0.385,0,0.795,0.031,1.232,0.096l-3.584,7.392v4.128
			c-0.214,0.032-0.416,0.054-0.608,0.064s-0.384,0.016-0.575,0.016c-0.182,0-0.371-0.005-0.568-0.016s-0.398-0.032-0.6-0.064V26.267
			z"/>
	</g>
</g>
</svg>
