<?xml version="1.0" encoding="utf-8"?>
<!-- Generator: Adobe Illustrator 16.0.0, SVG Export Plug-In . SVG Version: 6.00 Build 0)  -->
<!DOCTYPE svg PUBLIC "-//W3C//DTD SVG 1.1//EN" "http://www.w3.org/Graphics/SVG/1.1/DTD/svg11.dtd">
<svg version="1.1" id="Layer_2" xmlns="http://www.w3.org/2000/svg" xmlns:xlink="http://www.w3.org/1999/xlink" x="0px" y="0px"
	 width="122.758px" height="106.551px" viewBox="0 0 122.758 106.551" enable-background="new 0 0 122.758 106.551"
	 xml:space="preserve">
<rect x="9.133" y="11.066" fill="#8BBE33" width="104.436" height="24.376"/>
<g>
	<g>
		<path fill="#8BBE33" d="M110.568,36.957v56.889H12.133V36.957H110.568 M113.568,33.957H9.133v62.889h104.436V33.957
			L113.568,33.957z"/>
	</g>
</g>
<g id="Name_1_">
	<g enable-background="new    ">
		<path fill="#FFFFFF" d="M29.491,18.875c0.331-0.064,0.645-0.096,0.944-0.096c0.32,0,0.65,0.031,0.992,0.096l4.448,7.328v-7.328
			c0.384-0.064,0.752-0.096,1.104-0.096c0.331,0,0.65,0.031,0.96,0.096v11.504c-0.341,0.064-0.65,0.096-0.928,0.096
			c-0.299,0-0.624-0.031-0.976-0.096l-4.48-7.312v7.312c-0.342,0.064-0.688,0.096-1.04,0.096s-0.693-0.031-1.024-0.096V18.875z"/>
		<path fill="#FFFFFF" d="M44.867,30.571c-0.864,0-1.611-0.149-2.24-0.448s-1.146-0.712-1.552-1.24
			c-0.406-0.528-0.707-1.152-0.904-1.872s-0.296-1.506-0.296-2.359s0.099-1.646,0.296-2.376c0.197-0.731,0.499-1.363,0.904-1.896
			c0.405-0.533,0.922-0.949,1.552-1.248s1.376-0.448,2.24-0.448c0.864,0,1.61,0.149,2.24,0.448s1.146,0.715,1.552,1.248
			c0.405,0.533,0.707,1.165,0.904,1.896c0.197,0.73,0.296,1.522,0.296,2.376s-0.099,1.64-0.296,2.359s-0.499,1.344-0.904,1.872
			c-0.406,0.528-0.923,0.941-1.552,1.24S45.731,30.571,44.867,30.571z M44.867,28.619c1.653,0,2.48-1.322,2.48-3.968
			c0-1.323-0.2-2.315-0.6-2.977s-1.021-0.992-1.864-0.992c-1.675,0-2.512,1.323-2.512,3.969S43.203,28.619,44.867,28.619z"/>
		<path fill="#FFFFFF" d="M51.907,18.875c0.469-0.054,0.909-0.099,1.32-0.136c0.411-0.038,0.867-0.057,1.368-0.057
			c0.586,0,1.166,0.054,1.736,0.16c0.571,0.106,1.085,0.296,1.544,0.568c0.458,0.271,0.829,0.64,1.112,1.104
			s0.424,1.054,0.424,1.769c0,0.427-0.053,0.803-0.16,1.128c-0.107,0.325-0.243,0.61-0.408,0.855
			c-0.166,0.246-0.344,0.456-0.536,0.632c-0.192,0.177-0.374,0.318-0.544,0.425l-0.272,0.176l2.8,4.864
			c-0.214,0.021-0.438,0.042-0.672,0.063c-0.234,0.021-0.475,0.032-0.72,0.032c-0.406,0-0.806-0.032-1.2-0.096l-3.008-5.345
			l0.384-0.191c0.149-0.075,0.331-0.171,0.544-0.288s0.418-0.264,0.616-0.44c0.197-0.176,0.365-0.389,0.504-0.64
			s0.208-0.547,0.208-0.888c0-0.673-0.192-1.166-0.576-1.48c-0.384-0.314-0.88-0.472-1.488-0.472c-0.235,0-0.448,0.016-0.64,0.048
			v9.712c-0.192,0.021-0.384,0.04-0.576,0.056c-0.192,0.017-0.379,0.024-0.56,0.024c-0.182,0-0.374-0.006-0.576-0.016
			c-0.203-0.011-0.411-0.032-0.624-0.064V18.875z"/>
		<path fill="#FFFFFF" d="M61.891,18.875c0.428-0.064,0.838-0.096,1.232-0.096c0.416,0,0.826,0.031,1.232,0.096l2.64,6.592
			l2.72-6.592c0.331-0.064,0.699-0.096,1.104-0.096s0.794,0.031,1.168,0.096l0.544,11.504c-0.406,0.064-0.789,0.096-1.152,0.096
			c-0.362,0-0.72-0.031-1.072-0.096l-0.287-7.808l-2.336,5.407c-0.15,0.021-0.305,0.04-0.465,0.057
			c-0.16,0.016-0.319,0.023-0.479,0.023c-0.139,0-0.277-0.005-0.416-0.016s-0.282-0.032-0.433-0.064l-2.176-5.52l-0.224,7.92
			c-0.341,0.064-0.672,0.096-0.992,0.096c-0.341,0-0.693-0.031-1.056-0.096L61.891,18.875z"/>
		<path fill="#FFFFFF" d="M77.314,18.875c0.225-0.032,0.438-0.056,0.641-0.072c0.201-0.016,0.426-0.023,0.672-0.023
			c0.213,0,0.421,0.008,0.623,0.023c0.203,0.017,0.427,0.04,0.672,0.072l3.601,11.504c-0.438,0.064-0.864,0.096-1.28,0.096
			c-0.405,0-0.8-0.031-1.184-0.096l-0.641-2.304H76.61l-0.655,2.304c-0.385,0.064-0.752,0.096-1.104,0.096
			c-0.396,0-0.784-0.031-1.168-0.096L77.314,18.875z M79.875,26.139l-1.328-4.832l-1.393,4.832H79.875z"/>
		<path fill="#FFFFFF" d="M84.818,18.875c0.33-0.064,0.645-0.096,0.943-0.096c0.32,0,0.65,0.031,0.992,0.096l4.448,7.328v-7.328
			c0.384-0.064,0.752-0.096,1.104-0.096c0.33,0,0.65,0.031,0.959,0.096v11.504c-0.341,0.064-0.65,0.096-0.928,0.096
			c-0.299,0-0.623-0.031-0.976-0.096l-4.479-7.312v7.312c-0.342,0.064-0.688,0.096-1.041,0.096c-0.352,0-0.693-0.031-1.023-0.096
			V18.875z"/>
	</g>
</g>
<g>
	<path d="M19.5,46.751c-0.468,0-0.873-0.083-1.215-0.248c-0.342-0.165-0.625-0.396-0.85-0.693c-0.225-0.297-0.393-0.649-0.504-1.058
		c-0.111-0.408-0.167-0.855-0.167-1.341s0.056-0.933,0.167-1.341c0.111-0.408,0.279-0.761,0.504-1.058
		c0.225-0.297,0.508-0.53,0.85-0.698c0.342-0.168,0.747-0.252,1.215-0.252c0.468,0,0.873,0.084,1.215,0.252s0.625,0.401,0.851,0.698
		s0.392,0.649,0.5,1.058c0.108,0.408,0.162,0.855,0.162,1.341s-0.054,0.933-0.162,1.341c-0.108,0.408-0.274,0.761-0.5,1.058
		s-0.509,0.528-0.851,0.693S19.968,46.751,19.5,46.751z M19.5,45.959c0.3,0,0.559-0.059,0.778-0.175
		c0.219-0.117,0.4-0.287,0.544-0.509c0.144-0.222,0.252-0.489,0.324-0.801c0.072-0.312,0.108-0.666,0.108-1.062
		c0-0.39-0.036-0.743-0.108-1.058c-0.072-0.315-0.18-0.582-0.324-0.801c-0.144-0.219-0.326-0.387-0.544-0.504
		c-0.219-0.117-0.479-0.176-0.778-0.176c-0.3,0-0.56,0.059-0.779,0.176c-0.219,0.117-0.4,0.285-0.544,0.504
		c-0.144,0.219-0.252,0.486-0.324,0.801c-0.072,0.315-0.108,0.667-0.108,1.058c0,0.396,0.036,0.75,0.108,1.062
		c0.072,0.312,0.18,0.579,0.324,0.801c0.144,0.222,0.326,0.392,0.544,0.509C18.94,45.901,19.2,45.959,19.5,45.959z"/>
	<path d="M23.163,42.026c0.066-0.012,0.141-0.021,0.225-0.027s0.156-0.009,0.216-0.009c0.066,0,0.141,0.003,0.225,0.009
		s0.159,0.015,0.225,0.027v2.529c0,0.288,0.027,0.526,0.081,0.715c0.054,0.189,0.135,0.337,0.243,0.446
		c0.108,0.108,0.24,0.183,0.396,0.225c0.156,0.042,0.336,0.063,0.54,0.063c0.306,0,0.567-0.033,0.783-0.099v-3.879
		c0.066-0.012,0.139-0.021,0.22-0.027s0.155-0.009,0.221-0.009s0.14,0.003,0.221,0.009c0.081,0.006,0.154,0.015,0.22,0.027V46.5
		c-0.21,0.06-0.46,0.117-0.751,0.171c-0.291,0.054-0.593,0.081-0.904,0.081c-0.294,0-0.572-0.025-0.833-0.076
		c-0.261-0.051-0.491-0.155-0.688-0.311c-0.198-0.156-0.354-0.375-0.468-0.657c-0.114-0.282-0.171-0.654-0.171-1.116V42.026z"/>
	<path d="M28.104,42.026c0.066-0.012,0.129-0.021,0.189-0.027c0.06-0.006,0.123-0.009,0.189-0.009c0.066,0,0.132,0.003,0.198,0.009
		s0.126,0.015,0.18,0.027c0.018,0.09,0.036,0.208,0.054,0.355c0.018,0.147,0.027,0.272,0.027,0.374
		c0.126-0.204,0.292-0.381,0.5-0.531S29.913,42,30.237,42c0.048,0,0.098,0.001,0.148,0.004c0.051,0.003,0.095,0.008,0.13,0.014
		c0.012,0.054,0.021,0.111,0.027,0.171c0.006,0.06,0.009,0.123,0.009,0.189c0,0.072-0.004,0.147-0.014,0.225
		c-0.009,0.078-0.02,0.153-0.031,0.225c-0.048-0.012-0.098-0.018-0.148-0.018c-0.051,0-0.092,0-0.122,0
		c-0.162,0-0.316,0.022-0.463,0.067c-0.147,0.045-0.279,0.125-0.396,0.239c-0.117,0.114-0.21,0.27-0.279,0.468
		c-0.069,0.198-0.104,0.453-0.104,0.765v2.295c-0.066,0.012-0.139,0.021-0.22,0.027s-0.155,0.009-0.221,0.009
		s-0.14-0.003-0.22-0.009c-0.081-0.006-0.158-0.015-0.229-0.027V42.026z"/>
	<path d="M33.342,42.729h-0.756c-0.024-0.096-0.036-0.213-0.036-0.351c0-0.132,0.012-0.249,0.036-0.351h0.756v-0.324
		c0-0.57,0.142-1.003,0.427-1.301c0.285-0.297,0.701-0.445,1.247-0.445c0.15,0,0.282,0.008,0.396,0.022
		c0.114,0.015,0.222,0.038,0.324,0.067c-0.012,0.15-0.029,0.279-0.05,0.387s-0.049,0.219-0.085,0.333
		c-0.06-0.012-0.13-0.025-0.211-0.041s-0.179-0.022-0.292-0.022c-0.132,0-0.25,0.014-0.355,0.041s-0.195,0.078-0.27,0.153
		c-0.075,0.075-0.134,0.18-0.176,0.315c-0.042,0.135-0.063,0.308-0.063,0.518v0.297h1.179c0.018,0.12,0.027,0.243,0.027,0.369
		c0,0.114-0.009,0.225-0.027,0.333h-1.179v3.915c-0.066,0.012-0.139,0.021-0.22,0.027s-0.155,0.009-0.221,0.009
		s-0.141-0.003-0.225-0.009s-0.159-0.015-0.225-0.027V42.729z"/>
	<path d="M38.427,43.602c0-0.354-0.09-0.6-0.27-0.738c-0.18-0.138-0.441-0.207-0.783-0.207c-0.21,0-0.407,0.017-0.589,0.049
		c-0.183,0.033-0.362,0.077-0.536,0.13c-0.114-0.198-0.171-0.435-0.171-0.711c0.204-0.066,0.429-0.117,0.675-0.153
		s0.483-0.054,0.711-0.054c0.6,0,1.056,0.137,1.368,0.41s0.468,0.709,0.468,1.31v2.889c-0.21,0.048-0.465,0.098-0.765,0.149
		c-0.3,0.051-0.606,0.076-0.918,0.076c-0.294,0-0.56-0.027-0.796-0.081c-0.237-0.054-0.438-0.141-0.603-0.261
		c-0.166-0.12-0.292-0.273-0.383-0.459c-0.09-0.186-0.135-0.411-0.135-0.675c0-0.258,0.052-0.484,0.157-0.679
		s0.248-0.357,0.428-0.486c0.18-0.129,0.387-0.225,0.621-0.288c0.234-0.063,0.48-0.095,0.738-0.095c0.192,0,0.35,0.004,0.473,0.014
		c0.123,0.009,0.226,0.02,0.311,0.031V43.602z M38.427,44.475c-0.09-0.012-0.204-0.024-0.342-0.036
		c-0.138-0.012-0.255-0.018-0.351-0.018c-0.372,0-0.655,0.069-0.85,0.207c-0.195,0.138-0.292,0.348-0.292,0.63
		c0,0.18,0.033,0.321,0.099,0.423s0.148,0.18,0.248,0.234s0.208,0.087,0.329,0.099s0.234,0.018,0.342,0.018
		c0.138,0,0.281-0.008,0.428-0.022c0.147-0.015,0.277-0.038,0.392-0.068V44.475z"/>
	<path d="M40.308,42.026c0.066-0.012,0.141-0.021,0.225-0.027s0.156-0.009,0.216-0.009c0.066,0,0.141,0.003,0.225,0.009
		s0.159,0.015,0.225,0.027v2.529c0,0.288,0.027,0.526,0.081,0.715c0.054,0.189,0.135,0.337,0.243,0.446
		c0.108,0.108,0.24,0.183,0.396,0.225c0.156,0.042,0.336,0.063,0.54,0.063c0.306,0,0.567-0.033,0.783-0.099v-3.879
		c0.066-0.012,0.139-0.021,0.22-0.027s0.155-0.009,0.221-0.009s0.14,0.003,0.221,0.009c0.081,0.006,0.154,0.015,0.22,0.027V46.5
		c-0.21,0.06-0.46,0.117-0.751,0.171c-0.291,0.054-0.593,0.081-0.904,0.081c-0.294,0-0.572-0.025-0.833-0.076
		c-0.261-0.051-0.491-0.155-0.688-0.311c-0.198-0.156-0.354-0.375-0.468-0.657c-0.114-0.282-0.171-0.654-0.171-1.116V42.026z"/>
	<path d="M48.327,45.843c0.048,0.084,0.09,0.189,0.126,0.315c0.036,0.126,0.057,0.255,0.063,0.387
		c-0.354,0.138-0.759,0.207-1.215,0.207c-0.768,0-1.347-0.217-1.737-0.652c-0.39-0.435-0.585-1.021-0.585-1.76
		c0-0.342,0.048-0.66,0.144-0.954c0.096-0.294,0.238-0.549,0.427-0.765s0.424-0.387,0.707-0.513
		c0.282-0.126,0.609-0.189,0.981-0.189c0.252,0,0.474,0.015,0.666,0.045c0.192,0.03,0.375,0.078,0.549,0.144
		c0,0.102-0.013,0.221-0.041,0.355c-0.027,0.135-0.064,0.254-0.112,0.355c-0.294-0.102-0.63-0.153-1.008-0.153
		c-0.462,0-0.807,0.153-1.035,0.459s-0.342,0.711-0.342,1.215c0,0.576,0.129,0.998,0.387,1.265s0.612,0.4,1.062,0.4
		c0.18,0,0.347-0.012,0.5-0.036S48.171,45.903,48.327,45.843z"/>
	<path d="M49.803,44.556c0.012,0.504,0.142,0.873,0.391,1.107s0.617,0.351,1.103,0.351c0.426,0,0.831-0.075,1.215-0.225
		c0.048,0.09,0.087,0.2,0.117,0.329c0.03,0.129,0.048,0.256,0.054,0.382c-0.198,0.084-0.416,0.147-0.653,0.189
		c-0.237,0.042-0.5,0.063-0.787,0.063c-0.42,0-0.78-0.059-1.08-0.175c-0.3-0.117-0.548-0.282-0.743-0.495s-0.337-0.465-0.427-0.756
		c-0.09-0.291-0.135-0.61-0.135-0.958c0-0.342,0.043-0.662,0.13-0.958c0.087-0.297,0.221-0.555,0.401-0.774
		c0.18-0.219,0.406-0.393,0.679-0.522c0.273-0.129,0.596-0.193,0.968-0.193c0.318,0,0.597,0.054,0.837,0.162
		c0.24,0.108,0.441,0.256,0.603,0.445s0.285,0.414,0.369,0.675c0.083,0.261,0.126,0.544,0.126,0.851
		c0,0.084-0.003,0.172-0.009,0.265c-0.006,0.093-0.012,0.173-0.018,0.239H49.803z M52.088,43.89c0-0.168-0.022-0.329-0.067-0.481
		c-0.045-0.153-0.111-0.287-0.198-0.401c-0.087-0.114-0.198-0.205-0.333-0.274c-0.135-0.069-0.296-0.104-0.482-0.104
		c-0.366,0-0.646,0.111-0.841,0.333c-0.195,0.222-0.313,0.531-0.355,0.927H52.088z"/>
	<path d="M54.032,42.738H53.33l-0.036-0.126l1.548-1.728h0.072v1.143h1.17c0.024,0.102,0.036,0.216,0.036,0.342
		c0,0.066-0.003,0.129-0.009,0.189c-0.006,0.06-0.015,0.12-0.027,0.18h-1.17v2.106c0,0.252,0.01,0.453,0.032,0.603
		c0.021,0.15,0.057,0.265,0.108,0.346c0.051,0.081,0.12,0.135,0.207,0.162c0.087,0.027,0.196,0.041,0.329,0.041
		c0.102,0,0.198-0.007,0.288-0.022c0.09-0.015,0.171-0.032,0.243-0.05c0.042,0.12,0.067,0.243,0.077,0.369
		c0.009,0.126,0.013,0.237,0.013,0.333c-0.12,0.03-0.246,0.053-0.378,0.067c-0.132,0.015-0.273,0.022-0.423,0.022
		c-0.432,0-0.77-0.104-1.013-0.315c-0.243-0.21-0.364-0.558-0.364-1.044V42.738z"/>
	<path d="M58.649,40.046c0.066-0.012,0.14-0.021,0.221-0.027s0.154-0.009,0.22-0.009s0.141,0.003,0.225,0.009
		s0.159,0.015,0.225,0.027v2.538c0.108-0.18,0.276-0.336,0.504-0.468s0.504-0.198,0.828-0.198c0.276,0,0.531,0.045,0.765,0.135
		c0.234,0.09,0.435,0.229,0.603,0.418s0.299,0.429,0.391,0.72c0.094,0.291,0.141,0.635,0.141,1.031c0,0.792-0.225,1.412-0.672,1.858
		c-0.446,0.447-1.09,0.67-1.93,0.67c-0.264,0-0.536-0.025-0.814-0.076c-0.279-0.051-0.515-0.11-0.707-0.176V40.046z M59.54,45.896
		c0.108,0.036,0.224,0.062,0.347,0.077c0.123,0.015,0.25,0.022,0.382,0.022c0.222,0,0.427-0.035,0.616-0.104
		c0.189-0.069,0.353-0.174,0.491-0.315s0.248-0.321,0.329-0.54s0.122-0.479,0.122-0.778c0-0.498-0.087-0.885-0.261-1.161
		s-0.462-0.414-0.864-0.414c-0.138,0-0.275,0.022-0.41,0.067c-0.135,0.045-0.26,0.117-0.374,0.216
		c-0.114,0.099-0.206,0.231-0.274,0.396c-0.069,0.165-0.104,0.364-0.104,0.598V45.896z"/>
	<path d="M63.689,42.026c0.066-0.012,0.129-0.021,0.189-0.027c0.06-0.006,0.123-0.009,0.188-0.009c0.066,0,0.132,0.003,0.198,0.009
		s0.126,0.015,0.18,0.027c0.019,0.09,0.036,0.208,0.055,0.355c0.018,0.147,0.026,0.272,0.026,0.374
		c0.126-0.204,0.293-0.381,0.5-0.531S65.499,42,65.822,42c0.049,0,0.098,0.001,0.149,0.004c0.051,0.003,0.094,0.008,0.13,0.014
		c0.012,0.054,0.021,0.111,0.027,0.171s0.009,0.123,0.009,0.189c0,0.072-0.005,0.147-0.014,0.225s-0.02,0.153-0.031,0.225
		c-0.048-0.012-0.098-0.018-0.148-0.018s-0.092,0-0.122,0c-0.161,0-0.316,0.022-0.463,0.067c-0.147,0.045-0.279,0.125-0.396,0.239
		c-0.116,0.114-0.21,0.27-0.278,0.468c-0.069,0.198-0.104,0.453-0.104,0.765v2.295c-0.066,0.012-0.14,0.021-0.221,0.027
		s-0.154,0.009-0.221,0.009S64,46.676,63.919,46.67s-0.157-0.015-0.229-0.027V42.026z"/>
	<path d="M68.494,46.751c-0.359,0-0.675-0.062-0.944-0.185c-0.271-0.123-0.495-0.292-0.676-0.508c-0.18-0.216-0.313-0.471-0.4-0.765
		s-0.13-0.612-0.13-0.954c0-0.342,0.043-0.66,0.13-0.954s0.221-0.549,0.4-0.765c0.181-0.216,0.405-0.387,0.676-0.513
		c0.27-0.126,0.585-0.189,0.944-0.189c0.36,0,0.675,0.063,0.945,0.189c0.27,0.126,0.495,0.297,0.675,0.513s0.313,0.471,0.4,0.765
		s0.131,0.612,0.131,0.954c0,0.342-0.044,0.66-0.131,0.954s-0.221,0.549-0.4,0.765s-0.405,0.386-0.675,0.508
		C69.169,46.69,68.854,46.751,68.494,46.751z M68.494,46.041c0.414,0,0.72-0.15,0.918-0.45c0.198-0.3,0.297-0.717,0.297-1.251
		c0-0.534-0.099-0.949-0.297-1.246c-0.198-0.297-0.504-0.446-0.918-0.446s-0.719,0.148-0.913,0.446
		c-0.195,0.297-0.293,0.712-0.293,1.246c0,0.534,0.098,0.951,0.293,1.251C67.775,45.891,68.08,46.041,68.494,46.041z"/>
	<path d="M71.5,40.046c0.066-0.012,0.14-0.021,0.221-0.027s0.154-0.009,0.221-0.009s0.141,0.003,0.225,0.009
		s0.159,0.015,0.226,0.027v6.597c-0.066,0.012-0.142,0.021-0.226,0.027s-0.158,0.009-0.225,0.009s-0.14-0.003-0.221-0.009
		s-0.154-0.015-0.221-0.027V40.046z M72.635,44.25l1.467-2.223c0.078-0.012,0.156-0.021,0.233-0.027
		c0.078-0.006,0.159-0.009,0.243-0.009c0.09,0,0.176,0.003,0.257,0.009s0.163,0.015,0.247,0.027l-1.467,2.16l1.719,2.457
		c-0.084,0.012-0.165,0.021-0.242,0.027c-0.078,0.006-0.159,0.009-0.243,0.009s-0.168-0.003-0.252-0.009s-0.168-0.015-0.252-0.027
		L72.635,44.25z"/>
	<path d="M76.37,44.556c0.013,0.504,0.143,0.873,0.392,1.107s0.616,0.351,1.103,0.351c0.426,0,0.831-0.075,1.215-0.225
		c0.048,0.09,0.087,0.2,0.117,0.329s0.048,0.256,0.054,0.382c-0.197,0.084-0.415,0.147-0.652,0.189s-0.499,0.063-0.787,0.063
		c-0.42,0-0.78-0.059-1.08-0.175c-0.3-0.117-0.548-0.282-0.742-0.495c-0.195-0.213-0.338-0.465-0.428-0.756s-0.135-0.61-0.135-0.958
		c0-0.342,0.043-0.662,0.13-0.958c0.087-0.297,0.221-0.555,0.4-0.774c0.181-0.219,0.406-0.393,0.68-0.522
		c0.273-0.129,0.596-0.193,0.968-0.193c0.317,0,0.597,0.054,0.837,0.162s0.441,0.256,0.603,0.445
		c0.162,0.189,0.285,0.414,0.369,0.675c0.084,0.261,0.126,0.544,0.126,0.851c0,0.084-0.003,0.172-0.009,0.265
		c-0.006,0.093-0.012,0.173-0.018,0.239H76.37z M78.656,43.89c0-0.168-0.022-0.329-0.067-0.481
		c-0.045-0.153-0.111-0.287-0.198-0.401c-0.087-0.114-0.197-0.205-0.333-0.274c-0.135-0.069-0.295-0.104-0.481-0.104
		c-0.366,0-0.646,0.111-0.841,0.333c-0.195,0.222-0.314,0.531-0.356,0.927H78.656z"/>
	<path d="M85.243,40.046c0.066-0.012,0.142-0.021,0.226-0.027s0.155-0.009,0.216-0.009c0.065,0,0.14,0.003,0.221,0.009
		s0.154,0.015,0.221,0.027v6.471c-0.229,0.066-0.483,0.122-0.766,0.167s-0.597,0.067-0.945,0.067c-0.323,0-0.631-0.041-0.922-0.122
		s-0.545-0.214-0.761-0.4s-0.387-0.426-0.513-0.72s-0.189-0.657-0.189-1.089c0-0.372,0.056-0.711,0.167-1.017
		c0.11-0.306,0.269-0.568,0.473-0.787c0.203-0.219,0.448-0.389,0.733-0.509c0.284-0.12,0.602-0.18,0.949-0.18
		c0.156,0,0.313,0.012,0.473,0.036c0.159,0.024,0.298,0.054,0.418,0.09V40.046z M85.243,42.81c-0.12-0.048-0.249-0.084-0.387-0.108
		s-0.288-0.036-0.45-0.036c-0.246,0-0.459,0.045-0.639,0.135c-0.18,0.09-0.328,0.213-0.445,0.369
		c-0.117,0.156-0.204,0.341-0.262,0.554c-0.057,0.213-0.085,0.445-0.085,0.697c0.006,0.57,0.141,0.978,0.405,1.224
		c0.264,0.246,0.624,0.369,1.08,0.369c0.155,0,0.3-0.008,0.432-0.022c0.132-0.015,0.249-0.038,0.351-0.068V42.81z"/>
	<path d="M87.224,42.026c0.066-0.012,0.141-0.021,0.225-0.027s0.156-0.009,0.217-0.009c0.065,0,0.141,0.003,0.225,0.009
		s0.159,0.015,0.225,0.027v2.529c0,0.288,0.027,0.526,0.081,0.715c0.055,0.189,0.136,0.337,0.243,0.446
		c0.108,0.108,0.24,0.183,0.396,0.225c0.155,0.042,0.336,0.063,0.54,0.063c0.306,0,0.566-0.033,0.782-0.099v-3.879
		c0.066-0.012,0.14-0.021,0.221-0.027s0.154-0.009,0.221-0.009s0.14,0.003,0.221,0.009s0.154,0.015,0.221,0.027V46.5
		c-0.211,0.06-0.461,0.117-0.752,0.171c-0.291,0.054-0.593,0.081-0.904,0.081c-0.294,0-0.571-0.025-0.833-0.076
		c-0.261-0.051-0.49-0.155-0.688-0.311c-0.197-0.156-0.354-0.375-0.468-0.657c-0.114-0.282-0.171-0.654-0.171-1.116V42.026z"/>
	<path d="M92.165,42.026c0.066-0.012,0.129-0.021,0.189-0.027c0.06-0.006,0.123-0.009,0.188-0.009c0.066,0,0.132,0.003,0.198,0.009
		s0.126,0.015,0.18,0.027c0.019,0.09,0.036,0.208,0.055,0.355c0.018,0.147,0.026,0.272,0.026,0.374
		c0.126-0.204,0.293-0.381,0.5-0.531S93.975,42,94.298,42c0.049,0,0.098,0.001,0.149,0.004c0.051,0.003,0.094,0.008,0.13,0.014
		c0.012,0.054,0.021,0.111,0.027,0.171s0.009,0.123,0.009,0.189c0,0.072-0.005,0.147-0.014,0.225s-0.02,0.153-0.031,0.225
		c-0.048-0.012-0.098-0.018-0.148-0.018s-0.092,0-0.122,0c-0.161,0-0.316,0.022-0.463,0.067c-0.147,0.045-0.279,0.125-0.396,0.239
		c-0.116,0.114-0.21,0.27-0.278,0.468c-0.069,0.198-0.104,0.453-0.104,0.765v2.295c-0.066,0.012-0.14,0.021-0.221,0.027
		s-0.154,0.009-0.221,0.009s-0.14-0.003-0.221-0.009s-0.157-0.015-0.229-0.027V42.026z"/>
	<path d="M95.504,42.729h-0.585c-0.013-0.048-0.021-0.104-0.027-0.167s-0.009-0.125-0.009-0.185c0-0.06,0.003-0.122,0.009-0.185
		s0.015-0.118,0.027-0.167h1.458v4.617c-0.066,0.012-0.14,0.021-0.221,0.027s-0.154,0.009-0.221,0.009
		c-0.06,0-0.131-0.003-0.211-0.009c-0.081-0.006-0.155-0.015-0.221-0.027V42.729z M95.306,41.01c-0.012-0.072-0.02-0.15-0.022-0.234
		c-0.003-0.084-0.005-0.159-0.005-0.225c0-0.066,0.002-0.141,0.005-0.225s0.011-0.159,0.022-0.225
		c0.078-0.012,0.162-0.021,0.252-0.027s0.168-0.009,0.234-0.009c0.065,0,0.144,0.003,0.233,0.009s0.171,0.015,0.243,0.027
		c0.012,0.066,0.02,0.141,0.022,0.225s0.005,0.159,0.005,0.225c0,0.066-0.002,0.141-0.005,0.225
		c-0.003,0.084-0.011,0.162-0.022,0.234c-0.072,0.012-0.151,0.021-0.238,0.027s-0.164,0.009-0.229,0.009
		c-0.072,0-0.153-0.003-0.243-0.009S95.384,41.021,95.306,41.01z"/>
	<path d="M97.546,42.026c0.066-0.012,0.131-0.021,0.193-0.027c0.063-0.006,0.128-0.009,0.194-0.009c0.065,0,0.127,0.003,0.184,0.009
		c0.058,0.006,0.119,0.015,0.185,0.027c0.019,0.09,0.036,0.212,0.055,0.365c0.018,0.153,0.026,0.28,0.026,0.382
		c0.061-0.102,0.137-0.204,0.229-0.306c0.094-0.102,0.2-0.194,0.32-0.275c0.119-0.081,0.258-0.147,0.413-0.198
		c0.156-0.051,0.327-0.077,0.514-0.077c0.527,0,0.918,0.152,1.17,0.455c0.252,0.303,0.378,0.751,0.378,1.346v2.925
		c-0.066,0.012-0.141,0.021-0.225,0.027c-0.085,0.006-0.159,0.009-0.226,0.009s-0.14-0.003-0.221-0.009s-0.154-0.015-0.22-0.027
		v-2.682c0-0.426-0.066-0.739-0.198-0.94c-0.132-0.201-0.342-0.301-0.63-0.301c-0.168,0-0.327,0.03-0.478,0.09
		c-0.149,0.06-0.282,0.153-0.396,0.279c-0.114,0.126-0.206,0.29-0.274,0.491c-0.069,0.201-0.104,0.442-0.104,0.725v2.34
		c-0.066,0.012-0.14,0.021-0.221,0.027s-0.154,0.009-0.221,0.009s-0.141-0.003-0.225-0.009s-0.159-0.015-0.226-0.027V42.026z"/>
	<path d="M104.945,46.049c0.533,0.012,0.921,0.126,1.161,0.342c0.239,0.216,0.359,0.513,0.359,0.891
		c0,0.246-0.062,0.466-0.188,0.661c-0.126,0.195-0.301,0.363-0.522,0.504c-0.222,0.141-0.484,0.249-0.787,0.324
		c-0.304,0.075-0.632,0.113-0.985,0.113c-0.618,0-1.09-0.096-1.413-0.288c-0.324-0.192-0.486-0.495-0.486-0.909
		c0-0.246,0.066-0.466,0.198-0.662c0.132-0.195,0.303-0.35,0.513-0.463c-0.12-0.078-0.221-0.175-0.302-0.292
		s-0.121-0.262-0.121-0.437c0-0.222,0.05-0.414,0.148-0.576c0.099-0.162,0.232-0.306,0.4-0.432
		c-0.198-0.138-0.357-0.316-0.477-0.536c-0.12-0.219-0.181-0.466-0.181-0.743c0-0.228,0.042-0.441,0.126-0.639
		c0.084-0.198,0.206-0.371,0.365-0.518c0.158-0.147,0.355-0.263,0.589-0.347c0.234-0.084,0.501-0.126,0.801-0.126
		c0.271,0,0.515,0.039,0.734,0.117c0.219,0.078,0.406,0.177,0.562,0.297c0.119-0.096,0.281-0.175,0.485-0.238S106.354,42,106.601,42
		c0.024,0.114,0.036,0.24,0.036,0.378c0,0.066-0.003,0.135-0.009,0.207c-0.006,0.072-0.015,0.144-0.027,0.216h-0.81
		c0.066,0.102,0.117,0.213,0.153,0.333c0.036,0.12,0.054,0.258,0.054,0.414c0,0.246-0.045,0.468-0.135,0.666
		c-0.09,0.198-0.218,0.368-0.383,0.509s-0.361,0.249-0.59,0.324c-0.228,0.075-0.477,0.113-0.747,0.113
		c-0.246,0-0.468-0.027-0.666-0.081c-0.084,0.048-0.166,0.122-0.247,0.22c-0.081,0.099-0.121,0.206-0.121,0.32
		c0,0.108,0.039,0.202,0.116,0.283c0.078,0.081,0.252,0.125,0.522,0.131L104.945,46.049z M103.73,46.761
		c-0.271-0.006-0.473,0.066-0.608,0.216c-0.135,0.15-0.202,0.33-0.202,0.54c0,0.132,0.027,0.24,0.081,0.324s0.131,0.152,0.229,0.203
		s0.216,0.087,0.351,0.108c0.136,0.021,0.284,0.032,0.446,0.032c0.479,0,0.854-0.08,1.125-0.239c0.27-0.159,0.404-0.358,0.404-0.598
		c0-0.18-0.057-0.318-0.171-0.414c-0.114-0.096-0.324-0.147-0.63-0.153L103.73,46.761z M104.144,44.511
		c0.324,0,0.564-0.09,0.721-0.27c0.155-0.18,0.233-0.411,0.233-0.693c0-0.288-0.078-0.523-0.233-0.707
		c-0.156-0.183-0.396-0.274-0.721-0.274c-0.323,0-0.562,0.092-0.715,0.274c-0.153,0.183-0.229,0.419-0.229,0.707
		c0,0.282,0.076,0.513,0.229,0.693C103.581,44.42,103.82,44.511,104.144,44.511z"/>
	<path d="M23.703,53.537h-0.702l-0.036-0.126l1.548-1.728h0.072v1.143h1.17c0.024,0.103,0.036,0.216,0.036,0.342
		c0,0.066-0.003,0.13-0.009,0.189c-0.006,0.06-0.015,0.12-0.027,0.18h-1.17v2.106c0,0.252,0.01,0.453,0.032,0.603
		c0.021,0.15,0.057,0.266,0.108,0.347c0.051,0.081,0.12,0.135,0.207,0.162c0.087,0.027,0.196,0.04,0.329,0.04
		c0.102,0,0.198-0.007,0.288-0.022c0.09-0.015,0.171-0.031,0.243-0.049c0.042,0.12,0.067,0.243,0.077,0.369
		c0.009,0.126,0.013,0.236,0.013,0.333c-0.12,0.029-0.246,0.052-0.378,0.067c-0.132,0.015-0.273,0.022-0.423,0.022
		c-0.432,0-0.77-0.105-1.013-0.315c-0.243-0.21-0.364-0.558-0.364-1.044V53.537z"/>
	<path d="M26.466,50.846c0.066-0.012,0.14-0.021,0.221-0.026s0.154-0.009,0.22-0.009s0.141,0.003,0.225,0.009
		s0.159,0.015,0.225,0.026v2.683c0.054-0.084,0.122-0.174,0.203-0.27c0.081-0.097,0.18-0.185,0.297-0.266
		c0.117-0.081,0.252-0.147,0.405-0.198c0.153-0.051,0.323-0.076,0.509-0.076c0.528,0,0.919,0.151,1.174,0.454
		s0.382,0.752,0.382,1.346v2.925c-0.066,0.012-0.139,0.021-0.22,0.027c-0.081,0.006-0.155,0.009-0.221,0.009
		s-0.139-0.003-0.22-0.009c-0.081-0.007-0.155-0.016-0.221-0.027v-2.682c0-0.427-0.07-0.74-0.211-0.94
		c-0.141-0.201-0.355-0.302-0.644-0.302c-0.162,0-0.318,0.028-0.468,0.085c-0.15,0.058-0.282,0.147-0.396,0.271
		c-0.114,0.123-0.204,0.283-0.27,0.481c-0.066,0.198-0.099,0.438-0.099,0.72v2.367c-0.066,0.012-0.141,0.021-0.225,0.027
		c-0.084,0.006-0.159,0.009-0.225,0.009c-0.06,0-0.132-0.003-0.216-0.009c-0.084-0.007-0.159-0.016-0.225-0.027V50.846z"/>
	<path d="M32.063,55.355c0.012,0.504,0.142,0.873,0.391,1.106c0.249,0.234,0.617,0.352,1.103,0.352c0.426,0,0.831-0.075,1.215-0.226
		c0.048,0.091,0.087,0.2,0.117,0.329c0.03,0.129,0.048,0.257,0.054,0.383c-0.198,0.084-0.416,0.146-0.653,0.188
		c-0.237,0.042-0.5,0.063-0.787,0.063c-0.42,0-0.78-0.059-1.08-0.176c-0.3-0.117-0.548-0.282-0.743-0.495s-0.337-0.465-0.427-0.756
		c-0.09-0.291-0.135-0.61-0.135-0.959c0-0.342,0.043-0.661,0.13-0.958s0.221-0.555,0.401-0.774c0.18-0.219,0.406-0.393,0.679-0.521
		s0.596-0.193,0.968-0.193c0.318,0,0.597,0.054,0.837,0.161c0.24,0.108,0.441,0.257,0.603,0.446
		c0.162,0.188,0.285,0.414,0.369,0.675c0.083,0.261,0.126,0.544,0.126,0.851c0,0.084-0.003,0.172-0.009,0.266
		c-0.006,0.093-0.012,0.172-0.018,0.238H32.063z M34.349,54.689c0-0.168-0.022-0.328-0.067-0.481s-0.111-0.286-0.198-0.4
		c-0.087-0.114-0.198-0.206-0.333-0.274c-0.135-0.069-0.296-0.104-0.482-0.104c-0.366,0-0.646,0.11-0.841,0.333
		c-0.195,0.222-0.313,0.53-0.355,0.927H34.349z"/>
	<path d="M37.967,50.846c0.066-0.012,0.14-0.021,0.221-0.026s0.154-0.009,0.22-0.009s0.141,0.003,0.225,0.009
		s0.159,0.015,0.225,0.026v2.683c0.054-0.084,0.122-0.174,0.203-0.27c0.081-0.097,0.18-0.185,0.297-0.266
		c0.117-0.081,0.252-0.147,0.405-0.198c0.153-0.051,0.323-0.076,0.509-0.076c0.528,0,0.919,0.151,1.174,0.454
		s0.382,0.752,0.382,1.346v2.925c-0.066,0.012-0.139,0.021-0.22,0.027c-0.081,0.006-0.155,0.009-0.221,0.009
		s-0.139-0.003-0.22-0.009c-0.081-0.007-0.155-0.016-0.221-0.027v-2.682c0-0.427-0.07-0.74-0.211-0.94
		c-0.141-0.201-0.355-0.302-0.644-0.302c-0.162,0-0.318,0.028-0.468,0.085c-0.15,0.058-0.282,0.147-0.396,0.271
		c-0.114,0.123-0.204,0.283-0.27,0.481c-0.066,0.198-0.099,0.438-0.099,0.72v2.367c-0.066,0.012-0.141,0.021-0.225,0.027
		c-0.084,0.006-0.159,0.009-0.225,0.009c-0.06,0-0.132-0.003-0.216-0.009c-0.084-0.007-0.159-0.016-0.225-0.027V50.846z"/>
	<path d="M44.771,57.552c-0.36,0-0.675-0.062-0.945-0.185s-0.495-0.293-0.675-0.509c-0.18-0.216-0.314-0.471-0.401-0.765
		s-0.13-0.612-0.13-0.954c0-0.343,0.043-0.66,0.13-0.954s0.221-0.549,0.401-0.766c0.18-0.216,0.405-0.387,0.675-0.513
		s0.585-0.188,0.945-0.188c0.36,0,0.675,0.062,0.945,0.188s0.495,0.297,0.675,0.513c0.18,0.217,0.313,0.472,0.4,0.766
		s0.131,0.611,0.131,0.954c0,0.342-0.044,0.66-0.131,0.954s-0.22,0.549-0.4,0.765c-0.18,0.216-0.405,0.386-0.675,0.509
		S45.131,57.552,44.771,57.552z M44.771,56.841c0.414,0,0.72-0.15,0.918-0.45c0.198-0.3,0.297-0.717,0.297-1.251
		s-0.099-0.95-0.297-1.247c-0.198-0.297-0.504-0.445-0.918-0.445c-0.414,0-0.718,0.148-0.913,0.445
		c-0.195,0.297-0.292,0.713-0.292,1.247s0.097,0.951,0.292,1.251C44.052,56.69,44.357,56.841,44.771,56.841z"/>
	<path d="M47.795,50.846c0.066-0.012,0.139-0.021,0.22-0.026s0.155-0.009,0.221-0.009s0.14,0.003,0.22,0.009
		c0.081,0.006,0.155,0.015,0.221,0.026v5.203c0,0.168,0.015,0.3,0.045,0.396c0.03,0.096,0.07,0.17,0.122,0.221
		c0.051,0.051,0.111,0.084,0.18,0.099c0.069,0.016,0.142,0.022,0.22,0.022c0.054,0,0.116-0.003,0.185-0.009s0.127-0.015,0.176-0.027
		c0.054,0.211,0.081,0.438,0.081,0.685c-0.084,0.029-0.186,0.049-0.306,0.059c-0.12,0.009-0.231,0.014-0.333,0.014
		c-0.174,0-0.336-0.021-0.486-0.063s-0.282-0.111-0.396-0.207c-0.114-0.096-0.204-0.225-0.27-0.387
		c-0.066-0.162-0.099-0.363-0.099-0.604V50.846z"/>
	<path d="M50.486,53.528H49.9c-0.012-0.048-0.021-0.104-0.027-0.166c-0.006-0.063-0.009-0.125-0.009-0.185
		c0-0.061,0.003-0.122,0.009-0.185c0.006-0.063,0.015-0.119,0.027-0.167h1.458v4.617c-0.066,0.012-0.139,0.021-0.22,0.027
		c-0.081,0.006-0.155,0.009-0.221,0.009c-0.06,0-0.13-0.003-0.211-0.009c-0.081-0.007-0.154-0.016-0.22-0.027V53.528z M50.288,51.81
		c-0.012-0.072-0.02-0.15-0.022-0.234s-0.004-0.159-0.004-0.225c0-0.066,0.001-0.142,0.004-0.226s0.01-0.158,0.022-0.225
		c0.078-0.012,0.162-0.021,0.252-0.027s0.168-0.009,0.234-0.009s0.144,0.003,0.234,0.009c0.09,0.006,0.171,0.016,0.243,0.027
		c0.012,0.066,0.02,0.141,0.022,0.225s0.005,0.159,0.005,0.226c0,0.065-0.002,0.141-0.005,0.225s-0.01,0.162-0.022,0.234
		c-0.072,0.012-0.151,0.021-0.238,0.026c-0.087,0.007-0.164,0.01-0.229,0.01c-0.072,0-0.153-0.003-0.243-0.01
		C50.45,51.83,50.366,51.821,50.288,51.81z"/>
	<path d="M55.49,50.846c0.066-0.012,0.141-0.021,0.225-0.026s0.156-0.009,0.216-0.009c0.066,0,0.14,0.003,0.22,0.009
		c0.081,0.006,0.155,0.015,0.221,0.026v6.472c-0.228,0.066-0.483,0.121-0.765,0.166c-0.282,0.046-0.597,0.068-0.945,0.068
		c-0.324,0-0.631-0.041-0.922-0.122s-0.544-0.214-0.761-0.4c-0.216-0.186-0.387-0.426-0.513-0.72
		c-0.126-0.294-0.189-0.657-0.189-1.089c0-0.372,0.056-0.711,0.167-1.018c0.111-0.306,0.269-0.568,0.473-0.787
		s0.449-0.389,0.733-0.509c0.285-0.12,0.602-0.18,0.95-0.18c0.156,0,0.313,0.012,0.473,0.036c0.159,0.023,0.298,0.054,0.418,0.09
		V50.846z M55.49,53.609c-0.12-0.048-0.249-0.084-0.387-0.108c-0.138-0.023-0.288-0.035-0.45-0.035
		c-0.246,0-0.459,0.045-0.639,0.135c-0.18,0.09-0.329,0.213-0.446,0.369c-0.117,0.155-0.204,0.34-0.261,0.553
		c-0.057,0.214-0.085,0.446-0.085,0.698c0.006,0.569,0.141,0.978,0.405,1.224s0.624,0.369,1.08,0.369c0.156,0,0.3-0.008,0.432-0.022
		c0.132-0.015,0.249-0.037,0.351-0.067V53.609z"/>
	<path d="M59.962,54.401c0-0.354-0.09-0.6-0.27-0.738c-0.18-0.138-0.441-0.207-0.783-0.207c-0.21,0-0.407,0.017-0.589,0.05
		c-0.183,0.033-0.362,0.076-0.536,0.131c-0.114-0.198-0.171-0.436-0.171-0.711c0.204-0.066,0.429-0.117,0.675-0.153
		s0.483-0.054,0.711-0.054c0.6,0,1.056,0.136,1.368,0.409s0.468,0.71,0.468,1.31v2.889c-0.21,0.048-0.465,0.098-0.765,0.148
		c-0.3,0.051-0.606,0.077-0.918,0.077c-0.294,0-0.56-0.027-0.796-0.081c-0.237-0.055-0.438-0.142-0.603-0.262
		c-0.166-0.119-0.292-0.272-0.383-0.459c-0.09-0.186-0.135-0.41-0.135-0.675c0-0.258,0.052-0.484,0.157-0.68
		c0.105-0.194,0.248-0.356,0.428-0.485c0.18-0.129,0.387-0.226,0.621-0.288c0.234-0.063,0.48-0.095,0.738-0.095
		c0.192,0,0.35,0.005,0.473,0.014c0.123,0.009,0.226,0.02,0.311,0.031V54.401z M59.962,55.274c-0.09-0.012-0.204-0.024-0.342-0.036
		s-0.255-0.018-0.351-0.018c-0.372,0-0.655,0.068-0.85,0.207c-0.195,0.138-0.292,0.348-0.292,0.63c0,0.18,0.033,0.32,0.099,0.423
		c0.066,0.102,0.148,0.18,0.248,0.234c0.099,0.054,0.208,0.087,0.329,0.099s0.234,0.018,0.342,0.018
		c0.138,0,0.281-0.007,0.428-0.022c0.147-0.015,0.277-0.037,0.392-0.067V55.274z"/>
	<path d="M63.473,57.452c-0.048,0-0.098,0.002-0.148,0.005s-0.101,0.004-0.148,0.004c-0.061,0-0.123-0.001-0.189-0.004
		c-0.065-0.003-0.12-0.008-0.161-0.014l-1.53-4.617c0.078-0.012,0.159-0.02,0.243-0.022S61.7,52.8,61.772,52.8
		c0.078,0,0.165,0.001,0.261,0.004c0.096,0.003,0.177,0.011,0.242,0.022l1.278,4.293l1.323-4.293
		c0.126-0.018,0.272-0.026,0.44-0.026c0.066,0,0.142,0.001,0.226,0.004s0.168,0.011,0.252,0.022l-1.791,5.553
		c-0.084,0.246-0.171,0.453-0.261,0.621c-0.091,0.168-0.192,0.304-0.307,0.405s-0.241,0.174-0.382,0.216
		c-0.142,0.042-0.305,0.063-0.491,0.063c-0.138,0-0.274-0.011-0.409-0.031c-0.135-0.021-0.254-0.047-0.355-0.077
		c0-0.138,0.012-0.261,0.036-0.369c0.023-0.107,0.06-0.216,0.108-0.323c0.053,0.018,0.127,0.037,0.22,0.058
		c0.093,0.021,0.193,0.032,0.302,0.032c0.078,0,0.151-0.008,0.221-0.022c0.068-0.016,0.133-0.045,0.193-0.09
		c0.06-0.046,0.115-0.11,0.166-0.194s0.101-0.197,0.148-0.342L63.473,57.452z"/>
	<path d="M66.298,56.606c0.162,0.066,0.341,0.118,0.536,0.157c0.194,0.039,0.388,0.059,0.58,0.059c0.138,0,0.271-0.015,0.396-0.045
		s0.235-0.075,0.328-0.135c0.093-0.061,0.168-0.134,0.225-0.221c0.058-0.087,0.086-0.185,0.086-0.293
		c0-0.119-0.022-0.219-0.067-0.297c-0.045-0.077-0.105-0.144-0.18-0.197c-0.075-0.055-0.162-0.101-0.262-0.14
		c-0.099-0.039-0.205-0.077-0.319-0.112l-0.314-0.117c-0.385-0.145-0.663-0.307-0.838-0.486c-0.174-0.18-0.261-0.423-0.261-0.729
		c0-0.408,0.146-0.732,0.437-0.973c0.291-0.239,0.719-0.359,1.282-0.359c0.234,0,0.464,0.022,0.688,0.067
		c0.226,0.045,0.422,0.098,0.59,0.157c-0.012,0.12-0.034,0.24-0.067,0.36s-0.073,0.23-0.121,0.333
		c-0.133-0.048-0.29-0.095-0.473-0.14c-0.184-0.045-0.38-0.067-0.59-0.067c-0.222,0-0.418,0.039-0.59,0.116
		c-0.171,0.078-0.256,0.217-0.256,0.414c0,0.103,0.021,0.189,0.062,0.262c0.042,0.071,0.1,0.133,0.171,0.185
		c0.072,0.051,0.155,0.094,0.248,0.13s0.193,0.072,0.302,0.108l0.396,0.135c0.145,0.048,0.28,0.105,0.409,0.171
		c0.129,0.066,0.24,0.148,0.333,0.248c0.094,0.099,0.168,0.219,0.226,0.359c0.057,0.142,0.085,0.311,0.085,0.509
		c0,0.222-0.045,0.425-0.135,0.607c-0.09,0.184-0.218,0.339-0.383,0.468s-0.364,0.229-0.598,0.302
		c-0.234,0.072-0.492,0.108-0.774,0.108c-0.288,0-0.54-0.02-0.756-0.059s-0.417-0.092-0.604-0.158
		c0.013-0.119,0.038-0.241,0.077-0.364S66.25,56.727,66.298,56.606z"/>
	<path d="M70.061,57.443c-0.012-0.084-0.022-0.166-0.031-0.247s-0.014-0.164-0.014-0.248s0.005-0.169,0.014-0.257
		c0.009-0.087,0.02-0.172,0.031-0.256c0.084-0.012,0.167-0.021,0.247-0.027c0.081-0.006,0.164-0.009,0.248-0.009
		s0.168,0.003,0.252,0.009s0.168,0.016,0.252,0.027c0.012,0.084,0.022,0.168,0.031,0.252s0.014,0.168,0.014,0.252
		s-0.005,0.168-0.014,0.252s-0.02,0.168-0.031,0.252c-0.084,0.012-0.166,0.021-0.247,0.027c-0.081,0.006-0.164,0.009-0.248,0.009
		s-0.168-0.003-0.252-0.009C70.229,57.464,70.145,57.455,70.061,57.443z"/>
	<path d="M74.011,50.973c0.066-0.012,0.137-0.021,0.212-0.027c0.074-0.006,0.154-0.009,0.238-0.009c0.078,0,0.156,0.003,0.233,0.009
		c0.078,0.006,0.153,0.016,0.226,0.027v5.661h2.538c0.012,0.065,0.02,0.135,0.022,0.207c0.003,0.071,0.004,0.138,0.004,0.197
		c0,0.145-0.009,0.279-0.026,0.405h-3.447V50.973z"/>
	<path d="M78.062,52.826c0.066-0.012,0.141-0.021,0.225-0.026c0.084-0.007,0.156-0.01,0.217-0.01c0.065,0,0.141,0.003,0.225,0.01
		c0.084,0.006,0.159,0.015,0.225,0.026v2.529c0,0.288,0.027,0.526,0.081,0.716c0.055,0.188,0.136,0.337,0.243,0.445
		c0.108,0.107,0.24,0.183,0.396,0.225c0.155,0.042,0.336,0.063,0.54,0.063c0.306,0,0.566-0.033,0.782-0.1v-3.879
		c0.066-0.012,0.14-0.021,0.221-0.026c0.081-0.007,0.154-0.01,0.221-0.01s0.14,0.003,0.221,0.01
		c0.081,0.006,0.154,0.015,0.221,0.026V57.3c-0.211,0.06-0.461,0.116-0.752,0.171c-0.291,0.054-0.593,0.081-0.904,0.081
		c-0.294,0-0.571-0.026-0.833-0.077c-0.261-0.051-0.49-0.154-0.688-0.311c-0.197-0.155-0.354-0.375-0.468-0.656
		c-0.114-0.282-0.171-0.654-0.171-1.116V52.826z"/>
	<path d="M86.08,56.643c0.048,0.084,0.09,0.188,0.126,0.314s0.057,0.256,0.063,0.388c-0.354,0.138-0.76,0.207-1.215,0.207
		c-0.769,0-1.348-0.218-1.737-0.653c-0.391-0.435-0.585-1.021-0.585-1.759c0-0.343,0.048-0.66,0.144-0.954s0.238-0.549,0.428-0.766
		c0.189-0.216,0.425-0.387,0.706-0.513c0.282-0.126,0.609-0.188,0.981-0.188c0.252,0,0.474,0.015,0.666,0.045
		c0.192,0.029,0.375,0.078,0.549,0.144c0,0.103-0.014,0.221-0.04,0.355c-0.027,0.135-0.064,0.254-0.112,0.355
		c-0.295-0.102-0.631-0.152-1.009-0.152c-0.462,0-0.807,0.152-1.035,0.459c-0.228,0.306-0.342,0.711-0.342,1.215
		c0,0.576,0.129,0.997,0.388,1.265c0.258,0.267,0.611,0.4,1.062,0.4c0.18,0,0.347-0.013,0.5-0.036
		C85.77,56.744,85.924,56.702,86.08,56.643z"/>
	<path d="M86.988,50.846c0.066-0.012,0.14-0.021,0.221-0.026s0.154-0.009,0.221-0.009s0.141,0.003,0.225,0.009
		s0.159,0.015,0.226,0.026v6.598c-0.066,0.012-0.142,0.021-0.226,0.027c-0.084,0.006-0.158,0.009-0.225,0.009
		s-0.14-0.003-0.221-0.009c-0.081-0.007-0.154-0.016-0.221-0.027V50.846z M88.123,55.05l1.467-2.224
		c0.078-0.012,0.156-0.021,0.233-0.026c0.078-0.007,0.159-0.01,0.243-0.01c0.09,0,0.176,0.003,0.257,0.01
		c0.081,0.006,0.163,0.015,0.247,0.026l-1.467,2.16l1.719,2.457c-0.084,0.012-0.165,0.021-0.242,0.027
		c-0.078,0.006-0.159,0.009-0.243,0.009s-0.168-0.003-0.252-0.009c-0.084-0.007-0.168-0.016-0.252-0.027L88.123,55.05z"/>
	<path d="M91.642,53.528h-0.585c-0.013-0.048-0.021-0.104-0.027-0.166c-0.006-0.063-0.009-0.125-0.009-0.185
		c0-0.061,0.003-0.122,0.009-0.185c0.006-0.063,0.015-0.119,0.027-0.167h1.458v4.617c-0.066,0.012-0.14,0.021-0.221,0.027
		c-0.081,0.006-0.154,0.009-0.221,0.009c-0.06,0-0.131-0.003-0.211-0.009c-0.081-0.007-0.155-0.016-0.221-0.027V53.528z
		 M91.443,51.81c-0.012-0.072-0.02-0.15-0.022-0.234s-0.005-0.159-0.005-0.225c0-0.066,0.002-0.142,0.005-0.226
		s0.011-0.158,0.022-0.225c0.078-0.012,0.162-0.021,0.252-0.027s0.168-0.009,0.234-0.009c0.065,0,0.144,0.003,0.233,0.009
		s0.171,0.016,0.243,0.027c0.012,0.066,0.02,0.141,0.022,0.225s0.005,0.159,0.005,0.226c0,0.065-0.002,0.141-0.005,0.225
		s-0.011,0.162-0.022,0.234c-0.072,0.012-0.151,0.021-0.238,0.026c-0.087,0.007-0.164,0.01-0.229,0.01
		c-0.072,0-0.153-0.003-0.243-0.01C91.605,51.83,91.521,51.821,91.443,51.81z"/>
	<path d="M93.667,50.846c0.065-0.012,0.14-0.021,0.221-0.026s0.154-0.009,0.22-0.009c0.066,0,0.14,0.003,0.221,0.009
		s0.154,0.015,0.221,0.026v5.203c0,0.168,0.015,0.3,0.045,0.396s0.07,0.17,0.122,0.221c0.051,0.051,0.11,0.084,0.18,0.099
		c0.068,0.016,0.143,0.022,0.221,0.022c0.054,0,0.115-0.003,0.185-0.009c0.068-0.006,0.127-0.015,0.175-0.027
		c0.055,0.211,0.081,0.438,0.081,0.685c-0.084,0.029-0.186,0.049-0.306,0.059c-0.12,0.009-0.231,0.014-0.333,0.014
		c-0.174,0-0.336-0.021-0.486-0.063c-0.149-0.042-0.282-0.111-0.396-0.207c-0.114-0.096-0.204-0.225-0.271-0.387
		c-0.065-0.162-0.099-0.363-0.099-0.604V50.846z"/>
	<path d="M97.662,57.452c-0.048,0-0.098,0.002-0.148,0.005s-0.101,0.004-0.148,0.004c-0.061,0-0.123-0.001-0.189-0.004
		c-0.065-0.003-0.12-0.008-0.161-0.014l-1.53-4.617c0.078-0.012,0.159-0.02,0.243-0.022S95.89,52.8,95.961,52.8
		c0.078,0,0.165,0.001,0.262,0.004c0.096,0.003,0.177,0.011,0.242,0.022l1.278,4.293l1.323-4.293
		c0.126-0.018,0.272-0.026,0.44-0.026c0.066,0,0.142,0.001,0.226,0.004s0.168,0.011,0.252,0.022l-1.791,5.553
		c-0.084,0.246-0.171,0.453-0.261,0.621c-0.091,0.168-0.192,0.304-0.307,0.405s-0.241,0.174-0.382,0.216
		c-0.142,0.042-0.305,0.063-0.491,0.063c-0.138,0-0.274-0.011-0.409-0.031c-0.135-0.021-0.254-0.047-0.355-0.077
		c0-0.138,0.012-0.261,0.036-0.369c0.023-0.107,0.06-0.216,0.107-0.323c0.055,0.018,0.128,0.037,0.221,0.058
		c0.093,0.021,0.193,0.032,0.302,0.032c0.078,0,0.151-0.008,0.221-0.022c0.068-0.016,0.133-0.045,0.193-0.09
		c0.06-0.046,0.115-0.11,0.166-0.194s0.101-0.197,0.148-0.342L97.662,57.452z"/>
	<path d="M18.375,61.773c0.066-0.013,0.136-0.021,0.211-0.027s0.154-0.009,0.239-0.009c0.078,0,0.156,0.003,0.234,0.009
		c0.078,0.006,0.153,0.015,0.225,0.027v5.661h2.538c0.012,0.065,0.02,0.135,0.023,0.207c0.003,0.071,0.004,0.138,0.004,0.197
		c0,0.145-0.009,0.279-0.027,0.405h-3.447V61.773z"/>
	<path d="M23.146,66.156c0.012,0.504,0.142,0.873,0.391,1.106c0.249,0.234,0.617,0.352,1.103,0.352c0.426,0,0.831-0.075,1.215-0.226
		c0.048,0.091,0.087,0.2,0.117,0.329c0.03,0.129,0.048,0.257,0.054,0.383c-0.198,0.084-0.416,0.146-0.653,0.188
		c-0.237,0.042-0.5,0.063-0.787,0.063c-0.42,0-0.78-0.059-1.08-0.176c-0.3-0.117-0.548-0.282-0.743-0.495s-0.337-0.465-0.427-0.756
		c-0.09-0.291-0.135-0.61-0.135-0.959c0-0.342,0.043-0.661,0.13-0.958s0.221-0.555,0.401-0.774c0.18-0.219,0.406-0.393,0.679-0.521
		s0.596-0.193,0.968-0.193c0.318,0,0.597,0.054,0.837,0.161c0.24,0.108,0.441,0.257,0.603,0.446
		c0.162,0.188,0.285,0.414,0.369,0.675c0.083,0.261,0.126,0.544,0.126,0.851c0,0.084-0.003,0.172-0.009,0.266
		c-0.006,0.093-0.012,0.172-0.018,0.238H23.146z M25.431,65.49c0-0.168-0.022-0.328-0.067-0.481s-0.111-0.286-0.198-0.4
		c-0.087-0.114-0.198-0.206-0.333-0.274c-0.135-0.069-0.296-0.104-0.482-0.104c-0.366,0-0.646,0.11-0.841,0.333
		c-0.195,0.222-0.313,0.53-0.355,0.927H25.431z"/>
	<path d="M27.204,63.627c0.066-0.012,0.13-0.021,0.193-0.026c0.063-0.007,0.127-0.01,0.193-0.01s0.127,0.003,0.185,0.01
		c0.057,0.006,0.118,0.015,0.185,0.026c0.018,0.09,0.036,0.212,0.054,0.364c0.018,0.153,0.027,0.281,0.027,0.383
		c0.06-0.102,0.136-0.204,0.229-0.306c0.093-0.103,0.199-0.193,0.319-0.274s0.258-0.147,0.414-0.198
		c0.156-0.051,0.327-0.076,0.513-0.076c0.528,0,0.918,0.151,1.17,0.454s0.378,0.752,0.378,1.346v2.925
		c-0.066,0.012-0.141,0.021-0.225,0.027c-0.084,0.006-0.159,0.009-0.225,0.009s-0.139-0.003-0.22-0.009
		c-0.081-0.007-0.155-0.016-0.221-0.027v-2.682c0-0.427-0.066-0.74-0.198-0.94c-0.132-0.201-0.342-0.302-0.63-0.302
		c-0.168,0-0.327,0.03-0.477,0.09s-0.282,0.153-0.396,0.279c-0.114,0.126-0.206,0.289-0.274,0.49s-0.104,0.442-0.104,0.725v2.34
		c-0.066,0.012-0.139,0.021-0.22,0.027c-0.081,0.006-0.155,0.009-0.221,0.009s-0.141-0.003-0.225-0.009
		c-0.084-0.007-0.159-0.016-0.225-0.027V63.627z"/>
	<path d="M35.088,61.647c0.066-0.013,0.141-0.021,0.225-0.027s0.156-0.009,0.216-0.009c0.066,0,0.14,0.003,0.22,0.009
		c0.081,0.006,0.155,0.015,0.221,0.027v6.471c-0.228,0.066-0.483,0.121-0.765,0.166c-0.282,0.046-0.597,0.068-0.945,0.068
		c-0.324,0-0.631-0.041-0.922-0.122s-0.544-0.214-0.761-0.4c-0.216-0.186-0.387-0.426-0.513-0.72
		c-0.126-0.294-0.189-0.657-0.189-1.089c0-0.372,0.056-0.711,0.167-1.018c0.111-0.306,0.269-0.568,0.473-0.787
		s0.449-0.389,0.733-0.509c0.285-0.12,0.602-0.18,0.95-0.18c0.156,0,0.313,0.012,0.473,0.036c0.159,0.023,0.298,0.054,0.418,0.09
		V61.647z M35.088,64.41c-0.12-0.048-0.249-0.084-0.387-0.108c-0.138-0.023-0.288-0.035-0.45-0.035
		c-0.246,0-0.459,0.045-0.639,0.135c-0.18,0.09-0.329,0.213-0.446,0.369c-0.117,0.155-0.204,0.34-0.261,0.553
		c-0.057,0.214-0.085,0.446-0.085,0.698c0.006,0.569,0.141,0.978,0.405,1.224s0.624,0.369,1.08,0.369c0.156,0,0.3-0.008,0.432-0.022
		c0.132-0.015,0.249-0.037,0.351-0.067V64.41z"/>
	<path d="M37.122,63.627c0.066-0.012,0.129-0.021,0.189-0.026c0.06-0.007,0.123-0.01,0.189-0.01c0.066,0,0.132,0.003,0.198,0.01
		c0.066,0.006,0.126,0.015,0.18,0.026c0.018,0.09,0.036,0.209,0.054,0.355c0.018,0.147,0.027,0.271,0.027,0.374
		c0.126-0.204,0.292-0.381,0.5-0.531s0.472-0.225,0.796-0.225c0.048,0,0.098,0.001,0.148,0.004s0.095,0.008,0.13,0.014
		c0.012,0.054,0.021,0.111,0.027,0.171c0.006,0.061,0.009,0.123,0.009,0.189c0,0.071-0.004,0.146-0.014,0.225
		c-0.009,0.078-0.02,0.153-0.031,0.225c-0.048-0.012-0.098-0.018-0.148-0.018c-0.051,0-0.092,0-0.122,0
		c-0.162,0-0.316,0.022-0.463,0.067c-0.147,0.045-0.279,0.125-0.396,0.238c-0.117,0.114-0.21,0.271-0.279,0.469
		c-0.069,0.197-0.104,0.453-0.104,0.765v2.295c-0.066,0.012-0.139,0.021-0.22,0.027c-0.081,0.006-0.155,0.009-0.221,0.009
		s-0.14-0.003-0.22-0.009c-0.081-0.007-0.158-0.016-0.229-0.027V63.627z"/>
	<path d="M45.123,67.443c0.048,0.084,0.09,0.188,0.126,0.314c0.036,0.126,0.057,0.256,0.063,0.388
		c-0.354,0.138-0.759,0.207-1.215,0.207c-0.768,0-1.347-0.218-1.737-0.653c-0.39-0.435-0.585-1.021-0.585-1.759
		c0-0.343,0.048-0.66,0.144-0.954c0.096-0.294,0.238-0.549,0.427-0.766c0.189-0.216,0.424-0.387,0.707-0.513
		c0.282-0.126,0.609-0.188,0.981-0.188c0.252,0,0.474,0.015,0.666,0.045c0.192,0.029,0.375,0.078,0.549,0.144
		c0,0.103-0.013,0.221-0.041,0.355c-0.027,0.135-0.064,0.254-0.112,0.355c-0.294-0.102-0.63-0.152-1.008-0.152
		c-0.462,0-0.807,0.152-1.035,0.459c-0.228,0.306-0.342,0.711-0.342,1.215c0,0.576,0.129,0.997,0.387,1.265
		c0.258,0.267,0.612,0.4,1.062,0.4c0.18,0,0.347-0.013,0.5-0.036C44.812,67.545,44.967,67.503,45.123,67.443z"/>
	<path d="M47.804,68.353c-0.36,0-0.675-0.062-0.945-0.185s-0.495-0.293-0.675-0.509c-0.18-0.216-0.314-0.471-0.401-0.765
		s-0.13-0.612-0.13-0.954c0-0.343,0.043-0.66,0.13-0.954s0.221-0.549,0.401-0.766c0.18-0.216,0.405-0.387,0.675-0.513
		s0.585-0.188,0.945-0.188c0.36,0,0.675,0.062,0.945,0.188s0.495,0.297,0.675,0.513c0.18,0.217,0.313,0.472,0.4,0.766
		s0.131,0.611,0.131,0.954c0,0.342-0.044,0.66-0.131,0.954s-0.22,0.549-0.4,0.765c-0.18,0.216-0.405,0.386-0.675,0.509
		S48.165,68.353,47.804,68.353z M47.804,67.642c0.414,0,0.72-0.15,0.918-0.45c0.198-0.3,0.297-0.717,0.297-1.251
		s-0.099-0.95-0.297-1.247c-0.198-0.297-0.504-0.445-0.918-0.445c-0.414,0-0.718,0.148-0.913,0.445
		c-0.195,0.297-0.292,0.713-0.292,1.247s0.097,0.951,0.292,1.251C47.086,67.491,47.391,67.642,47.804,67.642z"/>
	<path d="M50.847,63.627c0.066-0.012,0.13-0.021,0.193-0.026c0.063-0.007,0.127-0.01,0.193-0.01s0.127,0.003,0.185,0.01
		c0.057,0.006,0.118,0.015,0.185,0.026c0.018,0.09,0.036,0.212,0.054,0.364c0.018,0.153,0.027,0.281,0.027,0.383
		c0.06-0.102,0.136-0.204,0.229-0.306c0.093-0.103,0.199-0.193,0.319-0.274s0.258-0.147,0.414-0.198
		c0.156-0.051,0.327-0.076,0.513-0.076c0.528,0,0.918,0.151,1.17,0.454s0.378,0.752,0.378,1.346v2.925
		c-0.066,0.012-0.141,0.021-0.225,0.027c-0.084,0.006-0.159,0.009-0.225,0.009s-0.139-0.003-0.22-0.009
		c-0.081-0.007-0.155-0.016-0.221-0.027v-2.682c0-0.427-0.066-0.74-0.198-0.94c-0.132-0.201-0.342-0.302-0.63-0.302
		c-0.168,0-0.327,0.03-0.477,0.09s-0.282,0.153-0.396,0.279c-0.114,0.126-0.206,0.289-0.274,0.49s-0.104,0.442-0.104,0.725v2.34
		c-0.066,0.012-0.139,0.021-0.22,0.027c-0.081,0.006-0.155,0.009-0.221,0.009s-0.141-0.003-0.225-0.009
		c-0.084-0.007-0.159-0.016-0.225-0.027V63.627z"/>
	<path d="M55.769,63.627c0.066-0.012,0.13-0.021,0.193-0.026c0.063-0.007,0.127-0.01,0.193-0.01s0.127,0.003,0.185,0.01
		c0.057,0.006,0.118,0.015,0.185,0.026c0.018,0.09,0.036,0.212,0.054,0.364c0.018,0.153,0.027,0.281,0.027,0.383
		c0.06-0.102,0.136-0.204,0.229-0.306c0.093-0.103,0.199-0.193,0.319-0.274s0.258-0.147,0.414-0.198
		c0.156-0.051,0.327-0.076,0.513-0.076c0.528,0,0.918,0.151,1.17,0.454s0.378,0.752,0.378,1.346v2.925
		c-0.066,0.012-0.141,0.021-0.225,0.027c-0.084,0.006-0.159,0.009-0.225,0.009s-0.139-0.003-0.22-0.009
		c-0.081-0.007-0.155-0.016-0.221-0.027v-2.682c0-0.427-0.066-0.74-0.198-0.94c-0.132-0.201-0.342-0.302-0.63-0.302
		c-0.168,0-0.327,0.03-0.477,0.09s-0.282,0.153-0.396,0.279c-0.114,0.126-0.206,0.289-0.274,0.49s-0.104,0.442-0.104,0.725v2.34
		c-0.066,0.012-0.139,0.021-0.22,0.027c-0.081,0.006-0.155,0.009-0.221,0.009s-0.141-0.003-0.225-0.009
		c-0.084-0.007-0.159-0.016-0.225-0.027V63.627z"/>
	<path d="M61.358,66.156c0.012,0.504,0.142,0.873,0.391,1.106c0.249,0.234,0.616,0.352,1.103,0.352c0.426,0,0.831-0.075,1.215-0.226
		c0.048,0.091,0.087,0.2,0.117,0.329s0.048,0.257,0.054,0.383c-0.197,0.084-0.415,0.146-0.652,0.188s-0.499,0.063-0.787,0.063
		c-0.42,0-0.78-0.059-1.08-0.176c-0.3-0.117-0.548-0.282-0.743-0.495s-0.337-0.465-0.427-0.756c-0.09-0.291-0.135-0.61-0.135-0.959
		c0-0.342,0.043-0.661,0.13-0.958s0.221-0.555,0.401-0.774c0.18-0.219,0.406-0.393,0.679-0.521c0.273-0.129,0.596-0.193,0.968-0.193
		c0.317,0,0.597,0.054,0.837,0.161c0.24,0.108,0.441,0.257,0.603,0.446c0.162,0.188,0.285,0.414,0.369,0.675
		s0.126,0.544,0.126,0.851c0,0.084-0.003,0.172-0.009,0.266c-0.006,0.093-0.012,0.172-0.018,0.238H61.358z M63.644,65.49
		c0-0.168-0.022-0.328-0.067-0.481s-0.111-0.286-0.198-0.4s-0.197-0.206-0.333-0.274c-0.135-0.069-0.295-0.104-0.481-0.104
		c-0.366,0-0.646,0.11-0.841,0.333c-0.195,0.222-0.313,0.53-0.355,0.927H63.644z"/>
	<path d="M68.494,67.443c0.048,0.084,0.09,0.188,0.126,0.314s0.057,0.256,0.063,0.388c-0.354,0.138-0.76,0.207-1.215,0.207
		c-0.769,0-1.348-0.218-1.737-0.653c-0.391-0.435-0.585-1.021-0.585-1.759c0-0.343,0.048-0.66,0.144-0.954s0.238-0.549,0.428-0.766
		c0.189-0.216,0.425-0.387,0.706-0.513c0.282-0.126,0.609-0.188,0.981-0.188c0.252,0,0.474,0.015,0.666,0.045
		c0.192,0.029,0.375,0.078,0.549,0.144c0,0.103-0.014,0.221-0.04,0.355c-0.027,0.135-0.064,0.254-0.112,0.355
		c-0.295-0.102-0.631-0.152-1.009-0.152c-0.462,0-0.807,0.152-1.035,0.459c-0.228,0.306-0.342,0.711-0.342,1.215
		c0,0.576,0.129,0.997,0.388,1.265c0.258,0.267,0.611,0.4,1.062,0.4c0.18,0,0.347-0.013,0.5-0.036
		C68.184,67.545,68.338,67.503,68.494,67.443z"/>
	<path d="M69.61,64.338h-0.701l-0.036-0.126l1.548-1.728h0.072v1.143h1.17c0.023,0.103,0.035,0.216,0.035,0.342
		c0,0.066-0.003,0.13-0.009,0.189s-0.015,0.12-0.026,0.18h-1.17v2.106c0,0.252,0.01,0.453,0.031,0.603
		c0.021,0.15,0.057,0.266,0.107,0.347c0.052,0.081,0.12,0.135,0.207,0.162s0.197,0.04,0.329,0.04c0.102,0,0.198-0.007,0.288-0.022
		c0.09-0.015,0.171-0.031,0.242-0.049c0.042,0.12,0.068,0.243,0.077,0.369s0.014,0.236,0.014,0.333
		c-0.12,0.029-0.246,0.052-0.378,0.067c-0.133,0.015-0.273,0.022-0.424,0.022c-0.432,0-0.77-0.105-1.012-0.315
		c-0.243-0.21-0.365-0.558-0.365-1.044V64.338z"/>
	<path d="M73.048,66.156c0.013,0.504,0.143,0.873,0.392,1.106c0.249,0.234,0.616,0.352,1.103,0.352c0.426,0,0.831-0.075,1.215-0.226
		c0.048,0.091,0.087,0.2,0.117,0.329s0.048,0.257,0.054,0.383c-0.197,0.084-0.415,0.146-0.652,0.188s-0.499,0.063-0.787,0.063
		c-0.42,0-0.78-0.059-1.08-0.176s-0.548-0.282-0.742-0.495c-0.195-0.213-0.338-0.465-0.428-0.756s-0.135-0.61-0.135-0.959
		c0-0.342,0.043-0.661,0.13-0.958s0.221-0.555,0.4-0.774c0.181-0.219,0.406-0.393,0.68-0.521s0.596-0.193,0.968-0.193
		c0.317,0,0.597,0.054,0.837,0.161c0.24,0.108,0.441,0.257,0.603,0.446c0.162,0.188,0.285,0.414,0.369,0.675
		s0.126,0.544,0.126,0.851c0,0.084-0.003,0.172-0.009,0.266c-0.006,0.093-0.012,0.172-0.018,0.238H73.048z M75.334,65.49
		c0-0.168-0.022-0.328-0.067-0.481s-0.111-0.286-0.198-0.4s-0.197-0.206-0.333-0.274c-0.135-0.069-0.295-0.104-0.481-0.104
		c-0.366,0-0.646,0.11-0.841,0.333c-0.195,0.222-0.314,0.53-0.356,0.927H75.334z"/>
	<path d="M80.067,61.647c0.066-0.013,0.142-0.021,0.226-0.027s0.155-0.009,0.216-0.009c0.065,0,0.14,0.003,0.221,0.009
		s0.154,0.015,0.221,0.027v6.471c-0.229,0.066-0.483,0.121-0.766,0.166c-0.282,0.046-0.597,0.068-0.945,0.068
		c-0.323,0-0.631-0.041-0.922-0.122s-0.545-0.214-0.761-0.4c-0.216-0.186-0.387-0.426-0.513-0.72s-0.189-0.657-0.189-1.089
		c0-0.372,0.056-0.711,0.167-1.018c0.11-0.306,0.269-0.568,0.473-0.787c0.203-0.219,0.448-0.389,0.733-0.509
		c0.284-0.12,0.602-0.18,0.949-0.18c0.156,0,0.313,0.012,0.473,0.036c0.159,0.023,0.298,0.054,0.418,0.09V61.647z M80.067,64.41
		c-0.12-0.048-0.249-0.084-0.387-0.108c-0.138-0.023-0.288-0.035-0.45-0.035c-0.246,0-0.459,0.045-0.639,0.135
		s-0.328,0.213-0.445,0.369c-0.117,0.155-0.204,0.34-0.262,0.553c-0.057,0.214-0.085,0.446-0.085,0.698
		c0.006,0.569,0.141,0.978,0.405,1.224c0.264,0.246,0.624,0.369,1.08,0.369c0.155,0,0.3-0.008,0.432-0.022s0.249-0.037,0.351-0.067
		V64.41z"/>
	<path d="M83.956,63.627c0.066-0.012,0.131-0.021,0.193-0.026c0.063-0.007,0.128-0.01,0.194-0.01c0.065,0,0.127,0.003,0.184,0.01
		c0.058,0.006,0.119,0.015,0.185,0.026c0.019,0.09,0.036,0.209,0.055,0.355c0.018,0.147,0.026,0.271,0.026,0.374
		c0.055-0.108,0.122-0.212,0.203-0.311c0.081-0.1,0.177-0.188,0.288-0.266c0.11-0.078,0.238-0.141,0.382-0.189
		c0.145-0.048,0.303-0.071,0.478-0.071c0.359,0,0.638,0.073,0.832,0.22c0.195,0.147,0.344,0.353,0.445,0.617
		c0.061-0.103,0.134-0.204,0.221-0.307c0.087-0.102,0.185-0.191,0.293-0.27c0.107-0.078,0.23-0.141,0.369-0.189
		c0.138-0.048,0.294-0.071,0.468-0.071c0.534,0,0.922,0.149,1.165,0.449c0.243,0.301,0.365,0.744,0.365,1.332v2.943
		c-0.066,0.012-0.142,0.021-0.226,0.027c-0.084,0.006-0.159,0.009-0.225,0.009c-0.066,0-0.14-0.003-0.221-0.009
		c-0.081-0.007-0.154-0.016-0.221-0.027v-2.682c0-0.414-0.062-0.725-0.188-0.932s-0.333-0.311-0.621-0.311
		c-0.307,0-0.554,0.111-0.743,0.333c-0.188,0.222-0.283,0.549-0.283,0.98v2.61c-0.066,0.012-0.14,0.021-0.221,0.027
		c-0.081,0.006-0.154,0.009-0.22,0.009c-0.066,0-0.14-0.003-0.221-0.009c-0.081-0.007-0.155-0.016-0.221-0.027v-2.745
		c0-0.401-0.061-0.703-0.18-0.904c-0.12-0.201-0.312-0.302-0.576-0.302c-0.15,0-0.291,0.033-0.423,0.1
		c-0.133,0.065-0.248,0.165-0.347,0.297c-0.1,0.132-0.177,0.298-0.234,0.499c-0.057,0.201-0.085,0.434-0.085,0.697v2.358
		c-0.066,0.012-0.14,0.021-0.221,0.027c-0.081,0.006-0.154,0.009-0.221,0.009s-0.141-0.003-0.225-0.009
		c-0.084-0.007-0.159-0.016-0.226-0.027V63.627z"/>
	<path d="M92.028,66.156c0.013,0.504,0.143,0.873,0.392,1.106c0.249,0.234,0.616,0.352,1.103,0.352c0.426,0,0.831-0.075,1.215-0.226
		c0.048,0.091,0.087,0.2,0.117,0.329s0.048,0.257,0.054,0.383c-0.197,0.084-0.415,0.146-0.652,0.188s-0.499,0.063-0.787,0.063
		c-0.42,0-0.78-0.059-1.08-0.176s-0.548-0.282-0.742-0.495c-0.195-0.213-0.338-0.465-0.428-0.756s-0.135-0.61-0.135-0.959
		c0-0.342,0.043-0.661,0.13-0.958s0.221-0.555,0.4-0.774c0.181-0.219,0.406-0.393,0.68-0.521s0.596-0.193,0.968-0.193
		c0.317,0,0.597,0.054,0.837,0.161c0.24,0.108,0.441,0.257,0.603,0.446c0.162,0.188,0.285,0.414,0.369,0.675
		s0.126,0.544,0.126,0.851c0,0.084-0.003,0.172-0.009,0.266c-0.006,0.093-0.012,0.172-0.018,0.238H92.028z M94.314,65.49
		c0-0.168-0.022-0.328-0.067-0.481s-0.111-0.286-0.198-0.4s-0.197-0.206-0.333-0.274c-0.135-0.069-0.295-0.104-0.481-0.104
		c-0.366,0-0.646,0.11-0.841,0.333c-0.195,0.222-0.314,0.53-0.356,0.927H94.314z"/>
	<path d="M98.112,64.338h-0.701l-0.036-0.126l1.548-1.728h0.072v1.143h1.17c0.023,0.103,0.035,0.216,0.035,0.342
		c0,0.066-0.003,0.13-0.009,0.189s-0.015,0.12-0.026,0.18h-1.17v2.106c0,0.252,0.01,0.453,0.031,0.603
		c0.021,0.15,0.057,0.266,0.107,0.347c0.052,0.081,0.12,0.135,0.207,0.162s0.197,0.04,0.329,0.04c0.102,0,0.198-0.007,0.288-0.022
		c0.09-0.015,0.171-0.031,0.242-0.049c0.042,0.12,0.068,0.243,0.077,0.369s0.014,0.236,0.014,0.333
		c-0.12,0.029-0.246,0.052-0.378,0.067c-0.133,0.015-0.273,0.022-0.424,0.022c-0.432,0-0.77-0.105-1.012-0.315
		c-0.243-0.21-0.365-0.558-0.365-1.044V64.338z"/>
	<path d="M102.756,68.353c-0.359,0-0.675-0.062-0.944-0.185c-0.271-0.123-0.495-0.293-0.676-0.509
		c-0.18-0.216-0.313-0.471-0.4-0.765s-0.13-0.612-0.13-0.954c0-0.343,0.043-0.66,0.13-0.954s0.221-0.549,0.4-0.766
		c0.181-0.216,0.405-0.387,0.676-0.513c0.27-0.126,0.585-0.188,0.944-0.188c0.36,0,0.675,0.062,0.945,0.188
		c0.27,0.126,0.495,0.297,0.675,0.513c0.18,0.217,0.313,0.472,0.4,0.766s0.131,0.611,0.131,0.954c0,0.342-0.044,0.66-0.131,0.954
		s-0.221,0.549-0.4,0.765s-0.405,0.386-0.675,0.509C103.431,68.291,103.116,68.353,102.756,68.353z M102.756,67.642
		c0.414,0,0.72-0.15,0.918-0.45s0.297-0.717,0.297-1.251s-0.099-0.95-0.297-1.247s-0.504-0.445-0.918-0.445
		s-0.719,0.148-0.913,0.445c-0.195,0.297-0.293,0.713-0.293,1.247s0.098,0.951,0.293,1.251
		C102.037,67.491,102.342,67.642,102.756,67.642z"/>
	<path d="M20.706,76.002c0-0.354-0.09-0.6-0.27-0.738c-0.18-0.138-0.441-0.207-0.783-0.207c-0.21,0-0.407,0.017-0.589,0.05
		c-0.183,0.033-0.362,0.076-0.536,0.131c-0.114-0.198-0.171-0.436-0.171-0.711c0.204-0.066,0.429-0.117,0.675-0.153
		s0.483-0.054,0.711-0.054c0.6,0,1.056,0.136,1.368,0.409s0.468,0.71,0.468,1.31v2.889c-0.21,0.048-0.465,0.098-0.765,0.148
		c-0.3,0.051-0.606,0.077-0.918,0.077c-0.294,0-0.56-0.027-0.796-0.081c-0.237-0.055-0.438-0.142-0.603-0.262
		c-0.166-0.119-0.292-0.272-0.383-0.459c-0.09-0.186-0.135-0.41-0.135-0.675c0-0.258,0.052-0.484,0.157-0.68
		c0.105-0.194,0.248-0.356,0.428-0.485c0.18-0.129,0.387-0.226,0.621-0.288c0.234-0.063,0.48-0.095,0.738-0.095
		c0.192,0,0.35,0.005,0.473,0.014c0.123,0.009,0.226,0.02,0.311,0.031V76.002z M20.706,76.875c-0.09-0.012-0.204-0.024-0.342-0.036
		s-0.255-0.018-0.351-0.018c-0.372,0-0.655,0.068-0.85,0.207c-0.195,0.138-0.292,0.348-0.292,0.63c0,0.18,0.033,0.32,0.099,0.423
		c0.066,0.102,0.148,0.18,0.248,0.234c0.099,0.054,0.208,0.087,0.329,0.099s0.234,0.018,0.342,0.018
		c0.138,0,0.281-0.007,0.428-0.022c0.147-0.015,0.277-0.037,0.392-0.067V76.875z"/>
	<path d="M24.495,74.427c0.066-0.012,0.13-0.021,0.193-0.026c0.063-0.007,0.127-0.01,0.193-0.01s0.127,0.003,0.185,0.01
		c0.057,0.006,0.118,0.015,0.185,0.026c0.018,0.09,0.036,0.209,0.054,0.355c0.018,0.147,0.027,0.271,0.027,0.374
		c0.054-0.108,0.122-0.212,0.202-0.311c0.081-0.1,0.177-0.188,0.288-0.266c0.111-0.078,0.239-0.141,0.383-0.189
		c0.144-0.048,0.303-0.071,0.477-0.071c0.36,0,0.637,0.073,0.832,0.22c0.195,0.147,0.344,0.353,0.446,0.617
		c0.06-0.103,0.133-0.204,0.22-0.307c0.087-0.102,0.185-0.191,0.293-0.27c0.108-0.078,0.23-0.141,0.369-0.189
		c0.138-0.048,0.294-0.071,0.468-0.071c0.534,0,0.922,0.149,1.166,0.449c0.243,0.301,0.364,0.744,0.364,1.332v2.943
		c-0.066,0.012-0.141,0.021-0.225,0.027c-0.084,0.006-0.159,0.009-0.225,0.009c-0.066,0-0.14-0.003-0.221-0.009
		c-0.081-0.007-0.155-0.016-0.221-0.027v-2.682c0-0.414-0.063-0.725-0.189-0.932s-0.333-0.311-0.621-0.311
		c-0.306,0-0.553,0.111-0.742,0.333s-0.284,0.549-0.284,0.98v2.61c-0.066,0.012-0.139,0.021-0.22,0.027
		c-0.081,0.006-0.155,0.009-0.221,0.009s-0.14-0.003-0.221-0.009c-0.081-0.007-0.154-0.016-0.22-0.027v-2.745
		c0-0.401-0.06-0.703-0.18-0.904s-0.312-0.302-0.576-0.302c-0.15,0-0.292,0.033-0.423,0.1c-0.132,0.065-0.248,0.165-0.346,0.297
		c-0.099,0.132-0.177,0.298-0.234,0.499c-0.057,0.201-0.085,0.434-0.085,0.697v2.358c-0.066,0.012-0.139,0.021-0.22,0.027
		c-0.081,0.006-0.155,0.009-0.221,0.009s-0.141-0.003-0.225-0.009c-0.084-0.007-0.159-0.016-0.225-0.027V74.427z"/>
	<path d="M32.568,76.956c0.012,0.504,0.142,0.873,0.391,1.106c0.249,0.234,0.617,0.352,1.103,0.352c0.426,0,0.831-0.075,1.215-0.226
		c0.048,0.091,0.087,0.2,0.117,0.329c0.03,0.129,0.048,0.257,0.054,0.383c-0.198,0.084-0.416,0.146-0.653,0.188
		c-0.237,0.042-0.5,0.063-0.787,0.063c-0.42,0-0.78-0.059-1.08-0.176c-0.3-0.117-0.548-0.282-0.743-0.495s-0.337-0.465-0.427-0.756
		c-0.09-0.291-0.135-0.61-0.135-0.959c0-0.342,0.043-0.661,0.13-0.958s0.221-0.555,0.401-0.774c0.18-0.219,0.406-0.393,0.679-0.521
		s0.596-0.193,0.968-0.193c0.318,0,0.597,0.054,0.837,0.161c0.24,0.108,0.441,0.257,0.603,0.446
		c0.162,0.188,0.285,0.414,0.369,0.675c0.083,0.261,0.126,0.544,0.126,0.851c0,0.084-0.003,0.172-0.009,0.266
		c-0.006,0.093-0.012,0.172-0.018,0.238H32.568z M34.854,76.29c0-0.168-0.022-0.328-0.067-0.481s-0.111-0.286-0.198-0.4
		c-0.087-0.114-0.198-0.206-0.333-0.274c-0.135-0.069-0.296-0.104-0.482-0.104c-0.366,0-0.646,0.11-0.841,0.333
		c-0.195,0.222-0.313,0.53-0.355,0.927H34.854z"/>
	<path d="M36.626,74.427c0.066-0.012,0.13-0.021,0.193-0.026c0.063-0.007,0.127-0.01,0.193-0.01s0.127,0.003,0.185,0.01
		c0.057,0.006,0.118,0.015,0.185,0.026c0.018,0.09,0.036,0.209,0.054,0.355c0.018,0.147,0.027,0.271,0.027,0.374
		c0.054-0.108,0.122-0.212,0.202-0.311c0.081-0.1,0.177-0.188,0.288-0.266c0.111-0.078,0.239-0.141,0.383-0.189
		c0.144-0.048,0.303-0.071,0.477-0.071c0.36,0,0.637,0.073,0.832,0.22c0.195,0.147,0.344,0.353,0.446,0.617
		c0.06-0.103,0.133-0.204,0.22-0.307c0.087-0.102,0.185-0.191,0.293-0.27c0.108-0.078,0.23-0.141,0.369-0.189
		c0.138-0.048,0.294-0.071,0.468-0.071c0.534,0,0.922,0.149,1.166,0.449c0.243,0.301,0.364,0.744,0.364,1.332v2.943
		c-0.066,0.012-0.141,0.021-0.225,0.027c-0.084,0.006-0.159,0.009-0.225,0.009c-0.066,0-0.14-0.003-0.221-0.009
		c-0.081-0.007-0.155-0.016-0.221-0.027v-2.682c0-0.414-0.063-0.725-0.189-0.932s-0.333-0.311-0.621-0.311
		c-0.306,0-0.553,0.111-0.742,0.333s-0.284,0.549-0.284,0.98v2.61c-0.066,0.012-0.139,0.021-0.22,0.027
		c-0.081,0.006-0.155,0.009-0.221,0.009s-0.14-0.003-0.221-0.009c-0.081-0.007-0.154-0.016-0.22-0.027v-2.745
		c0-0.401-0.06-0.703-0.18-0.904s-0.312-0.302-0.576-0.302c-0.15,0-0.292,0.033-0.423,0.1c-0.132,0.065-0.248,0.165-0.346,0.297
		c-0.099,0.132-0.177,0.298-0.234,0.499c-0.057,0.201-0.085,0.434-0.085,0.697v2.358c-0.066,0.012-0.139,0.021-0.22,0.027
		c-0.081,0.006-0.155,0.009-0.221,0.009s-0.141-0.003-0.225-0.009c-0.084-0.007-0.159-0.016-0.225-0.027V74.427z"/>
	<path d="M44.024,72.447c0.066-0.013,0.14-0.021,0.221-0.027s0.154-0.009,0.22-0.009s0.141,0.003,0.225,0.009
		s0.159,0.015,0.225,0.027v2.538c0.108-0.181,0.276-0.336,0.504-0.469c0.228-0.132,0.504-0.197,0.828-0.197
		c0.276,0,0.531,0.045,0.765,0.135c0.234,0.09,0.435,0.229,0.603,0.418c0.168,0.189,0.299,0.43,0.392,0.721
		c0.093,0.291,0.14,0.634,0.14,1.03c0,0.792-0.224,1.411-0.67,1.858c-0.447,0.447-1.091,0.671-1.931,0.671
		c-0.264,0-0.536-0.026-0.814-0.077s-0.515-0.109-0.707-0.175V72.447z M44.916,78.297c0.108,0.036,0.224,0.062,0.347,0.076
		c0.123,0.016,0.25,0.022,0.382,0.022c0.222,0,0.427-0.034,0.616-0.104c0.189-0.068,0.353-0.174,0.491-0.314s0.248-0.321,0.329-0.54
		s0.122-0.479,0.122-0.778c0-0.498-0.087-0.885-0.261-1.161s-0.462-0.414-0.864-0.414c-0.138,0-0.275,0.022-0.41,0.067
		c-0.135,0.045-0.26,0.117-0.374,0.216c-0.114,0.1-0.206,0.231-0.274,0.396c-0.069,0.165-0.104,0.364-0.104,0.599V78.297z"/>
	<path d="M49.731,76.956c0.012,0.504,0.142,0.873,0.391,1.106c0.249,0.234,0.617,0.352,1.103,0.352c0.426,0,0.831-0.075,1.215-0.226
		c0.048,0.091,0.087,0.2,0.117,0.329c0.03,0.129,0.048,0.257,0.054,0.383c-0.198,0.084-0.416,0.146-0.653,0.188
		c-0.237,0.042-0.5,0.063-0.787,0.063c-0.42,0-0.78-0.059-1.08-0.176c-0.3-0.117-0.548-0.282-0.743-0.495s-0.337-0.465-0.427-0.756
		c-0.09-0.291-0.135-0.61-0.135-0.959c0-0.342,0.043-0.661,0.13-0.958s0.221-0.555,0.401-0.774c0.18-0.219,0.406-0.393,0.679-0.521
		s0.596-0.193,0.968-0.193c0.318,0,0.597,0.054,0.837,0.161c0.24,0.108,0.441,0.257,0.603,0.446
		c0.162,0.188,0.285,0.414,0.369,0.675c0.083,0.261,0.126,0.544,0.126,0.851c0,0.084-0.003,0.172-0.009,0.266
		c-0.006,0.093-0.012,0.172-0.018,0.238H49.731z M52.017,76.29c0-0.168-0.022-0.328-0.067-0.481s-0.111-0.286-0.198-0.4
		c-0.087-0.114-0.198-0.206-0.333-0.274c-0.135-0.069-0.296-0.104-0.482-0.104c-0.366,0-0.646,0.11-0.841,0.333
		c-0.195,0.222-0.313,0.53-0.355,0.927H52.017z"/>
	<path d="M53.79,74.427c0.066-0.012,0.129-0.021,0.189-0.026c0.06-0.007,0.123-0.01,0.189-0.01c0.066,0,0.132,0.003,0.198,0.01
		c0.066,0.006,0.126,0.015,0.18,0.026c0.018,0.09,0.036,0.209,0.054,0.355c0.018,0.147,0.027,0.271,0.027,0.374
		c0.126-0.204,0.292-0.381,0.5-0.531s0.472-0.225,0.796-0.225c0.048,0,0.098,0.001,0.148,0.004s0.095,0.008,0.13,0.014
		c0.012,0.054,0.021,0.111,0.027,0.171c0.006,0.061,0.009,0.123,0.009,0.189c0,0.071-0.004,0.146-0.014,0.225
		c-0.009,0.078-0.02,0.153-0.031,0.225c-0.048-0.012-0.098-0.018-0.148-0.018c-0.051,0-0.092,0-0.122,0
		c-0.162,0-0.316,0.022-0.463,0.067c-0.147,0.045-0.279,0.125-0.396,0.238c-0.117,0.114-0.21,0.271-0.279,0.469
		c-0.069,0.197-0.104,0.453-0.104,0.765v2.295c-0.066,0.012-0.139,0.021-0.22,0.027c-0.081,0.006-0.155,0.009-0.221,0.009
		s-0.14-0.003-0.22-0.009c-0.081-0.007-0.158-0.016-0.229-0.027V74.427z"/>
	<path d="M58.19,74.427c0.083-0.012,0.167-0.021,0.252-0.026c0.084-0.007,0.159-0.01,0.225-0.01c0.084,0,0.169,0.003,0.257,0.01
		c0.087,0.006,0.163,0.015,0.229,0.026l0.9,3.771l1.017-3.771c0.066-0.012,0.138-0.021,0.216-0.026
		c0.078-0.007,0.159-0.01,0.243-0.01c0.096,0.007,0.178,0.011,0.248,0.014c0.069,0.003,0.136,0.011,0.202,0.022l1.009,3.708
		l0.899-3.708c0.066-0.012,0.133-0.021,0.198-0.026c0.066-0.007,0.138-0.01,0.216-0.01c0.066,0,0.14,0.003,0.221,0.01
		c0.081,0.006,0.164,0.015,0.248,0.026l-1.377,4.617c-0.078,0.012-0.158,0.021-0.239,0.027c-0.081,0.006-0.154,0.009-0.22,0.009
		c-0.066,0-0.139-0.003-0.217-0.009c-0.078-0.007-0.155-0.016-0.233-0.027l-0.99-3.492l-1.035,3.492
		c-0.084,0.012-0.167,0.021-0.248,0.027c-0.081,0.006-0.154,0.009-0.22,0.009s-0.14-0.003-0.221-0.009
		c-0.081-0.007-0.154-0.016-0.22-0.027L58.19,74.427z"/>
	<path d="M65.399,72.447c0.066-0.013,0.14-0.021,0.221-0.027s0.154-0.009,0.221-0.009c0.065,0,0.141,0.003,0.225,0.009
		s0.159,0.015,0.225,0.027v2.682c0.055-0.084,0.122-0.174,0.203-0.27c0.081-0.097,0.18-0.185,0.297-0.266s0.252-0.147,0.405-0.198
		c0.152-0.051,0.322-0.076,0.508-0.076c0.528,0,0.92,0.151,1.175,0.454s0.383,0.752,0.383,1.346v2.925
		c-0.066,0.012-0.14,0.021-0.221,0.027c-0.081,0.006-0.154,0.009-0.221,0.009s-0.14-0.003-0.221-0.009
		c-0.081-0.007-0.154-0.016-0.22-0.027v-2.682c0-0.427-0.071-0.74-0.212-0.94c-0.141-0.201-0.355-0.302-0.644-0.302
		c-0.162,0-0.318,0.028-0.468,0.085c-0.15,0.058-0.282,0.147-0.396,0.271c-0.113,0.123-0.204,0.283-0.27,0.481
		c-0.066,0.198-0.1,0.438-0.1,0.72v2.367c-0.065,0.012-0.141,0.021-0.225,0.027c-0.084,0.006-0.159,0.009-0.225,0.009
		c-0.061,0-0.133-0.003-0.217-0.009c-0.084-0.007-0.158-0.016-0.225-0.027V72.447z"/>
	<path d="M72.203,79.152c-0.359,0-0.675-0.062-0.944-0.185c-0.271-0.123-0.495-0.293-0.676-0.509c-0.18-0.216-0.313-0.471-0.4-0.765
		s-0.13-0.612-0.13-0.954c0-0.343,0.043-0.66,0.13-0.954s0.221-0.549,0.4-0.766c0.181-0.216,0.405-0.387,0.676-0.513
		c0.27-0.126,0.585-0.188,0.944-0.188c0.36,0,0.675,0.062,0.945,0.188c0.27,0.126,0.495,0.297,0.675,0.513
		c0.18,0.217,0.313,0.472,0.4,0.766s0.131,0.611,0.131,0.954c0,0.342-0.044,0.66-0.131,0.954s-0.221,0.549-0.4,0.765
		s-0.405,0.386-0.675,0.509C72.878,79.091,72.563,79.152,72.203,79.152z M72.203,78.441c0.414,0,0.72-0.15,0.918-0.45
		s0.297-0.717,0.297-1.251s-0.099-0.95-0.297-1.247s-0.504-0.445-0.918-0.445s-0.719,0.148-0.913,0.445
		c-0.195,0.297-0.293,0.713-0.293,1.247s0.098,0.951,0.293,1.251C71.484,78.291,71.789,78.441,72.203,78.441z"/>
	<path d="M77.091,72.447c0.066-0.013,0.14-0.021,0.221-0.027s0.154-0.009,0.221-0.009c0.065,0,0.141,0.003,0.225,0.009
		s0.159,0.015,0.225,0.027v2.682c0.055-0.084,0.122-0.174,0.203-0.27c0.081-0.097,0.18-0.185,0.297-0.266s0.252-0.147,0.405-0.198
		c0.152-0.051,0.322-0.076,0.508-0.076c0.528,0,0.92,0.151,1.175,0.454s0.383,0.752,0.383,1.346v2.925
		c-0.066,0.012-0.14,0.021-0.221,0.027c-0.081,0.006-0.154,0.009-0.221,0.009s-0.14-0.003-0.221-0.009
		c-0.081-0.007-0.154-0.016-0.22-0.027v-2.682c0-0.427-0.071-0.74-0.212-0.94c-0.141-0.201-0.355-0.302-0.644-0.302
		c-0.162,0-0.318,0.028-0.468,0.085c-0.15,0.058-0.282,0.147-0.396,0.271c-0.113,0.123-0.204,0.283-0.27,0.481
		c-0.066,0.198-0.1,0.438-0.1,0.72v2.367c-0.065,0.012-0.141,0.021-0.225,0.027c-0.084,0.006-0.159,0.009-0.225,0.009
		c-0.061,0-0.133-0.003-0.217-0.009c-0.084-0.007-0.158-0.016-0.225-0.027V72.447z"/>
	<path d="M84.462,76.002c0-0.354-0.09-0.6-0.271-0.738c-0.18-0.138-0.44-0.207-0.782-0.207c-0.211,0-0.407,0.017-0.59,0.05
		c-0.184,0.033-0.361,0.076-0.535,0.131c-0.114-0.198-0.172-0.436-0.172-0.711c0.204-0.066,0.43-0.117,0.676-0.153
		c0.245-0.036,0.482-0.054,0.711-0.054c0.6,0,1.056,0.136,1.368,0.409c0.312,0.273,0.468,0.71,0.468,1.31v2.889
		c-0.21,0.048-0.465,0.098-0.766,0.148c-0.3,0.051-0.605,0.077-0.918,0.077c-0.294,0-0.56-0.027-0.796-0.081
		c-0.237-0.055-0.438-0.142-0.604-0.262c-0.165-0.119-0.292-0.272-0.382-0.459c-0.091-0.186-0.136-0.41-0.136-0.675
		c0-0.258,0.053-0.484,0.158-0.68c0.104-0.194,0.247-0.356,0.427-0.485c0.181-0.129,0.388-0.226,0.621-0.288
		c0.234-0.063,0.48-0.095,0.738-0.095c0.192,0,0.35,0.005,0.473,0.014s0.227,0.02,0.311,0.031V76.002z M84.462,76.875
		c-0.09-0.012-0.204-0.024-0.342-0.036c-0.139-0.012-0.256-0.018-0.352-0.018c-0.372,0-0.655,0.068-0.851,0.207
		c-0.194,0.138-0.292,0.348-0.292,0.63c0,0.18,0.032,0.32,0.099,0.423c0.066,0.102,0.148,0.18,0.248,0.234
		c0.099,0.054,0.208,0.087,0.328,0.099s0.234,0.018,0.342,0.018c0.138,0,0.28-0.007,0.428-0.022
		c0.146-0.015,0.277-0.037,0.392-0.067V76.875z"/>
	<path d="M89.358,72.447c0.066-0.013,0.142-0.021,0.226-0.027s0.155-0.009,0.216-0.009c0.065,0,0.14,0.003,0.221,0.009
		s0.154,0.015,0.221,0.027v6.471c-0.229,0.066-0.483,0.121-0.766,0.166c-0.282,0.046-0.597,0.068-0.945,0.068
		c-0.323,0-0.631-0.041-0.922-0.122s-0.545-0.214-0.761-0.4c-0.216-0.186-0.387-0.426-0.513-0.72s-0.189-0.657-0.189-1.089
		c0-0.372,0.056-0.711,0.167-1.018c0.11-0.306,0.269-0.568,0.473-0.787c0.203-0.219,0.448-0.389,0.733-0.509
		c0.284-0.12,0.602-0.18,0.949-0.18c0.156,0,0.313,0.012,0.473,0.036c0.159,0.023,0.298,0.054,0.418,0.09V72.447z M89.358,75.21
		c-0.12-0.048-0.249-0.084-0.387-0.108c-0.138-0.023-0.288-0.035-0.45-0.035c-0.246,0-0.459,0.045-0.639,0.135
		s-0.328,0.213-0.445,0.369c-0.117,0.155-0.204,0.34-0.262,0.553c-0.057,0.214-0.085,0.446-0.085,0.698
		c0.006,0.569,0.141,0.978,0.405,1.224c0.264,0.246,0.624,0.369,1.08,0.369c0.155,0,0.3-0.008,0.432-0.022s0.249-0.037,0.351-0.067
		V75.21z"/>
	<path d="M93.417,75.138h-0.701l-0.036-0.126l1.548-1.728H94.3v1.143h1.17c0.023,0.103,0.035,0.216,0.035,0.342
		c0,0.066-0.003,0.13-0.009,0.189s-0.015,0.12-0.026,0.18H94.3v2.106c0,0.252,0.01,0.453,0.031,0.603
		c0.021,0.15,0.057,0.266,0.107,0.347c0.052,0.081,0.12,0.135,0.207,0.162s0.197,0.04,0.329,0.04c0.102,0,0.198-0.007,0.288-0.022
		c0.09-0.015,0.171-0.031,0.242-0.049c0.042,0.12,0.068,0.243,0.077,0.369s0.014,0.236,0.014,0.333
		c-0.12,0.029-0.246,0.052-0.378,0.067c-0.133,0.015-0.273,0.022-0.424,0.022c-0.432,0-0.77-0.105-1.012-0.315
		c-0.243-0.21-0.365-0.558-0.365-1.044V75.138z"/>
	<path d="M96.18,72.447c0.066-0.013,0.14-0.021,0.221-0.027s0.154-0.009,0.221-0.009c0.065,0,0.141,0.003,0.225,0.009
		s0.159,0.015,0.225,0.027v2.682c0.055-0.084,0.122-0.174,0.203-0.27c0.081-0.097,0.18-0.185,0.297-0.266s0.252-0.147,0.405-0.198
		c0.152-0.051,0.322-0.076,0.508-0.076c0.528,0,0.92,0.151,1.175,0.454s0.383,0.752,0.383,1.346v2.925
		c-0.066,0.012-0.14,0.021-0.221,0.027c-0.081,0.006-0.154,0.009-0.221,0.009s-0.14-0.003-0.221-0.009
		c-0.081-0.007-0.154-0.016-0.22-0.027v-2.682c0-0.427-0.071-0.74-0.212-0.94c-0.141-0.201-0.355-0.302-0.644-0.302
		c-0.162,0-0.318,0.028-0.468,0.085c-0.15,0.058-0.282,0.147-0.396,0.271c-0.113,0.123-0.204,0.283-0.27,0.481
		c-0.066,0.198-0.1,0.438-0.1,0.72v2.367c-0.065,0.012-0.141,0.021-0.225,0.027c-0.084,0.006-0.159,0.009-0.225,0.009
		c-0.061,0-0.133-0.003-0.217-0.009c-0.084-0.007-0.158-0.016-0.225-0.027V72.447z"/>
	<path d="M101.778,76.956c0.013,0.504,0.143,0.873,0.392,1.106c0.249,0.234,0.616,0.352,1.103,0.352
		c0.426,0,0.831-0.075,1.215-0.226c0.048,0.091,0.087,0.2,0.117,0.329s0.048,0.257,0.054,0.383
		c-0.197,0.084-0.415,0.146-0.652,0.188s-0.499,0.063-0.787,0.063c-0.42,0-0.78-0.059-1.08-0.176s-0.548-0.282-0.742-0.495
		c-0.195-0.213-0.338-0.465-0.428-0.756s-0.135-0.61-0.135-0.959c0-0.342,0.043-0.661,0.13-0.958s0.221-0.555,0.4-0.774
		c0.181-0.219,0.406-0.393,0.68-0.521s0.596-0.193,0.968-0.193c0.317,0,0.597,0.054,0.837,0.161c0.24,0.108,0.441,0.257,0.603,0.446
		c0.162,0.188,0.285,0.414,0.369,0.675s0.126,0.544,0.126,0.851c0,0.084-0.003,0.172-0.009,0.266
		c-0.006,0.093-0.012,0.172-0.018,0.238H101.778z M104.064,76.29c0-0.168-0.022-0.328-0.067-0.481s-0.111-0.286-0.198-0.4
		s-0.197-0.206-0.333-0.274c-0.135-0.069-0.295-0.104-0.481-0.104c-0.366,0-0.646,0.11-0.841,0.333
		c-0.195,0.222-0.314,0.53-0.356,0.927H104.064z"/>
	<path d="M23.541,85.227c0.06-0.012,0.122-0.021,0.185-0.026c0.063-0.007,0.127-0.01,0.193-0.01c0.06,0,0.123,0.003,0.189,0.01
		c0.066,0.006,0.129,0.015,0.189,0.026c0.006,0.013,0.014,0.05,0.022,0.112c0.009,0.063,0.018,0.131,0.027,0.203
		c0.009,0.071,0.018,0.141,0.027,0.207c0.009,0.065,0.014,0.107,0.014,0.126c0.06-0.096,0.132-0.189,0.216-0.279
		s0.185-0.171,0.302-0.243c0.117-0.072,0.249-0.129,0.396-0.171c0.147-0.042,0.31-0.062,0.49-0.062c0.27,0,0.521,0.045,0.751,0.135
		s0.429,0.229,0.594,0.418c0.165,0.189,0.294,0.43,0.387,0.721c0.093,0.291,0.14,0.634,0.14,1.03c0,0.792-0.215,1.411-0.644,1.858
		c-0.429,0.447-1.037,0.671-1.822,0.671c-0.132,0-0.267-0.01-0.405-0.027s-0.258-0.042-0.36-0.072v2.115
		c-0.072,0.012-0.148,0.021-0.229,0.027c-0.081,0.006-0.155,0.009-0.221,0.009s-0.139-0.003-0.22-0.009
		c-0.081-0.007-0.155-0.016-0.221-0.027V85.227z M24.432,89.088c0.114,0.042,0.231,0.072,0.351,0.09
		c0.12,0.018,0.276,0.027,0.468,0.027c0.216,0,0.414-0.035,0.594-0.104c0.18-0.069,0.334-0.176,0.463-0.319
		c0.129-0.145,0.231-0.326,0.306-0.545c0.075-0.219,0.112-0.479,0.112-0.778c0-0.48-0.088-0.861-0.266-1.144
		c-0.177-0.281-0.466-0.423-0.868-0.423c-0.15,0-0.294,0.027-0.432,0.081c-0.138,0.054-0.261,0.135-0.369,0.243
		s-0.195,0.244-0.261,0.409c-0.066,0.165-0.099,0.362-0.099,0.59V89.088z"/>
	<path d="M28.582,85.227c0.066-0.012,0.129-0.021,0.189-0.026c0.06-0.007,0.123-0.01,0.189-0.01c0.066,0,0.132,0.003,0.198,0.01
		c0.066,0.006,0.126,0.015,0.18,0.026c0.018,0.09,0.036,0.209,0.054,0.355c0.018,0.147,0.027,0.271,0.027,0.374
		c0.126-0.204,0.292-0.381,0.5-0.531S30.39,85.2,30.714,85.2c0.048,0,0.098,0.001,0.148,0.004s0.095,0.008,0.13,0.014
		c0.012,0.054,0.021,0.111,0.027,0.171c0.006,0.061,0.009,0.123,0.009,0.189c0,0.071-0.004,0.146-0.014,0.225
		c-0.009,0.078-0.02,0.153-0.031,0.225c-0.048-0.012-0.098-0.018-0.148-0.018c-0.051,0-0.092,0-0.122,0
		c-0.162,0-0.316,0.022-0.463,0.067c-0.147,0.045-0.279,0.125-0.396,0.238c-0.117,0.114-0.21,0.271-0.279,0.469
		c-0.069,0.197-0.104,0.453-0.104,0.765v2.295c-0.066,0.012-0.139,0.021-0.22,0.027c-0.081,0.006-0.155,0.009-0.221,0.009
		s-0.14-0.003-0.22-0.009c-0.081-0.007-0.158-0.016-0.229-0.027V85.227z"/>
	<path d="M33.387,89.952c-0.36,0-0.675-0.062-0.945-0.185s-0.495-0.293-0.675-0.509c-0.18-0.216-0.314-0.471-0.401-0.765
		s-0.13-0.612-0.13-0.954c0-0.343,0.043-0.66,0.13-0.954s0.221-0.549,0.401-0.766c0.18-0.216,0.405-0.387,0.675-0.513
		s0.585-0.188,0.945-0.188c0.36,0,0.675,0.062,0.945,0.188s0.495,0.297,0.675,0.513c0.18,0.217,0.313,0.472,0.4,0.766
		s0.131,0.611,0.131,0.954c0,0.342-0.044,0.66-0.131,0.954s-0.22,0.549-0.4,0.765c-0.18,0.216-0.405,0.386-0.675,0.509
		S33.748,89.952,33.387,89.952z M33.387,89.241c0.414,0,0.72-0.15,0.918-0.45c0.198-0.3,0.297-0.717,0.297-1.251
		s-0.099-0.95-0.297-1.247c-0.198-0.297-0.504-0.445-0.918-0.445c-0.414,0-0.718,0.148-0.913,0.445
		c-0.195,0.297-0.292,0.713-0.292,1.247s0.097,0.951,0.292,1.251C32.669,89.091,32.974,89.241,33.387,89.241z"/>
	<path d="M36.42,85.227c0.06-0.012,0.122-0.021,0.185-0.026c0.063-0.007,0.127-0.01,0.193-0.01c0.06,0,0.123,0.003,0.189,0.01
		c0.066,0.006,0.129,0.015,0.189,0.026c0.006,0.013,0.014,0.05,0.022,0.112c0.009,0.063,0.018,0.131,0.027,0.203
		c0.009,0.071,0.018,0.141,0.027,0.207c0.009,0.065,0.014,0.107,0.014,0.126c0.06-0.096,0.132-0.189,0.216-0.279
		s0.185-0.171,0.302-0.243c0.117-0.072,0.249-0.129,0.396-0.171c0.147-0.042,0.31-0.062,0.49-0.062c0.27,0,0.521,0.045,0.751,0.135
		s0.429,0.229,0.594,0.418c0.165,0.189,0.294,0.43,0.387,0.721c0.093,0.291,0.14,0.634,0.14,1.03c0,0.792-0.215,1.411-0.644,1.858
		c-0.429,0.447-1.037,0.671-1.822,0.671c-0.132,0-0.267-0.01-0.405-0.027s-0.258-0.042-0.36-0.072v2.115
		c-0.072,0.012-0.148,0.021-0.229,0.027c-0.081,0.006-0.155,0.009-0.221,0.009s-0.139-0.003-0.22-0.009
		c-0.081-0.007-0.155-0.016-0.221-0.027V85.227z M37.312,89.088c0.114,0.042,0.231,0.072,0.351,0.09
		c0.12,0.018,0.276,0.027,0.468,0.027c0.216,0,0.414-0.035,0.594-0.104c0.18-0.069,0.334-0.176,0.463-0.319
		c0.129-0.145,0.231-0.326,0.306-0.545c0.075-0.219,0.112-0.479,0.112-0.778c0-0.48-0.088-0.861-0.266-1.144
		c-0.177-0.281-0.466-0.423-0.868-0.423c-0.15,0-0.294,0.027-0.432,0.081c-0.138,0.054-0.261,0.135-0.369,0.243
		s-0.195,0.244-0.261,0.409c-0.066,0.165-0.099,0.362-0.099,0.59V89.088z"/>
	<path d="M42.126,87.756c0.012,0.504,0.142,0.873,0.391,1.106c0.249,0.234,0.617,0.352,1.103,0.352c0.426,0,0.831-0.075,1.215-0.226
		c0.048,0.091,0.087,0.2,0.117,0.329c0.03,0.129,0.048,0.257,0.054,0.383c-0.198,0.084-0.416,0.146-0.653,0.188
		c-0.237,0.042-0.5,0.063-0.787,0.063c-0.42,0-0.78-0.059-1.08-0.176c-0.3-0.117-0.548-0.282-0.743-0.495s-0.337-0.465-0.427-0.756
		c-0.09-0.291-0.135-0.61-0.135-0.959c0-0.342,0.043-0.661,0.13-0.958s0.221-0.555,0.401-0.774c0.18-0.219,0.406-0.393,0.679-0.521
		s0.596-0.193,0.968-0.193c0.318,0,0.597,0.054,0.837,0.161c0.24,0.108,0.441,0.257,0.603,0.446
		c0.162,0.188,0.285,0.414,0.369,0.675c0.083,0.261,0.126,0.544,0.126,0.851c0,0.084-0.003,0.172-0.009,0.266
		c-0.006,0.093-0.012,0.172-0.018,0.238H42.126z M44.412,87.09c0-0.168-0.022-0.328-0.067-0.481s-0.111-0.286-0.198-0.4
		c-0.087-0.114-0.198-0.206-0.333-0.274c-0.135-0.069-0.296-0.104-0.482-0.104c-0.366,0-0.646,0.11-0.841,0.333
		c-0.195,0.222-0.313,0.53-0.355,0.927H44.412z"/>
	<path d="M46.186,85.227c0.066-0.012,0.129-0.021,0.189-0.026c0.06-0.007,0.123-0.01,0.189-0.01c0.066,0,0.132,0.003,0.198,0.01
		c0.066,0.006,0.126,0.015,0.18,0.026c0.018,0.09,0.036,0.209,0.054,0.355c0.018,0.147,0.027,0.271,0.027,0.374
		c0.126-0.204,0.292-0.381,0.5-0.531s0.472-0.225,0.796-0.225c0.048,0,0.098,0.001,0.148,0.004s0.095,0.008,0.13,0.014
		c0.012,0.054,0.021,0.111,0.027,0.171c0.006,0.061,0.009,0.123,0.009,0.189c0,0.071-0.004,0.146-0.014,0.225
		c-0.009,0.078-0.02,0.153-0.031,0.225c-0.048-0.012-0.098-0.018-0.148-0.018c-0.051,0-0.092,0-0.122,0
		c-0.162,0-0.316,0.022-0.463,0.067c-0.147,0.045-0.279,0.125-0.396,0.238c-0.117,0.114-0.21,0.271-0.279,0.469
		c-0.069,0.197-0.104,0.453-0.104,0.765v2.295c-0.066,0.012-0.139,0.021-0.22,0.027c-0.081,0.006-0.155,0.009-0.221,0.009
		s-0.14-0.003-0.22-0.009c-0.081-0.007-0.158-0.016-0.229-0.027V85.227z"/>
	<path d="M51.279,85.938h-0.702l-0.036-0.126l1.548-1.728h0.072v1.143h1.17c0.024,0.103,0.036,0.216,0.036,0.342
		c0,0.066-0.003,0.13-0.009,0.189c-0.006,0.06-0.015,0.12-0.027,0.18h-1.17v2.106c0,0.252,0.01,0.453,0.032,0.603
		c0.021,0.15,0.057,0.266,0.108,0.347c0.051,0.081,0.12,0.135,0.207,0.162c0.087,0.027,0.196,0.04,0.329,0.04
		c0.102,0,0.198-0.007,0.288-0.022c0.09-0.015,0.171-0.031,0.243-0.049c0.042,0.12,0.067,0.243,0.077,0.369
		c0.009,0.126,0.013,0.236,0.013,0.333c-0.12,0.029-0.246,0.052-0.378,0.067c-0.132,0.015-0.273,0.022-0.423,0.022
		c-0.432,0-0.77-0.105-1.013-0.315c-0.243-0.21-0.364-0.558-0.364-1.044V85.938z"/>
	<path d="M55.923,89.952c-0.36,0-0.675-0.062-0.945-0.185s-0.495-0.293-0.675-0.509c-0.18-0.216-0.314-0.471-0.401-0.765
		s-0.13-0.612-0.13-0.954c0-0.343,0.043-0.66,0.13-0.954s0.221-0.549,0.401-0.766c0.18-0.216,0.405-0.387,0.675-0.513
		s0.585-0.188,0.945-0.188c0.36,0,0.675,0.062,0.945,0.188s0.495,0.297,0.675,0.513c0.18,0.217,0.313,0.472,0.4,0.766
		s0.131,0.611,0.131,0.954c0,0.342-0.044,0.66-0.131,0.954s-0.22,0.549-0.4,0.765c-0.18,0.216-0.405,0.386-0.675,0.509
		S56.283,89.952,55.923,89.952z M55.923,89.241c0.414,0,0.72-0.15,0.918-0.45c0.198-0.3,0.297-0.717,0.297-1.251
		s-0.099-0.95-0.297-1.247c-0.198-0.297-0.504-0.445-0.918-0.445c-0.414,0-0.718,0.148-0.913,0.445
		c-0.195,0.297-0.292,0.713-0.292,1.247s0.097,0.951,0.292,1.251C55.205,89.091,55.509,89.241,55.923,89.241z"/>
	<path d="M60.836,89.952c-0.36,0-0.675-0.062-0.945-0.185s-0.495-0.293-0.675-0.509c-0.18-0.216-0.314-0.471-0.401-0.765
		s-0.13-0.612-0.13-0.954c0-0.343,0.043-0.66,0.13-0.954s0.221-0.549,0.401-0.766c0.18-0.216,0.405-0.387,0.675-0.513
		s0.585-0.188,0.945-0.188c0.36,0,0.675,0.062,0.945,0.188s0.496,0.297,0.675,0.513c0.18,0.217,0.312,0.472,0.4,0.766
		c0.086,0.294,0.131,0.611,0.131,0.954c0,0.342-0.045,0.66-0.131,0.954c-0.088,0.294-0.221,0.549-0.4,0.765
		s-0.405,0.386-0.675,0.509S61.197,89.952,60.836,89.952z M60.836,89.241c0.414,0,0.72-0.15,0.918-0.45
		c0.199-0.3,0.297-0.717,0.297-1.251s-0.099-0.95-0.297-1.247c-0.198-0.297-0.504-0.445-0.918-0.445
		c-0.414,0-0.718,0.148-0.913,0.445c-0.195,0.297-0.292,0.713-0.292,1.247s0.097,0.951,0.292,1.251
		C60.118,89.091,60.423,89.241,60.836,89.241z"/>
	<path d="M63.861,83.247c0.065-0.013,0.14-0.021,0.221-0.027s0.154-0.009,0.22-0.009c0.066,0,0.14,0.003,0.221,0.009
		s0.154,0.015,0.221,0.027v5.202c0,0.168,0.015,0.3,0.045,0.396s0.07,0.17,0.122,0.221c0.051,0.051,0.11,0.084,0.18,0.099
		c0.068,0.016,0.143,0.022,0.221,0.022c0.054,0,0.115-0.003,0.185-0.009c0.068-0.006,0.127-0.015,0.175-0.027
		c0.055,0.211,0.081,0.438,0.081,0.685c-0.084,0.029-0.186,0.049-0.306,0.059c-0.12,0.009-0.231,0.014-0.333,0.014
		c-0.174,0-0.336-0.021-0.486-0.063c-0.149-0.042-0.282-0.111-0.396-0.207c-0.114-0.096-0.204-0.225-0.271-0.387
		c-0.065-0.162-0.099-0.363-0.099-0.604V83.247z"/>
	<path d="M66.2,89.007c0.162,0.066,0.341,0.118,0.536,0.157c0.194,0.039,0.388,0.059,0.58,0.059c0.138,0,0.271-0.015,0.396-0.045
		s0.235-0.075,0.328-0.135c0.093-0.061,0.168-0.134,0.225-0.221c0.058-0.087,0.086-0.185,0.086-0.293
		c0-0.119-0.022-0.219-0.067-0.297c-0.045-0.077-0.105-0.144-0.18-0.197c-0.075-0.055-0.162-0.101-0.262-0.14
		c-0.099-0.039-0.205-0.077-0.319-0.112l-0.314-0.117c-0.385-0.145-0.663-0.307-0.838-0.486c-0.174-0.18-0.261-0.423-0.261-0.729
		c0-0.408,0.146-0.732,0.437-0.973c0.291-0.239,0.719-0.359,1.282-0.359c0.234,0,0.464,0.022,0.688,0.067
		c0.226,0.045,0.422,0.098,0.59,0.157c-0.012,0.12-0.034,0.24-0.067,0.36s-0.073,0.23-0.121,0.333
		c-0.133-0.048-0.29-0.095-0.473-0.14c-0.184-0.045-0.38-0.067-0.59-0.067c-0.222,0-0.418,0.039-0.59,0.116
		c-0.171,0.078-0.256,0.217-0.256,0.414c0,0.103,0.021,0.189,0.062,0.262c0.042,0.071,0.1,0.133,0.171,0.185
		c0.072,0.051,0.155,0.094,0.248,0.13s0.193,0.072,0.302,0.108l0.396,0.135c0.145,0.048,0.28,0.105,0.409,0.171
		c0.129,0.066,0.24,0.148,0.333,0.248c0.094,0.099,0.168,0.219,0.226,0.359c0.057,0.142,0.085,0.311,0.085,0.509
		c0,0.222-0.045,0.425-0.135,0.607c-0.09,0.184-0.218,0.339-0.383,0.468s-0.364,0.229-0.598,0.302
		c-0.234,0.072-0.492,0.108-0.774,0.108c-0.288,0-0.54-0.02-0.756-0.059s-0.417-0.092-0.604-0.158
		c0.013-0.119,0.038-0.241,0.077-0.364S66.152,89.127,66.2,89.007z"/>
	<path d="M72.122,85.938h-0.701l-0.036-0.126l1.548-1.728h0.072v1.143h1.17c0.023,0.103,0.035,0.216,0.035,0.342
		c0,0.066-0.003,0.13-0.009,0.189s-0.015,0.12-0.026,0.18h-1.17v2.106c0,0.252,0.01,0.453,0.031,0.603
		c0.021,0.15,0.057,0.266,0.107,0.347c0.052,0.081,0.12,0.135,0.207,0.162s0.197,0.04,0.329,0.04c0.102,0,0.198-0.007,0.288-0.022
		c0.09-0.015,0.171-0.031,0.242-0.049c0.042,0.12,0.068,0.243,0.077,0.369s0.014,0.236,0.014,0.333
		c-0.12,0.029-0.246,0.052-0.378,0.067c-0.133,0.015-0.273,0.022-0.424,0.022c-0.432,0-0.77-0.105-1.012-0.315
		c-0.243-0.21-0.365-0.558-0.365-1.044V85.938z"/>
	<path d="M76.766,89.952c-0.359,0-0.675-0.062-0.944-0.185c-0.271-0.123-0.495-0.293-0.676-0.509c-0.18-0.216-0.313-0.471-0.4-0.765
		s-0.13-0.612-0.13-0.954c0-0.343,0.043-0.66,0.13-0.954s0.221-0.549,0.4-0.766c0.181-0.216,0.405-0.387,0.676-0.513
		c0.27-0.126,0.585-0.188,0.944-0.188c0.36,0,0.675,0.062,0.945,0.188c0.27,0.126,0.495,0.297,0.675,0.513
		c0.18,0.217,0.313,0.472,0.4,0.766s0.131,0.611,0.131,0.954c0,0.342-0.044,0.66-0.131,0.954s-0.221,0.549-0.4,0.765
		s-0.405,0.386-0.675,0.509C77.44,89.891,77.126,89.952,76.766,89.952z M76.766,89.241c0.414,0,0.72-0.15,0.918-0.45
		s0.297-0.717,0.297-1.251s-0.099-0.95-0.297-1.247s-0.504-0.445-0.918-0.445s-0.719,0.148-0.913,0.445
		c-0.195,0.297-0.293,0.713-0.293,1.247s0.098,0.951,0.293,1.251C76.047,89.091,76.352,89.241,76.766,89.241z"/>
	<path d="M81.978,85.929h-0.756c-0.024-0.096-0.036-0.213-0.036-0.351c0-0.132,0.012-0.249,0.036-0.352h0.756v-0.324
		c0-0.569,0.169-1.003,0.509-1.3c0.339-0.297,0.805-0.445,1.399-0.445c0.239,0,0.457,0.015,0.652,0.045
		c0.194,0.029,0.415,0.087,0.661,0.171c0,0.138-0.021,0.269-0.062,0.392S85.043,84,84.983,84.102
		c-0.18-0.072-0.344-0.123-0.49-0.152c-0.147-0.03-0.326-0.046-0.536-0.046c-0.155,0-0.3,0.014-0.432,0.041
		s-0.246,0.078-0.342,0.153c-0.097,0.074-0.173,0.18-0.229,0.314c-0.058,0.135-0.086,0.308-0.086,0.518v0.297h2.781v4.617
		c-0.066,0.012-0.14,0.021-0.221,0.027c-0.081,0.006-0.154,0.009-0.221,0.009c-0.065,0-0.139-0.003-0.22-0.009
		c-0.081-0.007-0.155-0.016-0.221-0.027v-3.915h-1.899v3.915c-0.065,0.012-0.14,0.021-0.221,0.027
		c-0.081,0.006-0.154,0.009-0.22,0.009c-0.066,0-0.142-0.003-0.226-0.009c-0.084-0.007-0.159-0.016-0.225-0.027V85.929z"/>
	<path d="M87.503,87.45l-1.089-2.224c0.138-0.023,0.294-0.036,0.468-0.036c0.084,0,0.167,0.003,0.247,0.01
		c0.081,0.006,0.167,0.015,0.257,0.026l0.954,2.232l-1.152,2.385c-0.078,0.012-0.154,0.021-0.229,0.027
		c-0.075,0.006-0.148,0.009-0.22,0.009c-0.085,0-0.166-0.003-0.243-0.009c-0.078-0.007-0.159-0.016-0.243-0.027L87.503,87.45z
		 M88.412,87.459l0.963-2.232c0.084-0.012,0.168-0.021,0.252-0.026c0.084-0.007,0.168-0.01,0.252-0.01
		c0.162,0,0.312,0.013,0.45,0.036l-1.071,2.196l1.251,2.421c-0.084,0.012-0.165,0.021-0.243,0.027
		c-0.078,0.006-0.159,0.009-0.243,0.009c-0.161,0-0.312-0.013-0.449-0.036L88.412,87.459z"/>
	<path d="M93.236,85.929h-0.585c-0.013-0.048-0.021-0.104-0.027-0.166c-0.006-0.063-0.009-0.125-0.009-0.185
		c0-0.061,0.003-0.122,0.009-0.185c0.006-0.063,0.015-0.119,0.027-0.167h1.458v4.617c-0.066,0.012-0.14,0.021-0.221,0.027
		c-0.081,0.006-0.154,0.009-0.221,0.009c-0.06,0-0.131-0.003-0.211-0.009c-0.081-0.007-0.155-0.016-0.221-0.027V85.929z
		 M93.038,84.21c-0.012-0.072-0.02-0.15-0.022-0.234s-0.005-0.159-0.005-0.225c0-0.066,0.002-0.142,0.005-0.226
		s0.011-0.158,0.022-0.225c0.078-0.012,0.162-0.021,0.252-0.027c0.09-0.006,0.168-0.009,0.234-0.009
		c0.065,0,0.144,0.003,0.233,0.009c0.09,0.007,0.171,0.016,0.243,0.027c0.012,0.066,0.02,0.141,0.022,0.225s0.005,0.159,0.005,0.226
		c0,0.065-0.002,0.141-0.005,0.225s-0.011,0.162-0.022,0.234c-0.072,0.012-0.151,0.021-0.238,0.026
		c-0.087,0.007-0.164,0.01-0.229,0.01c-0.072,0-0.153-0.003-0.243-0.01C93.2,84.23,93.116,84.222,93.038,84.21z"/>
	<path d="M95.449,85.938h-0.701l-0.036-0.126l1.548-1.728h0.072v1.143h1.17c0.023,0.103,0.035,0.216,0.035,0.342
		c0,0.066-0.003,0.13-0.009,0.189s-0.015,0.12-0.026,0.18h-1.17v2.106c0,0.252,0.01,0.453,0.031,0.603
		c0.021,0.15,0.057,0.266,0.107,0.347c0.052,0.081,0.12,0.135,0.207,0.162s0.197,0.04,0.329,0.04c0.102,0,0.198-0.007,0.288-0.022
		c0.09-0.015,0.171-0.031,0.242-0.049c0.042,0.12,0.068,0.243,0.077,0.369s0.014,0.236,0.014,0.333
		c-0.12,0.029-0.246,0.052-0.378,0.067c-0.133,0.015-0.273,0.022-0.424,0.022c-0.432,0-0.77-0.105-1.012-0.315
		c-0.243-0.21-0.365-0.558-0.365-1.044V85.938z"/>
	<path d="M98.302,89.844c-0.012-0.084-0.021-0.166-0.026-0.247c-0.007-0.081-0.01-0.164-0.01-0.248s0.003-0.169,0.01-0.257
		c0.006-0.087,0.015-0.172,0.026-0.256c0.084-0.012,0.167-0.021,0.248-0.027s0.163-0.009,0.247-0.009s0.17,0.003,0.257,0.009
		s0.172,0.016,0.256,0.027c0.013,0.084,0.021,0.168,0.027,0.252s0.009,0.168,0.009,0.252s-0.003,0.168-0.009,0.252
		s-0.015,0.168-0.027,0.252c-0.084,0.012-0.168,0.021-0.252,0.027c-0.084,0.006-0.168,0.009-0.252,0.009s-0.168-0.003-0.252-0.009
		C98.47,89.864,98.386,89.855,98.302,89.844z M98.338,83.373c0.078-0.013,0.154-0.021,0.229-0.027s0.151-0.009,0.229-0.009
		c0.084,0,0.168,0.003,0.252,0.009s0.168,0.015,0.252,0.027l-0.054,4.526c-0.139,0.024-0.279,0.036-0.423,0.036
		c-0.162,0-0.304-0.012-0.423-0.036L98.338,83.373z"/>
</g>
</svg>
