<?xml version="1.0" encoding="utf-8"?>
<!-- Generator: Adobe Illustrator 16.0.0, SVG Export Plug-In . SVG Version: 6.00 Build 0)  -->
<!DOCTYPE svg PUBLIC "-//W3C//DTD SVG 1.1//EN" "http://www.w3.org/Graphics/SVG/1.1/DTD/svg11.dtd">
<svg version="1.1" id="Layer_1" xmlns="http://www.w3.org/2000/svg" xmlns:xlink="http://www.w3.org/1999/xlink" x="0px" y="0px"
	 width="216px" height="216px" viewBox="0 0 216 216" enable-background="new 0 0 216 216" xml:space="preserve">
<g transform="translate(1 1)">
	<g>
		<path fill="#0DB3D9" d="M178.64,64.52c-3.6-34.2-30.96-61.56-64.8-65.16C111.68-0.64,109.52-1,107-1c-2.52,0-4.68,0.36-6.84,0.36
			c-33.84,3.96-61.2,31.32-64.8,65.16c-2.52,23.04,5.76,45.72,22.32,61.56c9,8.641,14.76,18.72,16.92,28.439V197
			c0,2.16,1.439,3.6,3.6,3.6h5.4l6.48,8.641c2.88,3.6,6.84,5.76,11.52,5.76h10.8c4.68,0,9-2.16,11.52-5.76l6.48-8.641h5.4
			c2.159,0,3.6-1.439,3.6-3.6v-42.48c1.8-9.72,7.92-19.799,16.92-28.439C172.88,109.88,181.16,87.56,178.64,64.52z M92.6,89h-7.2
			c-3.96,0-7.2-3.24-7.2-7.2c0-3.96,3.24-7.2,7.2-7.2c3.96,0,7.2,3.24,7.2,7.2V89z M114.2,150.2H99.8v-54h14.4V150.2z
			 M132.199,157.4v7.199H121.4c-2.16,0-3.601,1.44-3.601,3.601s1.44,3.6,3.601,3.6h10.799v7.2h-21.6c-2.16,0-3.6,1.439-3.6,3.6
			s1.439,3.6,3.6,3.6h21.6v7.201h-3.6H85.4h-3.6v-7.201h10.8c2.16,0,3.6-1.439,3.6-3.6s-1.44-3.6-3.6-3.6H81.8v-7.2h21.6
			c2.16,0,3.6-1.439,3.6-3.6s-1.44-3.601-3.6-3.601H81.8V157.4H132.199z M118.16,204.92c-1.439,1.801-3.6,2.881-5.76,2.881h-10.8
			c-2.16,0-4.32-1.08-5.76-2.881l-3.24-4.32h28.8L118.16,204.92z M151.279,120.68c-8.999,9-15.479,19.08-18.359,29.521H121.4v-54
			h7.199c7.92,0,14.4-6.48,14.4-14.4s-6.48-14.4-14.4-14.4S114.2,73.88,114.2,81.8V89H99.8v-7.2c0-7.92-6.48-14.4-14.4-14.4
			S71,73.88,71,81.8s6.48,14.4,14.4,14.4h7.2v54H81.08c-2.88-10.44-9.36-20.521-18.36-29.521C47.6,106.28,40.4,86.12,42.56,65.24
			c3.6-30.6,28.08-55.08,58.68-58.68c1.8,0,3.6-0.36,5.76-0.36c2.161,0,3.96,0.36,5.76,0.36c30.6,3.6,55.439,28.08,58.68,58.68
			C173.6,86.12,166.4,106.28,151.279,120.68z M121.4,89v-7.2c0-3.96,3.239-7.2,7.199-7.2c3.961,0,7.201,3.24,7.201,7.2
			c0,3.96-3.24,7.2-7.201,7.2H121.4z"/>
	</g>
</g>
</svg>
