<?xml version="1.0" encoding="utf-8"?>
<!-- Generator: Adobe Illustrator 16.0.0, SVG Export Plug-In . SVG Version: 6.00 Build 0)  -->
<!DOCTYPE svg PUBLIC "-//W3C//DTD SVG 1.1//EN" "http://www.w3.org/Graphics/SVG/1.1/DTD/svg11.dtd">
<svg version="1.1" id="Layer_1" xmlns="http://www.w3.org/2000/svg" xmlns:xlink="http://www.w3.org/1999/xlink" x="0px" y="0px"
	 width="216px" height="216px" viewBox="0 0 216 216" enable-background="new 0 0 216 216" xml:space="preserve">
<g>
	<g>
		<g>
			<rect x="117.258" y="86.334" fill="#D93D4A" width="11.461" height="6.612"/>
			<rect x="168.832" y="147.607" fill="#D93D4A" width="7.054" height="12.783"/>
			<rect x="168.832" y="127.33" fill="#D93D4A" width="7.054" height="12.783"/>
			<rect x="37.469" y="184.636" fill="#D93D4A" width="94.335" height="7.054"/>
			<rect x="141.943" y="184.636" fill="#D93D4A" width="12.342" height="7.054"/>
			<rect x="128.719" y="200.506" fill="#D93D4A" width="50.252" height="7.053"/>
			<path fill="#D93D4A" d="M33.248,60.311c14.301,0,25.934-11.634,25.934-25.935c0-14.301-11.633-25.934-25.934-25.934
				c-14.3,0-25.936,11.633-25.936,25.934C7.312,48.676,18.948,60.311,33.248,60.311z M33.248,15.191
				c10.578,0,19.185,8.606,19.185,19.185c0,10.58-8.606,19.186-19.185,19.186c-10.58,0-19.186-8.606-19.186-19.186
				C14.062,23.797,22.668,15.191,33.248,15.191z"/>
			<path fill="#D93D4A" d="M206.906,46.087L194.66,33.841l-12.246,12.246l12.246,12.246L206.906,46.087z M194.66,43.385l2.702,2.702
				l-2.702,2.702l-2.702-2.702L194.66,43.385z"/>
			<path fill="#D93D4A" d="M164.128,23.527l-12.246-12.246l-12.245,12.246l12.245,12.246L164.128,23.527z M149.18,23.527
				l2.701-2.702l2.703,2.702l-2.703,2.702L149.18,23.527z"/>
			<path fill="#D93D4A" d="M204.585,167.885L174.09,70.023H41.045l-30.49,97.861H0v6.612h216v-6.612H204.585z M17.558,167.885
				l23.258-74.938h66.302v-6.612h-64.25l3.146-10.139h121.147l-28.48,91.689H17.558z M145.75,167.885l23.082-74.317v27.15h7.054
				V97.972l21.709,69.913H145.75z"/>
		</g>
	</g>
</g>
</svg>
