<?xml version="1.0" encoding="utf-8"?>
<!-- Generator: Adobe Illustrator 16.0.0, SVG Export Plug-In . SVG Version: 6.00 Build 0)  -->
<!DOCTYPE svg PUBLIC "-//W3C//DTD SVG 1.1//EN" "http://www.w3.org/Graphics/SVG/1.1/DTD/svg11.dtd">
<svg version="1.1" id="Layer_1" xmlns="http://www.w3.org/2000/svg" xmlns:xlink="http://www.w3.org/1999/xlink" x="0px" y="0px"
	 width="1633.42px" height="526.582px" viewBox="0 0 1633.42 526.582" enable-background="new 0 0 1633.42 526.582"
	 xml:space="preserve">
<g id="Layer_1_1_">
	<g>
		<path fill="#717070" d="M380.741,55.214h-622.156v21.915h622.156c53.969,0,93.147,33.751,93.147,80.163
			c0,48.151-39.011,80.161-92.537,80.161h-33.517v21.902h33.517c74.191,0,114.438-40.808,114.438-102.063
			C495.79,98.958,454.71,55.214,380.741,55.214z"/>
		<path fill="#717070" d="M165.506,433.685c-50.818,0-87.55-36.34-87.55-87.152c0-50.823,39.038-87.171,89.856-87.171h191.562
			v-21.902H167.812c-62.918,0-111.799,46.174-111.799,109.073c0,62.891,46.576,109.056,109.494,109.056h1621.335v-21.902
			L165.506,433.685L165.506,433.685z"/>
	</g>
	<path fill="none" stroke="#FFFFFF" stroke-width="2" stroke-miterlimit="10" stroke-dasharray="12,20" d="M-241.415,66.049
		c0,0,519.393,0,632.367,0c46.758,0,93.608,36.909,93.608,90.336c0,58.023-47.329,92.592-95.608,92.592
		c-104.136,0-101.866,0-224.449,0c-60.302,0-96.291,44.799-97.604,95.399c-1.356,52.259,33.958,100.375,97.604,100.375
		c125.271,0,1622.339,0,1622.339,0"/>
	<g>
		<rect x="317.924" y="55.214" fill="#717070" width="46.978" height="21.915"/>
		<rect x="321.812" y="72.246" fill="#FFFFFF" width="39.197" height="2.551"/>
		<rect x="321.812" y="67.202" fill="#FFFFFF" width="39.197" height="2.551"/>
		<rect x="321.812" y="62.158" fill="#FFFFFF" width="39.197" height="2.551"/>
		<rect x="321.812" y="57.115" fill="#FFFFFF" width="39.197" height="2.551"/>
	</g>
	<g>
		<rect x="196.478" y="237.458" fill="#717070" width="46.977" height="21.696"/>
		<rect x="200.367" y="254.318" fill="#FFFFFF" width="39.198" height="2.525"/>
		<rect x="200.367" y="249.326" fill="#FFFFFF" width="39.198" height="2.525"/>
		<rect x="200.367" y="244.333" fill="#FFFFFF" width="39.198" height="2.524"/>
		<rect x="200.367" y="239.339" fill="#FFFFFF" width="39.198" height="2.526"/>
	</g>
	<g>
		<rect x="577.504" y="433.673" fill="#717070" width="46.978" height="21.914"/>
		<rect x="581.394" y="450.703" fill="#FFFFFF" width="39.197" height="2.551"/>
		<rect x="581.394" y="445.66" fill="#FFFFFF" width="39.197" height="2.551"/>
		<rect x="581.394" y="440.616" fill="#FFFFFF" width="39.197" height="2.551"/>
		<rect x="581.394" y="435.573" fill="#FFFFFF" width="39.197" height="2.551"/>
	</g>
	<g>
		<rect x="308.355" y="2.996" fill="#717070" width="13.479" height="31.764"/>
		<g>
			<circle fill="#D93D4A" cx="315.096" cy="9.016" r="3.667"/>
			<circle fill="#F2CB15" cx="315.096" cy="18.88" r="3.667"/>
			<circle fill="#8ABE3F" cx="315.096" cy="28.741" r="3.667"/>
		</g>
		<rect x="313.263" y="33.777" fill="#717070" width="3.667" height="21.437"/>
	</g>
	<g>
		<rect x="189.738" y="186.662" fill="#717070" width="13.48" height="30.764"/>
		<g>
			<circle fill="#D93D4A" cx="196.478" cy="192.683" r="3.667"/>
			<circle fill="#F2CB15" cx="196.478" cy="202.547" r="3.667"/>
			<path fill="#8ABE3F" d="M196.478,208.741c2.025,0,3.667,1.642,3.667,3.667c0,2.025-1.642,2.667-3.667,2.667
				s-3.667-0.642-3.667-2.667C192.811,210.383,194.453,208.741,196.478,208.741z"/>
		</g>
		<rect x="194.645" y="216.444" fill="#717070" width="3.668" height="21.438"/>
	</g>
	<g>
		<rect x="569.066" y="381.453" fill="#717070" width="13.479" height="31.764"/>
		<g>
			<circle fill="#D93D4A" cx="575.806" cy="387.474" r="3.667"/>
			<circle fill="#F2CB15" cx="575.806" cy="397.338" r="3.667"/>
			<circle fill="#8ABE3F" cx="575.806" cy="407.199" r="3.667"/>
		</g>
		<rect x="573.974" y="412.235" fill="#717070" width="3.668" height="21.438"/>
	</g>
	<g>
		<rect x="1136.811" y="433.673" fill="#717070" width="46.977" height="21.914"/>
		<rect x="1140.699" y="450.703" fill="#FFFFFF" width="39.197" height="2.551"/>
		<rect x="1140.699" y="445.66" fill="#FFFFFF" width="39.197" height="2.551"/>
		<rect x="1140.699" y="440.616" fill="#FFFFFF" width="39.197" height="2.551"/>
		<rect x="1140.699" y="435.573" fill="#FFFFFF" width="39.197" height="2.551"/>
	</g>
	<g>
		<rect x="1128.372" y="381.453" fill="#717070" width="13.479" height="31.764"/>
		<g>
			<circle fill="#D93D4A" cx="1135.112" cy="387.474" r="3.667"/>
			<circle fill="#F2CB15" cx="1135.112" cy="397.338" r="3.667"/>
			<circle fill="#8ABE3F" cx="1135.112" cy="407.199" r="3.667"/>
		</g>
		<rect x="1133.279" y="412.235" fill="#717070" width="3.668" height="21.438"/>
	</g>
</g>
<g id="Layer_2">
</g>
</svg>
