<?xml version="1.0" encoding="utf-8"?>
<!-- Generator: Adobe Illustrator 16.0.0, SVG Export Plug-In . SVG Version: 6.00 Build 0)  -->
<!DOCTYPE svg PUBLIC "-//W3C//DTD SVG 1.1//EN" "http://www.w3.org/Graphics/SVG/1.1/DTD/svg11.dtd">
<svg version="1.1" id="Layer_1" xmlns="http://www.w3.org/2000/svg" xmlns:xlink="http://www.w3.org/1999/xlink" x="0px" y="0px"
	 width="1190px" height="642px" viewBox="0 0 1190 642" enable-background="new 0 0 1190 642" xml:space="preserve">
<g>
	<path fill="#717070" d="M360.669,166.946H0v19.427h360.669c47.842,0,82.57,29.919,82.57,71.062c0,42.683-34.582,71.06-82.031,71.06
		h-29.711v19.416h29.711c65.769,0,101.446-36.176,101.446-90.476C462.656,205.724,426.24,166.946,360.669,166.946z"/>
	<path fill="#717070" d="M169.871,493.582c-45.048,0-77.61-29.555-77.61-74.596c0-45.055,34.606-71.068,79.654-71.068h169.813
		v-19.417H171.915c-55.774,0-99.105,34.727-99.105,90.485c0,55.75,41.287,94.014,97.062,94.014H1190v-19.415L169.871,493.582
		L169.871,493.582z"/>
</g>
<path fill="none" stroke="#FFFFFF" stroke-width="2" stroke-miterlimit="10" stroke-dasharray="12,20" d="M0,176.551
	c0,0,269.573,0,369.721,0c41.449,0,82.978,32.719,82.978,80.08c0,51.435-41.953,82.08-84.751,82.08c-92.313,0-90.301,0-198.967,0
	c-53.455,0-85.358,33.508-86.522,78.362c-1.202,46.326,30.103,86.319,86.522,86.319c111.049,0,1021.019,0,1021.019,0"/>
<g>
	<rect x="304.984" y="166.946" fill="#717070" width="41.645" height="19.427"/>
	<rect x="308.43" y="182.044" fill="#FFFFFF" width="34.746" height="2.261"/>
	<rect x="308.43" y="177.573" fill="#FFFFFF" width="34.746" height="2.261"/>
	<rect x="308.43" y="173.103" fill="#FFFFFF" width="34.746" height="2.261"/>
	<rect x="308.43" y="168.631" fill="#FFFFFF" width="34.746" height="2.261"/>
</g>
<g>
	<rect x="170.326" y="328.5" fill="#717070" width="41.644" height="19.232"/>
	<rect x="173.774" y="343.446" fill="#FFFFFF" width="34.747" height="2.235"/>
	<rect x="173.774" y="339.021" fill="#FFFFFF" width="34.747" height="2.237"/>
	<rect x="173.774" y="334.594" fill="#FFFFFF" width="34.747" height="2.237"/>
	<rect x="173.774" y="330.166" fill="#FFFFFF" width="34.747" height="2.24"/>
</g>
<g>
	<rect x="435.509" y="493.572" fill="#717070" width="41.647" height="19.427"/>
	<rect x="438.958" y="508.669" fill="#FFFFFF" width="34.746" height="2.261"/>
	<rect x="438.958" y="504.198" fill="#FFFFFF" width="34.746" height="2.262"/>
	<rect x="438.958" y="499.727" fill="#FFFFFF" width="34.746" height="2.264"/>
	<rect x="438.958" y="495.258" fill="#FFFFFF" width="34.746" height="2.26"/>
</g>
<g>
	<rect x="296.501" y="120.657" fill="#717070" width="11.949" height="28.158"/>
	<g>
		<circle fill="#D93D4A" cx="302.477" cy="125.994" r="3.25"/>
		<circle fill="#F2CB15" cx="302.477" cy="134.738" r="3.251"/>
		<circle fill="#8ABE3F" cx="302.477" cy="143.479" r="3.251"/>
	</g>
	<rect x="300.853" y="147.943" fill="#717070" width="3.251" height="19.003"/>
</g>
<g>
	<rect x="164.352" y="283.47" fill="#717070" width="11.949" height="27.271"/>
	<g>
		<circle fill="#D93D4A" cx="170.326" cy="288.808" r="3.25"/>
		<circle fill="#F2CB15" cx="170.326" cy="297.552" r="3.251"/>
		<path fill="#8ABE3F" d="M170.326,303.042c1.795,0,3.25,1.456,3.25,3.252c0,1.794-1.456,2.363-3.25,2.363s-3.25-0.568-3.25-2.363
			C167.076,304.498,168.531,303.042,170.326,303.042z"/>
	</g>
	<rect x="168.701" y="309.87" fill="#717070" width="3.252" height="19.004"/>
</g>
<g>
	<rect x="428.031" y="447.281" fill="#717070" width="11.947" height="28.157"/>
	<g>
		<circle fill="#D93D4A" cx="434.004" cy="452.618" r="3.251"/>
		<circle fill="#F2CB15" cx="434.004" cy="461.362" r="3.251"/>
		<circle fill="#8ABE3F" cx="434.004" cy="470.104" r="3.25"/>
	</g>
	<rect x="432.38" y="474.569" fill="#717070" width="3.252" height="19.003"/>
</g>
<g>
	<rect x="916.727" y="493.572" fill="#717070" width="41.646" height="19.427"/>
	<rect x="920.175" y="508.669" fill="#FFFFFF" width="34.748" height="2.261"/>
	<rect x="920.175" y="504.198" fill="#FFFFFF" width="34.748" height="2.262"/>
	<rect x="920.175" y="499.727" fill="#FFFFFF" width="34.748" height="2.264"/>
	<rect x="920.175" y="495.258" fill="#FFFFFF" width="34.748" height="2.26"/>
</g>
<g>
	<rect x="909.249" y="447.281" fill="#717070" width="11.946" height="28.157"/>
	<g>
		<circle fill="#D93D4A" cx="915.223" cy="452.618" r="3.251"/>
		<circle fill="#F2CB15" cx="915.223" cy="461.362" r="3.251"/>
		<circle fill="#8ABE3F" cx="915.223" cy="470.104" r="3.25"/>
	</g>
	<rect x="913.597" y="474.569" fill="#717070" width="3.253" height="19.003"/>
</g>
</svg>
