<?xml version="1.0" encoding="utf-8"?>
<!-- Generator: Adobe Illustrator 16.0.0, SVG Export Plug-In . SVG Version: 6.00 Build 0)  -->
<!DOCTYPE svg PUBLIC "-//W3C//DTD SVG 1.1//EN" "http://www.w3.org/Graphics/SVG/1.1/DTD/svg11.dtd">
<svg version="1.1" id="Layer_1" xmlns="http://www.w3.org/2000/svg" xmlns:xlink="http://www.w3.org/1999/xlink" x="0px" y="0px"
	 width="888px" height="398.692px" viewBox="0 0 888 398.692" enable-background="new 0 0 888 398.692" xml:space="preserve">
<g>
	<g>
		<path fill="#706F6F" d="M596.143,54.602H-10v19.01h606.143c44.075,0,79.934,16.864,79.934,60.946
			c0,44.082-35.858,66.945-79.934,66.945H326.996v18.999h269.146c54.552,0,98.933-31.387,98.933-85.944
			C695.075,79.993,650.694,54.602,596.143,54.602z"/>
		<path fill="#706F6F" d="M180.87,357.399c-44.082,0-79.945-25.86-79.945-69.938c0-44.087,35.863-66.954,79.945-66.954h156.135
			v-18.999H180.87c-54.578,0-98.98,31.391-98.98,85.953c0,54.555,44.402,88.938,98.98,88.938H888v-18.999H180.87z"/>
	</g>
	<path fill="none" stroke="#FFFFFF" stroke-width="2" stroke-miterlimit="10" stroke-dasharray="12,20" d="M-10,64c0,0,517,0,615,0
		c44.334,0,80.946,25.225,80.334,69.771C684.714,178.97,645.708,211.5,605,211.5c-90.333,0-322.667,0-429,0
		c-52.31,0-83.527,30.197-84.667,74.092C90.157,330.924,120.791,367,176,367c108.667,0,712,0,712,0"/>
	<g>
		<rect x="421.582" y="54.602" fill="#706F6F" width="40.75" height="19.01"/>
		<rect x="424.956" y="69.375" fill="#FFFFFF" width="34.002" height="2.213"/>
		<rect x="424.956" y="65" fill="#FFFFFF" width="34.002" height="2.213"/>
		<rect x="424.956" y="60.625" fill="#FFFFFF" width="34.002" height="2.213"/>
		<rect x="424.956" y="56.25" fill="#FFFFFF" width="34.002" height="2.213"/>
	</g>
	<g>
		<rect x="222.292" y="201.495" fill="#706F6F" width="40.75" height="19.01"/>
		<rect x="225.666" y="216.269" fill="#FFFFFF" width="34.002" height="2.213"/>
		<rect x="225.666" y="211.894" fill="#FFFFFF" width="34.002" height="2.213"/>
		<rect x="225.666" y="207.519" fill="#FFFFFF" width="34.002" height="2.213"/>
		<rect x="225.666" y="203.144" fill="#FFFFFF" width="34.002" height="2.213"/>
	</g>
	<g>
		<rect x="562.292" y="357.495" fill="#706F6F" width="40.75" height="19.01"/>
		<rect x="565.666" y="372.269" fill="#FFFFFF" width="34.002" height="2.213"/>
		<rect x="565.666" y="367.894" fill="#FFFFFF" width="34.002" height="2.213"/>
		<rect x="565.666" y="363.519" fill="#FFFFFF" width="34.002" height="2.213"/>
		<rect x="565.666" y="359.144" fill="#FFFFFF" width="34.002" height="2.213"/>
	</g>
	<g>
		<rect x="413.282" y="9.304" fill="#706F6F" width="11.693" height="27.554"/>
		<g>
			<circle fill="#D93D4A" cx="419.129" cy="14.526" r="3.181"/>
			<circle fill="#F2CB05" cx="419.129" cy="23.083" r="3.181"/>
			<circle fill="#8BBE33" cx="419.129" cy="31.637" r="3.181"/>
		</g>
		<rect x="417.539" y="36.006" fill="#706F6F" width="3.182" height="18.596"/>
	</g>
	<g>
		<rect x="216.445" y="156.754" fill="#706F6F" width="11.693" height="27.553"/>
		<g>
			<circle fill="#D93D4A" cx="222.292" cy="161.977" r="3.181"/>
			<circle fill="#F2CB05" cx="222.292" cy="170.533" r="3.181"/>
			<circle fill="#8BBE33" cx="222.292" cy="179.088" r="3.181"/>
		</g>
		<rect x="220.702" y="183.456" fill="#706F6F" width="3.182" height="18.596"/>
	</g>
	<g>
		<rect x="554.973" y="312.197" fill="#706F6F" width="11.693" height="27.554"/>
		<g>
			<circle fill="#D93D4A" cx="560.819" cy="317.42" r="3.181"/>
			<circle fill="#F2CB05" cx="560.819" cy="325.977" r="3.181"/>
			<circle fill="#8BBE33" cx="560.819" cy="334.531" r="3.181"/>
		</g>
		<rect x="559.229" y="338.899" fill="#706F6F" width="3.182" height="18.596"/>
	</g>
</g>
</svg>
