<?xml version="1.0" encoding="utf-8"?>
<!-- Generator: Adobe Illustrator 16.0.0, SVG Export Plug-In . SVG Version: 6.00 Build 0)  -->
<!DOCTYPE svg PUBLIC "-//W3C//DTD SVG 1.1//EN" "http://www.w3.org/Graphics/SVG/1.1/DTD/svg11.dtd">
<svg version="1.1" id="Layer_1" xmlns="http://www.w3.org/2000/svg" xmlns:xlink="http://www.w3.org/1999/xlink" x="0px" y="0px"
	 width="127px" height="108px" viewBox="329.5 0 127 108" enable-background="new 329.5 0 127 108" xml:space="preserve">
<g>
	<g>
		<path fill="#8BBE33" d="M392.559,58.304c-0.84-0.841-2.202-0.841-3.042-0.001l-1.278,1.277c-0.84,0.841-0.84,2.203,0,3.043
			c0.42,0.42,0.971,0.631,1.521,0.631c0.551,0,1.101-0.211,1.521-0.63l1.278-1.278C393.398,60.506,393.398,59.144,392.559,58.304z"
			/>
	</g>
</g>
<g>
	<g>
		<path fill="#8BBE33" d="M440.4,15.37c-0.325-0.595-0.911-1.002-1.582-1.098c-0.67-0.096-1.349,0.129-1.828,0.608l-19.052,19.053
			l-7.875-7.875l19.053-19.053c0.479-0.479,0.704-1.156,0.608-1.828c-0.097-0.671-0.504-1.257-1.099-1.582
			c-5.481-2.994-11.926-4.175-18.146-3.328c-6.431,0.876-12.261,3.771-16.86,8.372c-5.575,5.574-8.645,12.986-8.645,20.869
			c0,2.188,0.237,4.339,0.698,6.425l-45.039,45.04c-6.173,6.172-6.173,16.217,0,22.39c2.991,2.991,6.966,4.638,11.195,4.638
			s8.205-1.646,11.196-4.637l45.054-45.055c2.109,0.466,4.26,0.699,6.41,0.699c7.558,0,15.115-2.877,20.869-8.63
			c4.601-4.6,7.495-10.431,8.371-16.86C444.576,27.297,443.395,20.852,440.4,15.37z M359.981,100.32
			c-2.177,2.178-5.073,3.377-8.153,3.377s-5.975-1.199-8.152-3.377c-4.496-4.496-4.496-11.811,0-16.305l43.437-43.438
			c0.595,1.472,1.311,2.895,2.141,4.256L347.57,86.519c-2.731,2.731-2.731,7.177,0,9.908c1.366,1.366,3.16,2.049,4.954,2.049
			c1.793,0,3.588-0.683,4.954-2.049l27.232-27.231c0.84-0.841,0.84-2.203,0-3.043c-0.84-0.84-2.203-0.84-3.043,0l-27.232,27.232
			c-1.054,1.054-2.769,1.053-3.823,0c-1.054-1.055-1.054-2.77,0-3.823l41.183-41.182c0.574,0.689,1.182,1.356,1.823,1.999
			c2.892,2.891,6.238,5.056,9.812,6.493L359.981,100.32z M432.314,47.335c-9.83,9.829-25.823,9.829-35.653,0
			c-4.762-4.762-7.384-11.093-7.384-17.827s2.622-13.065,7.384-17.827c4.829-4.829,11.331-7.36,17.89-7.36
			c3.169,0,6.352,0.592,9.363,1.8L405.5,24.536c-0.84,0.84-0.84,2.203,0,3.042l10.917,10.917c0.403,0.403,0.95,0.63,1.521,0.63
			c0.57,0,1.117-0.227,1.521-0.63l18.413-18.415C441.584,29.325,439.478,40.172,432.314,47.335z"/>
	</g>
</g>
</svg>
